<svg width="59" height="60" viewBox="0 0 59 60" fill="none" xmlns="http://www.w3.org/2000/svg">
<rect y="0.988281" width="58.6447" height="58.6447" rx="6.79938" fill="#33357D"/>
<path d="M18.3867 39.6872H40.2617V41.2497H18.3867V39.6872ZM37.918 26.4059C38.1252 26.4059 38.3239 26.3236 38.4704 26.1771C38.6169 26.0306 38.6992 25.8319 38.6992 25.6247V23.2809C38.6992 23.1204 38.6496 22.9637 38.5574 22.8323C38.4651 22.7009 38.3346 22.6011 38.1836 22.5465L29.5898 19.4215C29.4182 19.3595 29.2302 19.3595 29.0586 19.4215L20.4648 22.5465C20.3139 22.6011 20.1833 22.7009 20.0911 22.8323C19.9988 22.9637 19.9493 23.1204 19.9492 23.2809V25.6247C19.9492 25.8319 20.0315 26.0306 20.178 26.1771C20.3246 26.3236 20.5233 26.4059 20.7305 26.4059H21.5117V36.5622H19.9492V38.1247H38.6992V36.5622H37.1367V26.4059H37.918ZM21.5117 23.8278L29.3242 20.984L37.1367 23.8278V24.8434H21.5117V23.8278ZM30.8867 36.5622H27.7617V26.4059H30.8867V36.5622ZM23.0742 26.4059H26.1992V36.5622H23.0742V26.4059ZM35.5742 36.5622H32.4492V26.4059H35.5742V36.5622Z" fill="white"/>
</svg>
