<svg width="59" height="59" viewBox="0 0 59 59" fill="none" xmlns="http://www.w3.org/2000/svg">
<rect width="58.6447" height="58.6447" rx="6.79938" fill="#33357D"/>
<path d="M37.1621 27.4046L36.4187 26.897C37.2886 25.6158 37.7951 24.1229 37.8845 22.5769C37.9739 21.0309 37.6427 19.4895 36.9263 18.1166L36.7751 17.8412L37.5599 17.3984L37.7219 17.699C38.5146 19.2162 38.8814 20.9199 38.7831 22.6289C38.6848 24.3379 38.1235 25.9883 37.1621 27.4046ZM39.2375 40.2404V41.0234H19.4375V40.2404H23.9159L26.7041 27.3434C26.7473 27.1421 26.8583 26.9617 27.0185 26.8323C27.1787 26.7029 27.3784 26.6324 27.5843 26.6324H28.8893V24.107C28.4404 24.0027 28.0396 23.7503 27.7516 23.3905C27.4636 23.0307 27.3051 22.5843 27.3017 22.1234C27.2935 21.8449 27.3413 21.5676 27.4422 21.3079C27.5432 21.0481 27.6952 20.8113 27.8893 20.6114C28.0834 20.4115 28.3157 20.2526 28.5723 20.1441C28.8289 20.0355 29.1048 19.9796 29.3834 19.9796C29.662 19.9796 29.9379 20.0355 30.1945 20.1441C30.4511 20.2526 30.6834 20.4115 30.8775 20.6114C31.0716 20.8113 31.2236 21.0481 31.3246 21.3079C31.4255 21.5676 31.4733 21.8449 31.4651 22.1234C31.4611 22.5991 31.292 23.0587 30.9867 23.4235C30.6813 23.7883 30.2587 24.0356 29.7911 24.1232V26.6342H31.0889C31.2949 26.6337 31.4948 26.7038 31.6553 26.8329C31.8158 26.9619 31.9272 27.1421 31.9709 27.3434L34.7555 40.2404H39.2375ZM31.0421 31.5752H27.6329L27.0515 34.2626H31.6253L31.0421 31.5752ZM26.8553 35.1626L26.2739 37.8536H32.3993L31.8179 35.1626H26.8553ZM28.3097 28.4342L27.8237 30.6752H30.8477L30.3635 28.4342H28.3097ZM25.7573 40.2422H32.9159L32.5937 38.7536H26.0777L25.7573 40.2422ZM25.2029 24.8468C24.6651 24.0305 24.3808 23.0733 24.386 22.0957C24.3911 21.1181 24.6854 20.1639 25.2317 19.3532L24.4865 18.8492C23.8402 19.8071 23.4921 20.9349 23.486 22.0904C23.4799 23.2458 23.8162 24.3772 24.4523 25.3418L25.2029 24.8468ZM35.1875 22.1234C35.1886 20.9809 34.8544 19.8631 34.2263 18.9086L33.4739 19.4036C34.0104 20.22 34.2936 21.1767 34.2878 22.1535C34.2821 23.1304 33.9876 24.0837 33.4415 24.8936L34.1867 25.394C34.8403 24.4286 35.1889 23.2893 35.1875 22.1234ZM22.1861 26.8358C21.3145 25.5111 20.8274 23.9706 20.7787 22.3856C20.7301 20.8006 21.122 19.2331 21.9107 17.8574L21.1313 17.4074C20.2591 18.9282 19.826 20.6611 19.88 22.4133C19.934 24.1656 20.4731 25.8685 21.4373 27.3326L22.1861 26.8358Z" fill="white"/>
</svg>
