<svg width="59" height="60" viewBox="0 0 59 60" fill="none" xmlns="http://www.w3.org/2000/svg">
<rect y="0.996094" width="58.6447" height="58.6447" rx="6.79938" fill="#33357D"/>
<path d="M21.0013 35.387H18.7767C18.6952 35.3871 18.6144 35.3712 18.5391 35.3401C18.4637 35.3089 18.3953 35.2632 18.3376 35.2056C18.28 35.148 18.2343 35.0795 18.2032 35.0041C18.172 34.9288 18.1561 34.848 18.1563 34.7665V20.4955C18.1563 20.1511 18.433 19.875 18.7767 19.875H39.873C40.2174 19.875 40.4935 20.1517 40.4935 20.4955V34.7665C40.4935 35.1109 40.2168 35.387 39.873 35.387H30.6879" stroke="white" stroke-linecap="round" stroke-linejoin="round"/>
<path d="M25.9377 32.1293C27.9938 32.1293 29.6606 30.4626 29.6606 28.4065C29.6606 26.3504 27.9938 24.6836 25.9377 24.6836C23.8816 24.6836 22.2148 26.3504 22.2148 28.4065C22.2148 30.4626 23.8816 32.1293 25.9377 32.1293Z" stroke="white" stroke-linecap="round" stroke-linejoin="round"/>
<path d="M25.4721 19.875V24.7126M32.7723 19.875V35.387M40.4935 27.6307H29.5835M18.1562 27.6307H22.2561M32.8139 31.4424H40.4935M19.6969 40.7695H32.0309C32.6327 30.4099 19.1948 29.9676 19.6969 40.7695Z" stroke="white" stroke-linecap="round" stroke-linejoin="round"/>
</svg>
