<svg width="59" height="60" viewBox="0 0 59 60" fill="none" xmlns="http://www.w3.org/2000/svg">
<rect y="0.996094" width="58.6447" height="58.6447" rx="6.79938" fill="white"/>
<path d="M38.3242 35.3203V26.3203H24.3242V35.3203H38.3242ZM38.3242 21.3203C38.8547 21.3203 39.3634 21.531 39.7384 21.9061C40.1135 22.2812 40.3242 22.7899 40.3242 23.3203V35.3203C40.3242 35.8507 40.1135 36.3595 39.7384 36.7345C39.3634 37.1096 38.8547 37.3203 38.3242 37.3203H24.3242C23.7938 37.3203 23.2851 37.1096 22.91 36.7345C22.5349 36.3595 22.3242 35.8507 22.3242 35.3203V23.3203C22.3242 22.7899 22.5349 22.2812 22.91 21.9061C23.2851 21.531 23.7938 21.3203 24.3242 21.3203H25.3242V19.3203H27.3242V21.3203H35.3242V19.3203H37.3242V21.3203H38.3242ZM34.8542 29.3803L30.4142 33.8203L27.7342 31.1403L28.7942 30.0803L30.4142 31.7003L33.7942 28.3203L34.8542 29.3803ZM20.3242 39.3203H34.3242V41.3203H20.3242C19.7938 41.3203 19.2851 41.1096 18.91 40.7345C18.5349 40.3595 18.3242 39.8507 18.3242 39.3203V27.3203H20.3242V39.3203Z" fill="#33357D"/>
</svg>
