<svg width="59" height="60" viewBox="0 0 59 60" fill="none" xmlns="http://www.w3.org/2000/svg">
<rect y="0.992188" width="58.6447" height="58.6447" rx="6.79938" fill="white"/>
<g clip-path="url(#clip0_4255_35972)">
<path d="M42.8602 27.3466C42.8595 27.3454 42.859 27.3441 42.8583 27.3429L39.9889 22.608C39.3371 21.5318 38.1504 20.8633 36.8918 20.8633H26.2181C24.9804 20.8633 23.842 21.4845 23.1728 22.5247L20.1579 27.2085L16.5129 29.0305C15.8351 29.3694 15.4141 30.0508 15.4141 30.8086V34.6197C15.4141 35.1693 15.6447 35.6994 16.0468 36.0739L16.8162 36.7911C17.1856 37.135 17.6669 37.3243 18.1713 37.3243H19.0087C19.2652 38.7145 20.4856 39.7712 21.9489 39.7712C23.4122 39.7712 24.6325 38.7145 24.8891 37.3243H27.3084C27.6085 37.3243 27.8519 37.0809 27.8519 36.7808C27.8519 36.4807 27.6085 36.2373 27.3084 36.2373H24.8903C24.6327 34.8389 23.3702 33.7898 21.9488 33.7898C20.5269 33.7898 19.2652 34.8402 19.0079 36.2373H18.1713C17.9426 36.2373 17.7243 36.1514 17.5571 35.9957L16.7879 35.2787C16.6056 35.1089 16.5011 34.8687 16.5011 34.6197V34.3543H17.4934C18.3606 34.3543 19.0661 33.6488 19.0661 32.7816V32.2749C19.0661 31.4078 18.3606 30.7022 17.4934 30.7022H16.5077C16.5427 30.4024 16.724 30.1403 16.999 30.0028L20.6629 28.1714H26.8879C27.508 28.1714 28.0124 27.6669 28.0124 27.0469V24.3434C28.0124 23.7234 27.508 23.2189 26.8879 23.2189H24.0188L24.087 23.113C24.5553 22.385 25.3519 21.9504 26.2181 21.9504H36.8917C37.7121 21.9504 38.4884 22.3564 38.9596 23.0206H38.8054C38.1854 23.0206 37.681 23.525 37.681 24.145V27.0436C37.681 27.6637 38.1854 28.1681 38.8054 28.1681H42.0549C42.1205 28.3429 42.1551 28.5286 42.1551 28.7171V34.6724C42.1551 35.4148 41.6354 36.038 40.9409 36.1977C40.6675 34.8166 39.4129 33.7898 38.007 33.7898C36.5853 33.7898 35.3226 34.8401 35.066 36.2372H32.2238C31.9236 36.2372 31.6803 36.4806 31.6803 36.7808C31.6803 37.0809 31.9236 37.3243 32.2238 37.3243H35.0669C35.3234 38.7144 36.5438 39.7711 38.007 39.7711C39.4792 39.7711 40.7054 38.7017 40.9517 37.299C42.2435 37.1221 43.2421 36.0121 43.2421 34.6724V28.7171C43.2422 28.2333 43.1099 27.7594 42.8602 27.3466ZM21.9488 38.6841C20.8998 38.6841 20.0463 37.8312 20.0453 36.7824C20.0498 36.0198 20.5126 35.3177 21.2186 35.0229C21.4495 34.9265 21.6988 34.8769 21.9489 34.8769C22.9985 34.8769 23.8525 35.7308 23.8525 36.7805C23.8525 37.8302 22.9985 38.6841 21.9488 38.6841ZM17.9791 32.275V32.7817C17.9791 33.0494 17.7612 33.2673 17.4934 33.2673H16.5011V31.7894H17.4934C17.7612 31.7893 17.9791 32.0072 17.9791 32.275ZM26.8879 24.3059C26.9086 24.3059 26.9254 24.3228 26.9254 24.3434V27.0468C26.9254 27.0675 26.9086 27.0843 26.8879 27.0843H21.5308L23.3191 24.3059H26.8879V24.3059ZM38.0071 38.6841C36.9582 38.6841 36.1048 37.8314 36.1036 36.7828C36.1036 36.7821 36.1037 36.7815 36.1037 36.7808C36.1037 36.0262 36.5447 35.3728 37.1826 35.0649C37.4321 34.9445 37.7119 34.8769 38.0071 34.8769C39.0567 34.8769 39.9107 35.7309 39.9107 36.7805C39.9107 37.8302 39.0567 38.6841 38.0071 38.6841ZM38.768 27.0437V24.145C38.768 24.1244 38.7848 24.1076 38.8054 24.1076H39.6265L41.4283 27.0812H38.8054C38.7848 27.0811 38.768 27.0643 38.768 27.0437Z" fill="#33357D"/>
<path d="M36.2858 27.0428V24.3393C36.2858 23.7193 35.7813 23.2148 35.1613 23.2148H30.5619C29.9419 23.2148 29.4375 23.7193 29.4375 24.3393V27.0428C29.4375 27.6628 29.9419 28.1673 30.5619 28.1673H35.1613C35.7813 28.1673 36.2858 27.6628 36.2858 27.0428ZM30.5245 27.0428V24.3393C30.5245 24.3187 30.5413 24.3019 30.5619 24.3019H35.1613C35.1819 24.3019 35.1987 24.3187 35.1987 24.3393V27.0428C35.1987 27.0634 35.1819 27.0802 35.1613 27.0802H30.5619C30.5413 27.0803 30.5245 27.0634 30.5245 27.0428Z" fill="#33357D"/>
<path d="M25.774 30.2031C25.4738 30.2031 25.2305 30.4465 25.2305 30.7466C25.2305 31.0468 25.4738 31.2901 25.774 31.2901H26.9993C27.2995 31.2901 27.5428 31.0468 27.5428 30.7466C27.5428 30.4465 27.2995 30.2031 26.9993 30.2031H25.774Z" fill="#33357D"/>
<path d="M30.3072 36.5698C30.218 36.3558 29.9969 36.2186 29.7653 36.2358C29.5293 36.2534 29.3274 36.4277 29.2753 36.6585C29.168 37.1334 29.7198 37.5002 30.1182 37.222C30.3239 37.0784 30.4037 36.8013 30.3072 36.5698Z" fill="#33357D"/>
</g>
<defs>
<clipPath id="clip0_4255_35972">
<rect width="27.8281" height="27.8281" fill="white" transform="translate(15.4102 16.4023)"/>
</clipPath>
</defs>
</svg>
