<svg width="59" height="60" viewBox="0 0 59 60" fill="none" xmlns="http://www.w3.org/2000/svg">
<rect y="0.992188" width="58.6447" height="58.6447" rx="6.79938" fill="#33357D"/>
<g clip-path="url(#clip0_3697_40731)">
<path d="M38.4967 21.8711H31.0958L29.4065 25.2498H19.9141V38.7644H40.186V21.8711H38.4967ZM38.4967 36.9142H21.7643V26.9391H38.4967V36.9142ZM38.4967 25.2498H31.9003L32.7047 23.5604H38.4163V25.2498H38.4967Z" fill="white"/>
<path d="M37.1274 28.4648H16.8555L19.9124 38.7617H40.1843L37.1274 28.4648Z" fill="white"/>
<path d="M39.1683 25.4883H26.7172C25.4905 25.4883 24.4961 26.4827 24.4961 27.7093V40.1605C24.4961 41.3872 25.4905 42.3816 26.7172 42.3816H39.1683C40.395 42.3816 41.3894 41.3872 41.3894 40.1605V27.7093C41.3894 26.4827 40.395 25.4883 39.1683 25.4883Z" fill="#E6E6E6"/>
<path d="M27.6662 27.0391H38.2245C38.654 27.0391 39.0659 27.2097 39.3696 27.5134C39.6733 27.817 39.8439 28.2289 39.8439 28.6584V39.2167C39.8439 39.646 39.6734 40.0577 39.3698 40.3612C39.0663 40.6647 38.6546 40.8353 38.2253 40.8353H27.6662C27.2367 40.8353 26.8249 40.6647 26.5212 40.361C26.2175 40.0573 26.0469 39.6454 26.0469 39.2159V28.6584C26.0469 28.2289 26.2175 27.817 26.5212 27.5134C26.8249 27.2097 27.2367 27.0391 27.6662 27.0391Z" fill="#33357D"/>
<path d="M27.6642 28.1641H38.2233C38.3539 28.1641 38.4791 28.2159 38.5714 28.3083C38.6638 28.4006 38.7156 28.5258 38.7156 28.6564V39.2155C38.7156 39.3463 38.6637 39.4717 38.5712 39.5642C38.4787 39.6567 38.3533 39.7086 38.2225 39.7086H27.665C27.5342 39.7086 27.4088 39.6567 27.3163 39.5642C27.2238 39.4717 27.1719 39.3463 27.1719 39.2155V28.6564C27.1719 28.5258 27.2237 28.4006 27.3161 28.3083C27.4084 28.2159 27.5336 28.1641 27.6642 28.1641Z" fill="white"/>
<path d="M37.1704 34.5021H36.2855C36.1997 35.0163 35.9957 35.5034 35.6894 35.9252L36.3169 36.5527C36.4225 36.6583 36.4818 36.8015 36.4818 36.9509C36.4818 37.1002 36.4225 37.2434 36.3169 37.3491C36.2113 37.4547 36.068 37.514 35.9187 37.514C35.7693 37.514 35.6261 37.4547 35.5205 37.3491L34.8882 36.7168C34.4661 37.0138 33.9814 37.2097 33.4716 37.2895V38.1977C33.4716 38.3471 33.4122 38.4903 33.3066 38.5959C33.201 38.7015 33.0578 38.7609 32.9085 38.7609C32.7591 38.7609 32.6159 38.7015 32.5103 38.5959C32.4047 38.4903 32.3453 38.3471 32.3453 38.1977V37.2799C31.8433 37.1902 31.3681 36.9881 30.9553 36.6886L30.2956 37.3483C30.2433 37.4005 30.1813 37.442 30.1129 37.4703C30.0446 37.4986 29.9714 37.5132 29.8974 37.5132C29.8235 37.5132 29.7502 37.4986 29.6819 37.4703C29.6136 37.442 29.5515 37.4005 29.4992 37.3483C29.4469 37.296 29.4055 37.2339 29.3772 37.1656C29.3489 37.0972 29.3343 37.024 29.3343 36.9501C29.3343 36.8761 29.3489 36.8029 29.3772 36.7345C29.4055 36.6662 29.4469 36.6041 29.4992 36.5519L30.1637 35.8874C29.8728 35.4737 29.6784 35.0001 29.595 34.5013H28.653C28.579 34.5013 28.5058 34.4868 28.4375 34.4585C28.3691 34.4302 28.3071 34.3887 28.2548 34.3364C28.2025 34.2841 28.161 34.222 28.1327 34.1537C28.1044 34.0854 28.0898 34.0122 28.0898 33.9382C28.0898 33.8643 28.1044 33.791 28.1327 33.7227C28.161 33.6544 28.2025 33.5923 28.2548 33.54C28.3071 33.4877 28.3691 33.4463 28.4375 33.418C28.5058 33.3897 28.579 33.3751 28.653 33.3751H29.5974C29.681 32.8766 29.8753 32.4033 30.1661 31.9899L29.5016 31.3254C29.396 31.2198 29.3367 31.0765 29.3367 30.9272C29.3367 30.7778 29.396 30.6346 29.5016 30.529C29.6073 30.4234 29.7505 30.364 29.8998 30.364C30.0492 30.364 30.1924 30.4234 30.298 30.529L30.9569 31.1886C31.3699 30.889 31.8454 30.6869 32.3478 30.5974V29.6803C32.3478 29.531 32.4071 29.3877 32.5127 29.2821C32.6183 29.1765 32.7615 29.1172 32.9109 29.1172C33.0602 29.1172 33.2034 29.1765 33.3091 29.2821C33.4147 29.3877 33.474 29.531 33.474 29.6803V30.5885C33.9842 30.6685 34.4691 30.8648 34.8914 31.1621L35.5237 30.529C35.576 30.4767 35.6381 30.4352 35.7064 30.4069C35.7747 30.3786 35.848 30.364 35.9219 30.364C35.9959 30.364 36.0691 30.3786 36.1374 30.4069C36.2057 30.4352 36.2678 30.4767 36.3201 30.529C36.3724 30.5813 36.4139 30.6434 36.4422 30.7117C36.4705 30.78 36.485 30.8532 36.485 30.9272C36.485 31.0011 36.4705 31.0744 36.4422 31.1427C36.4139 31.211 36.3724 31.2731 36.3201 31.3254L35.6918 31.9537C35.9978 32.3753 36.2018 32.8621 36.2879 33.3759H37.1728C37.3222 33.3759 37.4654 33.4352 37.571 33.5408C37.6766 33.6464 37.7359 33.7897 37.7359 33.939C37.7359 34.0884 37.6766 34.2316 37.571 34.3372C37.4654 34.4428 37.3222 34.5021 37.1728 34.5021H37.1704Z" fill="#33357D"/>
<path d="M32.9459 36.2082C34.1997 36.2082 35.2161 35.1919 35.2161 33.9381C35.2161 32.6843 34.1997 31.668 32.9459 31.668C31.6922 31.668 30.6758 32.6843 30.6758 33.9381C30.6758 35.1919 31.6922 36.2082 32.9459 36.2082Z" fill="white"/>
<path d="M32.9448 34.8387C33.4428 34.8387 33.8465 34.435 33.8465 33.9369C33.8465 33.4389 33.4428 33.0352 32.9448 33.0352C32.4467 33.0352 32.043 33.4389 32.043 33.9369C32.043 34.435 32.4467 34.8387 32.9448 34.8387Z" fill="#33357D"/>
</g>
<defs>
<clipPath id="clip0_3697_40731">
<rect width="25.7422" height="25.7422" fill="white" transform="translate(16.4531 17.4453)"/>
</clipPath>
</defs>
</svg>
