<svg width="59" height="60" viewBox="0 0 59 60" fill="none" xmlns="http://www.w3.org/2000/svg">
<rect y="0.992188" width="58.6447" height="58.6447" rx="6.79938" fill="white"/>
<path d="M37.3229 28.3177V22.3177L34.5096 23.731C34.6995 24.5157 34.7089 25.3332 34.5368 26.122C34.3648 26.9108 34.0159 27.6502 33.5164 28.2844C33.017 28.9187 32.38 29.4313 31.6536 29.7835C30.9271 30.1357 30.1302 30.3184 29.3229 30.3177C28.5156 30.3184 27.7187 30.1357 26.9923 29.7835C26.2658 29.4313 25.6289 28.9187 25.1294 28.2844C24.63 27.6502 24.2811 26.9108 24.109 26.122C23.937 25.3332 23.9463 24.5157 24.1362 23.731L19.9896 21.651L29.3229 16.9844L38.6562 21.651V28.3177H37.3229ZM29.3229 26.3177L26.6562 24.9844C26.6562 26.451 27.8562 27.651 29.3229 27.651C30.7896 27.651 31.9896 26.451 31.9896 24.9844L29.3229 26.3177ZM32.9896 21.5444L29.5362 19.7844L25.9496 21.611L29.4162 23.371L32.9896 21.5444ZM29.3229 31.651C32.8829 31.651 39.9896 33.4244 39.9896 36.9844V40.9844H18.6562V36.9844C18.6562 33.4244 25.7629 31.651 29.3229 31.651ZM29.3229 34.1844C25.3229 34.1844 21.1896 36.131 21.1896 36.9844V38.451H37.4562V36.9844C37.4562 36.131 33.2829 34.1844 29.3229 34.1844Z" fill="#33357D"/>
</svg>
