<svg width="59" height="60" viewBox="0 0 59 60" fill="none" xmlns="http://www.w3.org/2000/svg">
<rect y="0.992188" width="58.6447" height="58.6447" rx="6.79938" fill="#33357D"/>
<g clip-path="url(#clip0_3697_40647)">
<path d="M37.0709 23.8067L35.5435 22.6613V18.6172C30.5603 20.6929 25.915 23.0735 20.346 22.9386C20.346 22.9387 18.5455 22.9387 18.5455 22.9387C13.9581 22.9855 12.3784 28.9804 16.2662 31.2993L21.0458 41.6604L26.5739 39.1104L23.4 32.2299C25.7683 32.6102 28.083 33.339 30.2336 34.3914L35.5436 36.9898V32.8584L37.0709 31.7129C39.6867 29.7996 39.6865 25.7197 37.0709 23.8067ZM18.5455 24.6825H20.346C20.3548 24.6825 20.3636 24.6823 20.3724 24.6823V30.1919C20.1059 30.1835 19.8393 30.179 19.5728 30.179H18.5455C14.8997 30.0282 14.9006 24.8328 18.5455 24.6825ZM24.2601 38.2574L21.8988 39.3466L18.4734 31.9209C19.4023 31.9241 20.4479 31.9121 21.3694 31.9909L24.2601 38.2574ZM33.7997 34.1952L31.0001 32.8251C28.2248 31.4671 25.1947 30.6115 22.1161 30.3057V24.6225C24.9599 24.4307 27.7328 23.7758 30.3813 22.6675L33.7997 21.2372V34.1952ZM36.0246 30.3179L35.5435 30.6787V24.841L36.0246 25.2017C37.7174 26.4399 37.7172 29.08 36.0246 30.3179Z" fill="white"/>
<path d="M41.582 27.0625H44.1977V28.8063H41.582V27.0625Z" fill="white"/>
<path d="M39.5664 21.3906L41.3971 19.5599L42.6299 20.7928L40.7992 22.6235L39.5664 21.3906Z" fill="white"/>
<path d="M39.5664 34.4844L40.7992 33.2515L42.6299 35.0822L41.3971 36.3151L39.5664 34.4844Z" fill="white"/>
</g>
<defs>
<clipPath id="clip0_3697_40647">
<rect width="29.7473" height="29.7473" fill="white" transform="translate(14.4492 15.4414)"/>
</clipPath>
</defs>
</svg>
