<svg width="59" height="60" viewBox="0 0 59 60" fill="none" xmlns="http://www.w3.org/2000/svg">
<rect y="0.988281" width="58.6447" height="58.6447" rx="6.79938" fill="white"/>
<g clip-path="url(#clip0_3697_40689)">
<path d="M35.3242 36.3125H30.8242V22.8125H35.3242V36.3125ZM32.3242 24.3125V34.8125H33.8242V24.3125H32.3242ZM29.3242 36.3125H24.8242V25.8125H29.3242V36.3125ZM26.3242 27.3125V34.8125H27.8242V27.3125H26.3242ZM18.8242 18.3125H39.8242V40.8125H18.8242V36.3125H17.3242V34.8125H18.8242V25.8125H17.3242V24.3125H18.8242V18.3125ZM38.3242 39.3125V19.8125H20.3242V24.3125H21.8242V25.8125H20.3242V34.8125H21.8242V36.3125H20.3242V39.3125H38.3242Z" fill="#33357D"/>
</g>
<defs>
<clipPath id="clip0_3697_40689">
<rect width="24" height="24" fill="white" transform="translate(17.3242 18.3125)"/>
</clipPath>
</defs>
</svg>
