<svg width="52" height="51" viewBox="0 0 52 51" fill="none" xmlns="http://www.w3.org/2000/svg">
<g clip-path="url(#clip0_1187_22219)">
<path d="M17.4854 31.7089C9.97232 23.8781 9.96634 11.1859 17.4684 3.34766C15.5758 4.32632 13.8586 5.61228 12.3868 7.15273L12.3854 7.15373C4.86634 14.9905 4.86634 27.6967 12.3854 35.5339L26.002 49.7248L30.3868 45.1547L17.4854 31.7089Z" fill="#D4E1F4"/>
<path d="M26.0023 30.7313C19.6647 30.7313 14.5273 25.5934 14.5273 19.2563C14.5273 12.9186 19.6647 7.78125 26.0023 7.78125C32.3395 7.78125 37.4773 12.9186 37.4773 19.2563C37.4773 25.5934 32.3395 30.7313 26.0023 30.7313ZM26.0023 10.3313C21.0732 10.3313 17.0773 14.3271 17.0773 19.2563C17.0773 24.1854 21.0732 28.1813 26.0023 28.1813C30.9315 28.1813 34.9273 24.1854 34.9273 19.2563C34.9273 14.3271 30.9315 10.3313 26.0023 10.3313Z" fill="#33357D"/>
<path d="M26.0036 51C25.656 51 25.3238 50.8586 25.0833 50.6075L11.4671 36.4167C7.60131 32.3875 5.47266 27.035 5.47266 21.3438C5.47266 15.6531 7.60181 10.3001 11.4671 6.27141L11.4741 6.26394C15.3529 2.22428 20.5127 0 26.0036 0C31.4946 0 36.6544 2.22478 40.5332 6.26443L40.5396 6.27141C44.4055 10.3001 46.5341 15.6531 46.5341 21.3438C46.5341 27.035 44.405 32.3875 40.5396 36.4167L26.9235 50.6075C26.683 50.8581 26.3508 51 26.0036 51ZM13.3015 8.04246C6.26654 15.3807 6.26854 27.3154 13.3074 34.6516L26.0036 47.8832L38.6998 34.6511C45.7382 27.3154 45.7397 15.3802 38.7048 8.04196L38.6984 8.03549C35.3047 4.49786 30.7958 2.55 26.0036 2.55C21.2109 2.55 16.7026 4.49786 13.3084 8.03549L13.3015 8.04246Z" fill="#33357D"/>
</g>
<defs>
<clipPath id="clip0_1187_22219">
<rect width="51" height="51" fill="white" transform="translate(0.5)"/>
</clipPath>
</defs>
</svg>
