<svg width="59" height="60" viewBox="0 0 59 60" fill="none" xmlns="http://www.w3.org/2000/svg">
<rect y="0.753906" width="58.6447" height="58.6447" rx="6.79938" fill="#33357D"/>
<path d="M21.0013 35.1448H18.7767C18.6952 35.145 18.6144 35.129 18.5391 35.0979C18.4637 35.0668 18.3953 35.0211 18.3376 34.9634C18.28 34.9058 18.2343 34.8373 18.2032 34.7619C18.172 34.6866 18.1561 34.6058 18.1563 34.5243V20.2533C18.1563 19.9089 18.433 19.6328 18.7767 19.6328H39.873C40.2174 19.6328 40.4935 19.9095 40.4935 20.2533V34.5243C40.4935 34.8687 40.2168 35.1448 39.873 35.1448H30.6879" stroke="white" stroke-linecap="round" stroke-linejoin="round"/>
<path d="M25.9377 31.8872C27.9938 31.8872 29.6606 30.2204 29.6606 28.1643C29.6606 26.1082 27.9938 24.4414 25.9377 24.4414C23.8816 24.4414 22.2148 26.1082 22.2148 28.1643C22.2148 30.2204 23.8816 31.8872 25.9377 31.8872Z" stroke="white" stroke-linecap="round" stroke-linejoin="round"/>
<path d="M25.4721 19.6328V24.4704M32.7723 19.6328V35.1448M40.4935 27.3885H29.5835M18.1562 27.3885H22.2561M32.8139 31.2002H40.4935M19.6969 40.5273H32.0309C32.6327 30.1677 19.1948 29.7254 19.6969 40.5273Z" stroke="white" stroke-linecap="round" stroke-linejoin="round"/>
</svg>
