<svg width="60" height="59" viewBox="0 0 60 59" fill="none" xmlns="http://www.w3.org/2000/svg">
<rect x="0.933594" width="58.6447" height="58.6447" rx="6.79938" fill="#33357D"/>
<path d="M38.2565 27.3255V21.3255L35.4432 22.7389C35.6331 23.5235 35.6425 24.341 35.4704 25.1298C35.2984 25.9186 34.9495 26.658 34.45 27.2922C33.9506 27.9265 33.3136 28.4391 32.5872 28.7913C31.8607 29.1435 31.0638 29.3262 30.2565 29.3255C29.4492 29.3262 28.6523 29.1435 27.9258 28.7913C27.1994 28.4391 26.5625 27.9265 26.063 27.2922C25.5636 26.658 25.2146 25.9186 25.0426 25.1298C24.8706 24.341 24.8799 23.5235 25.0698 22.7389L20.9232 20.6589L30.2565 15.9922L39.5898 20.6589V27.3255H38.2565ZM30.2565 25.3255L27.5898 23.9922C27.5898 25.4589 28.7898 26.6589 30.2565 26.6589C31.7232 26.6589 32.9232 25.4589 32.9232 23.9922L30.2565 25.3255ZM33.9232 20.5522L30.4698 18.7922L26.8832 20.6189L30.3498 22.3789L33.9232 20.5522ZM30.2565 30.6589C33.8165 30.6589 40.9232 32.4322 40.9232 35.9922V39.9922H19.5898V35.9922C19.5898 32.4322 26.6965 30.6589 30.2565 30.6589ZM30.2565 33.1922C26.2565 33.1922 22.1232 35.1389 22.1232 35.9922V37.4589H38.3898V35.9922C38.3898 35.1389 34.2165 33.1922 30.2565 33.1922Z" fill="white"/>
</svg>
