<svg width="60" height="60" viewBox="0 0 60 60" fill="none" xmlns="http://www.w3.org/2000/svg">
<rect x="0.773438" y="0.984375" width="58.6447" height="58.6447" rx="6.79938" fill="#33357D"/>
<g clip-path="url(#clip0_3697_35690)">
<path d="M33.7891 33.4169C33.2678 33.4169 32.8437 33.0499 32.8437 32.5987C32.8437 32.1476 33.2678 31.7805 33.7891 31.7805C34.3103 31.7805 34.7344 32.1476 34.7344 32.5987C34.7344 32.836 34.9268 33.0284 35.1641 33.0284C35.4013 33.0284 35.5937 32.836 35.5937 32.5987C35.5937 31.8113 35.0071 31.1493 34.2187 30.9696V30.7461C34.2187 30.5088 34.0263 30.3164 33.7891 30.3164C33.5518 30.3164 33.3594 30.5088 33.3594 30.7461V30.9696C32.5711 31.1493 31.9844 31.8113 31.9844 32.5987C31.9844 33.5237 32.7939 34.2763 33.7891 34.2763C34.3103 34.2763 34.7344 34.6433 34.7344 35.0945C34.7344 35.5457 34.3103 35.9127 33.7891 35.9127C33.2678 35.9127 32.8437 35.5457 32.8437 35.0945C32.8437 34.8572 32.6513 34.6648 32.4141 34.6648C32.1768 34.6648 31.9844 34.8572 31.9844 35.0945C31.9844 35.8819 32.5711 36.5439 33.3594 36.7236V36.9093C33.3594 37.1465 33.5518 37.3389 33.7891 37.3389C34.0263 37.3389 34.2187 37.1465 34.2187 36.9093V36.7236C35.0071 36.5439 35.5937 35.8819 35.5937 35.0945C35.5937 34.1695 34.7842 33.4169 33.7891 33.4169Z" fill="white"/>
<path d="M38.4966 30.8633C37.9353 29.9887 37.1445 29.2888 36.2097 28.8394C35.9958 28.7366 35.7391 28.8266 35.6363 29.0405C35.5335 29.2544 35.6235 29.5111 35.8374 29.6139C37.4664 30.397 38.5189 32.0702 38.5189 33.8765C38.5189 34.6494 38.3284 35.4159 37.968 36.0933C37.8565 36.3027 37.936 36.563 38.1455 36.6744C38.2098 36.7086 38.2789 36.7249 38.3469 36.7249C38.5007 36.7249 38.6494 36.6421 38.7266 36.4969C39.1529 35.6958 39.3783 34.7896 39.3783 33.8765C39.3783 32.804 39.0734 31.762 38.4966 30.8633Z" fill="white"/>
<path d="M34.4664 28.2891L34.4375 28.2891C34.2002 28.2891 34.0078 28.4814 34.0078 28.7187C34.0078 28.9561 34.2002 29.1484 34.4375 29.1484L34.4624 29.1485C34.4631 29.1485 34.4637 29.1485 34.4644 29.1485C34.7008 29.1485 34.893 28.9574 34.8941 28.7208C34.8952 28.4835 34.7037 28.2902 34.4664 28.2891Z" fill="white"/>
<path d="M31.7479 38.1383C30.1189 37.3552 29.0664 35.682 29.0664 33.8757C29.0664 33.1028 29.2569 32.3363 29.6173 31.6589C29.7288 31.4495 29.6493 31.1892 29.4398 31.0778C29.2304 30.9663 28.9701 31.0458 28.8587 31.2553C28.4324 32.0564 28.207 32.9626 28.207 33.8757C28.207 34.9482 28.5119 35.9901 29.0887 36.8889C29.65 37.7635 30.4408 38.4634 31.3755 38.9128C31.4356 38.9417 31.499 38.9553 31.5614 38.9553C31.7214 38.9553 31.875 38.8656 31.949 38.7117C32.0517 38.4978 31.9618 38.2411 31.7479 38.1383Z" fill="white"/>
<path d="M33.1479 38.6016L33.123 38.6016C32.8846 38.6011 32.6925 38.7919 32.6914 39.0292C32.6903 39.2666 32.8818 39.4598 33.1191 39.4609L33.1479 39.461C33.3852 39.461 33.5776 39.2686 33.5776 39.0313C33.5776 38.7941 33.3852 38.6016 33.1479 38.6016Z" fill="white"/>
<path d="M35.7441 26.8353C35.6918 26.7107 35.6277 26.5933 35.5532 26.4844H36.6718C37.7617 26.4844 38.6484 25.5977 38.6484 24.5078C38.6484 23.4179 37.7617 22.5312 36.6718 22.5312H33.2309C33.4497 22.2132 33.5781 21.8284 33.5781 21.4141C33.5781 20.3242 32.6914 19.4375 31.6015 19.4375H21.0742C19.9844 19.4375 19.0977 20.3242 19.0977 21.4141C19.0977 22.5039 19.9844 23.3906 21.0742 23.3906H24.5151C24.2964 23.7087 24.168 24.0935 24.168 24.5078C24.168 24.9222 24.2963 25.3069 24.5151 25.625H23.3945C22.3047 25.625 21.418 26.5117 21.418 27.6015C21.418 28.2275 21.7108 28.786 22.1663 29.1484C21.7108 29.5108 21.418 30.0694 21.418 30.6953C21.418 31.3212 21.7108 31.8798 22.1663 32.2422C21.7108 32.6046 21.418 33.1631 21.418 33.789C21.418 34.415 21.7108 34.9735 22.1663 35.3359C21.7108 35.6983 21.418 36.2569 21.418 36.8828C21.418 37.9726 22.3047 38.8593 23.3945 38.8593H28.4584C29.7924 40.2862 31.6901 41.1797 33.793 41.1797C37.8208 41.1797 41.0977 37.9028 41.0977 33.875C41.0977 30.5227 38.8276 27.6911 35.7441 26.8353ZM36.6718 23.3906C37.2879 23.3906 37.789 23.8918 37.789 24.5078C37.789 25.1238 37.2879 25.625 36.6718 25.625H33.9218H26.1445C25.5285 25.625 25.0273 25.1238 25.0273 24.5078C25.0273 23.8918 25.5285 23.3906 26.1445 23.3906H36.6718ZM21.0742 22.5312C20.4582 22.5312 19.957 22.0301 19.957 21.4141C19.957 20.7981 20.4582 20.2969 21.0742 20.2969H31.6015C32.2176 20.2969 32.7187 20.7981 32.7187 21.4141C32.7187 22.0301 32.2176 22.5312 31.6015 22.5312H21.0742ZM23.3945 26.4844H33.9218C34.0949 26.4844 34.2607 26.5246 34.4093 26.5966C34.2061 26.5795 34.0006 26.5703 33.793 26.5703C31.7758 26.5703 29.9471 27.3923 28.6239 28.7187H23.3945C22.7785 28.7187 22.2773 28.2175 22.2773 27.6015C22.2773 26.9855 22.7785 26.4844 23.3945 26.4844ZM23.3945 29.5781H27.8897C27.4019 30.2464 27.0248 31.0002 26.7853 31.8125H23.3945C22.7785 31.8125 22.2773 31.3113 22.2773 30.6953C22.2773 30.0793 22.7785 29.5781 23.3945 29.5781ZM23.3945 32.6719H26.588C26.5228 33.0634 26.4883 33.4652 26.4883 33.875C26.4883 34.225 26.5136 34.5692 26.5614 34.9062H23.3945C22.7785 34.9062 22.2773 34.4051 22.2773 33.789C22.2773 33.173 22.7785 32.6719 23.3945 32.6719ZM23.3945 38C22.7785 38 22.2773 37.4988 22.2773 36.8828C22.2773 36.2667 22.7785 35.7656 23.3945 35.7656H26.7369C26.9537 36.574 27.3059 37.3273 27.7678 38H23.3945ZM33.793 40.3203C30.239 40.3203 27.3477 37.429 27.3477 33.875C27.3477 30.3211 30.239 27.4297 33.793 27.4297C37.3469 27.4297 40.2383 30.3211 40.2383 33.875C40.2383 37.429 37.3469 40.3203 33.793 40.3203Z" fill="white"/>
</g>
<defs>
<clipPath id="clip0_3697_35690">
<rect width="22" height="22" fill="white" transform="translate(19.0977 19.3086)"/>
</clipPath>
</defs>
</svg>
