<svg width="60" height="60" viewBox="0 0 60 60" fill="none" xmlns="http://www.w3.org/2000/svg">
<rect x="0.933594" y="0.753906" width="58.6447" height="58.6447" rx="6.79938" fill="#33357D"/>
<g clip-path="url(#clip0_3274_36152)">
<path d="M36.2578 36.0781H31.7578V22.5781H36.2578V36.0781ZM33.2578 24.0781V34.5781H34.7578V24.0781H33.2578ZM30.2578 36.0781H25.7578V25.5781H30.2578V36.0781ZM27.2578 27.0781V34.5781H28.7578V27.0781H27.2578ZM19.7578 18.0781H40.7578V40.5781H19.7578V36.0781H18.2578V34.5781H19.7578V25.5781H18.2578V24.0781H19.7578V18.0781ZM39.2578 39.0781V19.5781H21.2578V24.0781H22.7578V25.5781H21.2578V34.5781H22.7578V36.0781H21.2578V39.0781H39.2578Z" fill="white"/>
</g>
<defs>
<clipPath id="clip0_3274_36152">
<rect width="24" height="24" fill="white" transform="translate(18.2578 18.0781)"/>
</clipPath>
</defs>
</svg>
