<svg width="60" height="59" viewBox="0 0 60 59" fill="none" xmlns="http://www.w3.org/2000/svg">
<rect x="0.933594" y="0.0664062" width="58.6447" height="58.6447" rx="6.79938" fill="#33357D"/>
<g clip-path="url(#clip0_3234_34834)">
<path d="M39.4303 20.9453H32.0294L30.3401 24.324H20.8477V37.8386H41.1196V20.9453H39.4303ZM39.4303 35.9884H22.6979V26.0133H39.4303V35.9884ZM39.4303 24.324H32.8339L33.6383 22.6346H39.3499V24.324H39.4303Z" fill="white"/>
<path d="M38.061 27.5391H17.7891L20.8459 37.8359H41.1179L38.061 27.5391Z" fill="white"/>
<path d="M40.1019 24.5625H27.6508C26.4241 24.5625 25.4297 25.5569 25.4297 26.7836V39.2347C25.4297 40.4614 26.4241 41.4558 27.6508 41.4558H40.1019C41.3286 41.4558 42.323 40.4614 42.323 39.2347V26.7836C42.323 25.5569 41.3286 24.5625 40.1019 24.5625Z" fill="#E6E6E6"/>
<path d="M28.5998 26.1133H39.1581C39.5876 26.1133 39.9995 26.2839 40.3032 26.5876C40.6069 26.8913 40.7775 27.3031 40.7775 27.7326V38.2909C40.7775 38.7202 40.607 39.1319 40.3034 39.4354C39.9999 39.739 39.5882 39.9095 39.1589 39.9095H28.5998C28.1703 39.9095 27.7584 39.7389 27.4548 39.4352C27.1511 39.1315 26.9805 38.7196 26.9805 38.2901V27.7326C26.9805 27.3031 27.1511 26.8913 27.4548 26.5876C27.7584 26.2839 28.1703 26.1133 28.5998 26.1133Z" fill="#33357D"/>
<path d="M28.5978 27.2383H39.1569C39.2875 27.2383 39.4127 27.2902 39.505 27.3825C39.5974 27.4748 39.6492 27.6 39.6492 27.7306V38.2897C39.6492 38.4205 39.5973 38.5459 39.5048 38.6384C39.4123 38.7309 39.2869 38.7828 39.1561 38.7828H28.5986C28.4678 38.7828 28.3424 38.7309 28.2499 38.6384C28.1574 38.5459 28.1055 38.4205 28.1055 38.2897V27.7306C28.1055 27.6 28.1573 27.4748 28.2497 27.3825C28.342 27.2902 28.4672 27.2383 28.5978 27.2383Z" fill="white"/>
<path d="M38.104 33.5764H37.2191C37.1333 34.0905 36.9292 34.5776 36.623 34.9994L37.2505 35.6269C37.3561 35.7325 37.4154 35.8757 37.4154 36.0251C37.4154 36.1744 37.3561 36.3177 37.2505 36.4233C37.1449 36.5289 37.0016 36.5882 36.8523 36.5882C36.7029 36.5882 36.5597 36.5289 36.4541 36.4233L35.8218 35.791C35.3997 36.088 34.915 36.284 34.4052 36.3637V37.272C34.4052 37.4213 34.3458 37.5645 34.2402 37.6701C34.1346 37.7757 33.9914 37.8351 33.8421 37.8351C33.6927 37.8351 33.5495 37.7757 33.4439 37.6701C33.3383 37.5645 33.2789 37.4213 33.2789 37.272V36.3541C32.7769 36.2644 32.3017 36.0623 31.8889 35.7628L31.2292 36.4225C31.1769 36.4748 31.1148 36.5162 31.0465 36.5445C30.9782 36.5728 30.905 36.5874 30.831 36.5874C30.7571 36.5874 30.6838 36.5728 30.6155 36.5445C30.5472 36.5162 30.4851 36.4748 30.4328 36.4225C30.3805 36.3702 30.3391 36.3081 30.3107 36.2398C30.2824 36.1715 30.2679 36.0982 30.2679 36.0243C30.2679 35.9503 30.2824 35.8771 30.3107 35.8088C30.3391 35.7404 30.3805 35.6784 30.4328 35.6261L31.0973 34.9616C30.8064 34.548 30.612 34.0743 30.5286 33.5755H29.5865C29.5126 33.5755 29.4394 33.561 29.3711 33.5327C29.3027 33.5044 29.2407 33.4629 29.1884 33.4106C29.1361 33.3583 29.0946 33.2962 29.0663 33.2279C29.038 33.1596 29.0234 33.0864 29.0234 33.0124C29.0234 32.9385 29.038 32.8653 29.0663 32.7969C29.0946 32.7286 29.1361 32.6665 29.1884 32.6143C29.2407 32.562 29.3027 32.5205 29.3711 32.4922C29.4394 32.4639 29.5126 32.4493 29.5865 32.4493H30.531C30.6145 31.9508 30.8089 31.4775 31.0997 31.0641L30.4352 30.3996C30.3296 30.294 30.2703 30.1508 30.2703 30.0014C30.2703 29.8521 30.3296 29.7088 30.4352 29.6032C30.5408 29.4976 30.6841 29.4383 30.8334 29.4383C30.9828 29.4383 31.126 29.4976 31.2316 29.6032L31.8905 30.2628C32.3035 29.9633 32.779 29.7611 33.2814 29.6716V28.7545C33.2814 28.6052 33.3407 28.4619 33.4463 28.3563C33.5519 28.2507 33.6951 28.1914 33.8445 28.1914C33.9938 28.1914 34.137 28.2507 34.2426 28.3563C34.3483 28.4619 34.4076 28.6052 34.4076 28.7545V29.6627C34.9178 29.7428 35.4027 29.939 35.825 30.2363L36.4573 29.6032C36.5096 29.5509 36.5717 29.5094 36.64 29.4811C36.7083 29.4528 36.7815 29.4383 36.8555 29.4383C36.9295 29.4383 37.0027 29.4528 37.071 29.4811C37.1393 29.5094 37.2014 29.5509 37.2537 29.6032C37.306 29.6555 37.3475 29.7176 37.3758 29.7859C37.4041 29.8542 37.4186 29.9275 37.4186 30.0014C37.4186 30.0754 37.4041 30.1486 37.3758 30.2169C37.3475 30.2852 37.306 30.3473 37.2537 30.3996L36.6254 31.0279C36.9314 31.4495 37.1354 31.9363 37.2215 32.4501H38.1064C38.2558 32.4501 38.399 32.5095 38.5046 32.6151C38.6102 32.7207 38.6695 32.8639 38.6695 33.0132C38.6695 33.1626 38.6102 33.3058 38.5046 33.4114C38.399 33.517 38.2558 33.5764 38.1064 33.5764H38.104Z" fill="#33357D"/>
<path d="M33.8795 35.2825C35.1333 35.2825 36.1497 34.2661 36.1497 33.0123C36.1497 31.7586 35.1333 30.7422 33.8795 30.7422C32.6258 30.7422 31.6094 31.7586 31.6094 33.0123C31.6094 34.2661 32.6258 35.2825 33.8795 35.2825Z" fill="white"/>
<path d="M33.8783 33.9129C34.3764 33.9129 34.7801 33.5092 34.7801 33.0112C34.7801 32.5131 34.3764 32.1094 33.8783 32.1094C33.3803 32.1094 32.9766 32.5131 32.9766 33.0112C32.9766 33.5092 33.3803 33.9129 33.8783 33.9129Z" fill="#33357D"/>
</g>
<defs>
<clipPath id="clip0_3234_34834">
<rect width="25.7422" height="25.7422" fill="white" transform="translate(17.3867 16.5195)"/>
</clipPath>
</defs>
</svg>
