<svg width="59" height="57" viewBox="0 0 59 57" fill="none" xmlns="http://www.w3.org/2000/svg">
<rect width="58.6447" height="56.9448" rx="6.79938" fill="#33357D"/>
<g clip-path="url(#clip0_3234_34001)">
<path d="M38.2789 27.1406H23.9922V28.474H38.2789C38.4557 28.474 38.6252 28.4037 38.7503 28.2787C38.8753 28.1537 38.9455 27.9841 38.9455 27.8073C38.9455 27.6305 38.8753 27.4609 38.7503 27.3359C38.6252 27.2109 38.4557 27.1406 38.2789 27.1406Z" fill="white"/>
<path d="M38.2789 32.4727H23.9922V33.806H38.2789C38.4557 33.806 38.6252 33.7358 38.7503 33.6107C38.8753 33.4857 38.9455 33.3161 38.9455 33.1393C38.9455 32.9625 38.8753 32.7929 38.7503 32.6679C38.6252 32.5429 38.4557 32.4727 38.2789 32.4727Z" fill="white"/>
<path d="M27.625 23.138H38.2917C38.4685 23.138 38.638 23.0678 38.7631 22.9428C38.8881 22.8177 38.9583 22.6482 38.9583 22.4714C38.9583 22.2945 38.8881 22.125 38.7631 21.9999C38.638 21.8749 38.4685 21.8047 38.2917 21.8047H28.9583L27.625 23.138Z" fill="white"/>
<path d="M28.9927 18.7508C28.9251 18.6825 28.8446 18.6283 28.7559 18.5912C28.6672 18.5542 28.5721 18.5352 28.476 18.5352C28.3799 18.5352 28.2847 18.5542 28.1961 18.5912C28.1074 18.6283 28.0269 18.6825 27.9593 18.7508L22.586 24.1242L20.3327 21.6975C20.2001 21.5552 20.0163 21.4714 19.8219 21.4645C19.6275 21.4576 19.4383 21.5282 19.296 21.6608C19.1537 21.7935 19.0698 21.9772 19.063 22.1716C19.0561 22.366 19.1267 22.5552 19.2593 22.6975L22.5527 26.2308L28.9927 19.8042C29.0632 19.7358 29.1193 19.654 29.1576 19.5635C29.196 19.473 29.2157 19.3758 29.2157 19.2775C29.2157 19.1793 29.196 19.082 29.1576 18.9915C29.1193 18.9011 29.0632 18.8192 28.9927 18.7508Z" fill="white"/>
</g>
<defs>
<clipPath id="clip0_3234_34001">
<rect width="24" height="24" fill="white" transform="translate(17.3242 16.4727)"/>
</clipPath>
</defs>
</svg>
