<svg width="1440" height="1163" viewBox="0 0 1440 1163" fill="none" xmlns="http://www.w3.org/2000/svg">
<g clip-path="url(#clip0_3234_33989)">
<rect width="1440" height="1163" fill="#24265F"/>
<path opacity="0.03" d="M1072.25 1537.82C1154.97 1537.82 1240 1520.65 1240 1420.55C1240 1311.08 1107.58 1311.75 1107.58 1196.97C1107.58 1092.79 1061.54 1027.76 999.012 1027.76C912.58 1027.76 831.562 1128.23 682.845 1018.63C503.047 886.2 377.079 1046.76 461.626 1173.9C521.842 1264.44 355 1281.42 355 1411.36C355 1527.72 460.348 1537.82 513.631 1537.82C566.913 1537.82 1072.25 1537.82 1072.25 1537.82Z" fill="white"/>
<path opacity="0.03" d="M1605.5 329C1461.46 329 1345 445.464 1345 589.5C1345 733.536 1461.46 850 1605.5 850C1749.54 850 1866 733.536 1866 589.5C1866 445.464 1749.12 329 1605.5 329ZM1605.5 747.528C1518.26 747.528 1447.47 676.745 1447.47 589.5C1447.47 502.255 1517.84 431.06 1605.5 431.06C1693.16 431.06 1763.53 501.844 1763.53 589.088C1763.53 676.333 1692.74 747.528 1605.5 747.528Z" fill="white"/>
<path opacity="0.03" d="M1414.5 -44C1370.54 -44 1335 -8.45734 1335 35.5C1335 79.4574 1370.54 115 1414.5 115C1458.46 115 1494 79.4574 1494 35.5C1494 -8.45734 1458.33 -44 1414.5 -44ZM1414.5 83.7275C1387.87 83.7275 1366.27 62.1256 1366.27 35.5C1366.27 8.87441 1387.75 -12.8531 1414.5 -12.8531C1441.25 -12.8531 1462.73 8.74882 1462.73 35.3744C1462.73 62 1441.13 83.7275 1414.5 83.7275Z" fill="white"/>
<circle opacity="0.03" cx="540" cy="-70" r="262" stroke="white" stroke-width="2"/>
<g opacity="0.03">
<path d="M11.0339 849.889L36.8894 824.034C32.3725 826.682 28.0113 829.797 24.2732 833.379L20.5351 837.117C16.7969 841.011 13.6818 845.217 11.0339 849.889Z" fill="white"/>
<path d="M3.40203 870.293L57.4494 816.246C55.8918 816.558 54.49 816.869 53.0882 817.336L4.64806 865.777C4.02504 867.334 3.71354 868.892 3.40203 870.293Z" fill="white"/>
<path d="M2 884C2 884.156 2 884.311 2 884.467L71.4672 815C71.3114 815 71.1557 815 70.9999 815C70.0654 815 68.9751 815 68.0406 815L2 881.041C2 882.131 2 883.065 2 884Z" fill="white"/>
<path d="M3.0905 896.304L83.3049 816.09C82.3703 815.934 81.4358 815.779 80.3455 815.623L2.62325 893.345C2.77901 894.28 2.93475 895.214 3.0905 896.304Z" fill="white"/>
<path d="M5.73837 906.429L93.429 818.738C92.6502 818.426 91.7157 818.115 90.9369 817.959L4.95959 903.781C5.11535 904.715 5.42686 905.494 5.73837 906.429Z" fill="white"/>
<path d="M9.47646 915.463L102.307 822.632C101.528 822.32 100.75 821.853 99.9707 821.542L8.38615 913.126C8.69766 913.905 9.16495 914.684 9.47646 915.463Z" fill="white"/>
<path d="M14.3047 923.406L110.406 827.305C109.783 826.837 109.004 826.37 108.381 825.903L12.9029 921.381C13.3702 922.004 13.8374 922.783 14.3047 923.406Z" fill="white"/>
<path d="M19.9119 930.571L117.415 833.068C116.792 832.601 116.169 831.978 115.546 831.51L18.3544 928.702" fill="white"/>
<path d="M26.4539 936.801L123.801 839.454C123.334 838.831 122.711 838.208 122.244 837.585L24.7405 935.088" fill="white"/>
<path d="M33.7744 942.253L129.253 846.774C128.786 846.151 128.318 845.373 127.851 844.75L31.7496 940.851" fill="white"/>
<path d="M42.1853 946.77L133.926 855.029C133.614 854.25 133.147 853.472 132.835 852.693L40.0047 945.523" fill="white"/>
<path d="M51.3746 950.352L137.196 864.53C136.885 863.596 136.729 862.817 136.417 862.038L48.7268 949.729" fill="white"/>
<path d="M61.9663 952.533L139.533 874.966C139.377 874.032 139.221 872.941 139.066 872.007L59.0069 952.065" fill="white"/>
<path d="M74.2707 953L140.156 887.115C140.156 886.025 140.156 884.935 140.156 884C140.156 883.844 140.156 883.844 140.156 883.689L70.8441 953" fill="white"/>
<path d="M89.3791 950.664L137.508 902.535C137.975 901.133 138.286 899.576 138.598 898.018L84.8621 951.754" fill="white"/>
<path d="M105.734 943.81C116.169 937.736 124.736 929.169 130.81 918.734L105.734 943.81Z" fill="white"/>
</g>
<path opacity="0.03" d="M-59.34 -61.9988C24.7528 -54.6439 87.1022 19.6574 79.7473 103.75C72.3923 187.843 -1.90895 250.192 -86.0017 242.837L-59.34 -61.9988Z" fill="white"/>
</g>
<defs>
<clipPath id="clip0_3234_33989">
<rect width="1440" height="1163" fill="white"/>
</clipPath>
</defs>
</svg>
