<svg width="59" height="59" viewBox="0 0 59 59" fill="none" xmlns="http://www.w3.org/2000/svg">
<rect y="0.0664062" width="58.6447" height="58.6447" rx="6.79938" fill="#33357D"/>
<path d="M37.1621 27.471L36.4187 26.9634C37.2886 25.6822 37.7951 24.1893 37.8845 22.6433C37.9739 21.0973 37.6427 19.5559 36.9263 18.183L36.7751 17.9076L37.5599 17.4648L37.7219 17.7654C38.5146 19.2826 38.8814 20.9863 38.7831 22.6953C38.6848 24.4043 38.1235 26.0547 37.1621 27.471ZM39.2375 40.3068V41.0898H19.4375V40.3068H23.9159L26.7041 27.4098C26.7473 27.2085 26.8583 27.0281 27.0185 26.8987C27.1787 26.7693 27.3784 26.6988 27.5843 26.6988H28.8893V24.1734C28.4404 24.0691 28.0396 23.8167 27.7516 23.4569C27.4636 23.0971 27.3051 22.6507 27.3017 22.1898C27.2935 21.9113 27.3413 21.634 27.4422 21.3743C27.5432 21.1145 27.6952 20.8777 27.8893 20.6778C28.0834 20.4779 28.3157 20.319 28.5723 20.2105C28.8289 20.1019 29.1048 20.046 29.3834 20.046C29.662 20.046 29.9379 20.1019 30.1945 20.2105C30.4511 20.319 30.6834 20.4779 30.8775 20.6778C31.0716 20.8777 31.2236 21.1145 31.3246 21.3743C31.4255 21.634 31.4733 21.9113 31.4651 22.1898C31.4611 22.6655 31.292 23.1251 30.9867 23.4899C30.6813 23.8547 30.2587 24.102 29.7911 24.1896V26.7006H31.0889C31.2949 26.7001 31.4948 26.7702 31.6553 26.8993C31.8158 27.0283 31.9272 27.2086 31.9709 27.4098L34.7555 40.3068H39.2375ZM31.0421 31.6416H27.6329L27.0515 34.329H31.6253L31.0421 31.6416ZM26.8553 35.229L26.2739 37.92H32.3993L31.8179 35.229H26.8553ZM28.3097 28.5006L27.8237 30.7416H30.8477L30.3635 28.5006H28.3097ZM25.7573 40.3086H32.9159L32.5937 38.82H26.0777L25.7573 40.3086ZM25.2029 24.9132C24.6651 24.0969 24.3808 23.1397 24.386 22.1621C24.3911 21.1845 24.6854 20.2303 25.2317 19.4196L24.4865 18.9156C23.8402 19.8735 23.4921 21.0013 23.486 22.1568C23.4799 23.3122 23.8162 24.4436 24.4523 25.4082L25.2029 24.9132ZM35.1875 22.1898C35.1886 21.0473 34.8544 19.9295 34.2263 18.975L33.4739 19.47C34.0104 20.2864 34.2936 21.2431 34.2878 22.2199C34.2821 23.1968 33.9876 24.1501 33.4415 24.96L34.1867 25.4604C34.8403 24.4951 35.1889 23.3557 35.1875 22.1898ZM22.1861 26.9022C21.3145 25.5775 20.8274 24.037 20.7787 22.452C20.7301 20.867 21.122 19.2995 21.9107 17.9238L21.1313 17.4738C20.2591 18.9946 19.826 20.7275 19.88 22.4797C19.934 24.232 20.4731 25.9349 21.4373 27.399L22.1861 26.9022Z" fill="white"/>
</svg>
