<svg width="60" height="60" viewBox="0 0 60 60" fill="none" xmlns="http://www.w3.org/2000/svg">
<rect x="0.773438" y="0.738281" width="58.6447" height="58.6447" rx="6.79938" fill="#33357D"/>
<g clip-path="url(#clip0_3697_35683)">
<path d="M30.0961 34.4266C28.9855 34.4266 28.082 33.5231 28.082 32.4125C28.082 31.3019 28.9855 30.3984 30.0961 30.3984C31.2067 30.3984 32.1102 31.3019 32.1102 32.4125C32.1102 33.5231 31.2067 34.4266 30.0961 34.4266ZM30.0961 31.2579C29.4594 31.2579 28.9414 31.7758 28.9414 32.4126C28.9414 33.0492 29.4594 33.5673 30.0961 33.5673C30.7328 33.5673 31.2508 33.0493 31.2508 32.4126C31.2508 31.7758 30.7328 31.2579 30.0961 31.2579Z" fill="white"/>
<path d="M32.7005 29.7871C32.4044 29.7953 32.1818 29.4637 32.3034 29.1929C32.4874 28.7626 33.1248 28.8898 33.1301 29.3574C33.1344 29.5882 32.9311 29.791 32.7005 29.7871Z" fill="white"/>
<path d="M39.7214 20.4872C39.1125 20.4872 38.5948 20.8847 38.4139 21.4338H31.945C31.661 20.6899 30.94 20.1602 30.0976 20.1602C29.2552 20.1602 28.5342 20.6899 28.2502 21.4338H21.7814C21.6005 20.8847 21.0828 20.4872 20.4739 20.4872C19.715 20.4872 19.0977 21.1046 19.0977 21.8634C19.0977 22.6223 19.715 23.2397 20.4739 23.2397C21.0828 23.2397 21.6005 22.8422 21.7814 22.2931H24.2299C23.9502 22.4772 23.6861 22.6894 23.441 22.9282C22.474 23.8703 21.9124 25.1205 21.8538 26.4564C21.2153 26.6409 20.747 27.2308 20.747 27.928C20.747 28.7724 21.434 29.4594 22.2784 29.4594C23.1228 29.4594 23.8099 28.7724 23.8099 27.928C23.8099 27.2348 23.347 26.6478 22.714 26.4596C22.8343 24.1527 24.7815 22.2931 27.1029 22.2931H28.1272C28.2072 23.3102 29.0603 24.1133 30.0976 24.1133C31.1349 24.1133 31.9881 23.3102 32.0681 22.2931H33.0924C35.4115 22.2931 37.3605 24.1533 37.4811 26.459C36.8471 26.6464 36.3831 27.234 36.3831 27.928C36.3831 28.7724 37.0701 29.4594 37.9145 29.4594C38.759 29.4594 39.446 28.7724 39.446 27.928C39.446 27.2316 38.9788 26.6423 38.3414 26.4571C38.2829 25.1188 37.7195 23.8666 36.75 22.9241C36.5061 22.687 36.2433 22.4762 35.9653 22.2931H38.4139C38.5948 22.8422 39.1125 23.2396 39.7214 23.2396C40.4803 23.2397 41.0977 22.6223 41.0977 21.8634C41.0977 21.1046 40.4803 20.4872 39.7214 20.4872V20.4872ZM20.4739 22.3803C20.1889 22.3803 19.957 22.1484 19.957 21.8634C19.957 21.5784 20.1889 21.3466 20.4739 21.3466C20.7589 21.3466 20.9908 21.5784 20.9908 21.8634C20.9908 22.1484 20.7589 22.3803 20.4739 22.3803ZM22.9505 27.928C22.9505 28.2985 22.649 28.6 22.2784 28.6C21.9079 28.6 21.6064 28.2986 21.6064 27.928C21.6064 27.5574 21.9079 27.2559 22.2784 27.2559C22.649 27.2559 22.9505 27.5574 22.9505 27.928ZM30.0976 23.2539C29.4816 23.2539 28.9804 22.7528 28.9804 22.1368C28.9804 21.5207 29.4816 21.0196 30.0976 21.0196C30.7136 21.0196 31.2148 21.5208 31.2148 22.1368C31.2148 22.7528 30.7136 23.2539 30.0976 23.2539V23.2539ZM38.5866 27.928C38.5866 28.2985 38.2851 28.6 37.9145 28.6C37.5439 28.6 37.2424 28.2986 37.2424 27.928C37.2424 27.5574 37.5439 27.2559 37.9145 27.2559C38.2851 27.2559 38.5866 27.5574 38.5866 27.928ZM39.7214 22.3803C39.4364 22.3803 39.2046 22.1484 39.2046 21.8634C39.2046 21.5784 39.4364 21.3466 39.7214 21.3466C40.0064 21.3466 40.2383 21.5784 40.2383 21.8634C40.2383 22.1484 40.0064 22.3803 39.7214 22.3803Z" fill="white"/>
<path d="M33.8788 30.6262C33.7656 30.4177 33.5048 30.3405 33.2961 30.4538C33.0876 30.567 33.0104 30.8279 33.1237 31.0365L33.6362 31.9799C33.8782 32.4254 33.8832 32.9599 33.6496 33.4098L32.4249 35.7695H27.7716L26.5467 33.4099C26.3132 32.96 26.3182 32.4254 26.5602 31.98L29.6686 26.2579V28.9056C29.6686 29.1429 29.8609 29.3352 30.0982 29.3352C30.3355 29.3352 30.5279 29.1429 30.5279 28.9056V26.258L31.3952 27.8544C31.5084 28.0629 31.7692 28.1401 31.9779 28.0268C32.1864 27.9136 32.2636 27.6527 32.1503 27.4441L30.9446 25.2246C30.8694 25.0862 30.7246 25 30.567 25H29.6295C29.4721 25 29.3271 25.0862 29.252 25.2246L25.8051 31.5697C25.4267 32.2663 25.4189 33.1022 25.784 33.8058L26.8034 35.7696H26.6839C26.4465 35.7696 26.2542 35.9619 26.2542 36.1992C26.2542 36.4366 26.4465 36.6289 26.6839 36.6289H26.96L26.2599 39.4311C26.2278 39.5594 26.2567 39.6954 26.3381 39.7997C26.4196 39.904 26.5445 39.9649 26.6768 39.9649H33.5196C33.6519 39.9649 33.7768 39.904 33.8583 39.7997C33.9397 39.6954 33.9686 39.5595 33.9365 39.4311L33.2364 36.6289H33.5127C33.7499 36.6289 33.9424 36.4366 33.9424 36.1992C33.9424 35.9619 33.7499 35.7696 33.5127 35.7696H33.3931L34.4125 33.8058C34.7777 33.1022 34.7698 32.2663 34.3915 31.5697L33.8788 30.6262ZM32.9693 39.1056H27.227L27.8458 36.629H32.3505L32.9693 39.1056Z" fill="white"/>
</g>
<defs>
<clipPath id="clip0_3697_35683">
<rect width="22" height="22" fill="white" transform="translate(19.0977 19.0625)"/>
</clipPath>
</defs>
</svg>
