<svg width="59" height="60" viewBox="0 0 59 60" fill="none" xmlns="http://www.w3.org/2000/svg">
<rect y="0.375" width="58.6447" height="58.6447" rx="6.79938" fill="#33357D"/>
<path d="M38.3242 34.6992V25.6992H24.3242V34.6992H38.3242ZM38.3242 20.6992C38.8547 20.6992 39.3634 20.9099 39.7384 21.285C40.1135 21.6601 40.3242 22.1688 40.3242 22.6992V34.6992C40.3242 35.2297 40.1135 35.7384 39.7384 36.1134C39.3634 36.4885 38.8547 36.6992 38.3242 36.6992H24.3242C23.7938 36.6992 23.2851 36.4885 22.91 36.1134C22.5349 35.7384 22.3242 35.2297 22.3242 34.6992V22.6992C22.3242 22.1688 22.5349 21.6601 22.91 21.285C23.2851 20.9099 23.7938 20.6992 24.3242 20.6992H25.3242V18.6992H27.3242V20.6992H35.3242V18.6992H37.3242V20.6992H38.3242ZM34.8542 28.7592L30.4142 33.1992L27.7342 30.5192L28.7942 29.4592L30.4142 31.0792L33.7942 27.6992L34.8542 28.7592ZM20.3242 38.6992H34.3242V40.6992H20.3242C19.7938 40.6992 19.2851 40.4885 18.91 40.1134C18.5349 39.7384 18.3242 39.2297 18.3242 38.6992V26.6992H20.3242V38.6992Z" fill="white"/>
</svg>
