<svg width="60" height="60" viewBox="0 0 60 60" fill="none" xmlns="http://www.w3.org/2000/svg">
<rect x="0.933594" y="0.6875" width="58.6447" height="58.6447" rx="6.79938" fill="#33357D"/>
<path d="M19.3203 39.3864H41.1953V40.9489H19.3203V39.3864ZM38.8516 26.1051C39.0588 26.1051 39.2575 26.0228 39.404 25.8763C39.5505 25.7298 39.6328 25.5311 39.6328 25.3239V22.9801C39.6327 22.8196 39.5832 22.6629 39.4909 22.5315C39.3987 22.4001 39.2682 22.3004 39.1172 22.2458L30.5234 19.1208C30.3518 19.0587 30.1638 19.0587 29.9922 19.1208L21.3984 22.2458C21.2474 22.3004 21.1169 22.4001 21.0247 22.5315C20.9324 22.6629 20.8829 22.8196 20.8828 22.9801V25.3239C20.8828 25.5311 20.9651 25.7298 21.1116 25.8763C21.2581 26.0228 21.4569 26.1051 21.6641 26.1051H22.4453V36.2614H20.8828V37.8239H39.6328V36.2614H38.0703V26.1051H38.8516ZM22.4453 23.527L30.2578 20.6833L38.0703 23.527V24.5426H22.4453V23.527ZM31.8203 36.2614H28.6953V26.1051H31.8203V36.2614ZM24.0078 26.1051H27.1328V36.2614H24.0078V26.1051ZM36.5078 36.2614H33.3828V26.1051H36.5078V36.2614Z" fill="white"/>
</svg>
