<svg width="126" height="31" viewBox="0 0 126 31" fill="none" xmlns="http://www.w3.org/2000/svg">
<path fill-rule="evenodd" clip-rule="evenodd" d="M1.5275 1.26002C1.5275 0.876947 1.83804 0.566406 2.22111 0.566406H22.5822H22.5847C23.8131 0.570859 24.9899 1.06101 25.8583 1.92991C26.7267 2.79881 27.2161 3.97591 27.2198 5.20434V5.20852C27.2161 6.43695 26.7267 7.61405 25.8583 8.48295C24.9899 9.35184 23.8131 9.842 22.5847 9.84645L22.5822 9.84645H2.23546C1.85239 9.84645 1.54185 9.53591 1.54185 9.15284C1.54185 8.76977 1.85239 8.45923 2.23546 8.45923H22.5809C23.4426 8.45578 24.268 8.11183 24.8771 7.50233C25.486 6.89303 25.8295 6.06778 25.8326 5.20643C25.8295 4.34508 25.486 3.51983 24.8771 2.91053C24.2679 2.30102 23.4426 1.95706 22.5809 1.95363H2.22111C1.83804 1.95363 1.5275 1.64309 1.5275 1.26002ZM4.63793 10.5221L4.64002 10.5221L25.0011 10.5221C25.3842 10.5221 25.6947 10.8326 25.6947 11.2157C25.6947 11.5988 25.3842 11.9093 25.0011 11.9093H4.64112C3.77902 11.9122 2.95304 12.2559 2.34343 12.8655C1.73407 13.4749 1.39037 14.3004 1.38722 15.1621C1.39037 16.0238 1.73407 16.8493 2.34343 17.4587C2.95303 18.0683 3.77899 18.412 4.64106 18.4149H24.9868C25.3698 18.4149 25.6804 18.7254 25.6804 19.1085C25.6804 19.4916 25.3698 19.8021 24.9868 19.8021H4.64002L4.63793 19.8021C3.40901 19.7984 2.23149 19.3086 1.36252 18.4396C0.493539 17.5706 0.00370717 16.3931 0 15.1642V15.16C0.00370717 13.9311 0.493539 12.7536 1.36252 11.8846C2.23149 11.0156 3.40901 10.5258 4.63793 10.5221ZM2.22111 20.4778C1.83804 20.4778 1.5275 20.7883 1.5275 21.1714C1.5275 21.5544 1.83804 21.865 2.22111 21.865H22.5809C23.4426 21.8684 24.2679 22.2124 24.8771 22.8219C25.486 23.4312 25.8295 24.2564 25.8326 25.1178C25.8295 25.9791 25.486 26.8044 24.8771 27.4137C24.268 28.0232 23.4426 28.3671 22.5809 28.3706H2.23546C1.85239 28.3706 1.54185 28.6811 1.54185 29.0642C1.54185 29.4473 1.85239 29.7578 2.23546 29.7578H22.5822L22.5847 29.7578C23.8131 29.7534 24.9899 29.2632 25.8583 28.3943C26.7267 27.5254 27.2161 26.3483 27.2198 25.1199V25.1157C27.2161 23.8873 26.7267 22.7102 25.8583 21.8413C24.9899 20.9724 23.8131 20.4822 22.5847 20.4778H22.5822H2.22111Z" fill="white"/>
<path fill-rule="evenodd" clip-rule="evenodd" d="M3.08623 2.53125H22.7681C23.4024 2.53125 24.0107 2.78324 24.4593 3.23178C24.9078 3.68032 25.1598 4.28868 25.1598 4.92301V5.51856C25.1598 6.1529 24.9078 6.76125 24.4593 7.2098C24.0107 7.65834 23.4024 7.91033 22.7681 7.91033H3.08623V2.53125ZM24.1322 17.8405H4.45036C4.13627 17.8405 3.82526 17.7787 3.53507 17.6585C3.24489 17.5383 2.98123 17.3621 2.75913 17.14C2.53704 16.9179 2.36086 16.6542 2.24066 16.364C2.12046 16.0739 2.05859 15.7628 2.05859 15.4488V14.8532C2.05859 14.5391 2.12046 14.2281 2.24066 13.9379C2.36086 13.6477 2.53704 13.3841 2.75913 13.162C2.98123 12.9399 3.24489 12.7637 3.53507 12.6435C3.82526 12.5233 4.13627 12.4614 4.45036 12.4614H24.1322V17.8405ZM22.7681 22.4377H3.08623V27.8168H22.7681C23.4024 27.8168 24.0107 27.5648 24.4593 27.1163C24.9078 26.6677 25.1598 26.0594 25.1598 25.425V24.8295C25.1598 24.1951 24.9078 23.5868 24.4593 23.1382C24.0107 22.6897 23.4024 22.4377 22.7681 22.4377Z" fill="white"/>
<path d="M34.3186 0H29.9536C29.0581 0 28.332 0.726022 28.332 1.62162V28.6892C28.332 29.5848 29.0581 30.3108 29.9536 30.3108H34.3186C35.2142 30.3108 35.9402 29.5848 35.9402 28.6892V1.62162C35.9402 0.726022 35.2142 0 34.3186 0Z" fill="white"/>
<path d="M34.1683 2.80859H30.0999C29.7578 2.80859 29.4805 3.08594 29.4805 3.42806V3.67202C29.4805 4.01414 29.7578 4.29149 30.0999 4.29149H34.1683C34.5104 4.29149 34.7878 4.01414 34.7878 3.67202V3.42806C34.7878 3.08594 34.5104 2.80859 34.1683 2.80859Z" fill="white"/>
<path d="M34.1683 5.37891H30.0999C29.7578 5.37891 29.4805 5.65625 29.4805 5.99837V6.24233C29.4805 6.58446 29.7578 6.8618 30.0999 6.8618H34.1683C34.5104 6.8618 34.7878 6.58446 34.7878 6.24233V5.99837C34.7878 5.65625 34.5104 5.37891 34.1683 5.37891Z" fill="white"/>
<path d="M50.6209 20.7198C50.6209 20.8508 50.2518 20.9579 49.5136 21.0413C48.7873 21.1127 48.0551 21.1484 47.3169 21.1484C46.5907 21.1484 46.1263 21.1187 45.9239 21.0591C45.7334 20.9877 45.6382 20.8746 45.6382 20.7198V13.0404H43.1558C43.0248 13.0404 42.9117 12.8738 42.8165 12.5404C42.7212 12.207 42.6736 11.7129 42.6736 11.0581C42.6736 10.3913 42.745 9.79605 42.8879 9.27218C43.0308 8.73641 43.2213 8.46853 43.4594 8.46853H53.1211C53.2997 8.46853 53.4188 8.63521 53.4783 8.96858C53.5497 9.30195 53.5855 9.78414 53.5855 10.4152C53.5855 11.0462 53.52 11.6415 53.389 12.2011C53.258 12.7606 53.0794 13.0404 52.8532 13.0404H50.6209V20.7198ZM59.5391 17.1123C59.5391 17.8862 59.9082 18.2731 60.6463 18.2731C61.0749 18.2731 61.6345 18.1303 62.3251 17.8445C63.0156 17.5469 63.3788 17.398 63.4145 17.398C63.6407 17.398 63.9383 17.7374 64.3074 18.416C64.6765 19.0946 64.8611 19.5947 64.8611 19.9162C64.8611 20.3805 64.3848 20.7317 63.4323 20.9698C62.4799 21.208 61.5452 21.327 60.6285 21.327C59.7236 21.327 58.9616 21.2556 58.3425 21.1127C57.7353 20.9698 57.2353 20.7913 56.8424 20.5769C56.4614 20.3507 56.122 20.0769 55.8244 19.7554C55.5386 19.434 55.3243 19.1304 55.1815 18.8446C55.0386 18.547 54.9255 18.2196 54.8421 17.8624C54.7231 17.3385 54.6636 16.7968 54.6636 16.2372C54.6636 14.0703 55.2291 12.5761 56.3602 11.7546C56.9197 11.3379 57.5448 11.0462 58.2354 10.8795C58.9259 10.7128 59.7415 10.6295 60.682 10.6295C63.6943 10.6295 65.2004 11.6772 65.2004 13.7727C65.2004 15.9991 63.5097 17.1123 60.1284 17.1123H59.5391ZM59.5033 14.5049V15.6836C59.8486 15.6836 60.1284 15.5467 60.3427 15.2728C60.5689 14.999 60.682 14.6656 60.682 14.2727C60.682 13.5584 60.4975 13.2012 60.1284 13.2012C59.7117 13.2012 59.5033 13.6357 59.5033 14.5049ZM69.891 21.3092C69.4505 21.3092 69.0397 21.2437 68.6588 21.1127C68.2778 20.9818 67.9622 20.821 67.7122 20.6305C67.4741 20.44 67.2657 20.184 67.0872 19.8626C66.9086 19.5411 66.7716 19.2375 66.6764 18.9518C66.5812 18.6541 66.5097 18.291 66.4621 17.8624C66.3907 17.2314 66.3549 16.511 66.3549 15.7014C66.3549 14.0465 66.6585 12.7904 67.2657 11.9332C67.873 11.064 68.7064 10.6295 69.766 10.6295C70.8495 10.6295 71.6353 10.8854 72.1234 11.3974C72.2306 11.5165 72.3139 11.6593 72.3734 11.826H72.5163L72.302 10.5938V8.36137C72.302 8.09944 72.6354 7.84346 73.3021 7.59343C73.9688 7.34341 74.6891 7.2184 75.463 7.2184C76.2727 7.2184 76.7906 7.37317 77.0168 7.68273C77.1001 7.80179 77.1418 7.92085 77.1418 8.03991V20.7198C77.1418 20.8508 76.8084 20.9579 76.1417 21.0413C75.4869 21.1127 74.8499 21.1484 74.2308 21.1484C73.6236 21.1484 73.2307 21.1306 73.0521 21.0949C72.8854 21.0472 72.7782 20.9996 72.7306 20.952C72.6949 20.9044 72.6711 20.827 72.6592 20.7198L72.5163 19.7019H72.3734C72.2663 20.1186 72.052 20.4698 71.7305 20.7555C71.3257 21.1246 70.7125 21.3092 69.891 21.3092ZM71.8912 18.7018C72.0817 18.7018 72.2246 18.5827 72.3199 18.3446V13.5762C72.3199 13.4571 72.2544 13.3679 72.1234 13.3083C72.0043 13.2369 71.8972 13.2012 71.8019 13.2012C71.3971 13.2012 71.1947 14.1298 71.1947 15.9872C71.1947 16.9754 71.2483 17.6778 71.3555 18.0945C71.4745 18.4993 71.6531 18.7018 71.8912 18.7018ZM82.0184 21.3092C81.5779 21.3092 81.1671 21.2437 80.7861 21.1127C80.4052 20.9818 80.0896 20.821 79.8396 20.6305C79.6015 20.44 79.3931 20.184 79.2146 19.8626C79.036 19.5411 78.899 19.2375 78.8038 18.9518C78.7085 18.6541 78.6371 18.291 78.5895 17.8624C78.5181 17.2314 78.4823 16.511 78.4823 15.7014C78.4823 14.0465 78.7859 12.7904 79.3931 11.9332C80.0004 11.064 80.8338 10.6295 81.8934 10.6295C82.9769 10.6295 83.7627 10.8854 84.2508 11.3974C84.358 11.5165 84.4413 11.6593 84.5008 11.826H84.6437L84.4294 10.5938V8.36137C84.4294 8.09944 84.7628 7.84346 85.4295 7.59343C86.0962 7.34341 86.8165 7.2184 87.5904 7.2184C88.4 7.2184 88.918 7.37317 89.1442 7.68273C89.2275 7.80179 89.2692 7.92085 89.2692 8.03991V20.7198C89.2692 20.8508 88.9358 20.9579 88.2691 21.0413C87.6143 21.1127 86.9773 21.1484 86.3582 21.1484C85.751 21.1484 85.3581 21.1306 85.1795 21.0949C85.0128 21.0472 84.9056 20.9996 84.858 20.952C84.8223 20.9044 84.7985 20.827 84.7866 20.7198L84.6437 19.7019H84.5008C84.3937 20.1186 84.1794 20.4698 83.8579 20.7555C83.4531 21.1246 82.8399 21.3092 82.0184 21.3092ZM84.0186 18.7018C84.2091 18.7018 84.352 18.5827 84.4472 18.3446V13.5762C84.4472 13.4571 84.3818 13.3679 84.2508 13.3083C84.1317 13.2369 84.0246 13.2012 83.9293 13.2012C83.5245 13.2012 83.3221 14.1298 83.3221 15.9872C83.3221 16.9754 83.3757 17.6778 83.4829 18.0945C83.6019 18.4993 83.7805 18.7018 84.0186 18.7018ZM96.8068 19.9876V18.9339H96.6639C96.6044 18.9934 96.5151 19.0708 96.3961 19.1661C96.277 19.2613 95.9972 19.3863 95.5567 19.5411C95.1162 19.6959 94.6221 19.7733 94.0744 19.7733C93.5386 19.7733 93.0624 19.69 92.6457 19.5233C92.2409 19.3447 91.9194 19.1125 91.6813 18.8268C91.4432 18.5291 91.2586 18.1362 91.1276 17.6481C90.9014 16.8742 90.7883 15.7788 90.7883 14.362V11.8975C90.7883 11.6474 91.1395 11.4034 91.842 11.1652C92.5445 10.9152 93.2826 10.7902 94.0565 10.7902C95.0923 10.7902 95.6103 11.0581 95.6103 11.5939V13.8441C95.6103 16.2253 95.8008 17.4159 96.1817 17.4159C96.408 17.4159 96.5211 17.2552 96.5211 16.9337V11.8975C96.5211 11.6474 96.8961 11.4034 97.6462 11.1652C98.3963 10.9152 99.1999 10.7902 100.057 10.7902C100.914 10.7902 101.343 11.0224 101.343 11.4867V19.934C101.343 22.5891 99.5452 23.9166 95.9496 23.9166C94.0565 23.9166 92.7707 23.732 92.092 23.363C91.7944 23.1963 91.6456 23.0236 91.6456 22.845C91.6456 22.5593 91.7646 22.0771 92.0027 21.3985C92.2409 20.7317 92.4611 20.3984 92.6635 20.3984C92.7111 20.3984 92.8778 20.4341 93.1636 20.5055C94.0446 20.7436 94.7768 20.8627 95.3602 20.8627C95.9555 20.8627 96.3425 20.7972 96.5211 20.6662C96.7116 20.5353 96.8068 20.3091 96.8068 19.9876ZM112.007 21.1484H104.435C103.852 21.1484 103.459 21.1068 103.256 21.0234C103.054 20.9401 102.953 20.8091 102.953 20.6305V9.32576C102.953 9.0162 103.09 8.79594 103.363 8.66498C103.649 8.53401 104.155 8.46853 104.881 8.46853H112.061C112.311 8.46853 112.436 8.88524 112.436 9.71866C112.436 10.5402 112.382 11.1712 112.275 11.6117C112.168 12.0403 112.025 12.2546 111.846 12.2546C111.073 12.2546 109.769 12.1773 107.935 12.0225V13.219C109.697 13.1476 110.846 13.1119 111.382 13.1119C111.704 13.1119 111.864 13.4869 111.864 14.237C111.864 14.9871 111.799 15.5586 111.668 15.9515C111.549 16.3325 111.382 16.5229 111.168 16.5229L107.935 16.4515V17.5945C110.007 17.4397 111.436 17.3623 112.222 17.3623C112.472 17.3623 112.597 17.779 112.597 18.6125C112.597 19.4459 112.543 20.0769 112.436 20.5055C112.329 20.9341 112.186 21.1484 112.007 21.1484ZM117.389 21.3092C116.949 21.3092 116.538 21.2437 116.157 21.1127C115.776 20.9818 115.46 20.821 115.21 20.6305C114.972 20.44 114.764 20.184 114.585 19.8626C114.407 19.5411 114.27 19.2375 114.174 18.9518C114.079 18.6541 114.008 18.291 113.96 17.8624C113.889 17.2314 113.853 16.511 113.853 15.7014C113.853 14.0465 114.157 12.7904 114.764 11.9332C115.371 11.064 116.204 10.6295 117.264 10.6295C118.347 10.6295 119.133 10.8854 119.621 11.3974C119.729 11.5165 119.812 11.6593 119.871 11.826H120.014L119.8 10.5938V8.36137C119.8 8.09944 120.133 7.84346 120.8 7.59343C121.467 7.34341 122.187 7.2184 122.961 7.2184C123.771 7.2184 124.289 7.37317 124.515 7.68273C124.598 7.80179 124.64 7.92085 124.64 8.03991V20.7198C124.64 20.8508 124.306 20.9579 123.64 21.0413C122.985 21.1127 122.348 21.1484 121.729 21.1484C121.122 21.1484 120.729 21.1306 120.55 21.0949C120.383 21.0472 120.276 20.9996 120.229 20.952C120.193 20.9044 120.169 20.827 120.157 20.7198L120.014 19.7019H119.871C119.764 20.1186 119.55 20.4698 119.229 20.7555C118.824 21.1246 118.211 21.3092 117.389 21.3092ZM119.389 18.7018C119.58 18.7018 119.723 18.5827 119.818 18.3446V13.5762C119.818 13.4571 119.752 13.3679 119.621 13.3083C119.502 13.2369 119.395 13.2012 119.3 13.2012C118.895 13.2012 118.693 14.1298 118.693 15.9872C118.693 16.9754 118.746 17.6778 118.854 18.0945C118.973 18.4993 119.151 18.7018 119.389 18.7018Z" fill="white"/>
</svg>
