<svg width="60" height="59" viewBox="0 0 60 59" fill="none" xmlns="http://www.w3.org/2000/svg">
<rect x="0.773438" width="58.6447" height="58.6447" rx="6.79938" fill="#33357D"/>
<g clip-path="url(#clip0_3684_34977)">
<path d="M30.0975 25.0586C27.7455 25.0586 25.832 26.972 25.832 29.324C25.832 30.1521 26.0695 30.9257 26.4795 31.5807C26.492 31.6049 26.507 31.6281 26.524 31.6502C27.286 32.8168 28.6031 33.5895 30.0975 33.5895C32.4495 33.5895 34.3629 31.676 34.3629 29.324C34.3629 26.9721 32.4495 25.0586 30.0975 25.0586ZM27.0172 30.5822C26.858 30.1938 26.7695 29.7692 26.7695 29.324C26.7695 27.489 28.2624 25.9961 30.0975 25.9961C31.2204 25.9961 32.2143 26.5556 32.8173 27.41L30.2429 29.9844L29.2604 29.002C29.0773 28.8189 28.7806 28.819 28.5975 29.002L27.0172 30.5822ZM30.0975 32.652C29.0538 32.652 28.1213 32.1687 27.5107 31.4146L28.929 29.9963L29.9115 30.9788C30.0946 31.1618 30.3913 31.1618 30.5744 30.9788L33.2609 28.2923C33.3672 28.6173 33.4255 28.9639 33.4255 29.324C33.4254 31.159 31.9325 32.652 30.0975 32.652Z" fill="white"/>
<path d="M37.3091 29.0008C37.2355 26.7102 36.5945 24.4637 35.4439 22.4774C34.2189 20.3627 32.4508 18.6022 30.3308 17.3863C30.1864 17.3035 30.0088 17.3035 29.8645 17.3863C27.7445 18.6022 25.9764 20.3627 24.7514 22.4773C23.6008 24.4637 22.9598 26.7101 22.8861 29.0008C21.2429 29.706 20.1602 31.3286 20.1602 33.1376V36.4492C20.1602 36.7081 20.3701 36.918 20.6289 36.918H27.5168C27.6178 38.3279 28.2351 39.6784 29.2457 40.6741L29.7686 41.1894C29.8599 41.2793 29.9787 41.3242 30.0977 41.3242C30.2166 41.3242 30.3354 41.2793 30.4267 41.1894L30.9497 40.6741C31.9602 39.6784 32.5775 38.328 32.6785 36.918H34.1289V39.3373C34.1289 39.5962 34.3388 39.8061 34.5977 39.8061C34.8565 39.8061 35.0664 39.5962 35.0664 39.3373V36.918H39.5664C39.8252 36.918 40.0352 36.7081 40.0352 36.4492V33.1376C40.0352 31.3286 38.9524 29.706 37.3091 29.0008ZM30.0977 18.3366C31.5715 19.2234 32.8314 20.3838 33.8277 21.7305H26.3676C27.3639 20.3838 28.6238 19.2234 30.0977 18.3366ZM21.0977 35.9805V33.1376C21.0977 31.8487 21.7919 30.6793 22.8789 30.0511V35.5117C22.8789 35.6761 22.9075 35.8338 22.9595 35.9805H21.0977ZM30.2917 40.0063L30.0977 40.1975L29.9036 40.0063C29.0707 39.1857 28.5561 38.0781 28.4572 36.918H31.7381C31.6391 38.0781 31.1245 39.1857 30.2917 40.0063ZM36.3789 35.5117C36.3789 35.7702 36.1686 35.9805 35.9102 35.9805H24.2852C24.0267 35.9805 23.8164 35.7702 23.8164 35.5117V29.4455C23.8164 27.7482 24.1517 26.0943 24.774 24.5664H26.8964C27.1553 24.5664 27.3652 24.3566 27.3652 24.0977C27.3652 23.8388 27.1553 23.6289 26.8964 23.6289H25.1998C25.3646 23.3012 25.5432 22.9806 25.735 22.668H34.4603C35.6924 24.6768 36.3789 27.0167 36.3789 29.4455V35.5117ZM39.0977 35.9805H37.2358C37.2878 35.8338 37.3164 35.6761 37.3164 35.5117V30.0512C38.4034 30.6793 39.0977 31.8487 39.0977 33.1376V35.9805Z" fill="white"/>
<path d="M28.929 23.7662C28.8419 23.6791 28.7209 23.6289 28.5977 23.6289C28.4744 23.6289 28.3534 23.6791 28.2662 23.7662C28.1791 23.8534 28.1289 23.9744 28.1289 24.0977C28.1289 24.2209 28.179 24.3419 28.2662 24.4291C28.3535 24.5163 28.4744 24.5664 28.5977 24.5664C28.7209 24.5664 28.8419 24.5163 28.929 24.4291C29.0162 24.3419 29.0664 24.2209 29.0664 24.0977C29.0664 23.9744 29.0163 23.8534 28.929 23.7662Z" fill="white"/>
<path d="M25.5977 38.1719C25.3388 38.1719 25.1289 38.3817 25.1289 38.6406V40.0847C25.1289 40.3435 25.3388 40.5534 25.5977 40.5534C25.8565 40.5534 26.0664 40.3435 26.0664 40.0847V38.6406C26.0664 38.3817 25.8565 38.1719 25.5977 38.1719Z" fill="white"/>
<path d="M34.929 40.5241C34.8419 40.4369 34.7209 40.3867 34.5977 40.3867C34.4744 40.3867 34.3534 40.4369 34.2662 40.5241C34.1791 40.6112 34.1289 40.7322 34.1289 40.8555C34.1289 40.9788 34.179 41.0997 34.2662 41.1869C34.3535 41.2741 34.4744 41.3242 34.5977 41.3242C34.7209 41.3242 34.8419 41.2741 34.929 41.1869C35.0162 41.0997 35.0664 40.9788 35.0664 40.8555C35.0664 40.7322 35.0163 40.6112 34.929 40.5241Z" fill="white"/>
</g>
<defs>
<clipPath id="clip0_3684_34977">
<rect width="24" height="24" fill="white" transform="translate(18.0977 17.3242)"/>
</clipPath>
</defs>
</svg>
