<svg width="54" height="54" viewBox="0 0 54 54" fill="none" xmlns="http://www.w3.org/2000/svg">
<g clip-path="url(#clip0_1187_22211)">
<path d="M11.5673 15.0551H52.6958C52.6968 12.2155 50.3944 9.91306 47.5548 9.91406H6.42623C3.58659 9.91306 1.28415 12.2155 1.28516 15.0551V39.051C1.28415 41.8906 3.58659 44.1925 6.42623 44.192V20.1962C6.42522 17.3566 8.72766 15.0541 11.5673 15.0551Z" fill="#D4E1F4"/>
<path d="M52.0646 13.9272L26.9889 27.911L1.91311 13.9272C1.29206 13.5828 0.509856 13.8072 0.165445 14.4282C-0.178966 15.0493 0.0454533 15.832 0.666498 16.1764L26.3718 30.5071C26.5651 30.613 26.7815 30.6703 27.0019 30.6743C27.2228 30.6768 27.4407 30.6191 27.6315 30.5071L53.3368 16.1764C53.9564 15.831 54.1808 15.0498 53.8379 14.4282C53.4799 13.8087 52.6937 13.5868 52.0646 13.9272Z" fill="#33357D"/>
<path d="M47.5549 8.62891H6.42634C2.87779 8.62991 0.00150618 11.5067 0 15.0552V39.0511C0.00150618 42.5996 2.87779 45.4759 6.42634 45.4774H47.5549C51.1034 45.4759 53.9797 42.5996 53.9812 39.0511V15.0552C53.9797 11.5067 51.1034 8.62991 47.5549 8.62891ZM51.4107 39.038C51.4047 41.1652 49.6816 42.8878 47.5549 42.8938H6.42634C4.29962 42.8878 2.57656 41.1652 2.57053 39.038V15.0552C2.57656 12.928 4.29962 11.2055 6.42634 11.1994H47.5549C49.6816 11.2055 51.4047 12.928 51.4107 15.0552V39.038Z" fill="#33357D"/>
</g>
<defs>
<clipPath id="clip0_1187_22211">
<rect width="54" height="54" fill="white"/>
</clipPath>
</defs>
</svg>
