<svg width="60" height="60" viewBox="0 0 60 60" fill="none" xmlns="http://www.w3.org/2000/svg">
<rect x="0.933594" y="0.375" width="58.6447" height="58.6447" rx="6.79938" fill="#33357D"/>
<g clip-path="url(#clip0_3234_34808)">
<path d="M38.3873 23.3653L36.8599 22.2199V18.1758C31.8767 20.2515 27.2314 22.6321 21.6624 22.4972C21.6624 22.4973 19.8619 22.4973 19.8619 22.4973C15.2745 22.5441 13.6948 28.539 17.5826 30.8579L22.3622 41.219L27.8903 38.669L24.7164 31.7885C27.0847 32.1688 29.3994 32.8976 31.55 33.95L36.86 36.5484V32.417L38.3873 31.2715C41.0031 29.3582 41.0029 25.2783 38.3873 23.3653V23.3653ZM19.8619 24.241H21.6624C21.6712 24.241 21.68 24.2409 21.6888 24.2409V29.7505C21.4223 29.7421 21.1557 29.7376 20.8892 29.7376H19.8619C16.2161 29.5868 16.217 24.3914 19.8619 24.241V24.241ZM25.5765 37.8159L23.2152 38.9052L19.7898 31.4795C20.7187 31.4827 21.7643 31.4707 22.6858 31.5494L25.5765 37.8159ZM35.1161 33.7538L32.3165 32.3837C29.5412 31.0257 26.5111 30.1701 23.4325 29.8643V24.1811C26.2763 23.9893 29.0493 23.3344 31.6977 22.2261L35.1161 20.7958V33.7538ZM37.341 29.8765L36.8599 30.2373V24.3996L37.341 24.7603C39.0338 25.9985 39.0336 28.6386 37.341 29.8765Z" fill="white"/>
<path d="M42.5156 26.4453H45.1313V28.1891H42.5156V26.4453Z" fill="white"/>
<path d="M40.5 20.7734L42.3307 18.9428L43.5635 20.1756L41.7328 22.0063L40.5 20.7734Z" fill="white"/>
<path d="M40.5 33.8672L41.7328 32.6343L43.5635 34.465L42.3307 35.6979L40.5 33.8672Z" fill="white"/>
</g>
<defs>
<clipPath id="clip0_3234_34808">
<rect width="29.7473" height="29.7473" fill="white" transform="translate(15.3828 14.8242)"/>
</clipPath>
</defs>
</svg>
