<svg width="60" height="60" viewBox="0 0 60 60" fill="none" xmlns="http://www.w3.org/2000/svg">
<rect x="0.773438" y="0.492188" width="58.6447" height="58.6447" rx="6.79938" fill="#33357D"/>
<path d="M24.7977 39.1164C24.6143 38.9331 24.5227 38.6997 24.5227 38.4164C24.5227 38.1331 24.6143 37.8997 24.7977 37.7164L29.5727 32.9164C29.956 32.5331 30.431 32.3414 30.9977 32.3414C31.5643 32.3414 32.0393 32.5331 32.4227 32.9164L34.4977 34.9914L38.9727 30.5164C39.1727 30.3164 39.406 30.2164 39.6727 30.2164C39.9393 30.2164 40.1727 30.3164 40.3727 30.5164C40.5727 30.7164 40.6727 30.9541 40.6727 31.2294C40.6727 31.5047 40.5727 31.7421 40.3727 31.9414L35.9227 36.4164C35.5393 36.7997 35.0683 36.9914 34.5097 36.9914C33.951 36.9914 33.4803 36.7997 33.0977 36.4164L30.9977 34.3164L26.1977 39.1164C26.0143 39.2997 25.785 39.3957 25.5097 39.4044C25.2343 39.4131 24.997 39.3171 24.7977 39.1164ZM22.0977 38.8164C21.5477 38.8164 21.0767 38.6204 20.6847 38.2284C20.2927 37.8364 20.097 37.3657 20.0977 36.8164V22.8164C20.0977 22.2664 20.2937 21.7954 20.6857 21.4034C21.0777 21.0114 21.5483 20.8157 22.0977 20.8164H36.0977C36.6477 20.8164 37.1187 21.0124 37.5107 21.4044C37.9027 21.7964 38.0983 22.2671 38.0977 22.8164V26.8164C38.0977 27.0997 38.0017 27.3374 37.8097 27.5294C37.6177 27.7214 37.3803 27.8171 37.0977 27.8164H22.0977V38.8164ZM22.0977 25.8164H36.0977V22.8164H22.0977V25.8164Z" fill="white"/>
</svg>
