<svg width="52" height="51" viewBox="0 0 52 51" fill="none" xmlns="http://www.w3.org/2000/svg">
<path d="M17.6859 49.4091V9.14451C17.6859 6.88388 19.5183 5.05156 21.7784 5.05156H39.4018C39.2608 2.9 37.4748 1.22706 35.3188 1.22656H16.6784C14.4183 1.22656 12.5859 3.05888 12.5859 5.31951V45.5841C12.5859 47.8442 14.4183 49.6766 16.6784 49.6766H17.6954C17.6899 49.5879 17.6859 49.4988 17.6859 49.4091Z" fill="#D4E1F4"/>
<path d="M28.4959 46.2648H23.5055C22.8012 46.2648 22.2305 45.6941 22.2305 44.9898C22.2305 44.2856 22.8012 43.7148 23.5055 43.7148H28.4959C29.2001 43.7148 29.7709 44.2856 29.7709 44.9898C29.7709 45.6941 29.2001 46.2648 28.4959 46.2648Z" fill="#33357D"/>
<path d="M40.6609 5.36795C40.6609 2.40308 38.2579 0 35.293 0H16.7039C13.739 0 11.3359 2.40308 11.3359 5.36795V45.632C11.3359 48.5969 13.739 51 16.7039 51H35.293C38.2579 51 40.6609 48.5969 40.6609 45.632V5.36795ZM13.8859 9.18H38.1109V39.015H13.8859V9.18ZM16.678 2.55H35.3189C36.8419 2.53107 38.092 3.75129 38.1109 5.27432V5.31964V6.63H13.8859V5.31964C13.88 3.79611 15.1096 2.55598 16.6332 2.55H16.678ZM35.3189 48.45H16.678C15.1246 48.45 13.8859 47.1376 13.8859 45.5842V41.565H38.1109V45.5842C38.1109 47.1376 36.8723 48.45 35.3189 48.45Z" fill="#33357D"/>
</svg>
