<svg width="650" height="500" viewBox="0 0 650 500" fill="none" xmlns="http://www.w3.org/2000/svg">
<g clip-path="url(#clip0_4326_36000)">
<path d="M572.652 296.93C568.832 355.99 523.532 412.39 462.162 415.93C391.692 421.33 327.002 382.68 256.792 382.27C221.002 379.2 187.422 392.91 152.542 397.33C73.7518 400.22 61.7418 307.63 76.4418 247.95C138.412 -33.46 576.942 4.81998 572.652 296.93Z" fill="#C5CBED"/>
<path d="M474.82 378.131L408.07 381.541L390.27 500.001H455.64L470.31 409.311L504.15 500.001H568.36L534.96 363.691L474.82 378.131Z" fill="#3751AF"/>
<path d="M509.59 372.543C467.98 403.943 426.36 385.803 426.36 385.803L412 201.823C413.974 204.115 416.452 205.919 419.24 207.093C427.4 210.473 435.43 206.973 435.43 206.973C446.88 202.723 450.73 196.143 452.01 192.033L452.36 190.763C452.7 189.253 452.83 188.843 452.83 188.843L451.1 188.713L457.92 186.953L509.59 372.543Z" fill="#6BB2AB"/>
<path d="M486.499 212.912C486.421 212.313 486.112 211.767 485.637 211.394C485.162 211.02 484.559 210.847 483.959 210.912L424.579 224.652L407.579 228.572C406.986 228.663 406.449 228.977 406.078 229.448C405.707 229.919 405.529 230.514 405.579 231.112C405.659 231.71 405.969 232.254 406.443 232.627C406.917 233.001 407.518 233.174 408.119 233.112L467.499 219.372L484.499 215.452C485.092 215.36 485.628 215.047 485.999 214.576C486.37 214.104 486.549 213.51 486.499 212.912Z" fill="#DCDDF4"/>
<path d="M486.471 233.902L422.821 255.192L404.821 261.192C402.021 262.132 403.691 266.402 406.491 265.472L470.141 244.172L488.141 238.172C490.941 237.242 489.271 233.002 486.471 233.902Z" fill="#DCDDF4"/>
<path d="M506.662 269.813C506.582 269.215 506.272 268.671 505.798 268.298C505.324 267.925 504.722 267.751 504.122 267.813L430.482 280.573L409.702 284.173C409.106 284.258 408.565 284.569 408.193 285.042C407.82 285.515 407.645 286.114 407.702 286.713C407.78 287.313 408.089 287.858 408.564 288.232C409.039 288.606 409.641 288.778 410.242 288.713L483.852 276.003L504.632 272.403C505.24 272.318 505.791 272.001 506.17 271.518C506.548 271.035 506.725 270.424 506.662 269.813Z" fill="#DCDDF4"/>
<path d="M508.152 296.111C507.922 295.544 507.48 295.089 506.919 294.844C506.358 294.599 505.724 294.584 505.152 294.801L436.692 313.451L417.252 318.741C416.969 318.852 416.711 319.018 416.493 319.229C416.275 319.441 416.1 319.693 415.98 319.971C415.859 320.25 415.794 320.55 415.789 320.853C415.785 321.157 415.84 321.459 415.952 321.741C416.183 322.306 416.626 322.76 417.186 323.004C417.746 323.249 418.379 323.265 418.952 323.051L487.412 304.401L506.852 299.111C507.134 298.999 507.392 298.833 507.61 298.622C507.828 298.411 508.003 298.159 508.124 297.88C508.244 297.602 508.309 297.302 508.314 296.998C508.319 296.695 508.263 296.393 508.152 296.111Z" fill="#DCDDF4"/>
<path d="M508.122 330.893C486.262 333.973 464.319 336.286 442.292 337.833C436.112 338.266 429.925 338.637 423.732 338.943C420.732 339.093 421.302 343.653 424.252 343.513C446.292 342.393 468.275 340.513 490.202 337.873C496.355 337.133 502.499 336.33 508.632 335.463C511.552 335.053 511.052 330.483 508.122 330.893Z" fill="#DCDDF4"/>
<path d="M515.001 350.44C491.721 353.98 468.561 358.193 445.521 363.08C439.021 364.46 432.537 365.893 426.071 367.38C425.478 367.472 424.942 367.785 424.57 368.256C424.199 368.727 424.021 369.322 424.071 369.92C424.153 370.517 424.464 371.059 424.937 371.432C425.411 371.805 426.011 371.98 426.611 371.92C449.537 366.64 472.614 362.053 495.841 358.16C502.387 357.047 508.944 355.997 515.511 355.01C518.421 354.56 517.931 350 515.001 350.44Z" fill="#DCDDF4"/>
<path d="M634.002 55.7616C629.891 62.4063 624.933 68.4874 619.252 73.8516C616.185 83.907 611.36 93.3394 605.002 101.712C602.582 99.1416 594.822 92.0516 583.232 92.2816C581.442 85.7816 582.772 78.7116 581.422 72.0516C580.362 66.7716 577.592 61.7616 577.692 56.3716C577.644 55.9 577.703 55.4236 577.866 54.9784C578.029 54.5332 578.291 54.1308 578.632 53.8016C578.959 53.5928 579.334 53.4721 579.721 53.451C580.108 53.43 580.495 53.5094 580.842 53.6816C581.536 54.0308 582.149 54.5213 582.642 55.1216C585.562 58.3616 587.392 62.3816 589.102 66.3816C593.991 54.9392 600.193 44.1033 607.582 34.0916C608.067 33.2906 608.757 32.6345 609.582 32.1916C610.011 31.9795 610.506 31.9457 610.959 32.0975C611.412 32.2493 611.787 32.5743 612.002 33.0016C612.151 33.6235 612.066 34.2786 611.762 34.8416C608.589 43.0082 605.389 51.1816 602.162 59.3616H602.212C605.946 51.7634 610.378 44.529 615.452 37.7516C616.617 36.0738 617.999 34.5573 619.562 33.2416C619.849 32.9643 620.195 32.7562 620.575 32.6331C620.954 32.5101 621.357 32.4753 621.752 32.5316C622.119 32.6712 622.435 32.9191 622.658 33.2423C622.881 33.5655 623.001 33.9488 623.002 34.3416C622.992 35.1137 622.826 35.8759 622.512 36.5816C619.852 43.6516 616.722 50.5816 613.512 57.3816C617.392 51.2549 621.489 45.2549 625.802 39.3816C626.592 38.3216 627.802 37.1416 629.022 37.6816C630.022 38.1216 630.202 39.4716 630.022 40.5616C629.543 43.0221 628.611 45.3721 627.272 47.4916C624.272 52.8016 621.272 58.0516 618.272 63.3116C621.908 59.196 626.142 55.6498 630.832 52.7916C631.377 52.4177 631.988 52.1497 632.632 52.0016C632.956 51.9304 633.292 51.9456 633.608 52.0457C633.924 52.1457 634.208 52.3271 634.432 52.5716C635.172 53.5116 634.612 54.8016 634.002 55.7616Z" fill="#F99958"/>
<path d="M411.741 198.811L408.561 184.051C408.561 184.051 400.341 191.511 399.271 201.981C399.271 201.981 369.591 225.721 362.441 235.681C355.291 245.641 340.001 315.191 339.911 323.511C339.741 337.561 396.401 387.611 396.401 387.611C388.401 396.921 394.691 411.011 394.691 411.011C417.171 420.881 436.231 414.411 436.231 414.411L411.741 198.811ZM386.361 321.301L400.231 274.801L403.161 348.001L386.361 321.301Z" fill="#4E55F2"/>
<path d="M608.49 97.4625C608.49 97.4625 591.81 171.462 576.15 184.052C560.49 196.642 521.34 236.362 521.34 236.362L528.49 300.272L544.49 363.532C544.49 363.532 551.81 369.302 550.96 382.072C550.11 394.842 509.43 410.672 509.43 410.672L487.63 298.322L452.09 191.692L451.09 188.692L441 172.442C446.23 171.152 457 176.442 457 176.442L504.66 172.002L550.61 152.352L579.89 91.6525C580.44 91.5025 580.98 91.3625 581.51 91.2425C594.11 88.3725 604.18 94.3725 607.4 96.6325C608.11 97.1525 608.49 97.4625 608.49 97.4625Z" fill="#4E55F2"/>
<path d="M473.56 222.882C472.16 212.83 469.63 202.967 466.02 193.482C463.959 188.098 461.55 182.854 458.81 177.782C458.53 177.272 457.67 177.602 457.95 178.122C467.605 195.987 473.031 215.83 473.81 236.122C474.032 241.839 473.878 247.565 473.35 253.262C473.3 253.852 474.2 253.992 474.26 253.412C475.195 243.242 474.96 232.998 473.56 222.882Z" fill="#2211EA"/>
<path d="M419.859 278.642C407.481 255.593 400.695 229.956 400.049 203.802C400.049 203.212 399.119 203.312 399.129 203.902C399.79 230.144 406.596 255.866 418.999 279.002C419.279 279.492 420.139 279.162 419.859 278.642Z" fill="#2211EA"/>
<path d="M519.912 200.372C519.512 208.418 519.108 216.465 518.702 224.512L518.352 231.352C518.352 231.932 519.232 232.082 519.262 231.492C519.675 223.438 520.082 215.388 520.482 207.342L520.822 200.512C520.852 199.932 519.942 199.782 519.912 200.372Z" fill="#2211EA"/>
<path d="M529.791 205.713C527.058 213.633 524.678 221.659 522.651 229.793C522.511 230.373 523.411 230.513 523.561 229.943C525.561 221.889 527.918 213.939 530.631 206.093C530.821 205.533 530.001 205.153 529.791 205.713Z" fill="#2211EA"/>
<path d="M559.791 159.53C557.761 156.965 555.35 154.725 552.641 152.89C552.151 152.57 551.571 153.27 552.061 153.6C554.714 155.382 557.076 157.565 559.061 160.07C559.411 160.54 560.161 160 559.791 159.53Z" fill="#2211EA"/>
<path d="M400.17 261.262L400.09 274.882C400.09 275.472 401 275.362 401 274.782L401.09 261.162C401.09 260.572 400.18 260.682 400.17 261.262Z" fill="#2211EA"/>
<path d="M428.84 404.271C425.77 405.411 419.29 387.611 419.29 387.611C419.29 387.611 415.35 399.161 406.6 402.091L403.91 386.381L403.73 385.381C403.811 385.326 403.888 385.266 403.96 385.201C409.937 380.409 414.879 374.456 418.49 367.701L418.19 367.301C418.57 367.541 418.95 367.801 419.33 368.081C422.553 370.59 424.927 374.028 426.13 377.931C431.11 392.601 431.91 403.121 428.84 404.271Z" fill="#F99958"/>
<path d="M419.442 367.86C419.401 367.924 419.365 367.991 419.332 368.06C418.319 369.952 417.204 371.788 415.992 373.56C411.538 380.028 405.815 385.522 399.172 389.71C399.107 389.739 399.037 389.754 398.967 389.754C398.896 389.754 398.826 389.739 398.762 389.71C398.646 389.717 398.532 389.681 398.442 389.61L396.812 388.36C396.719 388.28 396.662 388.168 396.65 388.047C396.639 387.926 396.676 387.805 396.752 387.71C396.829 387.618 396.94 387.561 397.059 387.549C397.179 387.538 397.298 387.574 397.392 387.65C397.882 388.02 398.392 388.39 398.852 388.77C400.54 387.709 402.169 386.557 403.732 385.32C403.813 385.265 403.889 385.205 403.962 385.14C409.938 380.348 414.881 374.395 418.492 367.64L418.192 367.24C413.372 360.82 408.372 354.56 403.192 348.46C402.802 348.01 403.552 347.46 403.932 347.91C409.265 354.183 414.405 360.62 419.352 367.22C419.376 367.261 419.396 367.305 419.412 367.35C419.479 367.416 419.52 367.505 419.525 367.599C419.531 367.693 419.501 367.786 419.442 367.86Z" fill="#2211EA"/>
<path d="M418.39 388.003C416.77 394.553 411.39 399.213 405.82 402.543C404.08 403.543 402.3 404.543 400.5 405.433C399.98 405.693 400.31 406.553 400.84 406.283C407.05 403.113 413.41 399.473 417.13 393.283C418.114 391.674 418.845 389.924 419.3 388.093C419.44 387.523 418.53 387.373 418.39 388.003Z" fill="#2211EA"/>
<path d="M613.451 57.0824C612.884 58.3818 612.406 59.7182 612.021 61.0824C612.003 61.2027 612.033 61.3252 612.104 61.424C612.175 61.5228 612.281 61.5903 612.401 61.6124C612.521 61.6274 612.642 61.5966 612.74 61.5262C612.838 61.4557 612.906 61.3508 612.931 61.2324C613.292 59.9413 613.747 58.678 614.29 57.4524C614.33 57.3427 614.327 57.2221 614.281 57.1149C614.235 57.0077 614.15 56.922 614.043 56.875C613.937 56.828 613.816 56.8232 613.706 56.8617C613.596 56.9002 613.505 56.9791 613.451 57.0824Z" fill="#895B3D"/>
<path d="M618.489 65.2803C613.134 62.1449 607.251 60.0165 601.129 59.0003C601.017 58.9962 600.908 59.0329 600.821 59.1036C600.735 59.1743 600.677 59.2741 600.659 59.3844C600.64 59.4946 600.663 59.6078 600.722 59.7028C600.781 59.7977 600.872 59.868 600.979 59.9003C607.022 60.9165 612.828 63.0314 618.109 66.1403C618.619 66.4103 618.999 65.5803 618.489 65.2803Z" fill="#895B3D"/>
<path d="M592.472 72.5532C591.717 70.2182 590.739 67.9612 589.552 65.8132C589.517 65.7634 589.471 65.7212 589.419 65.6891C589.367 65.6571 589.309 65.6358 589.248 65.6264C589.188 65.6171 589.126 65.62 589.066 65.6349C589.007 65.6498 588.951 65.6764 588.902 65.7132C588.807 65.7867 588.743 65.8941 588.724 66.0132C588.706 66.1323 588.734 66.254 588.802 66.3532C589.951 68.4324 590.892 70.6196 591.612 72.8832C591.792 73.4532 592.652 73.1132 592.472 72.5532Z" fill="#895B3D"/>
<path d="M601.411 69.6514C601.011 69.2214 600.271 69.7514 600.661 70.1914C603.989 73.9113 606.23 78.4741 607.141 83.3814C607.241 83.9614 608.141 83.8614 608.051 83.2814C607.133 78.2138 604.836 73.4976 601.411 69.6514Z" fill="#895B3D"/>
<path d="M538.402 377.18C530.708 374.485 523.647 370.245 517.652 364.72C515.942 363.153 514.329 361.483 512.822 359.72C512.442 359.27 511.702 359.81 512.082 360.26C518.998 368.365 527.943 374.487 538.002 378C538.572 378.21 539.002 377.37 538.402 377.18Z" fill="#2211EA"/>
<path d="M433.23 125.832L438.46 139.572L387.88 158.842L382.65 145.102C381.274 141.559 380.595 137.783 380.65 133.982C379.102 133.742 377.649 133.081 376.45 132.072C375.873 131.656 375.441 131.069 375.215 130.395C374.989 129.72 374.98 128.992 375.19 128.312C375.479 127.744 375.89 127.246 376.393 126.853C376.895 126.461 377.478 126.184 378.1 126.042C376.57 124.922 375.1 123.312 376.1 121.342C377.1 119.372 379.22 119.012 381.2 118.952C380.05 116.852 379.03 114.202 380.72 112.112C381.136 111.63 381.67 111.264 382.269 111.048C382.868 110.833 383.512 110.776 384.14 110.882C385.157 111.058 386.124 111.447 386.98 112.022C386.581 110.102 386.685 108.111 387.28 106.242C387.397 105.843 387.628 105.487 387.944 105.217C388.26 104.947 388.648 104.775 389.06 104.722C389.516 104.702 389.97 104.773 390.398 104.931C390.826 105.089 391.217 105.331 391.55 105.642C393.032 106.869 394.649 107.922 396.37 108.782C397.281 109.21 398.219 109.574 399.18 109.872C412.86 105.072 427.43 110.602 433.23 125.832Z" fill="#3751AF"/>
<path d="M438.162 148.292C437.815 148.467 437.458 148.621 437.092 148.752L438.642 152.802C439.62 155.389 440.102 158.137 440.062 160.902C440.021 163.526 439.52 166.122 438.582 168.572C438.334 169.236 438.047 169.883 437.722 170.512C435.798 174.354 432.798 177.553 429.087 179.72C425.377 181.886 421.116 182.927 416.825 182.715C412.533 182.503 408.396 181.048 404.917 178.526C401.439 176.004 398.768 172.525 397.232 168.512L395.702 164.452C395.1 164.685 394.482 164.872 393.852 165.012C383.522 167.302 378.262 154.272 381.742 149.462L382.052 149.082C382.624 148.309 383.422 147.733 384.335 147.432C385.248 147.131 386.233 147.121 387.152 147.402C387.886 147.604 388.584 147.917 389.222 148.332L388.862 134.762C394.553 134.306 400.144 133.005 405.452 130.902C407.312 130.192 408.942 129.492 410.372 128.812C416.262 126.012 418.742 123.652 418.742 123.652C421.024 125.922 423.449 128.043 426.002 130.002L426.252 130.192C427.058 130.825 427.911 131.397 428.802 131.902C428.982 132.002 429.142 132.102 429.322 132.192C429.848 132.493 430.4 132.744 430.972 132.942L431.152 133.012C431.27 132.414 431.461 131.833 431.722 131.282C431.998 130.572 432.431 129.933 432.989 129.414C433.546 128.894 434.214 128.508 434.942 128.282C435.822 128.066 436.742 128.066 437.622 128.282C443.492 129.582 448.322 143.422 438.162 148.292Z" fill="#F99958"/>
<path d="M452.092 191.693L451.992 192.033C450.712 196.143 446.862 202.723 435.412 206.973C435.412 206.973 427.412 210.473 419.222 207.093C416.435 205.919 413.957 204.115 411.982 201.823L411.742 198.823L410.662 193.823L407.742 180.313C410.502 181.767 413.539 182.618 416.653 182.809C419.766 182.999 422.885 182.526 425.801 181.419C428.718 180.313 431.365 178.599 433.569 176.391C435.773 174.183 437.481 171.532 438.582 168.613L440.982 172.473L451.082 188.703L452.092 191.693Z" fill="#F99958"/>
<path d="M438.58 168.582C438.58 168.582 438.01 192.482 410.66 193.792L407.75 180.282C410.509 181.734 413.546 182.584 416.658 182.773C419.77 182.963 422.888 182.489 425.803 181.383C428.718 180.276 431.365 178.563 433.568 176.356C435.771 174.149 437.479 171.499 438.58 168.582Z" fill="#895B3D"/>
<path d="M420.559 157.48C418.199 158.814 415.809 160.097 413.389 161.33C412.189 155.45 410.896 149.587 409.509 143.74C409.369 143.13 408.429 143.43 408.569 144.04C410.002 150.04 411.336 156.097 412.569 162.21C412.639 162.55 413.049 162.6 413.309 162.47C415.929 161.14 418.519 159.74 421.089 158.3C421.649 158 421.119 157.17 420.559 157.48Z" fill="#895B3D"/>
<path d="M403.122 166.111C405.254 166.111 406.982 164.382 406.982 162.251C406.982 160.119 405.254 158.391 403.122 158.391C400.99 158.391 399.262 160.119 399.262 162.251C399.262 164.382 400.99 166.111 403.122 166.111Z" fill="#895B3D"/>
<path d="M430.891 152.263C433.023 152.263 434.751 150.535 434.751 148.403C434.751 146.271 433.023 144.543 430.891 144.543C428.759 144.543 427.031 146.271 427.031 148.403C427.031 150.535 428.759 152.263 430.891 152.263Z" fill="#895B3D"/>
<path d="M402.974 154.575C404.343 153.892 404.769 151.968 403.926 150.278C403.082 148.588 401.289 147.771 399.92 148.455C398.551 149.138 398.125 151.061 398.968 152.752C399.812 154.442 401.605 155.258 402.974 154.575Z" fill="#36344C"/>
<path d="M422.076 145.88C423.444 145.196 423.87 143.273 423.027 141.583C422.184 139.892 420.39 139.076 419.021 139.759C417.653 140.442 417.227 142.366 418.07 144.056C418.913 145.746 420.707 146.563 422.076 145.88Z" fill="#36344C"/>
<path d="M400.57 143.171C400.186 142.827 399.685 142.645 399.17 142.661L398.65 142.751C398.32 142.857 398.024 143.047 397.79 143.301L394.39 146.301C394.048 146.682 393.866 147.18 393.88 147.691C393.891 147.954 393.954 148.212 394.066 148.451C394.178 148.69 394.335 148.904 394.53 149.081C394.912 149.419 395.41 149.598 395.92 149.581L396.44 149.491C396.773 149.393 397.071 149.202 397.3 148.941L400.7 145.941C400.872 145.755 401.007 145.536 401.094 145.297C401.182 145.059 401.221 144.805 401.21 144.551C401.186 144.025 400.956 143.529 400.57 143.171Z" fill="#36344C"/>
<path d="M413.561 136.681C413.52 136.173 413.674 135.669 413.991 135.271L414.381 134.901C414.677 134.696 415.023 134.575 415.381 134.551L419.811 133.631C420.065 133.605 420.321 133.63 420.564 133.704C420.808 133.778 421.035 133.899 421.231 134.061C421.641 134.398 421.9 134.883 421.951 135.411C421.993 135.918 421.839 136.423 421.521 136.821L421.131 137.181C420.84 137.395 420.492 137.52 420.131 137.541L415.701 138.461C415.448 138.486 415.192 138.462 414.948 138.388C414.705 138.314 414.478 138.193 414.281 138.031C413.872 137.694 413.613 137.208 413.561 136.681Z" fill="#36344C"/>
<path d="M430.61 164.002C430.242 165.343 429.531 166.564 428.547 167.546C427.564 168.528 426.341 169.237 425 169.602C422.71 170.232 419.41 169.912 419 167.042C418.59 164.172 421.19 162.442 423.69 162.272C423.776 161.156 424.118 160.075 424.69 159.112C425.38 157.962 426.57 156.852 428.03 157.112C431 157.632 431.23 161.722 430.61 164.002Z" fill="#DCDDF4"/>
<path d="M111.24 197L102.67 245L31.8302 223.86C31.8302 223.86 10.0802 216.42 21.8302 189.74C33.5802 163.06 53.6902 124.56 53.6902 124.56C53.6902 124.56 67.6002 69.7001 72.0002 69.5801C76.4002 69.4601 73.7002 85.8301 73.7002 85.8301C73.7002 85.8301 84.1502 57.5101 88.6402 62.1801C88.6402 62.1801 90.2802 59.9301 92.2802 61.0901C94.2802 62.2501 93.3702 66.1801 93.3702 66.1801C93.3702 66.1801 95.0702 62.9701 97.2502 64.3601C99.4302 65.7501 92.0002 107.3 92.0002 107.3C92.0002 107.3 108.8 98.7201 113.4 104.54C116.11 107.96 101.4 111.79 97.6102 116.03C93.8202 120.27 82.9002 130.31 78.1102 130.47L60.1102 191.35L111.24 197Z" fill="#F99958"/>
<path d="M73.1887 86.09L70.9387 94.53C70.7887 95.1 71.6887 95.24 71.8487 94.68L74.0987 86.24C74.2487 85.67 73.3387 85.53 73.1887 86.09Z" fill="#2C32C4"/>
<path d="M87.6216 62.8627C84.9549 70.2427 82.5883 77.7093 80.5216 85.2627C79.9316 87.4027 79.3616 89.5627 78.8116 91.7127C78.6716 92.2927 79.5716 92.4327 79.7216 91.8627C81.6416 84.3093 83.8383 76.8393 86.3116 69.4527C86.9783 67.3727 87.6949 65.3027 88.4616 63.2427C88.6616 62.6927 87.8216 62.3027 87.6216 62.8627Z" fill="#2C32C4"/>
<path d="M85.4083 93.3803C88.135 84.1937 90.8683 75.0037 93.6083 65.8103C93.7683 65.2403 92.8683 65.1003 92.6983 65.6603L84.5083 93.2303C84.4888 93.3058 84.4888 93.3849 84.5083 93.4603C81.5118 92.2545 78.3418 91.5355 75.1183 91.3303C74.5283 91.3303 74.3783 92.2103 74.9683 92.2403C79.8411 92.5389 84.5661 94.0291 88.7283 96.5803C89.2383 96.8903 89.6083 96.0503 89.1083 95.7503C87.8282 94.9821 86.491 94.3135 85.1083 93.7503C85.1857 93.7193 85.2538 93.669 85.3063 93.6042C85.3588 93.5395 85.3939 93.4624 85.4083 93.3803Z" fill="#2C32C4"/>
<path d="M81.8916 105.552L71.5416 112.812C71.0516 113.152 71.5416 113.902 72.0816 113.562L82.4316 106.292C82.9116 106.002 82.3716 105.212 81.8916 105.552Z" fill="#2C32C4"/>
<path d="M311.33 463.66C310.85 468.02 295.99 484.47 294.48 482.58C292.97 480.69 297.27 470.33 297.27 470.33C297.27 470.33 287 478.7 285.5 476.88C284 475.06 289.26 469.12 289.26 469.12C289.26 469.12 285.68 468.39 285.86 465.48C285.86 465.48 283.62 469.48 280.16 469.12C276.7 468.76 285.16 450.44 285.16 450.44C285.16 450.44 275.45 440.71 282.49 425.5L242.73 289.77L270.52 269.18L288 323.72C292.261 337.012 295.32 350.66 297.14 364.5L304.8 422.83C304.8 422.83 311.82 459.29 311.33 463.66Z" fill="#F99958"/>
<path d="M296.219 454.28C295.66 458.317 294.061 462.138 291.579 465.37C292.063 464.188 292.471 462.975 292.799 461.74C294.761 455.103 295.593 448.183 295.259 441.27C295.259 440.68 294.319 440.79 294.349 441.38C294.62 447.276 294.037 453.181 292.619 458.91C292.269 460.32 291.869 461.73 291.409 463.12C291.148 464.293 290.648 465.4 289.939 466.37C288.939 467.49 287.639 466.71 287.189 465.49C286.803 464.109 286.562 462.691 286.469 461.26C285.989 457.84 285.569 454.4 285.199 450.96C285.175 450.849 285.111 450.75 285.019 450.683C284.926 450.616 284.812 450.586 284.699 450.598C284.585 450.611 284.481 450.665 284.405 450.75C284.329 450.836 284.288 450.946 284.289 451.06C284.662 454.5 285.086 457.937 285.559 461.37C285.663 462.877 285.924 464.368 286.339 465.82C286.506 466.393 286.853 466.896 287.329 467.256C287.804 467.616 288.383 467.814 288.979 467.82C289.132 467.81 289.284 467.779 289.429 467.73C289.199 467.95 288.989 468.19 288.759 468.4C288.319 468.79 288.859 469.54 289.299 469.14C293.56 465.292 296.328 460.066 297.119 454.38C297.112 454.273 297.067 454.171 296.992 454.093C296.918 454.015 296.818 453.966 296.711 453.954C296.604 453.942 296.496 453.968 296.406 454.028C296.316 454.087 296.25 454.177 296.219 454.28Z" fill="#2C32C4"/>
<path d="M301.362 454.9C301.132 454.36 300.272 454.69 300.502 455.24C302.732 460.59 299.572 466.04 296.722 470.44C296.402 470.93 297.112 471.52 297.432 471.02C300.472 466.34 303.722 460.59 301.362 454.9Z" fill="#2C32C4"/>
<path d="M116.169 395.063L107.199 500.003H174.389L185.879 420.213L201.079 500.003H268.379L256.149 388.273L116.169 395.063Z" fill="#4E55F2"/>
<path d="M211 122.002C210.12 126.342 208 130.362 205.77 134.162C202.47 139.802 198.54 145.282 196.19 151.402C196.45 151.542 191.8 154.472 190.29 154.802C186.543 155.642 182.62 155.113 179.23 153.312C176.211 151.69 173.766 149.175 172.23 146.112C168.817 148.838 164.754 150.63 160.44 151.312C153.18 152.392 145.28 149.402 141.44 142.962C138 137.232 138.72 129.302 143.65 124.672C141.177 122.046 139.544 118.742 138.96 115.182C138.344 111.912 138.657 108.535 139.865 105.435C141.072 102.334 143.125 99.6346 145.79 97.6422C148.42 95.7643 151.49 94.5941 154.703 94.2439C157.917 93.8936 161.166 94.3751 164.14 95.6422C167.451 92.327 171.813 90.2683 176.478 89.8194C181.142 89.3705 185.817 90.5595 189.7 93.1822C192.017 94.8158 193.972 96.9107 195.441 99.3353C196.911 101.76 197.863 104.462 198.24 107.272C200.082 106.553 202.108 106.457 204.01 106.999C205.911 107.541 207.583 108.691 208.77 110.272C211.32 113.532 211.78 118.002 211 122.002Z" fill="#36344C"/>
<path d="M199.119 145.781L199.389 150.101C199.573 152.86 199.233 155.628 198.389 158.261C197.578 160.757 196.332 163.09 194.709 165.151C192.334 168.155 189.222 170.492 185.676 171.935C182.13 173.378 178.27 173.878 174.473 173.385C170.677 172.893 167.072 171.425 164.011 169.125C160.951 166.825 158.538 163.771 157.009 160.261C155.989 157.92 155.386 155.419 155.229 152.871L154.949 148.551C142.639 149.321 141.039 133.861 146.059 130.101L146.459 129.821C149.909 127.581 152.599 130.121 153.529 131.231C153.645 131.208 153.757 131.164 153.859 131.101C157.127 129.765 160.035 127.679 162.348 125.01C164.66 122.342 166.312 119.166 167.169 115.741C170.834 118.355 175.331 119.533 179.807 119.05C184.283 118.567 188.426 116.457 191.449 113.121C191.658 118.842 193.993 124.28 197.999 128.371V128.931C197.999 128.931 199.739 125.431 202.999 125.571C203.908 125.615 204.792 125.886 205.569 126.361C211.079 129.451 211.449 145.001 199.119 145.781Z" fill="#F99958"/>
<path d="M202.29 188.681C202.29 188.681 202.04 189.031 201.29 190.371L200.59 191.481C198.14 195.031 192.52 200.181 180.32 200.861C180.32 200.861 171.63 201.861 164.83 196.181C161.696 193.506 159.435 189.953 158.34 185.981L160.13 186.061L160.59 180.941L161.79 167.181C163.996 169.386 166.646 171.096 169.564 172.199C172.482 173.301 175.601 173.771 178.714 173.576C181.828 173.381 184.864 172.527 187.622 171.069C190.379 169.611 192.795 167.584 194.71 165.121L200.71 188.011L202.29 188.681Z" fill="#F99958"/>
<path d="M194.681 165.16C194.681 165.16 187.061 187.81 160.551 180.99L161.761 167.22C163.967 169.425 166.617 171.135 169.535 172.238C172.453 173.341 175.572 173.81 178.685 173.615C181.799 173.42 184.835 172.566 187.592 171.108C190.35 169.65 192.766 167.623 194.681 165.16Z" fill="#2F2F35"/>
<path d="M180.751 149.222C178.085 149.789 175.418 150.309 172.751 150.782C173.331 144.782 173.828 138.799 174.241 132.832C174.241 132.202 173.301 132.212 173.241 132.832C172.821 139.019 172.305 145.199 171.691 151.372C171.691 151.722 172.041 151.892 172.321 151.842C175.221 151.342 178.108 150.782 180.981 150.162C181.631 150.002 181.371 149.092 180.751 149.222Z" fill="#2C32C4"/>
<path d="M187.089 150.492C187.06 152.421 186.511 154.307 185.499 155.949C184.487 157.591 183.049 158.93 181.339 159.822C180.779 160.112 181.279 160.962 181.839 160.672C183.696 159.69 185.255 158.227 186.352 156.436C187.45 154.645 188.046 152.592 188.079 150.492C188.062 150.373 188.002 150.264 187.911 150.185C187.82 150.106 187.704 150.062 187.584 150.062C187.463 150.062 187.347 150.106 187.256 150.185C187.165 150.264 187.106 150.373 187.089 150.492Z" fill="#36344C"/>
<path d="M162.669 152.482C164.8 152.482 166.529 150.754 166.529 148.622C166.529 146.49 164.8 144.762 162.669 144.762C160.537 144.762 158.809 146.49 158.809 148.622C158.809 150.754 160.537 152.482 162.669 152.482Z" fill="#2F2F35"/>
<path d="M193.29 147.462C195.422 147.462 197.15 145.734 197.15 143.602C197.15 141.47 195.422 139.742 193.29 139.742C191.158 139.742 189.43 141.47 189.43 143.602C189.43 145.734 191.158 147.462 193.29 147.462Z" fill="#2F2F35"/>
<path d="M164.79 141.289C166.3 141.042 167.276 139.33 166.97 137.466C166.664 135.602 165.192 134.292 163.683 134.54C162.173 134.787 161.197 136.499 161.503 138.363C161.809 140.227 163.281 141.537 164.79 141.289Z" fill="#36344C"/>
<path d="M185.607 138.641C187.116 138.393 188.092 136.681 187.786 134.818C187.48 132.954 186.009 131.643 184.499 131.891C182.989 132.139 182.014 133.851 182.319 135.715C182.625 137.579 184.097 138.889 185.607 138.641Z" fill="#36344C"/>
<path d="M165.872 129.64C165.608 129.2 165.186 128.877 164.692 128.74L164.172 128.68C163.82 128.677 163.474 128.771 163.172 128.95L159.042 130.8C158.601 131.063 158.279 131.486 158.142 131.98C158.01 132.491 158.085 133.034 158.352 133.49C158.615 133.93 159.038 134.252 159.532 134.39L160.052 134.45C160.404 134.455 160.75 134.361 161.052 134.18L165.182 132.33C165.403 132.203 165.596 132.033 165.75 131.83C165.905 131.628 166.018 131.396 166.082 131.15C166.214 130.638 166.138 130.096 165.872 129.64Z" fill="#36344C"/>
<path d="M180.2 127.292C180.312 126.789 180.612 126.348 181.04 126.062L181.51 125.832C181.833 125.727 182.177 125.706 182.51 125.772L187.01 126.202C187.512 126.31 187.952 126.607 188.24 127.032C188.528 127.475 188.629 128.014 188.52 128.532C188.418 129.035 188.119 129.478 187.69 129.762L187.22 129.992C186.898 130.096 186.553 130.117 186.22 130.052L181.72 129.622C181.219 129.513 180.779 129.216 180.49 128.792C180.199 128.35 180.095 127.81 180.2 127.292Z" fill="#36344C"/>
<path d="M119.109 401.26C119.109 401.26 178.519 426.26 260.739 417.54L255.369 370.75L119.109 401.26Z" fill="#DCDDF4"/>
<path d="M246.2 314.11L258.69 382.91C258.69 382.91 219.33 393.71 187.79 398.81C156.25 403.91 112.05 400.89 112.05 400.89L119.05 325.02L114 260.83L108.66 250.55L83.6602 242.79L88.5102 191.23C88.5102 191.23 119 187.31 130.16 186C141.32 184.69 158.31 186 158.31 186C159.406 189.972 161.666 193.525 164.8 196.2C171.6 201.84 180.29 200.88 180.29 200.88C192.49 200.2 198.11 195.05 200.56 191.5C200.83 191.1 201.07 190.73 201.26 190.39C202.02 189.05 202.26 188.7 202.26 188.7C202.26 188.7 241.16 196.7 252.07 212.88C262.98 229.06 275.77 271.43 275.77 271.43L246.17 290.83L246.2 314.11Z" fill="#3751AF"/>
<path d="M116.49 256.051C114.536 247.816 113.1 239.466 112.19 231.051C111.93 228.645 111.716 226.235 111.55 223.821C111.55 223.231 110.55 223.331 110.63 223.921C111.237 232.354 112.372 240.741 114.03 249.031C114.496 251.405 115.013 253.768 115.58 256.121C115.72 256.721 116.63 256.631 116.49 256.051Z" fill="#232E8E"/>
<path d="M110.308 246.773L103.438 228.123C103.386 228.021 103.297 227.943 103.19 227.904C103.083 227.864 102.965 227.866 102.859 227.908C102.754 227.95 102.667 228.031 102.617 228.133C102.567 228.236 102.557 228.353 102.588 228.463C104.868 234.669 107.155 240.886 109.448 247.113C109.648 247.663 110.508 247.333 110.308 246.773Z" fill="#232E8E"/>
<path d="M244.581 245.122L244.221 232.282C244.221 231.692 243.291 231.792 243.301 232.382L244.591 278.002L244.951 290.842C244.951 291.432 245.881 291.322 245.861 290.732C245.441 275.539 245.014 260.336 244.581 245.122Z" fill="#232E8E"/>
<path d="M223.721 301.383C214.074 304.05 204.504 307.023 195.011 310.303C185.518 313.583 176.184 317.12 167.011 320.913C161.791 323.073 156.611 325.32 151.471 327.653C150.931 327.893 151.261 328.753 151.801 328.513C160.921 324.366 170.164 320.5 179.531 316.913C188.898 313.326 198.328 310.04 207.821 307.053C213.208 305.353 218.624 303.75 224.071 302.243C224.631 302.083 224.291 301.223 223.721 301.383Z" fill="#232E8E"/>
<path d="M194.471 320.472C185.879 322.17 177.416 324.462 169.141 327.332C168.581 327.522 168.911 328.382 169.471 328.182C177.672 325.343 186.059 323.071 194.571 321.382C195.141 321.272 195.051 320.352 194.471 320.472Z" fill="#232E8E"/>
<path d="M216.002 275.933C216.002 278.213 214.402 279.593 212.472 280.423C210.002 281.493 207.472 282.363 204.942 283.303C194.575 287.19 184.132 290.88 173.612 294.373C163.092 297.867 152.515 301.147 141.882 304.213C140.562 304.593 139.242 304.983 137.882 305.353C136.732 305.673 135.572 306.063 134.382 306.303C132.882 306.603 130.862 306.733 129.642 305.593C127.832 303.883 129.362 301.473 130.332 299.783C131.652 297.523 132.982 295.273 134.332 293.043C134.992 291.963 135.682 290.903 136.332 289.833C140.332 283.013 144.615 276.347 149.182 269.833C155.044 261.487 161.325 253.443 168.002 245.733C169.702 243.733 171.432 241.823 173.172 239.903C174.65 238.058 176.327 236.381 178.172 234.903C179.022 234.261 180.036 233.871 181.097 233.779C182.158 233.687 183.224 233.896 184.172 234.383C186.262 235.453 187.872 237.383 189.472 239.043C196.603 246.503 203.133 254.515 209.002 263.003C210.475 265.15 211.905 267.323 213.292 269.523C214.472 271.413 216.002 273.563 216.002 275.933Z" fill="#3C54D3"/>
<path d="M163.319 277.533C174.343 277.533 183.279 268.597 183.279 257.573C183.279 246.55 174.343 237.613 163.319 237.613C152.296 237.613 143.359 246.55 143.359 257.573C143.359 268.597 152.296 277.533 163.319 277.533Z" fill="#4E55F2"/>
<path d="M386.729 500H333.479L319.139 410.26L303.569 500H254.169C254.169 500 250.999 443 254.409 398.59C256.209 375.04 263.158 358.2 269.268 347.59C269.268 347.59 273.579 357.93 281.779 361.08C298.309 367.44 318.779 369.18 338.539 339.84L364.789 337.57C365.503 338.389 366.171 339.247 366.789 340.14C369.789 344.35 372.329 350 374.499 356.58C387.709 396.65 386.729 500 386.729 500Z" fill="#6BB2AB"/>
<path d="M317.729 343.712L317.469 373.932L317.398 381.932L311.148 382.032L312.148 352.902L312.419 344.542C312.419 343.952 311.538 343.802 311.518 344.392C311.185 354.279 310.852 364.169 310.518 374.062C310.428 376.852 310.338 379.632 310.238 382.422C310.229 382.492 310.236 382.564 310.258 382.631C310.28 382.698 310.317 382.759 310.366 382.81C310.415 382.861 310.475 382.9 310.541 382.925C310.607 382.95 310.678 382.959 310.749 382.952L317.919 382.842C318.189 382.842 318.318 382.562 318.328 382.332L318.588 352.122L318.669 343.652C318.649 343.002 317.739 343.122 317.729 343.712Z" fill="#389688"/>
<path d="M314.429 405.373C308.922 399.713 303.419 394.046 297.919 388.373L293.209 383.523C292.799 383.103 292.209 383.813 292.629 384.233L309.139 401.233C310.709 402.843 312.269 404.463 313.839 406.083C314.259 406.513 314.829 405.793 314.429 405.373Z" fill="#389688"/>
<path d="M308.469 405.403C303.569 403.563 298.595 401.956 293.549 400.583C292.979 400.433 292.839 401.343 293.399 401.493C298.372 402.826 303.269 404.406 308.089 406.233C308.639 406.443 308.999 405.603 308.469 405.403Z" fill="#389688"/>
<path d="M411.48 238.87C406.67 253.11 388.12 251.95 380.07 263.48C362.53 283.3 356.21 269.1 340.21 258.66C327.9 253.21 311.6 259.98 301.4 249.31C292.4 236.36 303.27 225.81 288.33 212.14C280.87 202.03 291.15 191.42 292.95 181.2C295.44 168.13 293.31 153.53 300.56 141.75C311.21 124.48 335.33 119 350.23 133.13C357.46 138.75 358.95 147.69 361.8 155.87C363.79 161.553 367.481 166.486 372.37 170C386.49 180.17 381.88 177.84 385.78 198.61C394.23 214.46 419.17 212.92 411.48 238.87Z" fill="#36344C"/>
<path d="M406.24 235.763C322.47 258.213 296.24 218.593 292.06 210.923C291.87 210.583 291.73 210.283 291.63 210.083C291.53 209.883 291.43 209.673 291.43 209.673L316.35 207.543V205.343L316.51 191.233C320.443 194.924 325.674 196.913 331.065 196.767C336.457 196.621 341.572 194.352 345.3 190.453L349.76 206.923C357.69 208.073 373.76 210.533 382.76 212.923C395.08 216.163 402.62 229.783 402.62 229.783L406.24 235.763Z" fill="#895B3D"/>
<path d="M352.629 242.303L366.229 209.523L369.429 210.083L368.249 242.303C368.249 242.303 364.119 247.403 352.629 242.303Z" fill="#2F2F35"/>
<path d="M345.32 190.461C345.32 190.461 337.69 202.521 316.41 201.961L316.53 191.231C320.463 194.921 325.693 196.91 331.083 196.765C336.474 196.621 341.59 194.356 345.32 190.461Z" fill="#2F2F35"/>
<path d="M350.18 172.58L350.43 176.42C350.772 181.629 349.031 186.76 345.59 190.685C342.149 194.611 337.289 197.008 332.08 197.35C326.871 197.692 321.74 195.951 317.815 192.51C313.89 189.068 311.492 184.209 311.15 179L310.9 175.17C299.95 175.87 298.52 162.17 302.97 158.78C306.3 156.28 308.92 158.92 309.69 159.88C309.85 160.07 329.05 149.62 336.5 141.83C337.5 140.83 338.39 139.83 339.28 138.75L339.4 138.84C339.63 139.77 339.91 140.68 340.21 141.59C342.137 147.378 345.197 152.725 349.21 157.32V157.65C349.21 157.65 351.56 152.89 355.93 155.35C357.01 156.041 357.843 157.056 358.31 158.25C358.38 158.44 358.46 158.63 358.53 158.83C360.32 163.84 358.54 172 350.18 172.58Z" fill="#895B3D"/>
<path d="M333.139 175.162C330.739 175.442 328.339 175.662 325.939 175.852C326.979 170.625 327.939 165.379 328.819 160.112C328.909 159.552 328.039 159.472 327.949 160.022C327.042 165.462 326.042 170.885 324.949 176.292C324.889 176.602 325.209 176.782 325.459 176.762C328.069 176.572 330.669 176.322 333.269 176.032C333.849 176.002 333.699 175.102 333.139 175.162Z" fill="#2F2F35"/>
<path d="M317.211 176.493C319.106 176.493 320.641 174.957 320.641 173.063C320.641 171.168 319.106 169.633 317.211 169.633C315.317 169.633 313.781 171.168 313.781 173.063C313.781 174.957 315.317 176.493 317.211 176.493Z" fill="#2F2F35"/>
<path d="M344.731 174.712C346.625 174.712 348.161 173.176 348.161 171.282C348.161 169.387 346.625 167.852 344.731 167.852C342.836 167.852 341.301 169.387 341.301 171.282C341.301 173.176 342.836 174.712 344.731 174.712Z" fill="#2F2F35"/>
<path d="M319.714 166.776C321.07 166.688 322.081 165.259 321.973 163.583C321.865 161.908 320.678 160.621 319.322 160.708C317.966 160.796 316.955 162.225 317.063 163.901C317.172 165.576 318.359 166.863 319.714 166.776Z" fill="#36344C"/>
<path d="M338.313 168.112C339.672 168.031 340.691 166.603 340.591 164.924C340.49 163.246 339.307 161.951 337.948 162.032C336.59 162.114 335.57 163.541 335.671 165.22C335.771 166.899 336.954 168.194 338.313 168.112Z" fill="#36344C"/>
<path d="M321.69 156.553C321.484 156.136 321.126 155.814 320.69 155.653L320.24 155.553C319.931 155.519 319.619 155.574 319.34 155.713L315.55 157.003C315.134 157.206 314.815 157.566 314.66 158.003C314.497 158.434 314.51 158.912 314.698 159.333C314.885 159.754 315.231 160.085 315.66 160.253L316.12 160.353C316.428 160.383 316.739 160.331 317.02 160.203L320.83 158.923C321.251 158.722 321.575 158.362 321.73 157.923C321.895 157.478 321.881 156.987 321.69 156.553Z" fill="#36344C"/>
<path d="M334.571 155.72C334.713 155.292 335.013 154.934 335.411 154.72L335.851 154.56C336.149 154.48 336.462 154.48 336.761 154.56L340.711 155.33C341.14 155.47 341.498 155.771 341.711 156.17C341.82 156.372 341.889 156.595 341.912 156.824C341.935 157.053 341.913 157.285 341.846 157.505C341.779 157.726 341.669 157.931 341.522 158.108C341.375 158.286 341.195 158.433 340.991 158.54L340.551 158.7C340.253 158.785 339.938 158.785 339.641 158.7L335.701 157.93C335.272 157.788 334.915 157.487 334.701 157.09C334.479 156.668 334.432 156.176 334.571 155.72Z" fill="#36344C"/>
<path d="M339.21 184.251C338.421 185.27 337.369 186.054 336.167 186.519C334.966 186.985 333.66 187.113 332.39 186.891C330.1 186.501 326.72 184.311 327.98 181.551C328.98 179.421 331.79 179.551 333.71 180.401C334.065 179.87 334.5 179.397 335 179.001C335.495 178.616 336.075 178.357 336.692 178.245C337.308 178.134 337.942 178.174 338.54 178.361C339.064 178.54 339.523 178.872 339.858 179.314C340.193 179.756 340.389 180.287 340.42 180.841C340.447 182.087 340.017 183.3 339.21 184.251Z" fill="#DCDDF4"/>
<path d="M280.241 278.403L279.751 312.683C272.931 326.613 262.341 333.683 251.071 332.683C230.711 330.993 217.121 244.393 217.121 244.403C213.651 239.723 212.001 234.003 210.001 228.513C207.001 220.284 203.213 212.364 198.691 204.863C198.211 204.063 197.691 203.013 198.261 202.253C198.536 201.956 198.894 201.749 199.289 201.66C199.683 201.57 200.096 201.603 200.471 201.753C202.561 202.343 204.061 204.153 205.401 205.863C208.068 209.303 210.758 212.736 213.471 216.163C211.116 208.923 209.314 201.515 208.081 194.003C207.635 191.666 207.676 189.263 208.201 186.943C208.254 186.628 208.381 186.33 208.573 186.074C208.764 185.818 209.014 185.612 209.301 185.473C209.54 185.422 209.787 185.433 210.019 185.505C210.252 185.577 210.463 185.707 210.631 185.883C210.972 186.23 211.24 186.641 211.421 187.093C212.593 189.692 213.595 192.364 214.421 195.093L219.701 211.423C217.821 202.423 215.971 193.363 215.601 184.173C215.547 183.659 215.594 183.139 215.741 182.643C215.813 182.39 215.954 182.163 216.149 181.986C216.343 181.809 216.583 181.69 216.841 181.643C217.119 181.652 217.392 181.724 217.638 181.854C217.884 181.984 218.097 182.168 218.261 182.393C219.207 183.526 219.96 184.806 220.491 186.183C222 189.906 223.272 193.72 224.301 197.603C225.441 201.603 226.591 205.533 227.721 209.493C226.491 200.833 225.331 192.033 226.601 183.383C226.721 182.533 227.031 181.503 227.871 181.323C228.711 181.143 229.411 181.933 229.871 182.663C231.501 185.513 232.071 188.823 232.651 192.053C234.198 200.873 235.981 209.639 238.001 218.353C240.568 212.998 243.61 207.884 247.091 203.073C247.473 202.463 247.981 201.941 248.581 201.543C248.877 201.345 249.225 201.239 249.581 201.239C249.937 201.239 250.285 201.345 250.581 201.543C250.881 201.885 251.088 202.298 251.182 202.742C251.277 203.187 251.256 203.649 251.121 204.083C250.231 209.663 247.681 214.843 246.201 220.293C245.201 224.033 244.691 227.883 243.711 231.623C242.918 235.161 241.317 238.468 239.031 241.283L253.211 274.283L257.521 263.443C264.394 269.419 272.035 274.451 280.241 278.403Z" fill="#895B3D"/>
<path d="M430.499 323.2C416.309 333.74 374.549 356.57 374.549 356.57L375.329 376.93C366.179 375.87 359.929 365.39 359.929 365.39C359.929 365.39 357.269 384.15 354.039 383.66C350.809 383.17 349.399 372.72 351.229 357.31C353.059 341.9 366.839 340.11 366.839 340.11L398.159 306.11L392.159 294.86C400.839 292.53 413.959 287.78 424.349 278.73L431.349 292.08C431.349 292.08 444.679 312.67 430.499 323.2Z" fill="#895B3D"/>
<path d="M428.999 278.73C418.609 287.73 405.489 292.53 396.809 294.86C393.75 295.706 390.645 296.373 387.509 296.86L376.779 282.07L364.839 337.55L338.589 339.82C318.809 369.16 301.229 373.01 279.499 361.75C271.709 357.75 269.319 347.57 269.319 347.57C274.739 338.18 279.499 333.65 279.499 333.65L279.799 312.65L280.289 278.36C272.06 274.451 264.395 269.453 257.499 263.5C255.586 261.861 253.813 260.065 252.199 258.13C256.426 247.075 261.24 236.253 266.619 225.71C274.809 209.99 291.429 209.66 291.429 209.66C291.429 209.66 291.489 209.81 291.629 210.08C291.769 210.35 291.869 210.57 292.059 210.92C296.259 218.59 322.469 258.21 406.239 235.76L428.999 278.73Z" fill="#DCDDF4"/>
<path d="M229.599 209.702C223.694 211.092 218.041 213.389 212.839 216.512C212.329 216.822 212.839 217.562 213.379 217.262C218.448 214.217 223.956 211.974 229.709 210.612C230.269 210.482 230.179 209.562 229.599 209.702Z" fill="#2317AA"/>
<path d="M233.468 239.643C229.921 241.016 226.525 242.756 223.338 244.833C222.848 245.163 223.338 245.903 223.878 245.583C227.003 243.547 230.331 241.841 233.808 240.493C233.91 240.44 233.988 240.352 234.027 240.245C234.067 240.138 234.066 240.02 234.023 239.914C233.981 239.808 233.901 239.722 233.798 239.672C233.696 239.622 233.578 239.611 233.468 239.643Z" fill="#2317AA"/>
<path d="M267.071 298.742L254.411 275.202C254.131 274.692 253.271 275.012 253.551 275.542L266.211 299.082C266.491 299.592 267.351 299.262 267.071 298.742Z" fill="#2317AA"/>
<path d="M361.199 361.082C361.079 361.067 360.958 361.098 360.86 361.168C360.762 361.238 360.694 361.343 360.669 361.462L359.669 365.462C359.66 365.522 359.663 365.583 359.677 365.641C359.692 365.7 359.717 365.755 359.753 365.804C359.789 365.853 359.834 365.894 359.886 365.925C359.937 365.957 359.995 365.978 360.054 365.987C360.114 365.996 360.175 365.993 360.234 365.979C360.293 365.965 360.348 365.939 360.397 365.903C360.445 365.867 360.487 365.822 360.518 365.771C360.549 365.719 360.57 365.662 360.579 365.602L361.579 361.602C361.589 361.543 361.587 361.482 361.574 361.424C361.56 361.365 361.534 361.31 361.499 361.262C361.464 361.213 361.419 361.172 361.367 361.142C361.316 361.111 361.259 361.09 361.199 361.082Z" fill="#2317AA"/>
<path d="M373.201 352.361C372.248 350.361 371.291 348.344 370.331 346.311C370.081 345.771 369.221 346.101 369.471 346.641L372.351 352.691C372.601 353.221 373.461 352.891 373.201 352.361Z" fill="#2317AA"/>
<path d="M378.471 377.213C371.045 375.692 364.456 371.447 360.001 365.313C359.93 365.214 359.821 365.147 359.7 365.127C359.579 365.107 359.456 365.137 359.356 365.208C359.257 365.28 359.19 365.388 359.17 365.509C359.15 365.63 359.18 365.754 359.251 365.853C362.83 370.771 367.76 374.543 373.441 376.713C375.042 377.312 376.687 377.783 378.361 378.123C378.901 378.233 379.001 377.333 378.471 377.213Z" fill="#389688"/>
<path d="M280.129 249.65C280.129 249.06 279.219 249.17 279.219 249.75L279.339 274.52C279.339 275.11 280.249 275 280.249 274.42L280.129 249.65Z" fill="#B0B2E2"/>
<path d="M319.999 276.39C316.6 280.55 311.896 283.44 306.649 284.59C302.542 285.446 298.28 285.188 294.306 283.843C290.333 282.498 286.791 280.114 284.049 276.94C283.669 276.5 282.919 277.03 283.309 277.48C286.988 281.741 292.011 284.62 297.549 285.64C301.828 286.379 306.227 285.968 310.296 284.45C314.365 282.932 317.959 280.361 320.709 277C320.789 276.905 320.83 276.783 320.82 276.659C320.811 276.535 320.753 276.42 320.659 276.34C320.564 276.259 320.442 276.219 320.318 276.228C320.194 276.237 320.079 276.295 319.999 276.39Z" fill="#B0B2E2"/>
<path d="M368.411 276.79C365.013 280.95 360.308 283.84 355.061 284.99C350.955 285.844 346.695 285.587 342.722 284.243C338.749 282.9 335.206 280.52 332.461 277.35C332.071 276.9 331.331 277.44 331.711 277.89C335.414 282.139 340.454 284.999 346.001 286C350.285 286.743 354.689 286.331 358.762 284.807C362.834 283.283 366.427 280.702 369.171 277.33C369.243 277.229 369.271 277.104 369.251 276.982C369.23 276.86 369.162 276.752 369.061 276.68C368.96 276.608 368.835 276.58 368.713 276.6C368.591 276.621 368.483 276.689 368.411 276.79Z" fill="#B0B2E2"/>
<path d="M377.051 280.9C374.011 274.9 370.678 269.063 367.051 263.39C366.731 262.89 365.991 263.39 366.301 263.93C369.881 269.53 373.181 275.296 376.201 281.23C376.461 281.76 377.321 281.43 377.051 280.9Z" fill="#B0B2E2"/>
<path d="M344.929 328.652C342.849 331.626 340.773 334.592 338.699 337.552C338.359 338.032 339.069 338.622 339.409 338.132L345.639 329.242C345.999 328.752 345.269 328.172 344.929 328.652Z" fill="#B0B2E2"/>
<path d="M328.91 344.152C323.4 350.222 316.61 355.343 308.71 357.813C300.81 360.283 292.22 359.933 285.05 355.813C281.442 353.749 278.447 350.764 276.37 347.163C276.08 346.653 275.37 347.163 275.63 347.703C279.43 354.403 286.54 358.773 294.07 359.953C302.75 361.313 311.6 358.722 318.89 354.022C322.853 351.413 326.46 348.301 329.62 344.763C330 344.293 329.31 343.712 328.91 344.152Z" fill="#B0B2E2"/>
<path d="M403.549 302.78C403.477 302.683 403.371 302.617 403.251 302.597C403.132 302.576 403.01 302.602 402.909 302.67L398.719 305.15C398.67 305.185 398.628 305.23 398.596 305.282C398.565 305.333 398.543 305.391 398.533 305.451C398.524 305.511 398.526 305.572 398.54 305.631C398.554 305.69 398.579 305.746 398.614 305.795C398.65 305.844 398.695 305.886 398.746 305.918C398.798 305.95 398.855 305.971 398.915 305.981C398.975 305.991 399.036 305.989 399.095 305.975C399.154 305.961 399.21 305.935 399.259 305.9L403.449 303.42C403.545 303.346 403.609 303.239 403.627 303.12C403.646 303.001 403.618 302.879 403.549 302.78Z" fill="#2317AA"/>
<path d="M350.509 205.913C345.696 209.961 339.655 212.263 333.368 212.445C327.081 212.626 320.918 210.677 315.879 206.913C315.409 206.563 314.829 207.273 315.299 207.623C320.489 211.525 326.847 213.556 333.338 213.385C339.829 213.215 346.071 210.852 351.049 206.683C351.509 206.283 350.999 205.533 350.509 205.913Z" fill="#C5CBED"/>
<path d="M331.801 221.591C334.209 221.591 336.161 219.639 336.161 217.231C336.161 214.823 334.209 212.871 331.801 212.871C329.393 212.871 327.441 214.823 327.441 217.231C327.441 219.639 329.393 221.591 331.801 221.591Z" fill="#2F2F35"/>
</g>
<defs>
<clipPath id="clip0_4326_36000">
<rect width="650" height="500" fill="white"/>
</clipPath>
</defs>
</svg>
