<svg width="574" height="513" viewBox="0 0 574 513" fill="none" xmlns="http://www.w3.org/2000/svg">
<g clip-path="url(#clip0_4328_36107)">
<path d="M508.96 371.637H544.082V356.795H508.96V371.637Z" fill="#EBEBEB"/>
<path d="M528.55 390.352H563.672V375.509H528.55V390.352Z" fill="#EBEBEB"/>
<path d="M229.112 207.734H264.234V192.892H229.112V207.734Z" fill="#EBEBEB"/>
<path d="M248.702 226.449H283.824V211.607H248.702V226.449Z" fill="#EBEBEB"/>
<path d="M268.225 207.734H303.348V192.892H268.225V207.734Z" fill="#EBEBEB"/>
<path d="M10.1668 390.352H45.2891V375.509H10.1668V390.352Z" fill="#EBEBEB"/>
<path d="M29.7566 14.8438L64.8789 14.8438V0.00167465L29.7566 0.00167465V14.8438Z" fill="#EBEBEB"/>
<path d="M10.1668 33.5547L45.2891 33.5547V18.7126L10.1668 18.7126V33.5547Z" fill="#EBEBEB"/>
<path d="M508.96 14.8438L544.082 14.8438V0.00167465L508.96 0.00167465V14.8438Z" fill="#EBEBEB"/>
<path d="M553.05 32.5273H363.645V243.845H553.05V32.5273Z" fill="#DBDBDB"/>
<path d="M540.585 45.0078H376.129V231.482H540.585V45.0078Z" fill="#EBEBEB"/>
<path d="M448.958 77.9805H390.996V146.673H448.958V77.9805Z" fill="white"/>
<path d="M422.044 82.6488C422.044 83.0607 421.922 83.4633 421.693 83.8057C421.464 84.1482 421.139 84.4151 420.758 84.5727C420.378 84.7303 419.959 84.7715 419.555 84.6912C419.151 84.6108 418.78 84.4125 418.489 84.1213C418.198 83.8301 417.999 83.459 417.919 83.0551C417.839 82.6511 417.88 82.2324 418.037 81.8519C418.195 81.4714 418.462 81.1462 418.804 80.9173C419.147 80.6885 419.549 80.5664 419.961 80.5664C420.514 80.5664 421.043 80.7858 421.434 81.1763C421.824 81.5668 422.044 82.0965 422.044 82.6488Z" fill="#A6A6A6"/>
<path d="M402.02 91.7379C407.882 91.287 413.745 91.2604 419.594 91.1941C425.443 91.1278 431.319 91.287 437.182 91.7379C431.319 92.1889 425.456 92.2154 419.594 92.2817C413.731 92.3481 407.882 92.1889 402.02 91.7379Z" fill="#EBEBEB"/>
<path d="M402.02 97.1688C408.37 96.4437 414.782 96.4437 421.133 97.1688C417.96 97.5618 414.766 97.7435 411.569 97.7126C408.378 97.7365 405.188 97.5548 402.02 97.1688Z" fill="#EBEBEB"/>
<path d="M402.02 102.594C406.08 102.208 410.157 102.026 414.235 102.05C418.31 102.02 422.383 102.201 426.438 102.594C422.366 103.018 418.307 103.111 414.235 103.138C410.163 103.164 406.091 103.018 402.02 102.594Z" fill="#EBEBEB"/>
<path d="M402.02 108.021C407.113 107.597 412.206 107.491 417.299 107.477C422.393 107.464 427.486 107.597 432.579 108.021C427.486 108.446 422.393 108.552 417.299 108.565C412.206 108.578 407.113 108.446 402.02 108.021Z" fill="#EBEBEB"/>
<path d="M402.02 113.449C406.436 113.025 410.866 112.932 415.283 112.905C419.7 112.879 424.13 113.025 428.547 113.449C424.117 113.874 419.687 113.98 415.283 113.993C410.88 114.006 406.436 113.874 402.02 113.449Z" fill="#EBEBEB"/>
<path d="M402.02 118.867C407.683 118.416 413.347 118.389 419.01 118.323C424.674 118.257 430.338 118.416 436.001 118.867C430.338 119.331 424.674 119.358 419.01 119.424C413.347 119.49 407.683 119.318 402.02 118.867Z" fill="#EBEBEB"/>
<path d="M402.02 124.309C405.663 123.923 409.325 123.741 412.989 123.765C416.657 123.734 420.324 123.916 423.971 124.309C416.672 125.034 409.319 125.034 402.02 124.309Z" fill="#EBEBEB"/>
<path d="M402.02 129.734C407.882 129.283 413.745 129.257 419.594 129.19C425.443 129.124 431.319 129.283 437.182 129.734C431.319 130.185 425.456 130.212 419.594 130.278C413.731 130.344 407.882 130.185 402.02 129.734Z" fill="#EBEBEB"/>
<path d="M402.02 135.16C407.882 134.709 413.745 134.682 419.594 134.616C425.443 134.55 431.319 134.709 437.182 135.16C431.319 135.611 425.456 135.651 419.594 135.704C413.731 135.757 407.882 135.637 402.02 135.16Z" fill="#EBEBEB"/>
<path d="M526.364 120.809H457.777V202.089H526.364V120.809Z" fill="white"/>
<path d="M466.149 126.727C466.149 127.139 466.027 127.541 465.798 127.884C465.569 128.226 465.244 128.493 464.864 128.651C464.483 128.808 464.064 128.85 463.661 128.769C463.257 128.689 462.886 128.491 462.594 128.199C462.303 127.908 462.105 127.537 462.024 127.133C461.944 126.729 461.985 126.311 462.143 125.93C462.3 125.55 462.567 125.224 462.91 124.995C463.252 124.767 463.655 124.645 464.067 124.645C464.619 124.645 465.149 124.864 465.539 125.254C465.93 125.645 466.149 126.175 466.149 126.727Z" fill="#A6A6A6"/>
<path d="M467.367 141.086C469.887 140.703 472.432 140.516 474.981 140.529C477.525 140.51 480.066 140.696 482.581 141.086C477.535 141.811 472.412 141.811 467.367 141.086Z" fill="#EBEBEB"/>
<path d="M467.367 147.215C470.638 146.831 473.929 146.645 477.222 146.658C480.511 146.638 483.798 146.824 487.064 147.215C480.518 147.94 473.913 147.94 467.367 147.215Z" fill="#EBEBEB"/>
<path d="M467.367 153.344C470.393 152.958 473.442 152.777 476.493 152.8C479.543 152.769 482.593 152.951 485.618 153.344C479.556 154.069 473.429 154.069 467.367 153.344Z" fill="#EBEBEB"/>
<path d="M467.367 159.508C470.393 159.123 473.442 158.941 476.493 158.964C479.543 158.933 482.593 159.115 485.618 159.508C479.556 160.233 473.429 160.233 467.367 159.508Z" fill="#EBEBEB"/>
<path d="M467.367 165.598C470.002 165.212 472.663 165.03 475.325 165.054C477.988 165.023 480.65 165.205 483.284 165.598C478.003 166.328 472.648 166.328 467.367 165.598Z" fill="#EBEBEB"/>
<path d="M467.367 171.727C470.735 171.341 474.124 171.159 477.514 171.183C480.904 171.152 484.293 171.334 487.661 171.727C480.916 172.452 474.112 172.452 467.367 171.727Z" fill="#EBEBEB"/>
<path d="M467.367 177.856C472.928 177.131 478.559 177.131 484.119 177.856C478.559 178.581 472.928 178.581 467.367 177.856Z" fill="#EBEBEB"/>
<path d="M467.367 183.981C474.347 183.256 481.384 183.256 488.364 183.981C481.384 184.706 474.347 184.706 467.367 183.981Z" fill="#EBEBEB"/>
<path d="M467.367 190.114C474.347 189.389 481.384 189.389 488.364 190.114C481.384 190.839 474.347 190.839 467.367 190.114Z" fill="#EBEBEB"/>
<path d="M497.344 141.086C500.654 140.702 503.985 140.516 507.318 140.529C510.647 140.509 513.973 140.695 517.279 141.086C510.667 141.808 503.996 141.808 497.384 141.086H497.344Z" fill="#EBEBEB"/>
<path d="M497.344 147.215C499.507 146.832 501.7 146.646 503.896 146.658C506.093 146.638 508.286 146.825 510.448 147.215C506.11 147.939 501.682 147.939 497.344 147.215Z" fill="#EBEBEB"/>
<path d="M497.344 153.344C500.454 152.958 503.587 152.777 506.721 152.8C509.856 152.77 512.989 152.951 516.099 153.344C509.868 154.069 503.574 154.069 497.344 153.344Z" fill="#EBEBEB"/>
<path d="M497.344 159.508C500.37 159.122 503.419 158.941 506.469 158.964C509.52 158.934 512.569 159.116 515.595 159.508C509.533 160.233 503.406 160.233 497.344 159.508Z" fill="#EBEBEB"/>
<path d="M497.344 165.598C500.654 165.212 503.985 165.03 507.318 165.054C510.647 165.024 513.974 165.205 517.279 165.598C510.667 166.32 503.996 166.32 497.384 165.598H497.344Z" fill="#EBEBEB"/>
<path d="M497.344 171.727C499.978 171.34 502.639 171.158 505.302 171.183C507.965 171.151 510.626 171.333 513.26 171.727C507.98 172.458 502.624 172.458 497.344 171.727Z" fill="#EBEBEB"/>
<path d="M497.344 177.856C503.574 177.131 509.868 177.131 516.099 177.856C509.868 178.581 503.574 178.581 497.344 177.856Z" fill="#EBEBEB"/>
<path d="M497.344 183.981C502.153 183.256 507.045 183.256 511.854 183.981C507.045 184.707 502.153 184.707 497.344 183.981Z" fill="#EBEBEB"/>
<path d="M497.344 190.114C501.953 189.389 506.648 189.389 511.257 190.114C506.648 190.839 501.953 190.839 497.344 190.114Z" fill="#EBEBEB"/>
<path d="M478.509 59.0938H443.625V93.9773H478.509V59.0938Z" fill="#A6A6A6"/>
<path d="M463.137 62.6879C463.137 63.0997 463.015 63.5023 462.787 63.8448C462.558 64.1872 462.232 64.4541 461.852 64.6118C461.471 64.7694 461.053 64.8106 460.649 64.7303C460.245 64.6499 459.874 64.4516 459.583 64.1604C459.291 63.8691 459.093 63.4981 459.013 63.0941C458.932 62.6902 458.974 62.2715 459.131 61.891C459.289 61.5105 459.556 61.1852 459.898 60.9564C460.241 60.7276 460.643 60.6055 461.055 60.6055C461.607 60.6055 462.137 60.8249 462.528 61.2154C462.918 61.6059 463.137 62.1356 463.137 62.6879Z" fill="#EBEBEB"/>
<path d="M540.423 45.0078H535.715V231.694H540.423V45.0078Z" fill="#C7C7C7"/>
<path d="M163.079 96.2182C181.461 70.4767 175.494 34.7079 149.753 16.3263C124.011 -2.05531 88.2425 3.91108 69.8609 29.6526C51.4793 55.3941 57.4457 91.1629 83.1873 109.545C108.929 127.926 144.698 121.96 163.079 96.2182Z" fill="#EBEBEB"/>
<path d="M162.808 96.976C180.916 72.8317 176.023 38.5792 151.879 20.4709C127.735 2.36267 93.4822 7.25581 75.3739 31.4001C57.2656 55.5444 62.1587 89.7968 86.303 107.905C110.447 126.013 144.7 121.12 162.808 96.976Z" fill="#DBDBDB"/>
<path d="M148.787 105.926C171.821 89.5267 177.199 57.5593 160.8 34.5252C144.4 11.4911 112.432 6.11291 89.3983 22.5127C66.3642 38.9124 60.986 70.8799 77.3858 93.9139C93.7855 116.948 125.753 122.326 148.787 105.926Z" fill="white"/>
<path opacity="0.5" d="M169.12 53.3997C145.802 67.5255 107.484 90.6972 86.076 103.404C79.9984 98.2853 75.1943 91.8237 72.043 84.5296L142.911 18.9141C149.533 22.3989 155.312 27.2924 159.84 33.2503C164.368 39.2083 167.536 46.086 169.12 53.3997Z" fill="#EBEBEB"/>
<path opacity="0.5" d="M170.192 66.0039C170.014 71.6774 168.889 77.2813 166.863 82.5835L102.998 112.785C100.218 111.859 97.5201 110.701 94.9336 109.323C114.232 98.2214 149.474 77.9412 170.192 66.0039Z" fill="#EBEBEB"/>
<path d="M119.592 16.7305H118.598V24.4897H119.592V16.7305Z" fill="#C7C7C7"/>
<path d="M95.7756 22.8229L94.9141 23.3203L98.7937 30.04L99.6552 29.5426L95.7756 22.8229Z" fill="#C7C7C7"/>
<path d="M78.6107 39.533L78.1133 40.3984L84.8638 44.2781L85.3612 43.4126L78.6107 39.533Z" fill="#C7C7C7"/>
<path d="M79.3647 63.7227H71.6055V64.7174H79.3647V63.7227Z" fill="#C7C7C7"/>
<path d="M84.4378 83.6504L77.7188 87.5312L78.2163 88.3927L84.9353 84.5119L84.4378 83.6504Z" fill="#C7C7C7"/>
<path d="M98.7992 98.3805L94.9219 105.102L95.7836 105.599L99.6608 98.8776L98.7992 98.3805Z" fill="#C7C7C7"/>
<path d="M119.592 103.938H118.598V111.697H119.592V103.938Z" fill="#C7C7C7"/>
<path d="M139.389 98.3503L138.527 98.8477L142.407 105.567L143.268 105.07L139.389 98.3503Z" fill="#C7C7C7"/>
<path d="M153.748 83.662L153.25 84.5234L159.969 88.4042L160.467 87.5428L153.748 83.662Z" fill="#C7C7C7"/>
<path d="M166.576 63.7227H158.816V64.7174H166.576V63.7227Z" fill="#C7C7C7"/>
<path d="M159.968 40.036L153.25 43.918L153.748 44.7793L160.466 40.8973L159.968 40.036Z" fill="#C7C7C7"/>
<path d="M142.411 22.8486L138.535 29.5703L139.397 30.0672L143.273 23.3455L142.411 22.8486Z" fill="#C7C7C7"/>
<path d="M119.83 20.2398L121.515 67.6708L116.66 67.6045L118.517 20.2266L119.83 20.2398Z" fill="#C7C7C7"/>
<path d="M149.369 47.6696L117.47 68.0426L115.148 63.7717L148.745 46.5156L149.369 47.6696Z" fill="#A6A6A6"/>
<path d="M120.734 64.2088C120.734 64.5367 120.637 64.8573 120.454 65.1299C120.272 65.4026 120.013 65.6151 119.71 65.7406C119.407 65.866 119.074 65.8989 118.752 65.8349C118.431 65.7709 118.135 65.613 117.904 65.3812C117.672 65.1493 117.514 64.8539 117.45 64.5322C117.386 64.2106 117.419 63.8773 117.544 63.5743C117.67 63.2714 117.882 63.0124 118.155 62.8303C118.427 62.6481 118.748 62.5508 119.076 62.5508C119.294 62.5491 119.511 62.5907 119.712 62.6734C119.914 62.7561 120.098 62.8782 120.252 63.0325C120.407 63.1868 120.529 63.3703 120.611 63.5722C120.694 63.7742 120.736 63.9906 120.734 64.2088Z" fill="#C7C7C7"/>
<path d="M573.386 512.335L501.762 512.653L430.152 512.773L286.917 512.998L143.696 512.773L72.0716 512.653L0.460938 512.335L72.0716 512.003L143.696 511.884L286.917 511.672L430.152 511.897L501.762 512.003L573.386 512.335Z" fill="#263238"/>
<path d="M509.028 125.326C508.931 121.266 509.086 117.204 509.493 113.163C509.845 109.12 510.443 105.103 511.283 101.133C511.381 105.193 511.226 109.255 510.819 113.296C510.467 117.338 509.869 121.356 509.028 125.326Z" fill="#263238"/>
<path d="M501.868 126.717C499.761 123.246 497.87 119.649 496.204 115.947C494.479 112.273 492.986 108.494 491.734 104.633C495.911 111.6 499.31 119.006 501.868 126.717Z" fill="#263238"/>
<path d="M496.376 131.509C492.817 129.557 489.38 127.391 486.083 125.023C482.749 122.701 479.563 120.172 476.547 117.449C483.648 121.401 490.297 126.116 496.376 131.509Z" fill="#263238"/>
<path d="M494.002 138.389C485.879 138.524 477.766 137.768 469.809 136.134C473.864 136.036 477.922 136.191 481.958 136.598C486.005 136.95 490.027 137.548 494.002 138.389Z" fill="#263238"/>
<path d="M519.715 147.238C523.281 149.19 526.723 151.36 530.021 153.737C533.346 156.062 536.526 158.587 539.544 161.298C535.979 159.356 532.542 157.189 529.251 154.812C525.922 152.484 522.737 149.954 519.715 147.238Z" fill="#263238"/>
<path d="M522.094 140.351C530.221 140.217 538.338 140.973 546.3 142.606C542.24 142.704 538.178 142.549 534.137 142.142C530.09 141.789 526.068 141.191 522.094 140.351Z" fill="#263238"/>
<path d="M520.703 133.192C524.174 131.086 527.771 129.194 531.473 127.528C535.147 125.803 538.926 124.31 542.787 123.059C539.32 125.167 535.727 127.062 532.03 128.735C528.351 130.454 524.568 131.943 520.703 133.192Z" fill="#263238"/>
<path d="M515.914 127.669C517.865 124.107 520.036 120.67 522.413 117.376C524.726 114.039 527.252 110.853 529.974 107.84C526.025 114.964 521.311 121.635 515.914 127.735V127.669Z" fill="#263238"/>
<path d="M213.966 427.151C212.494 429.021 88.6505 434.579 82.7614 432.881C82.4752 432.797 82.1994 432.682 81.9391 432.536C74.644 429.114 43.3417 405.478 38.3545 395.517C34.3754 387.559 57.9716 344.001 66.2083 336.534C71.6862 331.586 81.8462 329.636 81.8462 329.636C81.8462 329.636 110.522 246.871 128.203 229.549C132.646 225.198 209.443 223.5 223.158 229.761C229.033 232.413 243.318 247.004 243.716 249.656C244.048 253.49 215.412 425.254 213.966 427.151Z" fill="#37474F"/>
<path d="M214.812 427.155C213.34 429.025 89.5099 434.583 83.6075 432.885C83.3229 432.797 83.0475 432.682 82.7852 432.54C94.7225 400.455 150.43 249.912 152.022 248.944C153.613 247.976 226.988 248.414 244.562 249.687C244.934 253.494 216.298 425.259 214.812 427.155Z" fill="#263238"/>
<path d="M169.336 235.651C168.102 234.484 167.28 217.666 169.561 214.31C172.108 210.556 201.553 212.413 203.291 215.636C205.028 218.86 205.864 235.651 204.975 236.261C204.087 236.872 199.179 237.442 198.516 236.368C197.853 235.293 197.892 221.393 197.375 220.65C196.858 219.907 176.233 218.581 175.517 219.642C174.8 220.703 176.538 234.763 175.716 235.373C174.893 235.983 170.543 236.792 169.336 235.651Z" fill="#37474F"/>
<path d="M108.537 312.085L99.4453 307.824L94.5429 318.285L103.635 322.546L108.537 312.085Z" fill="#DBDBDB"/>
<path d="M108.094 320.485L93.2734 313.539L87.6787 325.477L102.499 332.423L108.094 320.485Z" fill="#C7C7C7"/>
<path d="M105.751 351.993L80.1385 406.639L44.9102 390.113L70.5091 335.48C75.5891 324.67 86.2929 319.563 97.0365 324.577C107.78 329.59 110.817 341.223 105.751 351.993Z" fill="#33357D"/>
<path opacity="0.1" d="M105.751 351.993L80.1385 406.639L44.9102 390.113L70.5091 335.48C75.5891 324.67 86.2929 319.563 97.0365 324.577C107.78 329.59 110.817 341.223 105.751 351.993Z" fill="black"/>
<path d="M93.2646 327.766C93.1775 327.946 93.0557 328.108 92.9063 328.241C92.7568 328.374 92.5826 328.476 92.3935 328.542C92.2045 328.608 92.0043 328.636 91.8044 328.625C91.6045 328.613 91.4089 328.563 91.2286 328.475C91.0483 328.388 90.887 328.267 90.7537 328.117C90.6205 327.968 90.518 327.794 90.4521 327.604C90.3862 327.415 90.3582 327.215 90.3697 327.015C90.3812 326.815 90.4319 326.62 90.519 326.44C90.6949 326.075 91.0082 325.796 91.39 325.663C91.7718 325.53 92.1909 325.554 92.555 325.73C92.919 325.906 93.1984 326.219 93.3314 326.601C93.4645 326.983 93.4405 327.402 93.2646 327.766Z" fill="white"/>
<path d="M105.005 348.317C104.877 348.588 104.672 348.814 104.416 348.968C104.161 349.122 103.865 349.197 103.566 349.183C103.268 349.169 102.98 349.067 102.74 348.889C102.499 348.712 102.317 348.468 102.215 348.187C102.114 347.906 102.097 347.601 102.169 347.311C102.24 347.021 102.396 346.759 102.616 346.557C102.837 346.355 103.112 346.223 103.407 346.178C103.702 346.132 104.004 346.175 104.275 346.301C104.456 346.385 104.618 346.504 104.752 346.651C104.887 346.798 104.991 346.97 105.059 347.158C105.127 347.345 105.157 347.544 105.147 347.743C105.138 347.942 105.09 348.137 105.005 348.317Z" fill="white"/>
<path d="M88.7739 342.387C88.6886 342.567 88.5688 342.728 88.4213 342.861C88.2738 342.994 88.1015 343.097 87.9143 343.163C87.727 343.23 87.5285 343.259 87.3301 343.248C87.1316 343.238 86.9372 343.189 86.7578 343.104C86.5784 343.016 86.4179 342.895 86.2855 342.746C86.153 342.597 86.0513 342.423 85.986 342.234C85.9207 342.046 85.8932 341.847 85.905 341.647C85.9168 341.448 85.9677 341.254 86.0548 341.074C86.1419 340.895 86.2635 340.734 86.4126 340.602C86.5617 340.469 86.7354 340.368 86.9239 340.302C87.1123 340.237 87.3118 340.21 87.5109 340.221C87.7099 340.233 87.9047 340.284 88.0841 340.371C88.4395 340.551 88.7105 340.862 88.8394 341.239C88.9683 341.616 88.9448 342.028 88.7739 342.387Z" fill="white"/>
<path d="M83.9806 356.138C83.8979 356.32 83.7798 356.484 83.633 356.619C83.4863 356.755 83.3139 356.86 83.1261 356.927C82.9383 356.995 82.7388 357.025 82.5393 357.015C82.3398 357.005 82.1444 356.955 81.9645 356.868C81.6944 356.74 81.468 356.536 81.314 356.28C81.16 356.024 81.0853 355.728 81.0993 355.43C81.1133 355.131 81.2153 354.844 81.3926 354.603C81.5698 354.363 81.8143 354.18 82.0952 354.079C82.3761 353.977 82.6808 353.961 82.9709 354.032C83.261 354.103 83.5234 354.259 83.7251 354.479C83.9268 354.7 84.0587 354.975 84.1042 355.27C84.1496 355.565 84.1066 355.868 83.9806 356.138Z" fill="white"/>
<path d="M63.3715 363.194C63.2889 363.376 63.1707 363.54 63.024 363.675C62.8772 363.811 62.7049 363.916 62.517 363.984C62.3292 364.051 62.1297 364.081 61.9302 364.071C61.7307 364.061 61.5353 364.011 61.3554 363.924C61.176 363.837 61.0155 363.715 60.8831 363.566C60.7507 363.417 60.6489 363.243 60.5836 363.055C60.5184 362.866 60.4909 362.667 60.5027 362.468C60.5145 362.269 60.5654 362.074 60.6525 361.895C60.7395 361.715 60.8611 361.555 61.0102 361.422C61.1594 361.29 61.3331 361.188 61.5215 361.123C61.71 361.057 61.9094 361.03 62.1085 361.042C62.3076 361.054 62.5024 361.104 62.6818 361.192C62.8597 361.276 63.019 361.396 63.1502 361.543C63.2815 361.69 63.3821 361.862 63.4463 362.048C63.5105 362.235 63.537 362.432 63.5241 362.629C63.5113 362.826 63.4594 363.018 63.3715 363.194Z" fill="white"/>
<path d="M67.7216 350.36C67.6345 350.54 67.5128 350.701 67.3633 350.835C67.2139 350.968 67.0396 351.07 66.8506 351.136C66.6615 351.202 66.4613 351.23 66.2615 351.219C66.0616 351.207 65.8659 351.156 65.6856 351.069C65.5054 350.982 65.344 350.86 65.2108 350.711C65.0775 350.562 64.975 350.387 64.9092 350.198C64.8433 350.009 64.8153 349.809 64.8267 349.609C64.8382 349.409 64.8889 349.214 64.976 349.033C65.1519 348.669 65.4652 348.39 65.847 348.257C66.2289 348.124 66.6479 348.148 67.012 348.324C67.3761 348.5 67.6554 348.813 67.7885 349.195C67.9215 349.576 67.8975 349.996 67.7216 350.36Z" fill="white"/>
<path d="M74.1239 337.59C74.0369 337.77 73.9151 337.932 73.7657 338.065C73.6162 338.198 73.442 338.301 73.2529 338.367C73.0639 338.432 72.8637 338.46 72.6638 338.449C72.4639 338.438 72.2682 338.387 72.088 338.3C71.9077 338.213 71.7463 338.091 71.6131 337.941C71.4799 337.792 71.3774 337.618 71.3115 337.429C71.2456 337.24 71.2176 337.039 71.2291 336.84C71.2405 336.64 71.2913 336.444 71.3784 336.264C71.5542 335.9 71.8676 335.62 72.2494 335.487C72.6312 335.354 73.0503 335.378 73.4143 335.554C73.7784 335.73 74.0577 336.043 74.1908 336.425C74.3239 336.807 74.2998 337.226 74.1239 337.59Z" fill="white"/>
<path d="M83.7831 332.463C83.6574 332.735 83.4539 332.963 83.1983 333.119C82.9427 333.275 82.6465 333.352 82.3473 333.339C82.0481 333.327 81.7594 333.226 81.5177 333.049C81.276 332.872 81.0922 332.627 80.9897 332.346C80.8873 332.065 80.8706 331.759 80.942 331.468C81.0133 331.177 81.1694 330.914 81.3905 330.712C81.6116 330.51 81.8876 330.378 82.1837 330.334C82.4798 330.289 82.7825 330.333 83.0536 330.46C83.415 330.63 83.6946 330.936 83.8313 331.311C83.9679 331.686 83.9506 332.1 83.7831 332.463Z" fill="white"/>
<path d="M78.7819 346.72C78.6544 346.99 78.4498 347.216 78.1938 347.37C77.9379 347.524 77.642 347.599 77.3436 347.585C77.0452 347.571 76.7577 347.469 76.5172 347.292C76.2768 347.114 76.0942 346.87 75.9926 346.589C75.8909 346.308 75.8748 346.003 75.9461 345.713C76.0175 345.423 76.1732 345.161 76.3935 344.959C76.6139 344.758 76.889 344.626 77.1842 344.58C77.4795 344.535 77.7816 344.578 78.0524 344.704C78.233 344.788 78.3953 344.907 78.5298 345.054C78.6643 345.201 78.7685 345.373 78.8363 345.56C78.904 345.747 78.9341 345.946 78.9248 346.145C78.9155 346.344 78.8669 346.54 78.7819 346.72Z" fill="white"/>
<path d="M99.153 338.208C99.0255 338.478 98.8209 338.705 98.5649 338.859C98.309 339.013 98.0131 339.087 97.7147 339.073C97.4163 339.059 97.1288 338.957 96.8883 338.78C96.6479 338.603 96.4653 338.358 96.3637 338.077C96.262 337.796 96.2459 337.492 96.3172 337.202C96.3886 336.912 96.5442 336.649 96.7646 336.447C96.9849 336.246 97.2601 336.114 97.5553 336.068C97.8506 336.023 98.1527 336.066 98.4235 336.192C98.6041 336.276 98.7664 336.395 98.9009 336.542C99.0354 336.689 99.1396 336.861 99.2073 337.048C99.2751 337.236 99.3052 337.435 99.2959 337.634C99.2866 337.833 99.238 338.028 99.153 338.208Z" fill="white"/>
<path d="M94.5944 352.325C94.4669 352.595 94.2623 352.822 94.0063 352.976C93.7504 353.13 93.4545 353.204 93.1561 353.19C92.8577 353.176 92.5702 353.074 92.3297 352.897C92.0893 352.72 91.9067 352.475 91.8051 352.195C91.7034 351.914 91.6873 351.609 91.7586 351.319C91.83 351.029 91.9856 350.766 92.206 350.565C92.4263 350.363 92.7015 350.231 92.9967 350.186C93.292 350.14 93.5941 350.183 93.8649 350.309C94.0455 350.393 94.2078 350.512 94.3423 350.659C94.4768 350.806 94.581 350.978 94.6488 351.166C94.7165 351.353 94.7466 351.552 94.7373 351.751C94.728 351.95 94.6794 352.145 94.5944 352.325Z" fill="white"/>
<path d="M73.5358 359.786C73.4083 360.056 73.2037 360.283 72.9477 360.437C72.6918 360.591 72.3959 360.665 72.0975 360.651C71.7991 360.637 71.5116 360.535 71.2711 360.358C71.0307 360.181 70.8481 359.936 70.7465 359.655C70.6448 359.375 70.6287 359.07 70.7 358.78C70.7714 358.49 70.9271 358.227 71.1474 358.026C71.3678 357.824 71.6429 357.692 71.9382 357.647C72.2334 357.601 72.5355 357.644 72.8063 357.77C72.9869 357.854 73.1492 357.973 73.2837 358.12C73.4182 358.267 73.5224 358.439 73.5902 358.626C73.6579 358.814 73.688 359.013 73.6787 359.212C73.6694 359.411 73.6208 359.606 73.5358 359.786Z" fill="white"/>
<path d="M83.235 377.614C83.1076 377.884 82.9029 378.111 82.647 378.265C82.391 378.419 82.0951 378.493 81.7967 378.48C81.4984 378.466 81.2108 378.363 80.9703 378.186C80.7299 378.009 80.5473 377.764 80.4457 377.484C80.344 377.203 80.3279 376.898 80.3992 376.608C80.4706 376.318 80.6263 376.055 80.8466 375.854C81.067 375.652 81.3421 375.52 81.6374 375.475C81.9326 375.429 82.2347 375.472 82.5055 375.598C82.6862 375.682 82.8484 375.801 82.9829 375.948C83.1174 376.095 83.2216 376.267 83.2894 376.455C83.3572 376.642 83.3873 376.841 83.3779 377.04C83.3686 377.239 83.32 377.434 83.235 377.614Z" fill="white"/>
<path d="M78.1842 387.837C78.0568 388.107 77.8521 388.333 77.5962 388.487C77.3402 388.641 77.0443 388.716 76.746 388.702C76.4476 388.688 76.16 388.586 75.9196 388.409C75.6791 388.232 75.4965 387.987 75.3949 387.706C75.2933 387.425 75.2771 387.121 75.3485 386.831C75.4198 386.54 75.5755 386.278 75.7958 386.076C76.0162 385.875 76.2914 385.743 76.5866 385.697C76.8818 385.652 77.1839 385.695 77.4547 385.821C77.6354 385.905 77.7976 386.024 77.9321 386.171C78.0667 386.318 78.1708 386.49 78.2386 386.677C78.3064 386.865 78.3365 387.064 78.3272 387.263C78.3178 387.462 78.2693 387.657 78.1842 387.837Z" fill="white"/>
<path d="M69.1564 371.318C69.0723 371.499 68.9534 371.661 68.8064 371.795C68.6594 371.93 68.4873 372.034 68.3 372.102C68.1126 372.17 67.9137 372.2 67.7147 372.19C67.5157 372.181 67.3205 372.133 67.1403 372.048C66.8701 371.92 66.6438 371.715 66.4898 371.459C66.3358 371.203 66.2611 370.908 66.2751 370.609C66.2891 370.311 66.3911 370.023 66.5684 369.783C66.7456 369.542 66.9901 369.36 67.271 369.258C67.5519 369.157 67.8566 369.14 68.1467 369.212C68.4368 369.283 68.6992 369.439 68.9009 369.659C69.1026 369.879 69.2345 370.155 69.2799 370.45C69.3254 370.745 69.2824 371.047 69.1564 371.318Z" fill="white"/>
<path d="M54.9208 384.274C54.8337 384.454 54.712 384.615 54.5625 384.749C54.4131 384.882 54.2389 384.984 54.0498 385.05C53.8607 385.116 53.6606 385.144 53.4607 385.133C53.2608 385.121 53.0651 385.07 52.8848 384.983C52.7046 384.896 52.5432 384.774 52.41 384.625C52.2768 384.476 52.1743 384.301 52.1084 384.112C52.0425 383.923 52.0145 383.723 52.0259 383.523C52.0374 383.323 52.0881 383.128 52.1752 382.947C52.3511 382.583 52.6644 382.304 53.0463 382.171C53.4281 382.038 53.8471 382.062 54.2112 382.238C54.5753 382.414 54.8546 382.727 54.9877 383.109C55.1208 383.491 55.0967 383.91 54.9208 384.274Z" fill="white"/>
<path d="M79.153 368.462C79.0255 368.732 78.8209 368.958 78.5649 369.112C78.309 369.266 78.0131 369.341 77.7147 369.327C77.4163 369.313 77.1288 369.211 76.8883 369.034C76.6479 368.857 76.4653 368.612 76.3637 368.331C76.262 368.05 76.2459 367.746 76.3172 367.456C76.3886 367.165 76.5442 366.903 76.7646 366.701C76.9849 366.5 77.2601 366.368 77.5553 366.322C77.8506 366.277 78.1527 366.32 78.4235 366.446C78.6041 366.53 78.7664 366.649 78.9009 366.796C79.0354 366.943 79.1396 367.115 79.2073 367.302C79.2751 367.49 79.3052 367.689 79.2959 367.888C79.2866 368.087 79.238 368.282 79.153 368.462Z" fill="white"/>
<path d="M74.1022 379.685C73.9748 379.955 73.7701 380.181 73.5141 380.335C73.2582 380.489 72.9623 380.564 72.6639 380.55C72.3655 380.536 72.078 380.434 71.8375 380.257C71.5971 380.079 71.4145 379.835 71.3129 379.554C71.2112 379.273 71.1951 378.968 71.2664 378.678C71.3378 378.388 71.4935 378.126 71.7138 377.924C71.9342 377.722 72.2093 377.59 72.5046 377.545C72.7998 377.499 73.1019 377.543 73.3727 377.669C73.5533 377.753 73.7156 377.872 73.8501 378.019C73.9846 378.165 74.0888 378.338 74.1566 378.525C74.2243 378.712 74.2545 378.911 74.2451 379.11C74.2358 379.309 74.1872 379.504 74.1022 379.685Z" fill="white"/>
<path d="M68.8913 390.814C68.7638 391.084 68.5592 391.31 68.3032 391.464C68.0472 391.618 67.7514 391.693 67.453 391.679C67.1546 391.665 66.867 391.563 66.6266 391.385C66.3861 391.208 66.2036 390.964 66.1019 390.683C66.0003 390.402 65.9841 390.097 66.0555 389.807C66.1268 389.517 66.2825 389.255 66.5029 389.053C66.7232 388.851 66.9984 388.719 67.2936 388.674C67.5889 388.628 67.8909 388.671 68.1618 388.797C68.3424 388.882 68.5046 389 68.6392 389.147C68.7737 389.294 68.8778 389.466 68.9456 389.654C69.0134 389.841 69.0435 390.04 69.0342 390.239C69.0249 390.438 68.9763 390.633 68.8913 390.814Z" fill="white"/>
<path d="M73.4634 399.23C73.2909 399.593 72.9826 399.873 72.6052 400.009C72.2278 400.146 71.8118 400.128 71.4473 399.96C71.2671 399.873 71.1057 399.751 70.9725 399.602C70.8393 399.452 70.7368 399.278 70.6709 399.089C70.605 398.9 70.577 398.7 70.5884 398.5C70.5999 398.3 70.6506 398.104 70.7377 397.924C70.8248 397.744 70.9466 397.582 71.096 397.449C71.2455 397.316 71.4197 397.213 71.6088 397.147C71.7978 397.082 71.998 397.054 72.1979 397.065C72.3978 397.076 72.5934 397.127 72.7737 397.214C73.1291 397.394 73.4001 397.705 73.529 398.082C73.6578 398.459 73.6343 398.871 73.4634 399.23Z" fill="white"/>
<path d="M59.6552 373.731C59.4793 374.095 59.166 374.374 58.7842 374.507C58.4024 374.64 57.9833 374.616 57.6192 374.44C57.2551 374.264 56.9758 373.951 56.8428 373.569C56.7097 373.187 56.7337 372.768 56.9096 372.404C56.9967 372.224 57.1184 372.063 57.2679 371.929C57.4173 371.796 57.5916 371.694 57.7806 371.628C57.9697 371.562 58.1699 371.534 58.3698 371.545C58.5697 371.557 58.7653 371.608 58.9456 371.695C59.1259 371.782 59.2872 371.904 59.4205 372.053C59.5537 372.202 59.6562 372.377 59.7221 372.566C59.788 372.755 59.816 372.955 59.8045 373.155C59.793 373.355 59.7423 373.55 59.6552 373.731Z" fill="white"/>
<path d="M64.2077 381.888C64.0802 382.158 63.8756 382.384 63.6196 382.538C63.3636 382.692 63.0678 382.767 62.7694 382.753C62.471 382.739 62.1834 382.637 61.943 382.46C61.7025 382.282 61.52 382.038 61.4183 381.757C61.3167 381.476 61.3005 381.171 61.3719 380.881C61.4433 380.591 61.5989 380.329 61.8193 380.127C62.0396 379.925 62.3148 379.794 62.61 379.748C62.9053 379.703 63.2074 379.746 63.4782 379.872C63.6588 379.956 63.8211 380.075 63.9556 380.222C64.0901 380.369 64.1942 380.541 64.262 380.728C64.3298 380.915 64.3599 381.114 64.3506 381.313C64.3413 381.512 64.2927 381.708 64.2077 381.888Z" fill="white"/>
<path d="M82.403 397.149C82.2755 397.42 82.0709 397.646 81.8149 397.8C81.5589 397.954 81.2631 398.029 80.9647 398.015C80.6663 398.001 80.3788 397.899 80.1383 397.721C79.8979 397.544 79.7153 397.3 79.6137 397.019C79.512 396.738 79.4959 396.433 79.5672 396.143C79.6386 395.853 79.7942 395.591 80.0146 395.389C80.2349 395.187 80.5101 395.055 80.8053 395.01C81.1006 394.964 81.4027 395.007 81.6735 395.133C82.0359 395.306 82.3157 395.614 82.4522 395.992C82.5888 396.369 82.5711 396.785 82.403 397.149Z" fill="white"/>
<path d="M59.4577 392.802C59.3302 393.072 59.1256 393.298 58.8696 393.452C58.6136 393.606 58.3178 393.681 58.0194 393.667C57.721 393.653 57.4334 393.551 57.193 393.374C56.9525 393.196 56.77 392.952 56.6683 392.671C56.5667 392.39 56.5505 392.085 56.6219 391.795C56.6933 391.505 56.8489 391.243 57.0693 391.041C57.2896 390.84 57.5648 390.708 57.86 390.662C58.1553 390.617 58.4574 390.66 58.7282 390.786C58.9088 390.87 59.0711 390.989 59.2056 391.136C59.3401 391.283 59.4442 391.455 59.512 391.642C59.5798 391.829 59.6099 392.028 59.6006 392.227C59.5913 392.426 59.5427 392.622 59.4577 392.802Z" fill="white"/>
<path d="M92.8678 375.356C92.7404 375.627 92.5357 375.853 92.2798 376.007C92.0238 376.161 91.7279 376.236 91.4296 376.222C91.1312 376.208 90.8436 376.106 90.6032 375.928C90.3627 375.751 90.1801 375.507 90.0785 375.226C89.9769 374.945 89.9607 374.64 90.0321 374.35C90.1034 374.06 90.2591 373.798 90.4794 373.596C90.6998 373.394 90.9749 373.262 91.2702 373.217C91.5654 373.171 91.8675 373.214 92.1383 373.34C92.319 373.424 92.4812 373.543 92.6157 373.69C92.7502 373.837 92.8544 374.009 92.9222 374.197C92.99 374.384 93.0201 374.583 93.0107 374.782C93.0014 374.981 92.9528 375.176 92.8678 375.356Z" fill="white"/>
<path d="M87.8249 386.13C87.6974 386.4 87.4928 386.626 87.2368 386.78C86.9808 386.934 86.685 387.009 86.3866 386.995C86.0882 386.981 85.8006 386.879 85.5602 386.702C85.3197 386.525 85.1372 386.28 85.0355 385.999C84.9339 385.718 84.9177 385.414 84.9891 385.124C85.0604 384.833 85.2161 384.571 85.4365 384.369C85.6568 384.168 85.932 384.036 86.2272 383.99C86.5225 383.945 86.8245 383.988 87.0954 384.114C87.276 384.198 87.4382 384.317 87.5728 384.464C87.7073 384.611 87.8114 384.783 87.8792 384.97C87.947 385.158 87.9771 385.356 87.9678 385.556C87.9585 385.755 87.9099 385.95 87.8249 386.13Z" fill="white"/>
<path d="M88.7936 366.501C88.6661 366.771 88.4615 366.998 88.2055 367.151C87.9496 367.305 87.6537 367.38 87.3553 367.366C87.0569 367.352 86.7694 367.25 86.5289 367.073C86.2885 366.896 86.1059 366.651 86.0043 366.37C85.9026 366.089 85.8865 365.785 85.9578 365.495C86.0292 365.205 86.1849 364.942 86.4052 364.74C86.6256 364.539 86.9007 364.407 87.196 364.361C87.4912 364.316 87.7933 364.359 88.0641 364.485C88.2448 364.569 88.407 364.688 88.5415 364.835C88.676 364.982 88.7802 365.154 88.848 365.341C88.9158 365.529 88.9459 365.728 88.9365 365.927C88.9272 366.126 88.8786 366.321 88.7936 366.501Z" fill="white"/>
<path d="M99.4342 363.146C99.3068 363.416 99.1022 363.642 98.8462 363.796C98.5902 363.95 98.2944 364.025 97.996 364.011C97.6976 363.997 97.41 363.895 97.1696 363.717C96.9291 363.54 96.7465 363.296 96.6449 363.015C96.5433 362.734 96.5271 362.429 96.5985 362.139C96.6698 361.849 96.8255 361.587 97.0458 361.385C97.2662 361.183 97.5414 361.051 97.8366 361.006C98.1318 360.96 98.4339 361.003 98.7047 361.129C98.8854 361.214 99.0476 361.332 99.1821 361.479C99.3167 361.626 99.4208 361.799 99.4886 361.986C99.5564 362.173 99.5865 362.372 99.5772 362.571C99.5678 362.77 99.5193 362.965 99.4342 363.146Z" fill="white"/>
<path d="M40.7838 390.891C43.7549 405.481 76.1714 421.212 78.3864 421.145C80.6014 421.079 102.115 367.825 102.115 367.825C102.115 367.825 75.8928 359.204 64.0881 343.871C64.0881 343.871 39.8554 386.315 40.7838 390.891Z" fill="#455A64"/>
<path d="M291.017 511.792H165.556C157.916 482.612 150.899 456.867 146.429 440.606C143.617 430.379 141.814 423.893 141.469 422.673C141.45 422.601 141.428 422.531 141.402 422.461H271.877L275.856 440.752C277.435 448.153 279.438 457.49 281.746 468.168C281.931 469.096 282.143 470.038 282.342 471.019C284.969 483.248 287.926 497.109 291.017 511.792Z" fill="#455A64"/>
<path d="M184.578 511.792H182.217C175.797 488.138 169.532 464.441 163.422 440.698L162.918 438.696C162.799 438.152 163.608 437.9 163.767 438.444C163.993 439.2 164.218 439.942 164.43 440.698C171.354 464.334 178.012 488.05 184.578 511.792Z" fill="#263238"/>
<path d="M261.717 422.671C260.694 428.871 259.204 434.986 257.261 440.962C255.802 445.71 254.038 450.843 252.048 456.135C251.624 457.342 251.146 458.51 250.722 459.703C244.395 475.819 236.132 492.239 227.59 500.038H227.523C226.522 500.996 225.429 501.853 224.261 502.598L216.992 507.094C217 507.129 217 507.166 216.992 507.201C216.992 507.638 216.661 509.217 216.249 511.763H93.7856C90.6554 483.405 97.1811 456.878 102.871 440.245C104.863 434.233 107.237 428.354 109.981 422.645L261.717 422.671Z" fill="#455A64"/>
<path d="M247.121 493.125C239.426 497.351 231.499 501.142 223.379 504.479C221.217 505.408 219.055 506.323 216.853 507.211C216.721 507.211 216.588 507.331 216.455 507.371C214.563 508.158 212.666 508.914 210.765 509.639C208.908 510.355 207.065 511.098 205.181 511.787H201.043C203.895 510.355 206.879 509.135 209.784 507.808C213.816 506.04 217.861 504.271 221.92 502.503C223.764 501.707 225.607 500.898 227.438 500.076H227.504C233.831 497.264 240.131 494.452 246.644 492.117C247.293 491.799 247.718 492.781 247.121 493.125Z" fill="#263238"/>
<path d="M216.924 507.305C216.924 508.26 216.844 509.838 216.658 511.788H215.332C215.756 509.957 216.141 508.459 216.512 507.371C216.509 507.331 216.509 507.291 216.512 507.252C216.579 507.079 216.818 507.066 216.871 507.252C216.871 507.252 216.924 507.265 216.924 507.305Z" fill="#263238"/>
<path d="M121.827 430.298C120.169 433.614 118.67 436.93 117.277 440.405C108.83 461.175 105.641 483.709 107.992 506.007C108.218 507.944 108.497 509.867 108.788 511.79H106.666C105.828 506.189 105.341 500.541 105.207 494.879C104.769 476.151 108.417 457.553 115.898 440.378C117.463 436.811 119.2 433.309 121.097 429.9C121.123 429.852 121.158 429.81 121.201 429.776C121.243 429.741 121.292 429.716 121.345 429.7C121.397 429.685 121.452 429.68 121.506 429.686C121.56 429.692 121.613 429.708 121.661 429.734C121.709 429.76 121.751 429.796 121.785 429.838C121.819 429.881 121.845 429.929 121.86 429.982C121.876 430.034 121.881 430.089 121.875 430.143C121.869 430.198 121.853 430.25 121.827 430.298Z" fill="#263238"/>
<path d="M213.846 473.168C213.966 468.446 214.297 463.737 214.536 459.029C215.08 447.914 215.517 436.733 216.552 425.657C216.552 425.566 216.588 425.478 216.653 425.414C216.718 425.349 216.805 425.312 216.897 425.312C216.988 425.312 217.076 425.349 217.141 425.414C217.205 425.478 217.242 425.566 217.242 425.657C217.374 434.252 217.043 442.9 216.87 451.482C216.777 455.779 216.658 460.09 216.539 464.387C216.307 468.491 216.28 472.603 216.459 476.709C216.685 479.813 217.361 485.835 221.406 486.206C225.226 486.564 228.237 482.453 229.192 479.442C231.606 471.775 232.468 463.525 233.251 455.567C233.715 450.858 234.259 431.692 234.007 426.891C234.007 426.586 234.458 426.599 234.484 426.891C234.75 431.745 235.413 436.573 235.572 441.481C235.731 446.389 235.745 451.19 235.439 456.071C235.134 460.713 234.75 465.356 234.047 469.985C233.575 474.193 232.572 478.324 231.062 482.28C229.657 485.543 227.243 488.541 223.582 489.257C223.143 489.331 222.7 489.376 222.255 489.389C222.255 490.384 222.07 491.392 222.003 492.374C221.897 493.939 221.698 495.477 221.486 497.029C221.272 498.552 220.957 500.058 220.544 501.539C220.211 503.037 219.676 504.483 218.953 505.836C218.925 505.878 218.885 505.911 218.838 505.928C218.791 505.946 218.739 505.948 218.691 505.935C218.642 505.922 218.599 505.894 218.567 505.855C218.536 505.815 218.518 505.767 218.515 505.717C218.479 504.227 218.604 502.737 218.886 501.274C219.099 499.762 219.311 498.223 219.616 496.738C219.921 495.252 220.199 493.78 220.505 492.307C220.704 491.326 220.836 490.305 221.022 489.31C219.84 489.102 218.728 488.604 217.786 487.861C216.844 487.118 216.101 486.153 215.624 485.052C213.886 481.378 213.753 477.094 213.846 473.168Z" fill="#263238"/>
<path d="M211.594 259.911C227.417 279.74 289.465 350.104 323.95 356.67C347.175 361.113 421.783 323.139 438.124 309.385C444.756 303.761 407.445 248.093 398.333 250.335C388.465 252.762 334.774 288.454 327.797 288.043C320.82 287.632 265.869 256.741 232.537 243.066C212.509 234.79 202.68 248.756 211.594 259.911Z" fill="#AD6359"/>
<path d="M417.634 322.652C431.985 317.121 475.503 286.602 482.732 278.67C489.961 270.738 509.114 246.452 503.596 240.298C498.078 234.144 491.924 240.815 491.924 240.815C491.924 240.815 499.179 228.281 492.282 223.573C486.777 219.819 477.586 228.745 477.586 228.745C477.586 228.745 484.814 214.593 477.373 210.813C470.596 207.364 463.128 219.487 463.128 219.487C463.128 219.487 467.97 207.033 460.807 204.977C452.186 202.483 443.79 224.037 435.155 232.194C433.192 234.038 375.27 262.462 375.27 262.462L417.634 322.652Z" fill="#AD6359"/>
<path d="M462.807 218.856C454.849 234.362 451.135 240.542 437.606 250.464C437.341 250.649 437.606 251.087 437.871 250.915C451.957 242.399 456.918 235.383 463.55 219.082C463.908 218.326 463.178 218.14 462.807 218.856Z" fill="#263238"/>
<path d="M477.423 228.743C469.531 244.659 463.496 250.641 450.139 262.061C449.94 262.22 450.139 262.565 450.405 262.419C464.451 252.299 472.197 245.787 477.993 228.876C478.258 228.12 477.781 228.027 477.423 228.743Z" fill="#263238"/>
<path d="M491.259 241.384C482.505 256.213 476.39 263.508 461.986 272.925C461.912 272.967 461.858 273.037 461.836 273.119C461.813 273.201 461.824 273.289 461.866 273.363C461.909 273.436 461.979 273.49 462.061 273.513C462.143 273.535 462.23 273.524 462.304 273.482C477.916 265.298 485.635 256.239 491.683 241.649C492.094 240.707 491.803 240.416 491.259 241.384Z" fill="#263238"/>
<path d="M549.049 285.166C510.969 296.281 473.446 307.409 436.971 318.524C415.126 269.449 411.903 220.373 396.941 171.297C435.075 160.169 472.544 149.054 509.166 137.926C530.971 186.988 534.128 236.077 549.049 285.166Z" fill="white"/>
<path d="M549.048 285.168C530.063 290.81 511.255 296.443 492.624 302.066C473.993 307.69 455.499 313.31 437.142 318.924L436.77 319.044L436.585 318.646C414.647 269.57 411.384 220.495 396.303 171.419C396.237 171.207 396.184 170.994 396.117 170.782L396.741 170.597C434.874 159.535 472.344 148.473 508.965 137.437L509.402 137.305L509.601 137.756C520.478 162.36 526.672 186.964 532.017 211.568C537.362 236.172 541.7 260.644 549.048 285.168ZM549.048 285.168C541.474 260.617 536.832 236.093 531.341 211.502C525.849 186.911 519.642 162.519 508.792 138.034L509.416 138.353C472.848 149.534 435.325 160.728 397.192 171.91L397.629 171.087C412.524 220.163 415.668 269.305 437.42 318.407L436.877 318.129C455.127 312.629 473.604 307.129 492.306 301.629C511.007 296.129 529.921 290.642 549.048 285.168Z" fill="#263238"/>
<path d="M414.965 192.663C436.479 186.473 457.864 180.283 479.121 174.094C479.493 175.354 479.864 176.614 480.222 177.874C458.921 184.064 437.473 190.253 415.88 196.443C415.575 195.236 415.27 193.989 414.965 192.663Z" fill="#DBDBDB"/>
<path d="M417.242 202.272C438.862 196.083 460.385 189.893 481.81 183.703L482.805 187.483C461.353 193.673 439.786 199.863 418.104 206.052C417.826 204.792 417.534 203.532 417.242 202.272Z" fill="#DBDBDB"/>
<path d="M419.395 211.819C441.094 205.629 462.718 199.44 484.267 193.25C484.572 194.576 484.891 195.77 485.182 197.03C463.616 203.22 441.952 209.41 420.19 215.599C419.952 214.339 419.673 213.079 419.395 211.819Z" fill="#DBDBDB"/>
<path d="M421.461 221.353C453.294 212.298 485.029 203.239 516.668 194.176L517.583 197.969C485.962 207.015 454.116 216.074 422.27 225.133C421.991 223.873 421.726 222.613 421.461 221.353Z" fill="#DBDBDB"/>
<path d="M423.535 230.9C455.368 221.836 487.179 212.777 518.967 203.723C519.259 204.983 519.551 206.243 519.83 207.503C488.076 216.566 456.243 225.625 424.331 234.68C424.026 233.42 423.761 232.16 423.535 230.9Z" fill="#DBDBDB"/>
<path d="M425.535 240.414L521.034 213.25C521.312 214.576 521.591 215.77 521.856 217.03C490.023 226.089 458.19 235.135 426.357 244.194C426.079 242.961 425.814 241.74 425.535 240.414Z" fill="#DBDBDB"/>
<path d="M427.645 249.99C459.38 240.926 491.213 231.867 523.143 222.812C523.422 224.139 523.687 225.333 523.952 226.593C492.119 235.647 460.313 244.706 428.533 253.77C428.215 252.51 427.923 251.25 427.645 249.99Z" fill="#DBDBDB"/>
<path d="M429.859 259.523C461.467 250.464 493.3 241.418 525.146 232.359C525.424 233.619 525.69 234.879 525.955 236.14C494.122 245.203 462.4 254.258 430.788 263.304C430.47 262.044 430.164 260.783 429.859 259.523Z" fill="#DBDBDB"/>
<path d="M432.25 269.08C463.685 260.016 495.337 250.957 527.205 241.902C527.483 243.162 527.749 244.422 528.027 245.683C496.247 254.746 464.658 263.805 433.258 272.86C432.913 271.6 432.582 270.34 432.25 269.08Z" fill="#DBDBDB"/>
<path d="M434.848 278.609C466.044 269.563 497.536 260.509 529.325 251.445C529.617 252.772 529.895 253.965 530.2 255.225C498.527 264.285 467.039 273.344 435.949 282.403C435.577 281.129 435.206 279.869 434.848 278.609Z" fill="#DBDBDB"/>
<path d="M437.699 288.166C468.648 279.111 499.937 270.052 531.566 260.988C531.871 262.315 532.177 263.508 532.495 264.768C500.98 273.832 469.789 282.891 438.919 291.946C438.508 290.686 438.124 289.492 437.699 288.166Z" fill="#DBDBDB"/>
<path d="M440.871 297.716C471.484 288.662 502.521 279.603 533.982 270.539C534.314 271.799 534.645 273.059 534.99 274.319C503.688 283.374 472.766 292.433 442.224 301.497L440.871 297.716Z" fill="#DBDBDB"/>
<path d="M490.079 193.859C488.66 183.553 486.923 173.247 484.602 162.941C491.857 170.329 498.794 177.717 505.545 185.105L503.555 186.922C498.833 181.723 494.019 176.523 489.058 171.324C490.504 178.685 491.711 186.034 492.706 193.395L490.079 193.859Z" fill="#33357D"/>
<path d="M488.179 188.497L486.641 186.388C491.363 182.851 496.04 179.314 500.674 175.777L502.265 177.886C497.623 181.441 492.928 184.978 488.179 188.497Z" fill="#33357D"/>
<path d="M484.046 158.899C481.864 160.515 479.929 162.441 478.303 164.615C475.097 169.021 473.42 174.355 473.528 179.802C473.55 182.444 474.129 185.052 475.226 187.455C476.354 189.774 477.995 191.807 480.024 193.399C482.053 194.991 484.417 196.102 486.937 196.647C492.004 197.642 497.429 195.825 501.965 192.827C506.61 190.052 510.131 185.733 511.913 180.625C512.75 178.119 513.011 175.457 512.676 172.836C512.34 170.216 511.418 167.705 509.976 165.491C508.389 163.302 506.337 161.49 503.968 160.185C501.602 158.817 498.969 157.971 496.249 157.705C493.546 157.432 490.817 157.809 488.29 158.806C485.782 159.839 483.472 161.298 481.46 163.117C482.39 162.113 483.392 161.178 484.457 160.318C485.566 159.493 486.752 158.778 487.999 158.182C490.561 156.937 493.388 156.336 496.235 156.432C499.228 156.578 502.154 157.364 504.817 158.737C507.481 160.11 509.819 162.037 511.674 164.39C513.452 166.821 514.596 169.656 515.003 172.64C515.423 175.585 515.192 178.587 514.327 181.434C512.393 187.152 508.498 192.001 503.331 195.122C500.834 196.768 498.095 198.017 495.214 198.822C492.323 199.644 489.279 199.776 486.327 199.207C483.446 198.6 480.764 197.277 478.528 195.361C476.314 193.478 474.539 191.133 473.329 188.49C471.203 183.015 471.236 176.937 473.422 171.486C475.421 166.2 479.171 161.758 484.046 158.899Z" fill="#33357D"/>
<path d="M498.593 168.794C497.072 166.707 495.52 164.624 493.938 162.546L496.02 161.008C497.612 163.086 499.177 165.168 500.715 167.255L498.593 168.794Z" fill="#33357D"/>
<path d="M495.157 168.145L493.578 165.969L499.547 161.672C500.091 162.401 500.621 163.131 501.165 163.847L495.157 168.145Z" fill="#33357D"/>
<path d="M375.27 262.469C375.27 262.469 389.369 248.024 395.709 240.849C402.049 233.673 417.196 210.899 425.42 211.443C434.704 212.053 427.993 236.047 416.758 248.94C416.758 248.94 431.68 272.735 421.48 285.64C419.265 288.426 403.19 297.259 399.197 296.437L375.27 262.469Z" fill="#AD6359"/>
<path d="M416.079 250.668C422.22 259.714 426.491 273.495 422.088 283.482C422.067 283.539 422.067 283.601 422.088 283.658C422.11 283.714 422.15 283.761 422.203 283.79C422.257 283.819 422.318 283.828 422.377 283.815C422.436 283.803 422.489 283.769 422.525 283.721C428.693 273.654 423.852 257.658 417.936 249.898C416.782 248.373 414.488 248.373 416.079 250.668Z" fill="#263238"/>
<path d="M375.264 262.471L417.629 322.649C417.753 326.47 416.705 330.237 414.626 333.445C412.546 336.653 409.535 339.148 405.996 340.595C393.356 346.126 341.07 364.987 320.366 357.997C299.661 351.007 240.598 300.101 215.118 266.265C189.639 232.429 227.295 239.154 234.47 242.39C241.646 245.627 325.884 285.325 328.881 285.258C331.879 285.192 351.429 270.324 360.714 265.708C369.999 261.092 375.264 262.471 375.264 262.471Z" fill="#33357D"/>
<path opacity="0.1" d="M350.58 357.534C338.643 359.722 327.594 360.439 320.392 357.998C299.674 350.995 240.611 300.115 215.131 266.253C213.513 264.118 212.16 262.128 211.02 260.324L350.58 357.534Z" fill="black"/>
<path d="M401.127 335.081C397.241 330.32 394.004 325.028 390.622 319.934C387.24 314.841 383.99 309.88 380.714 304.814C374.082 294.614 367.225 284.48 361.296 273.896C361.278 273.848 361.276 273.794 361.292 273.745C361.309 273.696 361.341 273.654 361.385 273.626C361.428 273.598 361.48 273.585 361.532 273.591C361.583 273.597 361.631 273.62 361.668 273.657C369.321 283.3 375.992 293.725 382.704 303.978C386.073 309.116 389.367 314.297 392.585 319.523C395.854 324.477 398.843 329.609 401.538 334.896C401.658 335.148 401.286 335.28 401.127 335.081Z" fill="#263238"/>
<g opacity="0.1">
<path d="M387.546 347.544L382.758 349.176C382.507 347.419 382.387 345.645 382.4 343.87C382.4 340.515 382.665 337.239 382.625 334.042C382.636 330.844 382.325 327.654 381.697 324.519C381.056 321.446 379.979 318.48 378.5 315.712C378.142 315.022 377.731 314.385 377.346 313.722C376.961 313.059 376.524 312.502 376.086 311.892C375.144 310.685 374.163 309.438 373.142 308.218L367.04 300.803C364.971 298.31 362.929 295.803 360.912 293.243C358.896 290.683 356.933 288.03 355.116 285.285C353.23 282.447 351.601 279.446 350.248 276.318C349.783 275.175 349.385 274.006 349.055 272.817C350.766 271.689 352.45 270.602 354.042 269.594C354.567 271.024 355.174 272.424 355.859 273.785C357.323 276.466 358.94 279.061 360.7 281.558C364.255 286.73 367.995 291.943 371.749 297.209C373.619 299.862 375.542 302.514 377.293 305.26C378.169 306.653 379.044 308.058 379.826 309.584C380.211 310.353 380.596 311.109 380.941 311.958C381.285 312.807 381.537 313.576 381.776 314.399C383.739 320.924 384.031 327.503 384.787 333.936C385.299 338.545 386.222 343.1 387.546 347.544Z" fill="black"/>
<path d="M370.808 352.73C369.482 353.101 368.235 353.459 366.922 353.804C365.33 348.313 365.237 342.901 365.118 337.556V329.28C365.118 327.953 365.118 326.56 365.012 325.221C364.983 323.922 364.854 322.627 364.627 321.348C364.58 321.058 364.505 320.774 364.402 320.499L364.07 319.597L363.672 318.722C363.526 318.43 363.354 318.151 363.208 317.86C362.534 316.716 361.733 315.653 360.82 314.689C358.914 312.752 356.749 311.088 354.387 309.742C353.207 309.026 351.987 308.416 350.753 307.766L347.026 305.869C344.358 304.626 341.951 302.889 339.93 300.749C339.43 300.151 338.986 299.507 338.604 298.826C338.405 298.481 338.232 298.11 338.06 297.752L337.649 296.691C337.171 295.291 336.812 293.853 336.574 292.393C336.124 289.57 335.955 286.708 336.07 283.851C336.07 283.016 336.15 282.18 336.216 281.345L338.869 279.594C338.869 281.013 338.869 282.419 338.988 283.825C339.097 286.496 339.399 289.155 339.89 291.783C340.147 293.044 340.493 294.285 340.925 295.497L341.27 296.372C341.402 296.624 341.495 296.89 341.641 297.155C341.918 297.677 342.233 298.178 342.583 298.654C344.204 300.696 346.096 302.507 348.207 304.039C350.369 305.697 352.716 307.195 355.037 308.721C357.436 310.18 359.72 311.821 361.868 313.628C362.97 314.567 363.979 315.611 364.879 316.745C365.332 317.327 365.753 317.934 366.139 318.562L366.683 319.531C366.862 319.887 367.017 320.255 367.147 320.632C367.609 322.029 367.933 323.469 368.115 324.929C368.341 326.335 368.46 327.741 368.58 329.134C368.805 331.919 368.938 334.678 369.123 337.41C369.309 340.143 369.508 342.875 369.773 345.554C369.956 347.967 370.301 350.364 370.808 352.73Z" fill="black"/>
</g>
<path d="M96.5293 448.998C96.662 449.17 277.672 440.708 278.852 439.594C279.396 439.077 281.744 428.771 278.971 414.459C270.655 371.551 245.733 283.905 223.755 246.819C218.264 237.535 193.513 223.887 175.554 241.421C139.146 276.968 110.562 367.426 99.3015 417.112C93.7838 441.398 95.7866 447.963 96.5293 448.998Z" fill="#33357D"/>
<g opacity="0.1">
<path d="M278.158 410.358C277.614 410.358 277.071 410.358 276.54 410.438C271.394 410.93 266.283 411.732 261.234 412.839C250.822 414.961 240.224 417.348 229.547 419.722C224.241 420.903 218.856 422.15 213.352 423.052C210.593 423.489 207.821 423.927 204.943 424.139C203.484 424.232 202.051 424.338 200.486 424.312C198.921 424.285 197.595 424.166 196.149 423.993C184.676 422.76 174.237 418.873 163.693 415.81C153.148 412.746 142.272 410.65 132.589 410.69C130.202 410.69 127.629 410.889 125.042 411.127C122.456 411.366 119.869 411.751 117.256 412.136C112.044 412.971 106.778 414.019 101.526 415.16L99.6289 415.584C100.266 412.799 100.955 409.881 101.711 406.87C106.264 405.366 110.895 404.113 115.585 403.116C118.344 402.515 121.147 402.037 123.994 401.684C125.427 401.511 126.859 401.365 128.305 401.286C129.807 401.186 131.313 401.186 132.815 401.286C138.675 401.684 144.416 403.13 149.766 405.557C154.992 407.732 159.873 410.305 164.913 412.388C169.891 414.518 175.073 416.136 180.378 417.216C185.595 418.245 190.932 418.527 196.228 418.051C197.555 417.958 198.881 417.759 200.088 417.587C201.295 417.414 202.515 417.096 203.762 416.804C206.282 416.128 208.855 415.478 211.415 414.656L227.027 410.027C232.253 408.448 237.532 406.91 242.85 405.464C248.169 404.018 253.581 402.732 259.112 401.71C264.653 400.659 270.277 400.1 275.917 400.039C276.739 403.647 277.482 407.109 278.158 410.358Z" fill="black"/>
<path d="M270.27 376.711C266.584 375.401 262.818 374.329 258.995 373.501C256.862 373.059 254.698 372.775 252.523 372.652H250.944C250.454 372.652 249.976 372.652 249.485 372.718C248.486 372.815 247.494 372.974 246.514 373.196C242.265 374.379 238.196 376.133 234.418 378.409C230.439 380.69 226.46 383.343 222.613 385.982C218.751 388.752 214.685 391.226 210.45 393.383C208.26 394.477 205.974 395.365 203.62 396.036C202.414 396.36 201.192 396.617 199.959 396.805L198.049 396.925C197.373 396.971 196.695 396.971 196.019 396.925C193.537 396.727 191.08 396.282 188.685 395.598C186.35 395.015 184.082 394.272 181.841 393.543C177.344 392.057 172.954 390.452 168.577 388.927C164.2 387.401 159.81 385.916 155.459 384.563C151.231 383.176 146.903 382.112 142.514 381.38C140.463 381.071 138.381 381.026 136.32 381.247C134.149 381.493 131.999 381.897 129.887 382.454C125.492 383.627 121.177 385.08 116.968 386.805C113.174 388.343 109.399 389.988 105.641 391.739C106.052 390.213 106.476 388.675 106.967 387.11C109.62 385.491 112.312 383.962 115.045 382.52C119.309 380.26 123.744 378.335 128.308 376.764C130.674 375.98 133.095 375.372 135.55 374.947C138.121 374.499 140.739 374.401 143.336 374.655C153.416 375.663 162.29 379.218 171.017 382.706L183.963 388.012C186.098 388.9 188.247 389.736 190.369 390.545C192.41 391.348 194.506 392 196.643 392.495C197.133 392.598 197.629 392.669 198.128 392.707L199.747 392.773H201.378C201.935 392.773 202.479 392.667 203.023 392.614C205.248 392.322 207.432 391.779 209.535 390.996C213.801 389.288 217.816 387.013 221.472 384.231C223.343 382.905 225.12 381.353 226.937 379.881L232.349 375.305C236.023 372.307 239.975 369.257 245.016 367.639C246.283 367.218 247.589 366.924 248.915 366.763C249.592 366.67 250.241 366.657 250.958 366.617H252.881C255.377 366.794 257.853 367.185 260.282 367.784C263.145 368.466 265.955 369.352 268.691 370.437L270.27 376.711Z" fill="black"/>
</g>
<path d="M156.551 245.719C97.4617 270.774 51.5826 292.593 58.2409 315.3C60.8937 324.213 76.2796 348.261 96.0955 348.234C111.667 348.234 139.428 323.245 171.062 279.541C187.443 256.927 193.862 229.882 156.551 245.719Z" fill="#33357D"/>
<path d="M167.025 291.534C164.505 293.617 161.998 295.752 159.544 297.927L161.123 296.097C165.354 291.083 169.532 286.03 173.71 280.976C173.789 280.87 173.617 280.738 173.524 280.844C165.566 289.306 157.608 297.689 149.557 306.124C141.506 314.56 120.509 335.928 115.403 340.119C115.297 340.212 115.403 340.384 115.535 340.305C120.151 336.697 133.11 325.847 137.248 321.802C143.5 315.683 149.508 309.369 155.273 302.861C159.48 299.394 163.496 295.701 167.304 291.799C167.449 291.654 167.197 291.388 167.025 291.534Z" fill="#263238"/>
<path d="M79.3676 334.493C53.53 323.882 36.7912 245.507 30.4511 192.758C29.2441 182.717 108.614 173.048 108.707 183.858C109.025 245.56 107.672 346.086 79.3676 334.493Z" fill="#AD6359"/>
<path d="M20.4793 151.643C20.9436 168.474 35.3612 210.613 42.0063 217.497C48.6514 224.381 99.0402 200.254 101.812 190.97C104.584 181.685 106.972 126.482 95.8702 113.377C84.7685 100.272 19.9886 134.214 20.4793 151.643Z" fill="#AD6359"/>
<path d="M108.905 136.958C104.501 144.717 97.8826 135.088 97.8826 135.088C97.8826 135.088 104.077 151.243 96.4502 157.49C89.0755 163.486 81.4754 151.575 80.9316 150.726C81.25 151.588 86.5554 166.642 78.2789 172.067C69.631 177.757 64.0602 164.494 63.6888 163.631C63.6888 164.547 64.1796 176.51 56.9111 179.243C44.4299 183.938 42.4669 153.352 34.071 146.561C34.071 146.561 20.9532 152.662 20.489 152.954C20.489 152.954 18.0352 130.724 27.8105 119.901C29.2065 118.303 31.1078 117.231 33.1977 116.865C35.2876 116.498 37.4401 116.858 39.2969 117.885C39.2969 117.885 37.4798 108.6 43.8861 104.077C47.1755 101.756 53.8206 104.979 53.8206 104.979C53.8206 104.979 52.6667 97.4854 58.6088 93.8113C63.3572 90.8668 69.2198 94.5541 69.2198 94.5541C69.2198 94.5541 71.4481 86.8479 77.2709 85.4021C89.0358 82.4443 118.309 120.299 108.905 136.958Z" fill="#AD6359"/>
<path d="M70.2677 94.9488C70.2536 94.9242 70.2477 94.8958 70.2508 94.8677C70.254 94.8395 70.2662 94.8131 70.2854 94.7924C70.3047 94.7716 70.3301 94.7576 70.358 94.7523C70.3858 94.747 70.4146 94.7508 70.4401 94.7631C83.1069 104.857 93.9301 119.831 98.2939 135.522C98.4398 136.04 97.6572 136.504 97.3919 135.96C89.8051 120.641 81.8469 107.642 70.2677 94.9488Z" fill="#263238"/>
<path d="M53.7132 104.69C53.5939 104.558 53.8193 104.345 53.9785 104.465C66.9769 114.943 78.702 132.146 81.5935 150.888C81.6996 151.524 81.1426 152.214 80.9701 151.471C78.1052 139.136 64.1916 116.071 53.7132 104.69Z" fill="#263238"/>
<path d="M63.4246 164.971C59.9495 147.158 51.1159 132.249 39.8418 118.243C39.6958 118.057 39.9744 117.871 40.1335 117.991C47.5214 123.296 53.7686 133.019 57.9998 140.964C62.0713 148.247 64.1699 156.468 64.0878 164.812C64.0878 165.183 63.4909 165.356 63.4246 164.971Z" fill="#263238"/>
<path d="M97.882 135.051C98.783 138.256 99.3868 141.537 99.6858 144.853C100.095 148.067 99.6368 151.332 98.3594 154.31C97.7146 155.648 96.5938 156.698 95.216 157.254C93.821 157.8 92.3093 157.978 90.8257 157.772C89.3637 157.45 87.9862 156.823 86.7838 155.932C85.5814 155.04 84.5812 153.904 83.849 152.599L80.0025 146.378L81.4615 153.554C82.1296 156.736 82.2774 160.006 81.8992 163.236C81.488 166.38 80.2412 169.404 77.8405 170.995C76.7299 171.848 75.3609 172.294 73.9613 172.261C72.5616 172.227 71.2157 171.715 70.1476 170.81C67.7976 168.732 66.0171 166.089 64.9747 163.13L61.8047 155.066L62.1496 163.687C62.2577 166.087 62.0526 168.49 61.5394 170.836C61.1437 173.078 60.0965 175.154 58.5286 176.805C57.7892 177.516 56.8664 178.007 55.8636 178.222C54.8609 178.438 53.8179 178.37 52.8517 178.025C50.8102 176.932 49.1218 175.28 47.9839 173.263C45.4853 168.929 43.3299 164.406 41.5378 159.735C40.543 157.4 39.535 155.066 38.4208 152.771C37.4262 150.406 35.9438 148.277 34.0703 146.524C35.7138 148.44 36.9705 150.656 37.7709 153.05C38.6993 155.397 39.5217 157.798 40.344 160.199C41.8762 165.099 43.8703 169.842 46.2994 174.364C47.576 176.839 49.5435 178.889 51.963 180.267C53.361 180.868 54.9041 181.047 56.4026 180.783C57.9012 180.519 59.2901 179.823 60.3988 178.781C62.4275 176.799 63.8138 174.253 64.3779 171.473C64.9881 168.866 65.2556 166.191 65.1737 163.515L62.3618 164.072C63.5393 167.594 65.6202 170.745 68.3968 173.21C69.9723 174.537 71.9609 175.273 74.0206 175.293C76.0415 175.242 78.0007 174.586 79.6444 173.409C83.0001 171.075 84.3795 167.109 84.7774 163.594C85.1486 160.046 84.929 156.46 84.1275 152.983L81.7268 153.952C82.6979 155.536 84.0036 156.888 85.5524 157.915C87.1012 158.941 88.8557 159.617 90.693 159.894C92.5414 160.061 94.4015 159.746 96.0914 158.979C97.8161 158.166 99.1842 156.751 99.9378 154.999C101.397 151.617 101.092 148.062 100.628 144.747C100.078 141.422 99.1574 138.17 97.882 135.051Z" fill="#263238"/>
<path d="M103.372 194.52C103.372 194.52 144.304 119.58 106.025 118.585C96.7406 118.346 59.8543 133.308 62.5203 140.775C65.9688 150.431 82.4158 147.473 92.5493 143.972C92.5493 143.972 80.4395 165.3 92.7748 178.165C97.3707 182.849 100.975 188.411 103.372 194.52Z" fill="#AD6359"/>
<path d="M108.677 118.548C105.032 118.406 101.385 118.799 97.854 119.715C94.2974 120.532 90.8008 121.591 87.389 122.885C80.5024 125.364 73.8453 128.44 67.4934 132.077C65.8145 133.044 64.2787 134.24 62.9307 135.632C62.1626 136.441 61.5828 137.41 61.2329 138.47C61.0351 139.055 60.9408 139.67 60.9544 140.287C60.9713 140.893 61.0832 141.493 61.286 142.064C62.0455 144.118 63.5065 145.838 65.411 146.919C67.1833 147.853 69.104 148.472 71.0879 148.749C74.8466 149.202 78.655 149.009 82.3488 148.179C85.9544 147.436 89.5009 146.429 92.9597 145.168L91.4609 143.325C90.1701 145.81 89.1176 148.413 88.3174 151.097C87.497 153.749 86.9503 156.478 86.686 159.241C86.4546 162.014 86.6243 164.806 87.19 167.531C87.7586 170.225 88.8344 172.786 90.36 175.078C89.1711 172.655 88.3956 170.05 88.0654 167.372C87.7765 164.721 87.8479 162.044 88.2776 159.413C88.6806 156.793 89.3472 154.22 90.2672 151.734C91.1687 149.257 92.2965 146.868 93.6362 144.598L95.3207 141.826L92.1374 142.767C88.7623 143.851 85.3195 144.71 81.8315 145.341C78.4405 146.03 74.9607 146.169 71.5256 145.752C68.3025 145.261 64.9866 143.749 64.0846 141.109C63.0766 138.855 66.1405 136.321 68.9922 134.478C71.9916 132.579 75.091 130.844 78.2768 129.278C81.4733 127.634 84.6964 126.042 87.9858 124.623C94.6973 121.93 101.448 119.118 108.677 118.548Z" fill="#263238"/>
<path d="M111.837 199.098L29.2969 217.136C29.2969 217.136 23.8588 232.787 28.6603 249.035C37.7724 279.86 64.9497 346.033 86.8746 344.534C110.617 342.876 116.386 260.164 116.055 219.656C115.816 205.928 111.837 199.098 111.837 199.098Z" fill="#33357D"/>
<g opacity="0.1">
<path d="M115.959 231.289C115.959 233.027 115.959 234.817 115.839 236.595C113.85 237.589 111.86 238.531 109.711 239.34C108.16 239.95 106.568 240.507 104.95 240.985C104.127 241.224 103.305 241.462 102.469 241.648C101.595 241.855 100.709 242.01 99.8167 242.112C96.3582 242.445 92.8681 242.158 89.5108 241.263C86.2611 240.507 83.1575 239.473 80.014 238.757C76.9105 237.994 73.7373 237.549 70.5437 237.43C67.4149 237.339 64.289 237.692 61.2591 238.478C60.5163 238.664 59.7603 238.902 59.0573 239.128C58.3543 239.353 57.7309 239.645 56.9882 239.937C55.5955 240.574 54.163 241.263 52.7305 241.94L44.0959 246.158C41.2044 247.577 38.2731 248.996 35.3153 250.349C33.5247 251.198 31.6943 251.98 29.8374 252.736C29.4262 251.41 29.0416 250.177 28.6834 248.97C28.4049 248.054 28.1662 247.139 27.9805 246.224C32.5034 244.447 37.0794 242.59 41.6686 240.72C44.6795 239.526 47.6638 238.266 50.794 237.205C52.3591 236.687 53.9243 236.157 55.5822 235.759C56.4178 235.56 57.2534 235.361 58.235 235.228C59.2165 235.096 59.9327 235.029 60.7816 234.99C67.5991 234.592 74.0453 235.839 80.4914 236.595C86.6732 237.458 92.9451 237.458 99.1269 236.595C100.453 236.356 101.992 235.998 103.477 235.6C104.963 235.202 106.435 234.738 107.921 234.273C110.507 233.371 113.253 232.363 115.959 231.289Z" fill="black"/>
<path d="M115.505 245.719C115.505 246.674 115.426 247.629 115.373 248.597C114.285 249.512 113.184 250.401 112.044 251.25C109.784 252.973 107.399 254.525 104.908 255.892C103.625 256.573 102.295 257.163 100.929 257.656C99.4721 258.16 97.9561 258.472 96.4189 258.585C90.4369 258.969 84.9325 257.762 79.4944 256.582L71.4301 254.725C70.1037 254.42 68.7773 254.141 67.451 253.876C66.1832 253.607 64.8977 253.43 63.6045 253.345C63.313 253.325 63.0205 253.325 62.7291 253.345L61.7741 253.465L60.8191 253.65C60.5141 253.65 60.1957 253.823 59.8774 253.902C58.565 254.31 57.3052 254.871 56.1238 255.574C53.7924 256.975 51.6675 258.693 49.8102 260.68C48.842 261.662 47.9533 262.71 47.0381 263.744L44.3854 266.941C42.56 269.249 40.3087 271.185 37.7535 272.644C37.4853 272.794 37.2059 272.922 36.9179 273.029C36.5068 271.954 36.1088 270.893 35.7109 269.832C35.9099 269.753 36.1221 269.686 36.3211 269.593C38.6807 268.488 40.8802 267.069 42.8601 265.376C44.9823 263.651 46.9851 261.728 49.0012 259.818C50.9846 257.824 53.1174 255.983 55.381 254.314C56.5473 253.465 57.7907 252.728 59.0948 252.112C59.7713 251.807 60.4212 251.555 61.164 251.316L62.2383 251.011C62.6097 250.931 63.0474 250.852 63.4188 250.812C64.8833 250.672 66.3578 250.672 67.8223 250.812C69.2416 250.931 70.6343 251.13 72.0137 251.343C74.7725 251.78 77.4916 252.284 80.1974 252.749C82.9032 253.213 85.5957 253.65 88.2617 254.009C90.8602 254.406 93.4851 254.606 96.1138 254.605C97.3428 254.583 98.564 254.405 99.7481 254.075C100.986 253.721 102.196 253.278 103.369 252.749C105.82 251.642 108.195 250.374 110.478 248.955C112.176 247.956 113.852 246.877 115.505 245.719Z" fill="black"/>
</g>
<path d="M110.816 221.315C69.9907 232.775 40.5188 238.094 34.7756 238.982C34.744 238.982 34.7136 238.97 34.6912 238.947C34.6688 238.925 34.6562 238.895 34.6562 238.863C34.6562 238.831 34.6688 238.801 34.6912 238.778C34.7136 238.756 34.744 238.743 34.7756 238.743C63.1467 230.043 108.031 221.05 110.79 220.824C110.846 220.834 110.898 220.862 110.936 220.905C110.974 220.948 110.996 221.002 110.999 221.059C111.002 221.116 110.986 221.172 110.952 221.219C110.919 221.265 110.871 221.299 110.816 221.315Z" fill="#263238"/>
<path d="M114.835 270.392C113.867 278.125 111.665 290.394 109.887 297.981C109.768 298.458 109.649 298.936 109.543 299.413C110.046 302.135 110.299 304.896 110.299 307.663C110.299 310.9 110.02 314.096 109.688 317.306C109.688 317.439 109.463 317.426 109.476 317.306C109.689 314.112 109.662 310.907 109.397 307.717C109.251 305.82 109.092 303.91 108.932 302C107.195 309.242 105.365 316.484 103.11 323.58C103.11 323.713 102.871 323.58 102.911 323.5C104.608 315.794 106.426 308.101 107.845 300.342C109.264 292.583 112.514 274.372 113.867 266.665C114.941 260.551 115.14 267.965 114.835 270.392Z" fill="#263238"/>
<path d="M190.092 238.173C191.06 240.998 206.698 258.44 219.856 256.53C224.153 255.893 221.752 232.35 221.752 232.35L221.978 230.573L225.055 205.663L190.264 188.062C190.264 188.062 189.681 236.966 190.092 238.173Z" fill="#AD6359"/>
<path d="M225.028 205.677L221.924 230.559L221.712 232.35C221.712 232.35 222.136 236.621 222.309 241.555C204.031 240.64 194.455 227.907 189.945 218.914C190.025 204.788 190.224 188.062 190.224 188.062L225.028 205.677Z" fill="#263238"/>
<path d="M263.825 163.218C276.532 215.451 246.675 228.953 235.401 231.685C225.175 234.152 190.039 241.275 172.014 190.634C153.989 139.993 174.256 117.578 197.348 110.681C220.44 103.784 251.106 110.972 263.825 163.218Z" fill="#AD6359"/>
<path d="M248.823 164.717C247.583 164.735 246.343 164.687 245.109 164.572C243.797 164.707 242.477 164.404 241.355 163.709C241.044 163.422 240.838 163.039 240.768 162.621C240.699 162.203 240.77 161.774 240.971 161.402C241.471 160.722 242.145 160.189 242.922 159.86C243.699 159.531 244.551 159.417 245.387 159.531C247.116 159.485 248.8 160.085 250.109 161.216C250.392 161.491 250.589 161.842 250.676 162.227C250.764 162.612 250.738 163.014 250.602 163.384C250.466 163.754 250.225 164.077 249.91 164.314C249.594 164.551 249.216 164.691 248.823 164.717Z" fill="#263238"/>
<path d="M211.66 172.678C212.835 172.294 213.991 171.851 215.122 171.351C216.402 171.043 217.544 170.32 218.371 169.295C218.573 168.922 218.643 168.491 218.571 168.073C218.499 167.654 218.288 167.272 217.973 166.987C217.275 166.513 216.463 166.235 215.621 166.181C214.779 166.128 213.938 166.301 213.185 166.682C211.539 167.215 210.149 168.34 209.285 169.839C209.121 170.191 209.061 170.583 209.111 170.968C209.161 171.353 209.32 171.716 209.57 172.014C209.819 172.312 210.148 172.532 210.518 172.65C210.888 172.767 211.284 172.777 211.66 172.678Z" fill="#263238"/>
<path d="M227.39 208.754C228.358 209.51 229.353 210.584 230.679 210.558C232.032 210.39 233.333 209.938 234.499 209.232C234.523 209.222 234.55 209.22 234.575 209.225C234.6 209.23 234.624 209.243 234.642 209.261C234.661 209.279 234.673 209.303 234.678 209.328C234.684 209.353 234.681 209.38 234.671 209.404C234.229 210.174 233.585 210.811 232.81 211.245C232.035 211.679 231.156 211.896 230.268 211.871C229.505 211.761 228.791 211.426 228.219 210.909C227.647 210.391 227.243 209.715 227.058 208.966C226.979 208.754 227.231 208.582 227.39 208.754Z" fill="#263238"/>
<path d="M240.573 200.063C239.622 202.456 238.074 204.566 236.076 206.191C234.955 207.026 233.601 207.489 232.203 207.517C229.139 207.597 228.317 204.997 228.224 202.61C228.172 201.338 228.274 200.064 228.529 198.816C232.308 200.505 236.528 200.942 240.573 200.063Z" fill="white"/>
<path d="M238.746 203.453C238.6 203.652 238.44 203.878 238.268 204.077C237.303 204.189 236.328 204.189 235.363 204.077C236.517 203.864 237.645 203.665 238.746 203.453Z" fill="#DBDBDB"/>
<path d="M232.285 203.819C231.54 203.826 230.797 203.746 230.07 203.58C229.437 203.417 228.819 203.195 228.227 202.917C228.227 202.838 228.227 202.731 228.227 202.652C228.227 202.572 228.227 202.387 228.227 202.254C229.545 202.861 230.901 203.383 232.285 203.819Z" fill="#DBDBDB"/>
<path d="M240.318 193.195C240.318 193.195 241.95 198.501 242.374 201.008C242.374 201.246 241.817 201.459 240.968 201.644C240.968 201.644 240.902 201.644 240.862 201.644C238.745 202.404 236.46 202.567 234.256 202.115C232.053 201.664 230.016 200.615 228.368 199.084C228.312 199.042 228.274 198.979 228.264 198.91C228.254 198.84 228.273 198.769 228.315 198.713C228.357 198.657 228.42 198.619 228.489 198.609C228.559 198.6 228.63 198.618 228.686 198.66C232.301 200.342 236.364 200.807 240.265 199.986C240.265 199.257 237.135 190.967 237.546 190.967C239.284 190.967 242.388 191.219 243.541 191.312C242.547 187.863 239.257 178.22 237.467 171.934C237.361 171.549 237.957 171.31 238.103 171.668C241.376 178.601 244.186 185.744 246.513 193.049C246.685 193.659 241.406 193.447 240.318 193.195Z" fill="#263238"/>
<path d="M214.565 182.45C214.582 181.512 214.853 180.595 215.348 179.797C215.64 179.381 216.014 179.029 216.448 178.762C216.881 178.495 217.364 178.319 217.868 178.246C218.384 178.185 218.907 178.245 219.395 178.423C219.883 178.6 220.323 178.889 220.68 179.267C221.296 179.938 221.75 180.741 222.006 181.615C222.144 182.138 222.25 182.67 222.324 183.206C222.481 184.324 222.381 185.462 222.033 186.535C221.972 185.721 221.821 184.916 221.582 184.135C221.378 183.433 221.125 182.746 220.826 182.079C220.176 180.752 219.194 179.652 218.067 179.864C216.939 180.076 216.13 181.084 215.838 182.517C215.591 184.06 215.493 185.623 215.547 187.185C214.865 185.702 214.53 184.083 214.565 182.45Z" fill="#263238"/>
<path d="M250.693 175.422C250.326 174.573 249.734 173.839 248.982 173.3C248.555 173.022 248.076 172.835 247.574 172.75C247.072 172.666 246.558 172.686 246.064 172.809C245.562 172.945 245.101 173.197 244.716 173.545C244.331 173.893 244.034 174.327 243.848 174.812C243.528 175.657 243.415 176.567 243.517 177.465C243.578 178.003 243.68 178.535 243.822 179.057C244.085 180.155 244.608 181.174 245.347 182.028C245.089 181.254 244.924 180.453 244.857 179.64C244.797 178.908 244.797 178.171 244.857 177.438C244.936 175.94 245.44 174.587 246.568 174.361C247.695 174.136 248.822 174.746 249.645 176.019C250.455 177.357 251.135 178.769 251.674 180.237C251.736 178.577 251.399 176.926 250.693 175.422Z" fill="#263238"/>
<path d="M166.839 195.316C182.821 195.488 190.01 176.017 185.408 160.976C185.408 160.976 228.064 164.08 228.077 129.992C231.322 134.409 235.603 137.959 240.544 140.33C245.485 142.701 250.933 143.82 256.408 143.587L261.886 155.83C266.157 154.318 270.044 141.717 258.849 132.658C258.849 132.658 257.125 115.774 244.033 106.343C240.49 103.624 236.236 101.987 231.784 101.63C227.331 101.272 222.871 102.209 218.939 104.327C211.256 99.4333 201.971 97.7208 193.048 99.552C177.635 102.47 172.051 117.06 172.051 117.06C172.051 117.06 151.32 122.366 148.641 137.407C147.776 141.696 147.832 146.12 148.804 150.387C149.775 154.653 151.641 158.665 154.278 162.157C154.278 162.157 149.37 168.324 152.792 180.872C154.941 188.87 162.051 195.316 166.839 195.316Z" fill="#263238"/>
<path d="M226.938 127.066C227.423 129.802 227.618 132.58 227.522 135.356C227.503 138.095 227.147 140.822 226.46 143.474C225.153 148.722 221.913 153.283 217.388 156.247C212.998 159.443 207.374 160.226 202.016 161.075C199.27 161.154 196.511 161.433 193.739 161.353C190.967 161.273 188.195 161.061 185.383 161.008C188.128 161.499 190.901 161.884 193.686 162.335C196.471 162.786 199.296 162.507 202.135 162.6C207.706 162.043 213.568 161.273 218.462 157.891C223.335 154.622 226.734 149.576 227.933 143.832C229.018 138.249 228.676 132.482 226.938 127.066Z" fill="#263238"/>
<path d="M172.053 117.062C166.677 117.422 161.434 118.89 156.653 121.373C151.664 123.833 147.704 127.976 145.472 133.072C144.536 135.666 144.021 138.393 143.947 141.149C143.773 143.885 144.069 146.631 144.822 149.267C146.239 154.601 149.616 159.205 154.279 162.159C150.26 158.766 147.465 154.149 146.321 149.015C145.201 143.986 145.551 138.742 147.329 133.907C148.247 131.556 149.597 129.396 151.308 127.541C153.125 125.714 155.161 124.119 157.37 122.792C161.929 120.116 166.886 118.182 172.053 117.062Z" fill="#263238"/>
<path d="M218.992 104.384C222.898 102.693 227.049 101.636 231.288 101.254C235.419 100.852 239.585 101.519 243.384 103.191C247.1 105.019 250.294 107.756 252.669 111.149C255.12 114.63 257.05 118.451 258.399 122.489C257.762 118.164 256.235 114.018 253.916 110.313C251.669 106.404 248.268 103.285 244.178 101.385C240.089 99.4854 235.512 98.8976 231.075 99.7023C226.756 100.37 222.634 101.968 218.992 104.384Z" fill="#263238"/>
<path d="M249.923 145.408C245.191 144.107 240.709 142.027 236.66 139.254C234.681 137.871 232.897 136.23 231.354 134.373C229.796 132.457 228.461 130.37 227.375 128.152C227.744 130.684 228.648 133.108 230.028 135.262C231.411 137.454 233.214 139.352 235.333 140.846C237.435 142.336 239.758 143.487 242.217 144.254C244.7 145.081 247.307 145.472 249.923 145.408Z" fill="#263238"/>
<path d="M216.303 202.321C212.796 202.568 209.29 201.826 206.185 200.178C203.079 198.531 200.498 196.045 198.735 193.003C196.972 189.962 196.098 186.486 196.213 182.972C196.328 179.458 197.427 176.047 199.385 173.127C201.342 170.207 204.08 167.895 207.287 166.454C210.494 165.014 214.041 164.502 217.524 164.977C221.008 165.453 224.288 166.896 226.991 169.144C229.695 171.391 231.713 174.352 232.817 177.69C234.369 182.42 233.985 187.573 231.748 192.02C229.511 196.467 225.603 199.847 220.879 201.419C219.396 201.904 217.859 202.207 216.303 202.321ZM213.849 167.358C212.496 167.456 211.16 167.719 209.87 168.141C205.942 169.439 202.657 172.185 200.683 175.821C198.709 179.456 198.195 183.708 199.245 187.709C200.295 191.71 202.831 195.161 206.336 197.358C209.841 199.556 214.052 200.334 218.111 199.536C222.17 198.738 225.773 196.422 228.185 193.061C230.597 189.7 231.637 185.546 231.094 181.445C230.551 177.344 228.465 173.604 225.261 170.987C222.057 168.37 217.977 167.072 213.849 167.358Z" fill="#33357D"/>
<path d="M256.966 194.204C249.79 194.708 242.787 187.824 240.956 178.195C240.015 173.609 240.525 168.843 242.415 164.56C243.119 162.672 244.298 160.997 245.838 159.699C247.379 158.4 249.229 157.522 251.209 157.148C253.189 156.775 255.232 156.919 257.14 157.567C259.047 158.214 260.756 159.344 262.099 160.846C265.422 164.138 267.634 168.385 268.425 172.996C270.349 183.169 265.773 192.613 258.186 194.045C257.783 194.124 257.375 194.177 256.966 194.204ZM252.615 159.506C252.297 159.506 251.992 159.506 251.673 159.626C250.112 159.998 248.662 160.739 247.446 161.786C246.23 162.834 245.282 164.158 244.683 165.648C243.011 169.449 242.57 173.679 243.423 177.744C245.095 186.551 251.488 192.772 257.722 191.591C263.956 190.411 267.63 182.307 265.958 173.486C265.271 169.388 263.319 165.608 260.374 162.676C259.374 161.635 258.167 160.815 256.831 160.269C255.494 159.723 254.058 159.463 252.615 159.506Z" fill="#33357D"/>
<path d="M232.774 179.908L231.129 178.582C233.118 176.154 238.066 172.467 242.642 175.809L241.315 177.507C237.297 174.496 232.959 179.696 232.774 179.908Z" fill="#33357D"/>
<path d="M158.475 198.131L156.445 197.521C156.737 196.579 159.337 188.236 163.833 186.604C168.051 185.092 196.409 182.44 197.616 182.32L197.815 184.429C189.684 185.185 167.812 187.414 164.563 188.594C161.592 189.682 159.164 195.849 158.475 198.131Z" fill="#33357D"/>
<path d="M183.105 193.036C183.105 193.036 168.966 178.234 162.082 183.513C155.199 188.792 167.587 211.513 176.924 213.449C178.102 213.781 179.335 213.871 180.549 213.715C181.762 213.559 182.932 213.159 183.987 212.54C185.043 211.921 185.962 211.094 186.69 210.111C187.418 209.128 187.941 208.007 188.225 206.817L183.105 193.036Z" fill="#AD6359"/>
<path d="M165.79 189.928C165.764 189.937 165.741 189.954 165.724 189.976C165.708 189.999 165.699 190.026 165.699 190.054C165.699 190.082 165.708 190.109 165.724 190.132C165.741 190.155 165.764 190.172 165.79 190.18C172.422 191.732 176.508 196.985 179.704 202.595C177.516 200.579 174.81 199.704 172.077 202.37C171.932 202.516 172.077 202.741 172.303 202.675C173.339 202.163 174.508 201.984 175.65 202.162C176.792 202.34 177.851 202.867 178.683 203.669C180.059 205.029 181.287 206.532 182.344 208.153C182.715 208.657 183.67 208.153 183.365 207.609L183.285 207.463C182.224 199.544 174.399 189.424 165.79 189.928Z" fill="#263238"/>
<path d="M168.367 241.743C166.191 239.09 180.185 231.132 183.819 234.13C187.453 237.127 205.85 283.789 199.881 334.416C193.912 385.044 95.9202 439.598 92.2727 432.024C90.7607 428.841 92.6972 419.967 95.0846 417.129C98.4404 413.15 169.202 369.22 176.192 337.825C182.4 309.905 173.884 248.64 168.367 241.743Z" fill="#455A64"/>
<path d="M223.527 240.682C220.582 235.098 235.743 239.595 237.401 242.606C239.059 245.616 259.325 293.989 262.827 325.61C264.153 338.277 269.127 372.378 269.127 372.378C269.127 372.378 254.325 326.631 242.122 288.325C236.936 272.068 230.725 256.155 223.527 240.682Z" fill="#455A64"/>
<path d="M510.422 440.378C510.422 440.378 525.94 384.392 538.276 365.385C550.611 346.379 573.769 325.488 573.769 325.488C573.769 325.488 573.279 411.795 510.422 440.378Z" fill="#33357D"/>
<path d="M511.538 439.375C516.76 430.629 521.476 421.59 525.663 412.304C527.444 402.299 530.021 392.453 533.37 382.859C533.436 382.686 533.688 382.779 533.648 382.965C531.592 391.799 529.192 400.566 527.016 409.386C533.277 395.764 539.232 381.97 546.686 369.091C548.408 362.867 550.823 356.856 553.889 351.172C553.968 351.013 554.233 351.092 554.154 351.265C552.266 355.644 550.649 360.136 549.313 364.714C552.828 358.967 556.769 353.491 561.104 348.333C561.383 348.015 561.926 348.333 561.648 348.718C551.674 361.517 544.79 376.068 538.237 390.804C545.289 383.114 551.795 374.941 557.708 366.345C557.708 366.266 557.894 366.345 557.841 366.438C551.679 376.076 544.704 385.168 536.991 393.616C532.216 404.412 527.52 415.249 521.83 425.528C533.21 415.859 541.964 403.351 550.626 391.281C550.645 391.253 550.669 391.23 550.698 391.211C550.726 391.193 550.758 391.18 550.791 391.174C550.824 391.168 550.858 391.168 550.891 391.175C550.925 391.182 550.956 391.196 550.984 391.215C551.012 391.234 551.035 391.259 551.054 391.287C551.072 391.315 551.085 391.347 551.091 391.38C551.097 391.413 551.097 391.448 551.09 391.481C551.083 391.514 551.069 391.545 551.05 391.573C542.376 404.837 533.409 417.291 520.942 427.093C518.416 431.607 515.635 435.974 512.612 440.171C512.506 440.314 512.349 440.408 512.173 440.435C511.998 440.461 511.819 440.416 511.677 440.31C511.534 440.205 511.44 440.047 511.414 439.872C511.387 439.696 511.432 439.518 511.538 439.375Z" fill="#263238"/>
<path d="M505.607 445.423C505.607 445.423 533.46 393.801 525.396 343.757C517.332 293.713 508.618 275.887 508.618 275.887C508.618 275.887 464.781 353.731 505.607 445.423Z" fill="#33357D"/>
<path d="M494.161 364.28C496.523 378.46 500.127 392.405 504.931 405.954C505.011 387.584 505.356 369.227 505.847 350.857C502.697 339.712 500.915 328.225 500.541 316.65C500.541 316.318 501.032 316.331 501.058 316.65C501.941 326.57 503.577 336.409 505.953 346.082C506.377 330.935 506.864 315.787 507.412 300.64C507.412 300.588 507.433 300.537 507.47 300.5C507.507 300.462 507.558 300.441 507.611 300.441C507.664 300.441 507.714 300.462 507.751 300.5C507.789 300.537 507.81 300.588 507.81 300.64C507.81 324.303 507.81 347.965 507.651 371.641C511.053 362.49 513.74 353.089 515.688 343.522C515.695 343.505 515.707 343.49 515.722 343.479C515.738 343.469 515.756 343.463 515.775 343.463C515.793 343.463 515.811 343.469 515.827 343.479C515.842 343.49 515.854 343.505 515.861 343.522C515.012 354.571 511.669 365.261 507.624 375.514C507.518 390.648 507.359 405.768 507.014 420.902C511.736 404.813 516.776 389.242 518.142 372.238C518.142 372.215 518.147 372.193 518.155 372.172C518.164 372.151 518.177 372.132 518.193 372.116C518.209 372.1 518.228 372.087 518.249 372.078C518.269 372.07 518.292 372.065 518.315 372.065C518.337 372.065 518.36 372.07 518.38 372.078C518.401 372.087 518.42 372.1 518.436 372.116C518.452 372.132 518.465 372.151 518.474 372.172C518.483 372.193 518.487 372.215 518.487 372.238C518.129 390.979 513.314 410 507.173 427.627C507.105 427.801 506.996 427.956 506.855 428.078C506.722 433.596 506.563 439.122 506.377 444.658C506.377 444.819 506.313 444.975 506.198 445.089C506.084 445.203 505.929 445.268 505.767 445.268C505.605 445.268 505.45 445.203 505.336 445.089C505.221 444.975 505.157 444.819 505.157 444.658C504.927 433.348 504.834 422.039 504.878 410.729C498.618 396.139 495.276 379.971 493.883 364.306C493.909 364.16 494.148 364.134 494.161 364.28Z" fill="#263238"/>
<path d="M496.073 356.289C497.054 360.781 497.705 365.338 498.023 369.924C498.023 370.083 497.797 370.097 497.757 369.924C496.673 365.452 495.906 360.909 495.463 356.329C495.423 356.01 496.007 355.944 496.073 356.289Z" fill="#263238"/>
<path d="M512.4 318.557C512.4 318.398 512.666 318.451 512.666 318.557C512.63 321.742 512.157 324.906 511.26 327.961C511.193 328.213 510.835 328.094 510.888 327.855C511.485 324.791 511.856 321.674 512.4 318.557Z" fill="#263238"/>
<path d="M495.448 449.375C495.448 449.375 496.576 395.485 481.203 368.705C465.83 341.926 440.324 328.277 440.324 328.277C440.324 328.277 450.604 423.259 495.448 449.375Z" fill="#33357D"/>
<path d="M467.424 403.297C473.883 412.648 480.316 421.667 488.235 429.825C485.158 418.807 481.621 407.975 477.624 397.329C469.002 389.729 460.461 381.85 455.168 371.451C455.089 371.292 455.327 371.146 455.42 371.305C461.11 380.51 468.684 387.885 476.709 394.968C470.544 378.924 463.399 363.274 455.314 348.107C455.287 348.031 455.287 347.949 455.314 347.873C455.341 347.797 455.394 347.733 455.463 347.692C455.532 347.652 455.614 347.636 455.693 347.649C455.772 347.662 455.845 347.702 455.898 347.762C460.814 355.714 465.295 363.928 469.321 372.366C467.875 366.597 466.668 360.708 465.249 354.991C465.24 354.959 465.244 354.925 465.26 354.897C465.276 354.868 465.303 354.847 465.335 354.838C465.367 354.83 465.4 354.834 465.429 354.85C465.458 354.866 465.479 354.893 465.487 354.925C468.22 362.127 470.926 370.085 471.801 377.778C477.186 389.731 481.711 402.054 485.343 414.651C484.945 406.573 484.441 398.536 483.619 390.471C483.619 390.325 483.858 390.286 483.884 390.471C485.591 399.413 486.369 408.507 486.205 417.609C488.42 425.633 490.291 433.764 491.789 441.948C491.789 442.173 491.511 442.266 491.458 442.041C490.622 438.605 489.707 435.21 488.805 431.814C488.805 431.814 488.686 431.814 488.633 431.814C480.383 423.498 472.557 414.041 467.411 403.443C467.305 403.284 467.384 403.244 467.424 403.297Z" fill="#263238"/>
<path d="M449.606 359.45C451.317 361.307 452.882 363.27 454.54 365.18C456.148 366.797 457.629 368.535 458.97 370.379C458.97 370.459 458.97 370.552 458.851 370.498C456.915 369.058 455.191 367.352 453.731 365.432C452.112 363.625 450.648 361.687 449.354 359.636C449.261 359.49 449.487 359.317 449.606 359.45Z" fill="#263238"/>
<path d="M541.128 442.797L539.191 460.04L533.342 512.325H482.409L476.586 460.066L474.637 442.823H541.141L541.128 442.797Z" fill="#455A64"/>
<path d="M541.128 442.797L539.191 460.04H476.586L474.637 442.797H541.141H541.128Z" fill="#37474F"/>
<path d="M470.114 449.84H545.664V430.276H470.114V449.84Z" fill="#455A64"/>
<path d="M472.154 494.305H319.754V512.343H472.154V494.305Z" fill="#37474F"/>
<path d="M355.856 494.305H349.648V512.343H355.856V494.305Z" fill="#455A64"/>
<path d="M454.215 494.305H439.32V512.343H454.215V494.305Z" fill="#455A64"/>
<path d="M461.167 441.562H305.504V465.397H461.167V441.562Z" fill="#37474F"/>
<path d="M433.633 449.297H396.242V457.666H433.633V449.297Z" fill="#33357D"/>
<path d="M452.373 453.475C452.437 454.465 452.201 455.452 451.697 456.306C451.193 457.161 450.444 457.844 449.547 458.268C448.649 458.691 447.645 458.835 446.665 458.68C445.685 458.526 444.774 458.08 444.051 457.401C443.327 456.723 442.824 455.842 442.608 454.874C442.391 453.905 442.471 452.894 442.836 451.972C443.201 451.049 443.835 450.258 444.656 449.701C445.477 449.143 446.446 448.845 447.439 448.846C448.706 448.807 449.938 449.272 450.863 450.14C451.788 451.008 452.331 452.207 452.373 453.475Z" fill="#33357D"/>
<path d="M376.652 420.477H298.012V441.513H376.652V420.477Z" fill="#263238"/>
<path d="M449.337 420.477H376.652V441.513H449.337V420.477Z" fill="#263238"/>
<path d="M376.652 422.66H298.012V439.333H376.652V422.66Z" fill="white"/>
<path d="M304.84 426.115C313.081 426.009 321.322 425.93 329.563 425.876L340.745 425.797L365.455 425.876C373.692 425.876 368.399 425.996 376.636 426.115C368.399 426.235 373.692 426.314 365.455 426.367L340.745 426.434L329.563 426.367C321.322 426.296 313.081 426.212 304.84 426.115Z" fill="#DBDBDB"/>
<path d="M304.84 429.361C313.081 429.246 321.322 429.167 329.563 429.123L340.745 429.043L365.455 429.109C373.692 429.109 368.399 429.242 376.636 429.361C368.399 429.481 373.692 429.56 365.455 429.6L340.745 429.68L329.563 429.6C321.322 429.565 313.081 429.485 304.84 429.361Z" fill="#DBDBDB"/>
<path d="M304.84 432.625C313.081 432.519 321.322 432.44 329.563 432.387L340.745 432.32L365.455 432.387C373.692 432.387 368.399 432.519 376.636 432.625C368.399 432.745 373.692 432.838 365.455 432.877H340.745H329.563C321.322 432.833 313.081 432.749 304.84 432.625Z" fill="#DBDBDB"/>
<path d="M304.84 435.904C313.081 435.789 321.322 435.71 329.563 435.666L340.745 435.586L365.455 435.666C373.692 435.666 368.399 435.785 376.636 435.904C368.399 436.024 373.692 436.103 365.455 436.143L340.745 436.223L329.563 436.143C321.322 436.108 313.081 436.028 304.84 435.904Z" fill="#DBDBDB"/>
<path d="M402.99 420.477H392.75V441.513H402.99V420.477Z" fill="#455A64"/>
<path d="M445.587 420.477H438.703V441.513H445.587V420.477Z" fill="#455A64"/>
<path d="M366.2 494.305H454.762V465.39H366.2V494.305Z" fill="#33357D"/>
<path d="M298.956 494.305H366.203V465.39H298.956V494.305Z" fill="#33357D"/>
<path d="M366.2 491.301H454.762V468.394H366.2V491.301Z" fill="white"/>
<path d="M449.019 486.584C442.122 486.708 435.221 486.787 428.315 486.823L407.61 486.902L386.905 486.823C379.999 486.823 373.093 486.743 366.188 486.584C373.102 486.469 380.008 486.389 386.905 486.345L407.61 486.266L428.315 486.345C435.221 486.389 442.122 486.469 449.019 486.584Z" fill="#DBDBDB"/>
<path d="M449.019 482.09C442.122 482.213 435.221 482.293 428.315 482.328L407.61 482.408L386.905 482.342C379.999 482.288 373.093 482.204 366.188 482.09C373.102 481.975 380.008 481.895 386.905 481.851L407.61 481.824L428.315 481.904C435.221 481.913 442.122 481.975 449.019 482.09Z" fill="#DBDBDB"/>
<path d="M449.019 477.588C442.122 477.703 435.221 477.787 428.315 477.84L407.61 477.906L386.905 477.84C379.999 477.787 373.093 477.703 366.188 477.588C373.102 477.473 380.008 477.393 386.905 477.349L407.61 477.27L428.315 477.349C435.221 477.393 442.122 477.473 449.019 477.588Z" fill="#DBDBDB"/>
<path d="M449.019 473.096C442.122 473.211 435.221 473.295 428.315 473.348L407.61 473.414L386.905 473.348C379.999 473.348 373.093 473.264 366.188 473.096C373.102 472.972 380.008 472.892 386.905 472.857L407.61 472.777L428.315 472.857C435.225 472.897 442.096 472.99 449.019 473.096Z" fill="#DBDBDB"/>
<path d="M322.247 465.387H309.66V494.302H322.247V465.387Z" fill="#455A64"/>
<path d="M373.022 75.4991C373.019 84.2754 370.579 92.8785 365.974 100.349C361.368 107.82 354.778 113.865 346.939 117.809C339.099 121.754 330.317 123.443 321.574 122.689C312.83 121.936 304.467 118.768 297.419 113.539L274.207 119.468L283.876 97.8485C280.475 91.4957 278.568 84.4511 278.299 77.2503C278.03 70.0495 279.406 62.8821 282.324 56.2933C285.241 49.7045 289.623 43.8678 295.135 39.227C300.648 34.5862 307.146 31.2635 314.136 29.5117C321.125 27.7598 328.422 27.625 335.472 29.1173C342.521 30.6097 349.138 33.69 354.818 38.1239C360.498 42.5579 365.092 48.2287 368.251 54.7052C371.41 61.1817 373.051 68.2933 373.048 75.4991H373.022Z" fill="white"/>
<path d="M373.026 75.4956C373.013 84.274 370.581 92.879 365.996 100.365C364.845 102.206 363.587 103.977 362.229 105.671C360.816 107.337 359.301 108.914 357.693 110.392C356.908 111.15 356.084 111.868 355.226 112.541L352.573 114.517C351.698 115.167 350.729 115.685 349.801 116.281L348.408 117.144C347.931 117.409 347.427 117.634 346.949 117.873C345.954 118.351 344.986 118.855 343.991 119.306L340.914 120.46C339.89 120.852 338.84 121.171 337.771 121.415C336.71 121.667 335.675 122.025 334.587 122.184C332.434 122.608 330.253 122.874 328.062 122.98C325.854 123.155 323.637 123.155 321.43 122.98C317.045 122.621 312.73 121.666 308.604 120.141C304.479 118.586 300.584 116.48 297.025 113.881L297.422 113.96L274.238 119.982L273.07 120.287L273.561 119.186L283.177 97.5399V98.1102C279.737 91.6888 277.839 84.5548 277.633 77.273C277.368 69.9768 278.777 62.7169 281.752 56.0495C284.728 49.3822 289.189 43.4845 294.796 38.8082C300.381 34.1635 306.955 30.8603 314.015 29.1523C321.029 27.4523 328.336 27.3642 335.389 28.8946C342.441 30.4249 349.055 33.5338 354.733 37.9877C360.411 42.4416 365.006 48.1246 368.172 54.6096C371.338 61.0946 372.993 68.2128 373.012 75.4293L373.026 75.4956ZM373.026 75.4956C372.988 68.3033 371.318 61.2132 368.143 54.7595C364.968 48.3059 360.37 42.6568 354.695 38.2379C349.006 33.8729 342.412 30.8364 335.396 29.3512C328.37 27.9359 321.115 28.1309 314.174 29.9216C307.264 31.6851 300.849 35.0062 295.42 39.6306C290.038 44.2846 285.741 50.0616 282.832 56.5551C279.971 63.0581 278.623 70.1262 278.892 77.226C279.161 84.3258 281.039 91.2718 284.384 97.5399L284.53 97.8184L284.411 98.1102L274.715 119.717L274.039 118.908L297.29 113.085H297.502L297.688 113.218C304.626 118.476 312.895 121.692 321.562 122.502C323.723 122.705 325.896 122.736 328.062 122.595C330.228 122.507 332.386 122.272 334.521 121.892C335.595 121.746 336.63 121.388 337.691 121.149C338.756 120.928 339.802 120.626 340.821 120.247L343.885 119.146L346.83 117.754C347.321 117.515 347.825 117.303 348.302 117.038L349.628 116.202C350.544 115.632 351.525 115.128 352.4 114.491L355.053 112.541C355.913 111.873 356.736 111.16 357.52 110.406C359.125 108.938 360.64 107.374 362.056 105.724C363.423 104.033 364.685 102.262 365.837 100.418C370.487 92.9331 372.975 84.3073 373.026 75.4956Z" fill="#263238"/>
<path d="M317.967 103.694L296.719 82.1937L303.855 75.1506L316.269 87.6981L342.041 47.2969L350.503 52.6952L317.967 103.694Z" fill="#33357D"/>
</g>
<defs>
<clipPath id="clip0_4328_36107">
<rect width="573.363" height="513" fill="white" transform="translate(0.457031)"/>
</clipPath>
</defs>
</svg>
