<svg width="498" height="609" viewBox="0 0 498 609" fill="none" xmlns="http://www.w3.org/2000/svg">
<path d="M173.494 384.455C132.405 381.014 91.1878 368.926 58.3297 344.009C25.4717 319.092 1.80872 280.479 0.87635 239.262C0.329788 216.338 7.56371 192.129 24.9573 177.211C52.3175 153.709 95.6889 159.174 124.625 137.473C151.76 117.057 157.868 79.3441 176.066 50.6656C204.133 7.00489 264.995 -11.9962 312.899 7.87296C360.804 27.7421 390.318 84.3274 379.194 134.997C375.175 153.387 366.334 171.231 367.781 190.007C370.063 222.511 400.317 244.663 420.636 269.998C438.705 292.503 450.022 321.439 448.511 350.375C447 379.31 431.664 408.021 406.49 422.425C369.613 443.548 338.974 425.64 308.623 405.449C270.139 380.243 217.219 388.216 173.494 384.455Z" fill="#F9F2DC"/>
<path d="M170.527 172.043C170.527 172.043 196.891 195.577 200.942 209.627C204.993 223.677 209.43 267.498 209.43 267.498L275.114 293.219V310.773H175.028V231.94L170.527 172.043Z" fill="#FF6D5A"/>
<path d="M276.504 541.17C278.846 553.478 281.819 565.657 285.41 577.661L286.278 579.783L289.043 586.759L301.228 582.001L300.585 573.513L300.295 569.752L303.768 572.099L312.095 577.757L374.692 553.387L371.091 544.256C370.846 543.824 370.578 543.405 370.288 543.002C369.85 542.426 369.299 541.946 368.669 541.592C368.038 541.238 367.342 541.018 366.622 540.945C360.032 540.302 336.465 539.498 329.167 536.797C323.508 534.74 316.821 528.181 314.088 525.352L276.504 541.17Z" fill="#985551"/>
<path d="M316.035 541.201C316.035 541.201 316.035 541.458 316.035 541.587C316.035 542.552 316.035 543.87 317.353 543.966C317.95 543.967 318.529 543.762 318.993 543.387C320.704 542.223 322.195 540.764 323.398 539.079C324.921 537.376 326.022 535.339 326.613 533.131C326.733 532.654 326.698 532.15 326.513 531.693C326.327 531.237 326.001 530.852 325.581 530.593C325.162 530.335 324.671 530.218 324.18 530.258C323.689 530.298 323.223 530.494 322.851 530.817C321.083 532.009 319.57 533.541 318.4 535.324C317.229 537.107 316.426 539.105 316.035 541.201Z" fill="#763231"/>
<path d="M324.402 543.578C324.402 543.578 324.402 543.835 324.402 543.964C324.402 544.929 324.402 546.247 325.72 546.343C326.326 546.339 326.913 546.135 327.392 545.765C329.079 544.582 330.557 543.126 331.765 541.456C333.306 539.754 334.41 537.701 334.98 535.476C335.43 533.097 333.083 531.972 331.218 533.194C327.667 535.622 325.218 539.354 324.402 543.578Z" fill="#763231"/>
<path d="M333.633 543.707C333.633 543.707 333.633 543.964 333.633 544.093C333.633 545.057 333.633 546.376 334.919 546.472C335.525 546.472 336.114 546.269 336.591 545.893C338.285 544.719 339.764 543.262 340.963 541.585C342.504 539.882 343.608 537.83 344.178 535.605C344.628 533.226 342.281 532.101 340.417 533.322C336.888 535.767 334.453 539.493 333.633 543.707Z" fill="#763231"/>
<path d="M370.211 542.996L303.691 572.093L312.018 577.751L374.616 553.381L371.015 544.25C370.77 543.818 370.502 543.399 370.211 542.996Z" fill="#763231"/>
<path d="M286.211 579.769L288.976 586.714L301.161 581.988L300.518 573.5L286.211 579.769Z" fill="#763231"/>
<path d="M166.448 341.574C166.448 341.574 244.768 358.711 254.156 363.758C263.544 368.806 321.222 522.39 321.222 522.39L266.116 549.204L201.814 393.273L110.795 398.577L97.7422 347.554L166.448 341.574Z" fill="#B48674"/>
<path d="M369.671 331.895H349.77V587.107H369.671V331.895Z" fill="#252727"/>
<path d="M296.685 597.978H422.716C422.716 592.862 420.684 587.955 417.066 584.338C413.449 580.72 408.542 578.688 403.426 578.688H315.912C310.795 578.688 305.889 580.72 302.271 584.338C298.653 587.955 296.621 592.862 296.621 597.978H296.685Z" fill="#252727"/>
<path d="M201.587 344.563L497.148 344.562V327.201L201.587 327.201V344.563Z" fill="#424242"/>
<path d="M64.6252 426.162L33.6641 274.25H48.3569L82.5975 428.766L64.6252 426.162Z" fill="#252727"/>
<path d="M22.7708 248.979C28.8794 242.549 72.3472 242.549 113.725 244.285V280.037H17.273C17.273 280.037 10.7143 261.679 22.7708 248.979Z" fill="#424242"/>
<path d="M201.615 438.027L229.586 597.977H219.812L180.652 445.486L201.615 438.027Z" fill="#252727"/>
<path d="M61.6674 438.027L33.6641 597.977H43.4379L82.5975 445.486L61.6674 438.027Z" fill="#252727"/>
<path d="M48.3522 556.047H213.832V545.887H48.3522V556.047Z" fill="#252727"/>
<path d="M225.287 421.535C225.287 421.535 67.748 408.835 55.595 421.535C43.442 434.234 50.1615 452.56 50.1615 452.56H229.595L225.287 421.535Z" fill="#424242"/>
<path d="M250.492 563.417C252.834 575.711 255.796 587.88 259.366 599.876L260.234 601.998L262.967 608.974L275.184 604.216L274.541 595.728L274.252 591.967L277.692 594.314L286.051 599.972L348.648 575.602L345.048 566.471C344.795 566.036 344.516 565.617 344.212 565.217C343.779 564.644 343.234 564.165 342.609 563.811C341.984 563.457 341.293 563.235 340.579 563.16C334.148 562.517 310.421 561.713 303.123 559.044C297.422 556.197 292.307 552.303 288.044 547.566L250.492 563.417Z" fill="#985551"/>
<path d="M290.066 563.479C290.066 563.479 290.066 563.704 290.066 563.832C290.066 564.797 290.066 566.147 291.352 566.243C291.957 566.234 292.543 566.031 293.024 565.665C294.728 564.491 296.218 563.034 297.429 561.357C298.947 559.638 300.047 557.591 300.644 555.377C300.764 554.896 300.727 554.389 300.538 553.93C300.348 553.472 300.017 553.087 299.592 552.831C299.167 552.576 298.671 552.463 298.178 552.511C297.684 552.558 297.219 552.762 296.85 553.094C295.088 554.289 293.581 555.823 292.416 557.606C291.252 559.388 290.453 561.385 290.066 563.479Z" fill="#763231"/>
<path d="M298.43 565.825C298.43 565.825 298.43 566.082 298.43 566.21C298.43 567.175 298.43 568.525 299.716 568.59C300.325 568.609 300.921 568.403 301.388 568.011C303.098 566.858 304.589 565.41 305.792 563.735C307.31 562.016 308.411 559.969 309.007 557.755C309.118 557.279 309.076 556.781 308.887 556.331C308.698 555.882 308.371 555.503 307.954 555.25C307.537 554.997 307.05 554.882 306.564 554.922C306.077 554.962 305.616 555.154 305.246 555.472C303.481 556.661 301.97 558.188 300.8 559.965C299.63 561.742 298.824 563.734 298.43 565.825Z" fill="#763231"/>
<path d="M307.625 565.953C307.625 565.953 307.625 566.211 307.625 566.339C307.625 567.304 307.625 568.654 308.943 568.718C309.551 568.729 310.144 568.524 310.615 568.14C312.301 566.968 313.779 565.523 314.987 563.864C316.529 562.161 317.632 560.108 318.203 557.884C318.313 557.408 318.271 556.91 318.082 556.46C317.893 556.011 317.566 555.632 317.149 555.379C316.732 555.126 316.245 555.011 315.759 555.051C315.273 555.091 314.811 555.283 314.441 555.601C310.892 558.017 308.442 561.738 307.625 565.953Z" fill="#763231"/>
<path d="M344.203 565.25L277.684 594.346L286.043 600.005L348.64 575.635L345.039 566.504C344.787 566.069 344.508 565.65 344.203 565.25Z" fill="#763231"/>
<path d="M260.227 602.023L262.992 609L275.177 604.242L274.534 595.754L260.227 602.023Z" fill="#763231"/>
<path d="M299.55 544.41L266.113 561.289L243.093 570.934L184.546 433.007C184.546 433.007 105.616 439.437 90.2484 431.978C74.8803 424.519 55.5898 366.584 55.5898 366.584L113.461 352.438L137.671 374.943C137.671 374.943 197.76 374.686 208.209 379.412C224.542 386.71 299.55 544.41 299.55 544.41Z" fill="#CA9F87"/>
<path d="M266.113 561.283L243.093 570.928L184.546 433.002C184.546 433.002 105.616 439.432 90.2483 431.973C74.8803 424.514 55.5898 366.578 55.5898 366.578H74.5588C69.8648 383.457 77.0665 402.458 90.184 414.225C103.784 426.443 122.624 431.555 140.918 431.619C159.212 431.683 177.152 427.054 194.674 421.974C216.826 457.951 243.832 525.146 266.113 561.283Z" fill="#B48674"/>
<path d="M58.0401 377.509C66.5279 368.474 170.568 342.464 170.568 342.464L190.276 346.901V338.767C190.36 335.203 189.058 331.745 186.643 329.122C185.585 327.919 184.27 326.971 182.795 326.347C181.32 325.724 179.723 325.441 178.123 325.521L177.898 313.336C178.83 304.816 185.357 237.364 184.328 206.692V206.467C184.008 196.056 180.582 185.979 174.49 177.531C172.207 174.316 170.664 172.516 170.31 172.033C168.96 170.715 167.61 169.461 166.195 168.304C154.911 159.225 141.826 152.649 127.807 149.013C124.358 148.948 120.922 149.47 117.648 150.557C113.49 151.681 109.391 153.011 105.366 154.543C86.0756 162.71 71.7363 202.769 61.7053 245.851C60.3871 251.51 59.1654 258.036 57.9758 265.142C53.6982 290.866 51.1633 316.849 50.3882 342.914C49.9627 354.908 52.5959 366.813 58.0401 377.509Z" fill="#FF6D5A"/>
<path d="M188.628 86.4579C190.269 89.3064 190.871 92.6354 190.332 95.878C187.845 103.358 184.958 110.699 181.684 117.869L183.13 84.3359L188.628 86.4579Z" fill="#252727"/>
<path d="M123.485 164.579C124.16 165.254 153.739 187.084 153.739 187.084C153.739 187.084 153.064 173.613 152.742 166.572C152.742 164.418 152.742 162.843 152.742 162.521C152.742 159.692 155.122 147.539 155.122 147.539L125.286 133.875C125.286 133.875 124.803 140.048 124.353 146.735C123.729 152.662 123.439 158.619 123.485 164.579Z" fill="#CC7256"/>
<path d="M124.203 146.903C132.498 152.915 150.76 166.193 152.592 166.611C152.592 164.457 152.592 162.882 152.592 162.56C152.592 159.731 154.971 147.578 154.971 147.578L125.135 133.914C125.135 133.914 124.653 140.119 124.203 146.903Z" fill="#A04F39"/>
<path d="M121.058 134.995C121.999 136.996 123.398 138.747 125.141 140.107C125.816 140.686 126.62 141.329 127.52 142.004C131.024 144.512 163.818 158.562 168.866 157.887C173.913 157.212 178.511 139.85 178.929 138.018C180.569 126.829 185.038 90.6274 185.038 90.6274C172.467 68.5077 128.131 74.0376 123.083 77.7671C118.035 81.4966 121.058 134.995 121.058 134.995Z" fill="#CC7256"/>
<path d="M168.885 124.047C165.434 125.53 161.657 126.095 157.922 125.687C158.214 127.761 159.268 129.653 160.88 130.991C164.044 129.319 166.783 126.943 168.885 124.047Z" fill="#E1836C"/>
<path d="M170.946 121.051C169.885 117.161 164.355 119.347 161.301 121.051C162.755 116.684 163.926 112.227 164.805 107.709C164.805 107.13 164.323 106.744 164.098 107.291C162.942 110.106 161.975 112.995 161.205 115.939C160.819 117.418 160.401 118.865 160.015 120.344C159.822 121.019 158.665 123.559 159.597 123.912C159.919 123.912 160.272 123.913 160.594 123.623C162.452 122.509 164.411 121.572 166.445 120.826C166.868 120.633 167.331 120.545 167.795 120.569C168.007 120.617 168.206 120.708 168.381 120.836C168.557 120.964 168.704 121.125 168.816 121.312C168.927 121.498 168.999 121.705 169.028 121.92C169.057 122.134 169.043 122.353 168.985 122.562C168.733 123.511 168.233 124.376 167.538 125.07C166.883 125.878 166.185 126.651 165.448 127.385C164.034 128.799 162.523 130.053 161.044 131.275C161.543 131.011 162.072 130.806 162.619 130.664C163.185 130.414 163.733 130.123 164.259 129.796C165.395 129.142 166.471 128.389 167.474 127.546C168.599 126.195 171.718 123.687 170.946 121.051Z" fill="#A04F39"/>
<path d="M125.129 140.109C125.804 140.688 126.608 141.331 127.508 142.006C131.012 144.514 163.806 158.564 168.854 157.889C173.902 157.214 178.499 139.852 178.917 138.02C175.702 145.671 172.23 156.185 168.661 155.863C163.228 155.349 129.116 142.199 125.129 140.109Z" fill="#E1836C"/>
<path d="M180.297 103.656C180.297 103.656 177.082 94.0112 172.774 96.1653C168.465 98.3194 169.944 98.9945 169.944 98.9945L180.297 103.656Z" fill="#424242"/>
<path d="M134.461 100.603C134.461 100.603 147.611 89.8646 151.34 95.1051C153.494 98.3202 151.34 99.6705 151.34 99.6705L134.461 100.603Z" fill="#424242"/>
<path d="M139.863 110.758C139.863 114.231 141.599 117.188 143.786 117.188C145.972 117.188 147.708 114.359 147.708 110.758C147.708 107.157 145.94 104.328 143.786 104.328C141.632 104.328 139.863 107.254 139.863 110.758Z" fill="#252727"/>
<path d="M136.098 107.223C137.042 108.623 138.355 109.736 139.891 110.438C141.455 111.01 143.148 111.133 144.778 110.791C143.842 109.383 142.527 108.269 140.985 107.576C139.423 106.995 137.727 106.872 136.098 107.223Z" fill="#FFF0E7"/>
<path d="M176.99 113.106C176.99 115.742 175.672 117.864 174.032 117.864C172.392 117.864 171.074 115.742 171.074 113.106C171.074 110.47 172.392 108.348 174.032 108.348C175.672 108.348 176.99 110.47 176.99 113.106Z" fill="#252727"/>
<path d="M179.528 110.789C178.809 111.705 177.869 112.424 176.796 112.878C175.702 113.303 174.519 113.447 173.355 113.296C174.078 112.375 175.016 111.646 176.088 111.174C177.183 110.755 178.368 110.622 179.528 110.789Z" fill="#FFF0E7"/>
<path d="M147.473 140.121C148.967 140.855 150.603 141.258 152.267 141.303C153.932 141.347 155.586 141.032 157.118 140.378C156.658 141.137 156.005 141.759 155.225 142.183C154.446 142.607 153.568 142.816 152.681 142.79C150.676 142.571 148.821 141.621 147.473 140.121Z" fill="#A04F39"/>
<path d="M174.061 127.676C174.576 129.059 177.566 129.219 180.716 128.03C183.867 126.84 186.021 124.815 185.507 123.4C184.992 121.985 182.035 121.857 178.852 123.046C175.669 124.236 173.547 126.294 174.061 127.676Z" fill="#E1836C"/>
<path d="M134.295 121.241C133.749 123.298 137.189 125.999 141.947 127.221C146.706 128.442 151.014 127.767 151.592 125.709C152.171 123.652 148.667 120.823 143.941 119.697C139.214 118.572 134.842 119.151 134.295 121.241Z" fill="#E1836C"/>
<path d="M140.461 130.852L141.04 131.623C141.567 132.32 142.159 132.966 142.808 133.552C144.942 135.548 147.538 136.984 150.363 137.732C153.221 138.468 156.219 138.468 159.076 137.732C159.93 137.531 160.76 137.24 161.552 136.864L162.42 136.446H161.488C160.649 136.613 159.8 136.731 158.948 136.799C156.193 136.976 153.428 136.727 150.749 136.06C148.077 135.394 145.527 134.309 143.194 132.845C142.473 132.387 141.776 131.893 141.104 131.366L140.461 130.852Z" fill="#A04F39"/>
<path d="M125.87 136.327C123.074 136.06 120.362 135.224 117.902 133.869C115.441 132.514 113.284 130.67 111.563 128.45C111.044 127.776 110.571 127.067 110.148 126.328C108.219 122.824 107.673 110.703 112.624 107.874C116.096 105.912 118.636 108.774 119.858 110.671C120.156 111.13 120.414 111.614 120.63 112.118L125.87 136.327Z" fill="#E1836C"/>
<path d="M125.872 136.328C123.076 136.061 120.364 135.224 117.904 133.87C115.443 132.515 113.286 130.671 111.565 128.451C111.356 128.129 111.162 127.796 110.987 127.454C109.058 123.982 108.479 111.861 113.462 109.032C114.537 108.414 115.809 108.24 117.01 108.546C118.211 108.852 119.245 109.615 119.892 110.672C120.19 111.131 120.448 111.615 120.664 112.118L125.872 136.328Z" fill="#CC7256"/>
<path d="M111.045 117.616C110.857 118.597 110.946 119.61 111.302 120.542C112.653 124.625 116.704 127.712 120.594 130.605C119.446 128.67 118.972 126.409 119.244 124.175C119.244 123.404 119.469 122.664 119.501 121.892C119.533 118.838 112.524 111.797 111.045 117.616Z" fill="#E1836C"/>
<path d="M122.563 131.666H122.338L121.727 131.312C121.003 130.83 120.353 130.245 119.798 129.576C119.033 128.639 118.494 127.539 118.222 126.361C117.913 124.921 118.082 123.419 118.705 122.085C118.782 121.903 118.879 121.73 118.994 121.57V121.345C118.994 121.345 118.994 121.024 118.737 120.895C118.48 120.766 117.965 119.738 117.547 119.191C117.163 118.691 116.744 118.218 116.293 117.776C115.927 117.349 115.518 116.961 115.072 116.619C114.712 116.326 114.278 116.136 113.818 116.072C113.456 116.017 113.086 116.073 112.757 116.233C112.547 116.319 112.375 116.479 112.275 116.683C112.262 116.747 112.262 116.813 112.275 116.876C112.252 116.803 112.252 116.724 112.275 116.651C112.339 116.422 112.489 116.227 112.693 116.105C113.055 115.862 113.479 115.728 113.914 115.719C114.502 115.743 115.076 115.908 115.586 116.201C116.12 116.522 116.625 116.888 117.097 117.294C117.614 117.729 118.108 118.19 118.576 118.677C119.08 119.22 119.542 119.8 119.959 120.413C120.084 120.549 120.192 120.7 120.28 120.863V121.12L120.473 121.474V121.699V121.956L120.28 122.277C120.182 122.431 120.096 122.593 120.023 122.76C119.468 123.942 119.257 125.257 119.412 126.554C119.51 127.689 119.862 128.787 120.441 129.769C120.839 130.451 121.325 131.078 121.888 131.633L122.402 132.083L122.563 131.666Z" fill="#A04F39"/>
<path d="M167.832 440.337L185.772 435.675L164.392 353.626L63.6956 353.434L49.3242 435.675L67.2643 436.929L79.1601 372.017L150.052 372.177L167.832 440.337Z" fill="#424242"/>
<path d="M152.936 159.06C152.936 159.06 164.124 163.947 168.143 169.799C169.011 171.085 168.143 196.612 168.143 196.612L153.739 187.16L140.461 200.47C140.461 200.47 112.683 170.924 110.947 166.648C108.761 161.375 112.04 152.18 112.04 152.18C115.968 150.689 120.041 149.612 124.193 148.965L150.846 179.219L152.936 159.06Z" fill="#FFF5F2"/>
<path d="M168.143 196.608C168.143 196.608 165.249 208.89 160.78 209.469C156.311 210.047 140.461 200.338 140.461 200.338L153.739 187.027L168.143 196.608Z" fill="#254F79"/>
<path d="M110.087 182.776C115.93 192.399 123.481 200.876 132.367 207.789C140.855 214.219 163.875 230.295 170.948 214.67C171.591 213.287 173.97 214.284 173.456 215.731C168.569 229.491 153.201 224.283 143.202 219.556C127.672 212.068 114.763 200.067 106.164 185.123C105.853 184.603 105.761 183.98 105.909 183.393C106.056 182.805 106.432 182.3 106.952 181.988C107.472 181.677 108.094 181.585 108.682 181.733C109.27 181.881 109.775 182.256 110.087 182.776Z" fill="#C73730"/>
<path d="M111.367 90.9549C112.099 96.4393 113.172 101.873 114.582 107.223L122.555 115.261L128.503 88.0935C132.899 84.9216 138.005 82.8762 143.375 82.1363C148.745 81.3964 154.214 81.9847 159.304 83.8496C166.505 86.5502 172.55 91.6943 179.591 94.7165C187.156 97.9419 195.57 98.597 203.543 96.5813H203.382C199.994 93.7858 197.788 89.8116 197.209 85.4571C196.556 81.1603 195.479 76.9386 193.994 72.854C192.361 69.4569 190.014 66.4521 187.114 64.0447C182.637 60.1505 177.417 57.2052 171.769 55.387C166.122 53.5689 160.163 52.9157 154.256 53.4671C145.052 53.8672 136.167 56.9518 128.696 62.3407C123.005 60.0259 117.604 60.5403 113.875 65.5558C110.145 70.5713 110.113 81.6633 111.367 90.9549Z" fill="#252727"/>
<path d="M111.372 90.9549C114.428 89.6447 117.695 88.8933 121.017 88.7365C120.894 88.0495 120.612 87.4009 120.193 86.8426C119.774 86.2843 119.231 85.8318 118.606 85.5214L126.129 80.3451L121.789 79.027C128.144 74.9403 135.419 72.5058 142.954 71.9443C150.489 71.3829 158.044 72.7123 164.935 75.8119C171.9 79.6836 178.621 83.9784 185.061 88.6722C190.654 92.3304 196.863 94.9447 203.387 96.3884C202.467 95.7361 201.645 94.9567 200.944 94.0735C199.069 91.5181 197.794 88.573 197.214 85.4571C196.561 81.1603 195.484 76.9386 193.999 72.854C192.366 69.4569 190.019 66.4521 187.119 64.0447C182.642 60.1505 177.422 57.2052 171.774 55.387C166.127 53.5689 160.169 52.9157 154.261 53.4671C145.058 53.8672 136.172 56.9518 128.701 62.3407C123.01 60.0259 117.609 60.5403 113.88 65.5558C112.521 67.4728 111.609 69.6701 111.211 71.9859C110.28 78.2789 110.334 84.6786 111.372 90.9549Z" fill="#424242"/>
<path d="M124.654 66.1667C124.397 67.9028 124.107 69.6068 123.818 71.3429C126.005 68.6917 128.697 66.502 131.739 64.9013C134.78 63.3006 138.109 62.3209 141.533 62.0192C140.136 62.3628 138.833 63.0147 137.721 63.927C136.608 64.8394 135.713 65.9891 135.103 67.2919C138.976 64.7734 143.374 63.1742 147.96 62.617C152.546 62.0597 157.199 62.5591 161.563 64.0769C170.274 67.1621 178.206 72.1105 184.808 78.5768C190.306 83.5924 195.45 89.058 200.883 94.0413C199.036 91.4896 197.783 88.5563 197.218 85.4571C196.565 81.1603 195.488 76.9386 194.003 72.854C192.37 69.4569 190.023 66.4521 187.123 64.0447C182.646 60.1505 177.426 57.2052 171.778 55.387C166.13 53.5689 160.172 52.9157 154.265 53.4671C145.061 53.8672 136.176 56.9518 128.705 62.3407C123.014 60.0259 117.613 60.5403 113.883 65.5558C112.525 67.4728 111.613 69.6701 111.215 71.9859C115.331 69.2962 119.876 67.3282 124.654 66.1667Z" fill="#595959"/>
<path d="M382.431 327.227H258.844L279.485 242.574H403.072L382.431 327.227Z" fill="#456997"/>
<path d="M347.292 285.858C345.211 285.858 343.216 285.031 341.744 283.56C340.273 282.089 339.447 280.094 339.447 278.013C339.456 276.254 340.069 274.552 341.183 273.19C340.138 272.879 339.057 272.706 337.968 272.676C335.559 272.664 333.2 273.363 331.187 274.685C329.173 276.007 327.594 277.894 326.647 280.108C325.7 282.323 325.427 284.768 325.862 287.137C326.296 289.506 327.42 291.695 329.092 293.428C330.764 295.162 332.911 296.365 335.262 296.885C337.614 297.406 340.067 297.221 342.315 296.355C344.563 295.489 346.505 293.979 347.899 292.015C349.293 290.05 350.077 287.719 350.153 285.311C349.245 285.682 348.272 285.868 347.292 285.858Z" fill="#FFF5F2"/>
<path d="M382.438 315.305H237.406V327.233H382.438V315.305Z" fill="#456997"/>
<path d="M101.331 194.777C101.331 194.777 126.602 212.589 129.174 224.581C131.746 236.573 140.459 284.799 140.459 284.799C140.459 284.799 195.115 283.095 205.114 284.799C214.707 286.923 224.139 289.717 233.342 293.159V319.458C233.342 319.458 217.781 331.129 203.378 331.772C188.974 332.415 125.091 325.663 113.709 317.915C102.328 310.166 78.6328 256.571 78.6328 245.736C78.6328 234.901 83.7448 194.777 101.331 194.777Z" fill="#FF6D5A"/>
<path d="M81.1149 243.322C83.3829 269.05 90.726 294.073 102.72 316.947C105.935 323.184 109.826 329.068 116.609 331.704C122.589 334.019 129.47 333.569 135.9 333.569C148.811 333.376 161.697 332.366 174.481 330.547C175.477 330.547 175.702 332.122 174.706 332.315C159.374 335.787 143.674 337.363 127.959 337.009C117.767 336.72 109.504 334.469 103.267 325.853C86.7091 302.929 79.636 270.971 76.9675 243.322C76.6781 240.653 80.8577 240.653 81.1149 243.322Z" fill="#C73730"/>
<path d="M233.352 317.514L237.403 315.296H261.773L264.57 303.753C264.57 303.753 246.919 297.323 244.669 297.13C242.418 296.937 233.352 295.684 233.352 295.684V317.514Z" fill="#CC7256"/>
<path d="M235.408 287.269L233.35 323.374L224.059 327.232L222.805 284.922L235.408 287.269Z" fill="#FFF5F2"/>
<path d="M109.993 223.481C109.861 223.215 109.826 222.911 109.892 222.622C109.959 222.333 110.123 222.076 110.358 221.894C110.593 221.712 110.883 221.617 111.18 221.625C111.476 221.633 111.761 221.743 111.986 221.937C125.618 234.798 135.199 257.528 137.931 276.594C153.575 272.363 169.944 271.541 185.933 274.182C188.229 251.746 188.487 229.148 186.704 206.666C186.704 206.151 187.54 206.023 187.637 206.666C191.632 229.197 191.936 252.229 188.537 274.858C199.694 276.894 210.291 281.277 219.627 287.718C220.495 288.361 220.012 290.097 218.823 289.647C202.747 283.699 188.537 277.944 171.304 277.14C160.538 276.714 149.769 277.884 139.346 280.613C138.759 282.405 137.96 284.121 136.967 285.724C136.042 288.332 135.511 291.063 135.392 293.826C135.392 294.855 134.138 295.916 133.109 295.145C132.648 294.855 132.254 294.472 131.951 294.019C131.85 293.885 131.795 293.722 131.795 293.553C131.795 293.385 131.85 293.221 131.951 293.087H132.209C132.046 290.401 132.555 287.716 133.688 285.274C134.217 283.975 134.92 282.752 135.777 281.641C131.437 282.799 127.097 284.181 122.917 285.692C121.374 286.239 120.313 283.731 121.792 282.992C126.395 280.763 131.182 278.934 136.099 277.526C133.547 267.9 130.203 258.501 126.1 249.426C121.599 239.781 115.201 232.129 109.993 223.481Z" fill="#C73730"/>
<path d="M448.193 327.234H423.951C422.911 327.234 421.913 326.821 421.178 326.085C420.442 325.349 420.029 324.352 420.029 323.311V285.052H452.18V323.311C452.18 323.832 452.076 324.347 451.875 324.827C451.674 325.308 451.379 325.743 451.008 326.108C450.637 326.473 450.197 326.761 449.714 326.954C449.23 327.147 448.713 327.242 448.193 327.234Z" fill="#FFC253"/>
<path d="M408.41 313.925V298.364C408.41 296.144 409.29 294.015 410.857 292.442C412.423 290.869 414.549 289.981 416.769 289.973H429.308V322.316H416.769C414.549 322.308 412.423 321.42 410.857 319.847C409.29 318.274 408.41 316.145 408.41 313.925ZM424.486 294.635H416.737C415.788 294.643 414.88 295.026 414.212 295.7C413.543 296.375 413.168 297.286 413.169 298.235V313.796C413.168 314.746 413.543 315.657 414.212 316.331C414.88 317.006 415.788 317.389 416.737 317.397H424.486V294.635Z" fill="#FFC253"/>
<path d="M245.057 67.6797L223.066 83.5943L247.919 80.54L245.057 67.6797Z" fill="#FFB15F"/>
<path d="M212.551 64.0117L214.512 79.2833L219.72 66.0694L212.551 64.0117Z" fill="#FFB15F"/>
<path d="M238.081 98.0892L222.777 96.5781L234.448 104.616L238.081 98.0892Z" fill="#FFB15F"/>
<path d="M72.3047 101.72L95.7747 115.352L82.8501 93.875L72.3047 101.72Z" fill="#FFB15F"/>
<path d="M75.1694 129.505L88.3191 121.531L74.1406 122.142L75.1694 129.505Z" fill="#FFB15F"/>
</svg>
