<svg width="1044" height="1047" viewBox="0 0 1044 1047" fill="none" xmlns="http://www.w3.org/2000/svg">
<path d="M707.283 169.382C723.224 222.87 727.556 281.857 767.38 321.736C802.817 357.117 858.36 359.561 905.238 377.279C1015.71 418.659 1073.7 560.571 1028.65 669.324C983.609 778.077 847.862 838.063 735.332 802.627C686.454 787.241 641.465 756.693 590.31 753.749C495.887 748.195 425.07 835.23 342.311 881.498C267.606 923.21 171.239 930.986 96.8667 888.663C22.4948 846.339 -20.662 749.528 9.94217 669.601C41.8793 586.287 123.361 543.13 182.792 482.144C271.66 391.054 226.671 315.515 228.837 203.819C231.669 59.4073 386.134 -20.9633 517.66 4.75309C584.509 17.9881 643.532 56.8389 682.122 113.006C693.351 130.396 701.837 149.411 707.283 169.382Z" fill="#F9F2DC"/>
<path d="M409.391 166.768C405.392 172.711 398.005 176.154 395.172 182.708C391.95 190.096 395.561 199.038 392.617 206.536C389.673 214.035 380.731 217.923 374.343 223.199C368.779 228.355 364.815 235.003 362.924 242.35C361.033 249.697 361.295 257.432 363.679 264.634C366.213 271.78 370.202 278.323 375.393 283.848C380.584 289.374 386.865 293.763 393.839 296.738C407.866 302.617 423.138 304.908 438.273 303.403C465.545 301.404 492.15 291.295 519.477 292.628C533.474 293.35 547.248 297.016 561.19 298.182C575.131 299.349 590.238 298.182 601.458 289.517C612.678 280.853 618.121 264.023 610.289 252.359C604.735 243.806 592.96 239.195 590.683 229.198C588.683 220.644 594.515 211.424 591.294 203.259C587.017 192.428 569.799 191.318 565.855 180.32C563.134 172.877 567.91 163.657 563.411 156.992C560.967 153.382 556.413 151.771 553.636 148.438C548.081 142.106 551.192 132.387 548.637 124.499C545.249 114.113 533.418 109.392 522.809 106.559C506.055 101.293 488.422 99.405 470.932 101.005C453.659 103.338 440.384 112.669 426.498 122.389C409.835 134.608 419.055 152.049 409.391 166.768Z" fill="#55062C"/>
<path d="M417.947 180.277C414.67 188.108 405.672 193.274 404.728 201.716C404.006 208.104 408.283 214.324 407.283 220.712C406.005 228.821 397.174 233.042 392.12 239.485C383.066 250.983 387.676 269.034 398.507 278.921C409.338 288.807 424.39 292.362 438.887 294.473C483.226 300.97 528.451 297.633 571.357 284.697C576.654 283.395 581.677 281.157 586.186 278.088C588.421 276.524 590.249 274.447 591.515 272.03C592.781 269.614 593.449 266.93 593.462 264.202C592.74 249.927 570.134 243.595 571.245 229.376C571.801 222.434 578.299 216.491 577.133 209.659C575.022 197.773 554.194 199.05 550.361 187.442C547.917 180.277 553.916 172.445 551.917 165.224C549.639 156.837 538.531 154.116 533.698 147.173C531.409 142.252 529.551 137.141 528.144 131.899C523.367 120.79 510.037 116.013 497.929 115.236C474.601 113.292 453.495 122.401 433.332 133.176C411.837 144.729 425.667 161.892 417.947 180.277Z" fill="#3F0727"/>
<path d="M630.404 684.274C538.425 695.382 349.746 679.553 349.746 679.553L389.681 512.591L393.681 485.208L463.498 477.543L565.641 479.598L569.252 484.486L580.36 519.7L630.404 684.274Z" fill="#252727"/>
<path d="M580.691 519.694L571.693 521.027C536.664 526.832 501.152 529.213 465.662 528.136C439.68 527.075 414.041 521.824 389.734 512.584L393.733 485.201L563.806 466.539L580.691 519.694Z" fill="#252727"/>
<path d="M369.517 660.204C376.293 673.756 416.395 692.474 416.395 692.474C416.395 692.474 422.449 733.909 432.502 757.848C442.556 781.787 535.146 942.64 535.146 942.64L542.977 938.029L571.915 920.756C571.915 920.756 493.266 624.657 487.323 604.161C481.769 585.332 407.619 588.887 390.623 591.442C389.546 591.574 388.485 591.816 387.457 592.164C382.125 594.441 363.962 649.095 369.517 660.204Z" fill="#A04F39"/>
<path d="M558.246 1030.68C562.079 1037.12 588.24 1050.06 596.238 1045.18C604.236 1040.29 621.843 1004.13 617.899 989.301C615.183 982.308 611.6 975.684 607.235 969.583L604.347 965.251C590.739 944.922 571.91 920.816 571.91 920.816L535.141 942.7C535.141 942.7 541.75 978.359 549.138 1005.07C551.212 1013.92 554.267 1022.51 558.246 1030.68Z" fill="#A04F39"/>
<path d="M558.25 1030.69C562.082 1037.13 588.243 1050.07 596.241 1045.18C604.239 1040.3 621.846 1004.14 617.903 989.307C615.186 982.315 611.603 975.691 607.238 969.59C604.906 985.475 599.074 1013.36 586.521 1018.25C575.801 1022.41 559.916 1013.14 549.141 1005.08C551.215 1013.93 554.271 1022.52 558.25 1030.69Z" fill="#FFF5F2"/>
<path d="M612.291 664.984C612.902 677.481 559.414 690.478 559.414 690.478C559.414 690.478 553.415 731.913 543.362 755.852C533.309 779.791 440.719 940.643 440.719 940.643L432.887 935.978L403.949 918.759C403.949 918.759 482.598 622.66 488.541 602.165C494.095 583.336 568.245 586.891 585.241 589.446C586.315 589.569 587.375 589.793 588.407 590.112C593.739 592.39 611.68 652.542 612.291 664.984Z" fill="#CC7256"/>
<path d="M417.627 1028.62C413.795 1035.06 387.634 1048.01 379.636 1043.12C371.638 1038.23 354.031 1002.02 357.974 987.242C360.691 980.25 364.274 973.626 368.638 967.524C369.583 966.136 370.527 964.636 371.527 963.192C385.135 942.863 403.964 918.758 403.964 918.758L440.733 940.642C440.733 940.642 434.123 976.3 426.736 1003.02C424.642 1011.86 421.587 1020.44 417.627 1028.62Z" fill="#CC7256"/>
<path d="M417.627 1028.63C413.795 1035.07 387.634 1048.01 379.636 1043.13C371.638 1038.24 354.031 1002.02 357.974 987.251C360.691 980.258 364.274 973.634 368.638 967.533C369.583 966.144 370.527 964.644 371.527 963.2C376.581 974.975 388.189 1001.3 390.633 1002.08C397.254 1001.69 403.552 999.089 408.518 994.693C411.629 990.972 432.901 935.984 432.901 935.984L440.733 940.65C440.733 940.65 434.123 976.309 426.736 1003.02C424.642 1011.87 421.587 1020.45 417.627 1028.63Z" fill="#A04F39"/>
<path d="M417.627 1028.63C413.795 1035.07 387.634 1048.01 379.636 1043.13C371.638 1038.24 354.031 1002.02 357.974 987.249C360.691 980.257 364.274 973.632 368.638 967.531C370.971 983.417 376.803 1011.3 389.356 1016.19C400.076 1020.35 415.961 1011.02 426.736 1003.02C424.642 1011.86 421.587 1020.45 417.627 1028.63Z" fill="#FFF5F2"/>
<path d="M612.286 664.989C612.897 677.486 559.409 690.484 559.409 690.484C559.409 690.484 553.411 731.918 543.358 755.857C533.304 779.796 440.714 940.649 440.714 940.649L432.883 935.983C432.883 935.983 520.696 767.855 526.306 754.302C531.916 740.75 538.97 673.932 538.97 673.932C538.97 673.932 589.958 661.379 594.513 653.325C597.79 647.271 589.569 608.002 585.459 589.34C586.533 589.463 587.593 589.687 588.625 590.006C593.735 592.395 611.675 652.548 612.286 664.989Z" fill="#A04F39"/>
<path d="M630.404 684.274C630.404 684.274 576.25 624.898 495.546 617.622C414.842 610.346 349.746 679.608 349.746 679.608L389.681 512.646L393.681 485.264L463.498 477.543L565.641 479.598L569.252 484.486L580.36 519.7L630.404 684.274Z" fill="#424242"/>
<path d="M400.337 256.41C400.337 256.41 368.678 266.241 368.456 270.518C368.233 274.795 346.239 326.061 346.239 326.061C346.239 326.061 306.914 366.718 306.914 381.604C306.914 396.489 315.468 435.647 315.468 435.647C315.468 435.647 316.245 480.803 335.796 485.636C355.348 490.468 387.396 476.305 387.396 476.305L422.777 371.384L441.772 324.45L400.337 256.41Z" fill="#FFC253"/>
<path d="M569.02 257.688C569.02 257.688 598.791 266.241 599.013 270.518C599.235 274.795 621.23 326.061 621.23 326.061C621.23 326.061 660.61 366.718 660.61 381.604C660.61 396.489 652.001 435.647 652.001 435.647C652.001 435.647 651.223 480.803 631.672 485.636C612.121 490.468 580.073 476.304 580.073 476.304L544.636 371.384L525.641 324.45L569.02 257.688Z" fill="#FFC253"/>
<path d="M567.466 371.94C563.145 381.324 557.288 389.922 550.137 397.378L566.077 531.57C566.077 531.57 508.091 548.51 480.93 547.899C453.77 547.288 388.562 531.514 388.562 531.514L414.001 395.656C406.639 387.478 400.757 378.08 396.616 367.885C388.285 345.668 409.113 313.397 409.113 313.397L400.338 256.355L430.331 247.524L443.661 243.525L469.044 236.859L509.702 237.804L526.92 245.524L546.471 251.078L568.688 257.521L557.579 313.064C557.579 313.064 576.853 350.222 567.466 371.94Z" fill="#FFC253"/>
<path d="M511.211 251.581L490.161 253.636L467.555 250.582C468.721 243.234 469.297 235.804 469.277 228.364C469.277 227.031 469.277 225.754 469.277 224.421C469.277 212.257 468.61 201.759 468.61 201.759L506.879 197.094C506.83 205.928 507.312 214.756 508.323 223.532C508.323 224.699 508.323 225.976 508.656 227.142C509.878 239.917 511.211 251.581 511.211 251.581Z" fill="#CC7256"/>
<path d="M508.384 223.595C503.41 227.48 497.553 230.075 491.333 231.148C483.384 231.522 475.546 229.17 469.116 224.483C469.116 212.319 468.449 201.822 468.449 201.822L506.718 197.156C506.743 205.994 507.299 214.823 508.384 223.595Z" fill="#A04F39"/>
<path d="M441.781 249.984C441.781 249.984 446.058 231.933 449.446 231.322C452.834 230.711 522.596 227.212 528.872 231.322C535.149 235.432 539.481 259.093 539.481 259.093L496.213 273.701L446.836 259.593L441.781 249.984Z" fill="#FFC253"/>
<path d="M532.477 179.429C535.956 178.873 539.263 177.534 542.15 175.513C545.036 173.493 547.426 170.843 549.139 167.765C549.806 166.654 550.361 165.543 550.806 164.599C553.027 159.433 553.583 141.604 547.806 137.438C543.752 134.55 540.808 138.771 539.419 141.548C538.864 142.715 538.531 143.659 538.531 143.659L532.477 179.429Z" fill="#E1836C"/>
<path d="M532.477 179.445C535.956 178.889 539.263 177.551 542.15 175.53C545.036 173.51 547.426 170.86 549.139 167.781C549.396 167.317 549.619 166.834 549.806 166.337C552.028 161.172 552.639 143.287 546.862 139.177C543.585 136.788 541.03 139.177 539.419 141.565C538.864 142.731 538.531 143.676 538.531 143.676L532.477 179.445Z" fill="#CC7256"/>
<path d="M549.58 151.653C549.819 153.099 549.725 154.581 549.303 155.985C547.152 161.83 543.422 166.964 538.527 170.815C539.873 167.881 540.41 164.64 540.083 161.428C540.083 160.317 539.805 159.207 539.805 158.096C539.749 153.597 547.803 143.21 549.58 151.653Z" fill="#E1836C"/>
<path d="M536.252 172.544L536.974 171.989C537.841 171.256 538.59 170.394 539.196 169.434C540.108 167.974 540.73 166.352 541.028 164.657C541.369 162.529 541.159 160.349 540.418 158.325C540.355 158.048 540.242 157.784 540.084 157.547V157.159L540.362 156.492C540.806 155.659 541.251 154.826 541.751 154.048C542.173 153.306 542.656 152.6 543.195 151.938C543.619 151.334 544.083 150.758 544.583 150.216C545.003 149.814 545.52 149.527 546.083 149.383C546.509 149.349 546.935 149.446 547.305 149.66C547.55 149.8 547.744 150.014 547.86 150.271V150.605C547.872 150.494 547.872 150.382 547.86 150.271C547.802 149.954 547.647 149.663 547.416 149.438C547.005 149.105 546.5 148.911 545.972 148.883C545.266 148.922 544.588 149.173 544.028 149.605C543.401 150.082 542.824 150.622 542.306 151.216C541.676 151.851 541.1 152.539 540.584 153.271C539.971 154.072 539.432 154.927 538.973 155.826C538.973 155.826 538.696 156.27 538.585 156.548V156.881V157.381V157.77V158.103V158.603C538.701 158.814 538.794 159.038 538.862 159.269C539.512 161.045 539.777 162.938 539.64 164.824C539.49 166.393 539.097 167.93 538.474 169.378C538 170.362 537.423 171.293 536.752 172.155L536.141 172.822L536.252 172.544Z" fill="#A04F39"/>
<path d="M441.771 179.719C438.298 179.187 434.992 177.87 432.105 175.869C429.217 173.867 426.824 171.232 425.108 168.167C424.441 167.056 423.886 166 423.442 165.056C421.165 159.891 420.498 142.006 426.219 137.84C430.274 134.896 433.217 139.118 434.661 141.895C435.217 143.117 435.55 144.005 435.55 144.005L441.771 179.719Z" fill="#E1836C"/>
<path d="M441.776 179.705C438.303 179.173 434.997 177.856 432.109 175.854C429.222 173.852 426.829 171.218 425.113 168.152L424.391 166.708C422.169 161.543 421.447 143.658 427.223 139.492C430.5 137.159 432.778 139.492 434.666 141.881C435.222 143.102 435.555 143.991 435.555 143.991L441.776 179.705Z" fill="#CC7256"/>
<path d="M424.613 152.057C424.311 153.485 424.311 154.961 424.613 156.389C426.848 162.263 430.699 167.385 435.721 171.164C434.356 168.234 433.8 164.993 434.11 161.777C434.11 160.666 434.388 159.555 434.388 158.444C434.277 153.945 426.168 143.67 424.613 152.057Z" fill="#E1836C"/>
<path d="M437.889 172.887H437.611L436.889 172.331C436.031 171.61 435.283 170.768 434.667 169.832C433.755 168.372 433.133 166.75 432.834 165.055C432.447 162.933 432.639 160.745 433.39 158.723C433.457 158.456 433.55 158.195 433.668 157.946V157.612L433.334 156.89C432.945 156.057 432.445 155.224 432.001 154.446C431.557 153.669 431.001 153.002 430.502 152.336C430.078 151.749 429.614 151.192 429.113 150.669C428.707 150.249 428.185 149.959 427.613 149.836C427.185 149.766 426.747 149.866 426.391 150.114C426.135 150.239 425.936 150.457 425.836 150.725C425.836 150.725 425.836 151.058 425.836 151.058C425.836 151.058 425.836 151.058 425.836 150.725C425.851 150.563 425.898 150.407 425.974 150.264C426.051 150.121 426.155 149.994 426.28 149.892C426.671 149.526 427.189 149.326 427.724 149.336C428.419 149.388 429.088 149.618 429.668 150.003C430.296 150.48 430.872 151.02 431.39 151.614C432.001 152.225 432.557 152.947 433.168 153.669C433.762 154.483 434.3 155.337 434.778 156.224L435.112 156.89V157.279L435.389 157.779V158.112V158.501V159.001C435.367 159.223 435.367 159.446 435.389 159.667C434.73 161.44 434.483 163.339 434.667 165.222C434.808 166.799 435.221 168.34 435.889 169.776C436.345 170.74 436.904 171.653 437.555 172.498L438.166 173.164L437.889 172.887Z" fill="#A04F39"/>
<path d="M435.164 140.789C435.164 140.789 436.719 175.559 445.939 188.389C453.715 199.165 464.713 216.161 482.264 222.16C485.689 223.303 489.393 223.303 492.818 222.16C510.314 216.272 521.2 198.998 528.92 188.223C538.085 175.281 539.418 140.512 539.418 140.512C539.418 138.179 539.418 135.957 539.418 133.791C538.196 68.0281 487.041 71.7494 487.041 71.7494C487.041 71.7494 436.719 72.416 435.22 137.457C435.164 138.512 435.164 139.623 435.164 140.789Z" fill="#E1836C"/>
<path d="M435.227 137.346C435.56 142.9 437.559 172.449 445.946 184.057C454.333 195.666 464.72 211.829 482.271 217.827C485.696 218.971 489.4 218.971 492.825 217.827C510.321 211.94 521.207 194.721 528.927 183.89C538.092 170.949 539.369 136.179 539.369 136.179C539.369 136.179 539.369 134.624 539.369 133.791C538.148 68.0281 486.993 71.7494 486.993 71.7494C486.993 71.7494 436.726 72.3048 435.227 137.346Z" fill="#CC7256"/>
<path d="M498.21 193.164C495.384 194.411 492.329 195.055 489.24 195.055C486.151 195.055 483.096 194.411 480.27 193.164C481.124 194.545 482.318 195.683 483.738 196.471C485.157 197.258 486.755 197.669 488.379 197.663C492.084 197.368 495.565 195.775 498.21 193.164Z" fill="#A04F39"/>
<path d="M511.534 176.996L510.424 178.329C509.437 179.591 508.32 180.745 507.091 181.773C502.965 185.264 498.044 187.687 492.761 188.827C487.418 190.008 481.867 189.855 476.598 188.382C475.03 187.974 473.505 187.416 472.043 186.716L470.488 185.938L472.21 186.327C473.321 186.327 474.932 186.772 476.876 186.994C481.967 187.434 487.096 187.116 492.094 186.05C497.054 184.933 501.813 183.06 506.202 180.495C507.869 179.496 509.257 178.607 510.146 177.94L511.534 176.996Z" fill="#A04F39"/>
<path d="M516.422 167.707C517.311 169.984 523.587 169.762 530.419 167.151C537.25 164.541 542.138 160.597 541.527 158.32C540.916 156.043 534.418 156.32 527.531 158.931C520.643 161.541 515.589 165.429 516.422 167.707Z" fill="#E1836C"/>
<path d="M433.33 158.218C432.386 160.496 437.162 164.55 443.939 167.383C450.715 170.216 456.936 170.605 457.88 168.383C458.824 166.161 454.047 161.995 447.271 159.218C440.495 156.441 434.274 155.997 433.33 158.218Z" fill="#E1836C"/>
<path d="M487.876 165.496C489.512 165.49 491.12 165.918 492.535 166.738C493.95 167.558 495.122 168.74 495.93 170.162C496.061 170.539 496.061 170.951 495.93 171.328C495.93 171.939 495.152 172.217 494.597 172.439C490.529 173.832 486.22 174.38 481.933 174.05C474.602 173.383 484.099 165.552 487.876 165.496Z" fill="#E1836C"/>
<path d="M484.218 171.99V169.213C484.218 168.657 484.218 167.991 484.218 167.269V164.936C484.218 164.158 484.218 163.27 484.218 162.325C484.218 160.492 484.219 158.493 483.885 156.438C483.552 154.383 483.552 152.328 483.33 150.495C483.33 149.606 483.33 148.717 483.052 147.884C482.774 147.051 483.052 146.329 482.774 145.607C482.497 144.885 482.774 144.274 482.441 143.719C482.108 143.163 482.441 142.608 482.441 142.219C482.441 141.83 482.441 140.941 482.441 140.941L483.163 141.997C483.493 142.398 483.79 142.825 484.052 143.274C484.402 143.828 484.717 144.403 484.996 144.996C485.402 145.709 485.755 146.452 486.051 147.218C486.441 148.059 486.757 148.932 486.996 149.828C487.652 151.864 488.062 153.971 488.218 156.105C488.382 158.256 488.289 160.419 487.94 162.547C487.94 163.492 487.606 164.436 487.384 165.269C487.162 166.102 486.94 166.88 486.718 167.602L485.94 169.49L485.329 170.824L484.218 171.99Z" fill="#A04F39"/>
<path d="M524.585 133.777C523.337 135.973 521.378 137.677 519.031 138.61C518.598 138.078 518.057 137.645 517.445 137.338C516.832 137.032 516.161 136.859 515.476 136.832C512.088 136.832 509.422 141.276 509.477 146.719C509.533 152.162 512.31 156.494 515.698 156.439C519.086 156.383 521.752 151.995 521.697 146.552C521.678 144.984 521.416 143.429 520.919 141.942C522.805 139.57 524.066 136.763 524.585 133.777Z" fill="#252727"/>
<path d="M514.984 147.672C517.487 148.4 520.146 148.4 522.649 147.672C525.107 146.871 527.297 145.411 528.981 143.451C526.476 142.74 523.822 142.74 521.316 143.451C518.867 144.269 516.681 145.726 514.984 147.672Z" fill="#FFF0E7"/>
<path d="M452.004 134C453.279 136.173 455.229 137.87 457.558 138.832C457.98 138.285 458.518 137.837 459.132 137.521C459.746 137.204 460.422 137.026 461.113 136.999C464.446 136.999 467.167 141.387 467.167 146.83C467.167 152.274 464.39 156.606 461.002 156.606C457.614 156.606 454.948 152.162 454.948 146.775C454.945 145.21 455.188 143.654 455.67 142.165C453.784 139.793 452.523 136.985 452.004 134Z" fill="#252727"/>
<path d="M461.38 147.839C458.874 148.549 456.22 148.549 453.715 147.839C451.247 147.06 449.051 145.596 447.383 143.617C449.87 142.909 452.505 142.909 454.992 143.617C457.471 144.406 459.682 145.867 461.38 147.839Z" fill="#FFF0E7"/>
<path d="M532.148 185.941C532.148 185.941 532.482 185.275 533.037 183.997C533.593 182.72 534.37 180.887 535.203 178.443C536.037 175.999 536.925 173.222 537.703 170C538.603 166.506 539.308 162.964 539.813 159.391C540.313 155.559 540.536 151.893 540.647 148.283C540.758 144.673 540.647 141.896 540.647 139.341C540.647 136.786 540.258 134.786 540.036 133.342C539.813 131.898 539.758 131.176 539.758 131.176C539.571 131.889 539.423 132.613 539.314 133.342C539.036 134.731 538.647 136.73 538.203 139.174C537.758 141.618 537.314 144.728 536.759 147.728C536.203 150.727 535.703 154.504 535.203 158.225C534.704 161.947 534.259 165.501 533.926 168.723C533.593 171.944 533.259 174.944 533.037 177.387C532.815 179.831 532.593 181.942 532.482 183.331L532.148 185.941Z" fill="#3F0727"/>
<path d="M440.619 183.827L439.841 181.827C439.342 180.494 438.675 178.606 437.953 176.273C437.231 173.94 436.509 170.996 435.842 167.719C434.339 160.639 433.686 153.404 433.898 146.169C433.898 142.781 434.232 139.781 434.509 137.282C434.787 134.783 435.12 132.672 435.398 131.283C435.676 129.895 435.787 129.117 435.787 129.117C435.787 129.117 435.787 129.895 436.12 131.283C436.453 132.672 436.62 134.727 436.953 137.171C437.286 139.615 437.62 142.725 437.953 145.836C438.286 148.946 438.731 152.612 439.064 156.333C439.397 160.055 439.619 163.665 439.841 166.886C440.064 170.108 440.175 173.107 440.341 175.607C440.508 178.106 440.341 180.161 440.341 181.605C440.341 183.049 440.619 183.827 440.619 183.827Z" fill="#3F0727"/>
<path d="M547.703 137.45L539.371 141.616L533.817 113.289C523.264 117.732 477.163 107.124 477.163 107.124L472.776 86.5729L465.444 108.79L432.84 139.838L426.175 137.839C424.78 131.924 423.87 125.906 423.453 119.843C422.44 109.793 423.751 99.6452 427.286 90.1831C438.061 65.411 466.666 58.4127 473.442 57.6351C490.92 54.5297 508.923 58.2257 523.764 67.966C533.095 74.2979 538.816 87.8503 542.315 101.292C545.248 113.148 547.052 125.254 547.703 137.45Z" fill="#3F0727"/>
<path d="M535.195 125.512C535.195 125.512 512.978 108.238 504.425 113.792C499.537 117.014 503.258 119.346 503.258 119.346L535.195 125.512Z" fill="#55062C"/>
<path d="M441.285 125.387C441.285 125.387 463.502 107.835 471.945 113.223C476.833 116.444 473.167 118.777 473.167 118.777L441.285 125.387Z" fill="#55062C"/>
<path d="M542.365 101.338C527.003 100.689 512.325 94.8101 500.763 84.6753C494.82 79.121 488.877 72.6224 480.934 72.4558C471.103 72.4558 464.549 81.9536 458.717 89.7851C449.188 102.025 437.262 112.193 423.669 119.667C422.754 110.081 423.871 100.41 426.947 91.2849C426.947 90.8406 427.335 90.3962 427.502 90.0074C438.277 65.2352 466.882 58.2369 473.658 57.4593C491.136 54.3539 509.139 58.0499 523.98 67.7902C526.86 69.8368 529.376 72.3527 531.423 75.2329C536.625 83.1978 540.333 92.0441 542.365 101.338Z" fill="#55062C"/>
<path d="M531.267 75.4015C529.435 75.7399 527.576 75.9073 525.713 75.9013C517.04 75.4538 508.501 73.5771 500.441 70.3471C492.383 67.0401 483.703 65.524 475.002 65.9037C456.728 67.9032 443.398 84.7328 426.68 91.6757C426.68 91.2313 427.069 90.7869 427.235 90.3981C438.01 65.626 466.615 58.6275 473.391 57.8499C490.869 54.7445 508.873 58.4407 523.713 68.181C526.615 70.1512 529.168 72.5915 531.267 75.4015Z" fill="#6F0A32"/>
<path d="M556.081 309.914V309.47C559.095 302.236 561.637 294.815 563.691 287.253C564.19 285.086 561.08 283.531 559.914 285.697C556.527 292.906 553.614 300.327 551.193 307.915C551.109 308.117 551.066 308.334 551.066 308.553C551.066 308.772 551.109 308.989 551.193 309.192C551.057 309.626 551.057 310.091 551.193 310.525C557.692 324.911 564.579 336.797 564.079 353.182C563.383 369.848 556.56 385.671 544.917 397.616C542.14 400.671 546.583 405.17 549.472 402.171C571.911 379.232 581.02 334.52 556.081 309.914Z" fill="#D69431"/>
<path d="M419.064 393.008C391.293 373.235 393.181 343.02 410.4 317.859C410.788 317.832 411.166 317.726 411.512 317.546C411.857 317.367 412.161 317.118 412.406 316.816C412.651 316.514 412.831 316.164 412.935 315.789C413.039 315.415 413.065 315.022 413.01 314.637C412.983 314.416 412.983 314.192 413.01 313.971C413.063 313.714 413.063 313.45 413.01 313.193C411.788 306.195 410.011 299.252 408.345 292.309C407.9 290.421 404.679 290.809 404.901 292.809C405.845 299.918 406.623 307.083 407.956 314.137C380.962 335.91 388.905 377.178 414.288 396.674C414.162 396.901 414.068 397.144 414.01 397.396C407.728 424.546 402.852 452.002 399.402 479.655C399.013 482.266 403.679 482.932 404.068 480.266C407.9 452.939 412.788 425.834 417.731 398.674C418.358 398.592 418.945 398.321 419.414 397.897C419.883 397.474 420.212 396.917 420.357 396.302C420.501 395.686 420.455 395.042 420.224 394.453C419.993 393.865 419.589 393.361 419.064 393.008Z" fill="#D69431"/>
<path d="M518.549 395.939C506.719 394.717 495.055 389.718 483.113 390.051C471.171 390.384 460.285 395.05 448.232 395.05C446.51 395.05 446.066 397.772 447.843 398.105C460.063 400.493 471.005 395.328 483.113 395.05C495.221 394.772 506.83 402.326 518.994 399.049C519.335 398.919 519.622 398.676 519.807 398.361C519.993 398.047 520.066 397.678 520.014 397.316C519.962 396.955 519.789 396.621 519.523 396.371C519.257 396.121 518.914 395.968 518.549 395.939Z" fill="#2B547C"/>
<path d="M36.4196 562.914L944.379 562.914V515.036L36.4196 515.036V562.914Z" fill="#424242"/>
<path d="M495.711 562.914H485.158H68.5859L91.4696 1039.25H120.63L137.292 610.847H485.158H495.711H843.576L860.239 1039.25H889.399L912.282 562.914H495.711Z" fill="#252727"/>
<path d="M634.745 315.184H346.145V514.971H634.745V315.184Z" fill="#252727"/>
<path d="M526.753 260.585C524.22 259.438 521.624 258.436 518.976 257.586C520.802 255.086 522.401 252.428 523.753 249.643C525.086 247.033 521.087 244.7 519.81 247.366C518.265 250.34 517.036 253.467 516.144 256.697C513.309 255.887 510.436 255.22 507.535 254.698C508.201 252.476 508.868 250.254 509.479 247.977C510.298 246.05 510.659 243.958 510.534 241.867C510.432 241.531 510.246 241.227 509.993 240.983C509.74 240.739 509.428 240.564 509.088 240.475C508.749 240.386 508.392 240.386 508.052 240.474C507.712 240.562 507.4 240.736 507.146 240.979C506.02 242.646 505.281 244.544 504.98 246.533C504.424 248.81 503.813 251.032 503.258 253.309C503.23 253.493 503.23 253.681 503.258 253.865C500.592 253.476 497.704 253.254 495.26 253.087V252.754C496.059 250.492 496.417 248.097 496.315 245.7C496.84 243.317 496.686 240.835 495.871 238.535C495.691 238.248 495.441 238.011 495.145 237.848C494.848 237.684 494.515 237.598 494.177 237.598C493.838 237.598 493.505 237.684 493.209 237.848C492.912 238.011 492.662 238.248 492.483 238.535C491.599 240.638 491.292 242.939 491.594 245.2C491.351 247.578 491.501 249.98 492.038 252.31C492.096 252.51 492.19 252.698 492.316 252.865C488.428 252.865 484.484 252.865 480.596 252.865C481.311 250.494 481.213 247.953 480.319 245.644C479.819 243.2 479.819 240.09 477.486 238.59C477.1 238.383 476.649 238.331 476.226 238.445C475.803 238.559 475.439 238.829 475.209 239.201C473.82 241.534 475.209 244.423 476.097 246.811C476.986 249.199 477.208 251.699 479.097 253.032C474.264 253.309 469.488 253.698 464.822 254.309L462.545 248.755C462.039 246.805 461.088 244.999 459.768 243.478C459.52 243.243 459.209 243.084 458.873 243.021C458.538 242.958 458.191 242.993 457.874 243.122C457.558 243.251 457.285 243.468 457.089 243.748C456.893 244.028 456.782 244.359 456.769 244.7C457.075 246.716 457.876 248.624 459.101 250.254L461.656 254.864C458.49 255.309 455.436 255.809 452.436 256.364C451.492 256.364 451.714 258.197 452.436 258.086C464.647 256.329 477.013 255.901 489.317 256.808C501.703 257.864 513.367 261.641 525.586 263.307C527.419 263.418 527.975 261.196 526.753 260.585Z" fill="#D69431"/>
<path d="M506.702 416.721C503.108 416.721 499.661 415.293 497.119 412.752C494.578 410.21 493.15 406.763 493.15 403.168C493.175 400.132 494.233 397.194 496.149 394.837C494.342 394.318 492.475 394.038 490.595 394.004C486.449 393.995 482.393 395.208 478.932 397.49C475.471 399.772 472.759 403.023 471.134 406.837C469.509 410.651 469.044 414.858 469.795 418.935C470.546 423.012 472.481 426.778 475.359 429.762C478.237 432.746 481.929 434.816 485.976 435.715C490.023 436.613 494.245 436.3 498.115 434.815C501.986 433.329 505.333 430.736 507.739 427.361C510.145 423.985 511.504 419.975 511.646 415.832C510.066 416.428 508.39 416.729 506.702 416.721Z" fill="#FFF5F2"/>
<path d="M312.194 514.963H270.314C269.392 514.986 268.474 514.82 267.617 514.476C266.761 514.132 265.984 513.616 265.333 512.961C264.683 512.306 264.174 511.524 263.837 510.665C263.499 509.806 263.341 508.887 263.371 507.964V441.868H318.914V507.964C318.944 508.868 318.792 509.768 318.469 510.613C318.145 511.457 317.656 512.228 317.029 512.88C316.403 513.532 315.652 514.053 314.822 514.41C313.992 514.768 313.098 514.956 312.194 514.963Z" fill="#DC5116"/>
<path d="M243.391 492.036V465.097C243.405 461.262 244.939 457.589 247.656 454.883C250.373 452.176 254.052 450.656 257.887 450.656H279.493V506.477H257.998C256.09 506.492 254.198 506.129 252.43 505.411C250.662 504.692 249.053 503.632 247.696 502.29C246.338 500.948 245.259 499.352 244.521 497.592C243.782 495.832 243.398 493.944 243.391 492.036ZM271.162 458.71H257.998C256.358 458.71 254.784 459.358 253.619 460.512C252.454 461.667 251.792 463.235 251.778 464.875V491.814C251.792 493.454 252.454 495.022 253.619 496.177C254.784 497.331 256.358 497.979 257.998 497.979H271.384L271.162 458.71Z" fill="#DC5116"/>
<path d="M811.973 514.974H715.162C710.163 514.974 705.368 512.992 701.828 509.463C698.288 505.933 696.292 501.144 696.277 496.145C696.292 491.146 698.288 486.357 701.828 482.828C705.368 479.298 710.163 477.316 715.162 477.316H811.973V514.974Z" fill="#D94562"/>
<path d="M811.302 509.421H716.879C713.368 509.406 710.006 508.001 707.529 505.513C705.051 503.025 703.66 499.657 703.66 496.146C703.66 492.635 705.051 489.267 707.529 486.779C710.006 484.291 713.368 482.886 716.879 482.871H811.302C811.479 482.871 811.649 482.941 811.774 483.066C811.899 483.191 811.969 483.361 811.969 483.538V508.754C811.969 508.931 811.899 509.1 811.774 509.225C811.649 509.35 811.479 509.421 811.302 509.421Z" fill="#FFF5F2"/>
<path d="M795.48 477.304H698.669C693.67 477.289 688.881 475.293 685.351 471.753C681.822 468.213 679.84 463.418 679.84 458.419C679.84 453.425 681.824 448.636 685.355 445.105C688.886 441.574 693.675 439.59 698.669 439.59H795.48V477.304Z" fill="#456997"/>
<path d="M794.866 471.694H700.443C696.922 471.694 693.546 470.295 691.056 467.806C688.567 465.316 687.168 461.94 687.168 458.419C687.168 454.899 688.567 451.522 691.056 449.033C693.546 446.543 696.922 445.145 700.443 445.145H794.866C795.033 445.158 795.188 445.235 795.301 445.358C795.415 445.482 795.477 445.643 795.477 445.811V471.028C795.484 471.112 795.474 471.198 795.447 471.278C795.42 471.359 795.376 471.433 795.319 471.496C795.261 471.559 795.191 471.609 795.113 471.643C795.035 471.677 794.951 471.694 794.866 471.694Z" fill="#FFF5F2"/>
<path d="M807.858 439.596H710.935C705.927 439.596 701.124 437.607 697.582 434.065C694.04 430.524 692.051 425.72 692.051 420.712C692.065 415.713 694.062 410.924 697.602 407.394C701.141 403.865 705.936 401.883 710.935 401.883H807.858V439.596Z" fill="#DC5116"/>
<path d="M807.087 433.996H712.664C710.924 433.996 709.2 433.653 707.593 432.985C705.985 432.317 704.526 431.339 703.298 430.105C702.069 428.872 701.097 427.408 700.436 425.798C699.775 424.187 699.438 422.462 699.445 420.722C699.438 418.984 699.775 417.261 700.437 415.654C701.098 414.047 702.072 412.587 703.301 411.358C704.53 410.129 705.99 409.156 707.597 408.494C709.204 407.832 710.926 407.495 712.664 407.503H807.087C807.172 407.495 807.258 407.505 807.338 407.532C807.419 407.559 807.493 407.603 807.556 407.661C807.619 407.718 807.669 407.788 807.703 407.866C807.737 407.944 807.754 408.028 807.754 408.113V433.33C807.754 433.507 807.684 433.676 807.559 433.801C807.434 433.926 807.264 433.996 807.087 433.996Z" fill="#FFF5F2"/>
<path d="M129.469 402.827L136.523 413.047C133.72 389.005 137.662 364.658 147.909 342.729V360.614L164.072 318.957C181.027 344.663 188.689 375.391 185.789 406.048C187.369 400.373 190.218 395.131 194.121 390.719C198.279 398.855 199.44 408.195 197.398 417.101L204.896 409.714C208.176 417.844 208.814 426.8 206.721 435.314C204.628 443.827 199.908 451.466 193.232 457.148C180.513 467.479 154.019 470.256 139.522 461.202C121.915 450.372 122.915 419.101 129.469 402.827Z" fill="#B0B007"/>
<path d="M199.273 515.021H133.454L120.957 449.203H211.77L199.273 515.021Z" fill="#58AEDB"/>
<path d="M311.752 91.0586L349.743 118.608L306.809 113.276L311.752 91.0586Z" fill="#FFB15F"/>
<path d="M367.902 84.7227L364.514 111.106L355.516 88.2773L367.902 84.7227Z" fill="#FFB15F"/>
<path d="M323.793 143.614L350.231 141.004L330.069 154.89L323.793 143.614Z" fill="#FFB15F"/>
<path d="M625.466 118.615L588.363 147.386L605.581 107.617L625.466 118.615Z" fill="#FFB15F"/>
<path d="M615.73 174.331L591.402 163.667L615.786 161.445L615.73 174.331Z" fill="#FFB15F"/>
</svg>
