<svg width="588" height="604" viewBox="0 0 588 604" fill="none" xmlns="http://www.w3.org/2000/svg">
<path d="M84.7373 158.576C89.3157 189.739 101.128 220.964 90.2008 250.845C80.5253 277.368 52.6587 291.836 32.8498 311.889C-13.8489 359.32 -9.88104 445.637 39.1679 490.687C88.2169 535.738 171.847 534.028 221.018 489.191C242.384 469.718 258.133 443.408 283.589 429.704C330.745 404.371 387.547 432.054 440.899 436.053C489.063 439.654 540.218 420.792 568.207 381.326C596.196 341.861 595.249 282.191 560.576 248.555C524.377 213.425 472.459 210.8 427.531 193.616C360.382 168.13 365.418 118.806 337.735 62.1572C301.993 -11.0957 203.773 -15.4603 142.577 29.0409C111.48 51.7273 90.508 85.6938 84.1574 123.659C82.5391 135.258 82.7347 147.038 84.7373 158.576Z" fill="#F9F2DC"/>
<path d="M146.912 261.098L64.7773 598.427H88.2488L170.048 261.098H146.912Z" fill="#424242"/>
<path d="M254.873 261.098H231.707L313.537 598.427H337.008L254.873 261.098Z" fill="#424242"/>
<path d="M397.59 32.2188H4.16016V311.526H397.59V32.2188Z" fill="#424242"/>
<path d="M379.303 48.457H22.5V295.32H379.303V48.457Z" fill="#F6DED4"/>
<path d="M105.276 76.5H47.5586V134.217H105.276V76.5Z" fill="white"/>
<path d="M86.206 72.9922H66.6719V79.9817H86.206V72.9922Z" fill="#58AEDB"/>
<path d="M97.5841 91.2695H55.25V95.2069H97.5841V91.2695Z" fill="#C2ADB9"/>
<path d="M97.5841 102.086H55.25V106.023H97.5841V102.086Z" fill="#C2ADB9"/>
<path d="M97.5841 112.852H55.25V116.789H97.5841V112.852Z" fill="#C2ADB9"/>
<path d="M205.631 84.5H147.914V142.217H205.631V84.5Z" fill="white"/>
<path d="M186.558 80.9922H167.023V87.9818H186.558V80.9922Z" fill="#58AEDB"/>
<path d="M197.947 99.2344H155.613V103.172H197.947V99.2344Z" fill="#C2ADB9"/>
<path d="M197.947 119.383H155.613V123.32H197.947V119.383Z" fill="#C2ADB9"/>
<path d="M197.947 130.188H155.613V134.125H197.947V130.188Z" fill="#C2ADB9"/>
<path d="M349.729 78.8828H292.012V136.6H349.729V78.8828Z" fill="white"/>
<path d="M330.655 75.3789H311.121V82.3684H330.655V75.3789Z" fill="#58AEDB"/>
<path d="M336.966 90.9727H304.766V94.91H336.966V90.9727Z" fill="#C2ADB9"/>
<path d="M336.966 101.285H304.766V105.223H336.966V101.285Z" fill="#C2ADB9"/>
<path d="M336.966 111.598H304.766V115.535H336.966V111.598Z" fill="#C2ADB9"/>
<path d="M336.966 121.926H304.766V125.863H336.966V121.926Z" fill="#C2ADB9"/>
<path d="M201.572 167.91H170.043V199.439H201.572V167.91Z" fill="#FF6D5A"/>
<path d="M196.179 174.109H175.516V177.009H196.179V174.109Z" fill="#C73730"/>
<path d="M196.179 180.797H175.516V183.697H196.179V180.797Z" fill="#C73730"/>
<path d="M196.179 187.449H175.516V190.349H196.179V187.449Z" fill="#C73730"/>
<path d="M325.553 167.91H294.023V199.439H325.553V167.91Z" fill="#FF6D5A"/>
<path d="M320.124 174.109H299.461V177.009H320.124V174.109Z" fill="#C73730"/>
<path d="M320.124 180.797H299.461V183.697H320.124V180.797Z" fill="#C73730"/>
<path d="M320.124 187.449H299.461V190.349H320.124V187.449Z" fill="#C73730"/>
<path d="M262.041 140.355H230.512V171.885H262.041V140.355Z" fill="#FFB15F"/>
<path d="M256.636 146.543H235.973V149.443H256.636V146.543Z" fill="#D69431"/>
<path d="M256.636 153.234H235.973V156.134H256.636V153.234Z" fill="#D69431"/>
<path d="M256.636 159.887H235.973V162.786H256.636V159.887Z" fill="#D69431"/>
<path d="M349.724 221.262H217.625V262.131H349.724V221.262Z" fill="#58AEDB"/>
<path d="M338.984 229.477H228.402V233.902H338.984V229.477Z" fill="#5196C2"/>
<path d="M338.984 239.457H228.402V243.883H338.984V239.457Z" fill="#5196C2"/>
<path d="M338.984 249.473H228.402V253.898H338.984V249.473Z" fill="#5196C2"/>
<path d="M126.153 167.434H47.5586V264.341H126.153V167.434Z" fill="white"/>
<path d="M97.9591 164.656H75.7695V170.425H97.9591V164.656Z" fill="#FF6D5A"/>
<path d="M67.3414 179.211H54.7969V191.756H67.3414V179.211Z" fill="#58AEDB"/>
<path d="M84.5211 179.211H71.9766V191.756H84.5211V179.211Z" fill="#C2ADB9"/>
<path d="M101.74 179.211H89.1953V191.756H101.74V179.211Z" fill="#C2ADB9"/>
<path d="M118.92 179.211H106.375V191.756H118.92V179.211Z" fill="#C2ADB9"/>
<path d="M67.3414 199.48H54.7969V212.025H67.3414V199.48Z" fill="#C2ADB9"/>
<path d="M84.5211 199.48H71.9766V212.025H84.5211V199.48Z" fill="#58AEDB"/>
<path d="M101.74 199.48H89.1953V212.025H101.74V199.48Z" fill="#C2ADB9"/>
<path d="M118.92 199.48H106.375V212.025H118.92V199.48Z" fill="#58AEDB"/>
<path d="M67.3414 219.738H54.7969V232.283H67.3414V219.738Z" fill="#C2ADB9"/>
<path d="M84.5211 219.738H71.9766V232.283H84.5211V219.738Z" fill="#C2ADB9"/>
<path d="M101.74 219.738H89.1953V232.283H101.74V219.738Z" fill="#C2ADB9"/>
<path d="M118.92 219.738H106.375V232.283H118.92V219.738Z" fill="#58AEDB"/>
<path d="M67.3414 240.008H54.7969V252.552H67.3414V240.008Z" fill="#58AEDB"/>
<path d="M84.5211 240.008H71.9766V252.552H84.5211V240.008Z" fill="#C2ADB9"/>
<path d="M101.74 240.008H89.1953V252.552H101.74V240.008Z" fill="#58AEDB"/>
<path d="M118.92 240.008H106.375V252.552H118.92V240.008Z" fill="#C2ADB9"/>
<path d="M424.846 206.222C416.728 197.859 410.532 190.655 413.859 178.202C416.3 169.046 420.787 160.591 423.015 151.373C423.041 151.212 423.011 151.046 422.931 150.903C422.851 150.76 422.726 150.647 422.574 150.584C422.423 150.521 422.255 150.51 422.097 150.554C421.939 150.597 421.8 150.692 421.703 150.824C416.27 160.53 409.067 174.723 409.311 186.046C409.494 195.203 415.873 203.139 422.893 208.572C421.624 214.607 420.808 220.728 420.451 226.885C419.345 234.513 418.662 242.196 418.406 249.899C418.406 251.211 420.451 251.577 420.726 250.234C421.916 243.529 422.741 236.763 423.198 229.968C424.311 222.839 424.862 215.634 424.846 208.419C425.123 208.12 425.277 207.728 425.277 207.32C425.277 206.913 425.123 206.521 424.846 206.222Z" fill="#254F79"/>
<path d="M455.487 591.776L445.415 593.272L443.858 577.675C443.858 577.675 436.625 594.676 433.542 595.744C430.459 596.812 400.731 597.545 389.651 594.95C378.572 592.356 378.785 588.998 378.785 588.998C379.945 586.648 388.614 580.757 396.885 578.072C399.143 577.186 401.269 575.994 403.203 574.531C411.286 568.38 418.954 561.702 426.156 554.539H447.796C456.769 565.68 455.487 591.776 455.487 591.776Z" fill="#FFA07F"/>
<path d="M455.487 591.776L445.415 593.272L443.858 577.675C443.858 577.675 436.625 594.676 433.542 595.744C430.459 596.812 400.731 597.545 389.651 594.95C378.572 592.356 378.785 588.998 378.785 588.998C379.945 586.648 388.614 580.757 396.885 578.072C399.143 577.186 401.269 575.994 403.203 574.531C406.042 577.919 409.796 582.284 410.803 583.077C412.482 584.359 427.59 573.249 430.307 571.601C433.023 569.953 439.463 554.539 439.463 554.539H447.765C456.769 565.68 455.487 591.776 455.487 591.776Z" fill="#FF7D6F"/>
<path d="M455.487 591.776L445.415 593.272L443.858 577.675C443.858 577.675 436.625 594.676 433.542 595.744C430.459 596.812 400.731 597.545 389.651 594.95C378.572 592.356 378.785 588.998 378.785 588.998C379.945 586.648 388.614 580.757 396.885 578.072C396.885 578.072 400.761 589.212 408.728 588.998C416.694 588.785 436.899 574.195 439.738 567.145C441.718 562.531 444.44 558.273 447.796 554.539C456.769 565.68 455.487 591.776 455.487 591.776Z" fill="#424242"/>
<path d="M536.253 587.381C536.253 591.105 528.439 603.253 523.769 603.222C519.099 603.192 502.404 592.204 500.359 584.909C499.734 581.24 499.58 577.507 499.901 573.799C499.901 572.975 499.901 572.09 499.901 571.235C500.542 559.026 502.434 544.07 502.434 544.07H523.8C523.8 544.07 529.904 560.918 533.689 574.165C535.028 578.462 535.888 582.895 536.253 587.381Z" fill="#FFA07F"/>
<path d="M536.253 587.381C536.253 591.105 528.439 603.253 523.769 603.222C519.099 603.192 502.404 592.204 500.359 584.909C499.734 581.24 499.58 577.507 499.901 573.799C499.901 572.975 499.901 572.09 499.901 571.235C505.059 574.959 516.657 583.23 517.909 582.955C520.646 581.124 522.672 578.409 523.647 575.264C524.044 572.883 519.16 544.07 519.16 544.07H523.647C523.647 544.07 529.751 560.918 533.536 574.165C534.927 578.456 535.838 582.889 536.253 587.381Z" fill="#FF7D6F"/>
<path d="M536.253 587.375C536.253 591.099 528.439 603.247 523.769 603.216C519.099 603.186 502.404 592.198 500.359 584.903C499.734 581.234 499.58 577.501 499.901 573.793C504.937 579.897 514.49 590.366 521.053 589.268C526.699 588.321 531.094 580.325 533.658 574.159C535.008 578.455 535.878 582.888 536.253 587.375Z" fill="#424242"/>
<path d="M499.934 127.842C499.934 127.842 511.013 163.491 510.433 180.156H409.558C409.334 176.933 409.498 173.695 410.046 170.511C413.495 148.749 430.71 120.974 430.71 120.974C429.534 112.481 429.013 103.909 429.153 95.3355C429.428 86.942 435.837 74.367 440.019 67.0722C442.003 63.5316 443.468 61.2425 443.468 61.2425L444.628 60.6625L457.508 54.2529L480.705 42.7461C481.682 43.0513 482.597 43.4176 483.513 43.7838C505.458 52.9405 510.403 77.2055 510.372 80.9292C510.342 84.6529 499.934 127.842 499.934 127.842Z" fill="#DC5116"/>
<path d="M317.956 186.811C319.444 189.193 321.659 191.034 324.274 192.061C328.791 194.441 333.217 197.341 337.734 199.691L346.311 207.841L356.872 197.646L359.924 194.594L351.408 186.841C352.605 179.415 352.346 171.827 350.645 164.499C349.659 161.669 348.833 158.785 348.173 155.862C347.959 152.049 347.959 148.228 348.173 144.416C348.251 143.529 347.989 142.645 347.44 141.944C347.027 141.58 346.508 141.357 345.959 141.307C345.41 141.258 344.86 141.385 344.388 141.669C343.431 142.271 342.659 143.127 342.16 144.141L341.977 144.477C339.439 148.991 338.443 154.209 339.138 159.341C339.323 159.979 339.323 160.656 339.138 161.294C338.811 161.794 338.344 162.187 337.795 162.424C334.42 163.834 330.669 164.071 327.143 163.095C325.725 162.582 324.189 162.486 322.717 162.821C320.642 163.523 319.665 165.873 319.177 168.009C318.076 172.172 317.411 176.437 317.193 180.737C316.909 182.794 317.172 184.888 317.956 186.811Z" fill="#FF7D6F"/>
<path d="M341.609 195.542L351.285 203.05L359.984 194.657L351.468 186.904C352.665 179.478 352.406 171.889 350.705 164.562C349.718 161.732 348.893 158.848 348.233 155.924C348.019 152.112 348.019 148.291 348.233 144.478C348.311 143.591 348.049 142.707 347.5 142.006C347.087 141.642 346.568 141.419 346.019 141.37C345.47 141.32 344.92 141.447 344.448 141.731C343.491 142.333 342.719 143.189 342.22 144.204L342.037 144.539C342.714 144.313 343.43 144.22 344.143 144.265C345.913 144.723 345.608 147.317 345.303 149.118C345.108 153.513 345.836 157.901 347.439 161.998C349.545 170.178 344.021 187.453 341.609 195.542Z" fill="#FFA07F"/>
<path d="M333.372 179.181C332.804 183.15 333.18 187.197 334.47 190.993C332.239 187.752 330.989 183.938 330.869 180.005C330.837 178.047 331.284 176.111 332.173 174.366C333.061 172.621 334.364 171.12 335.966 169.994C336.553 169.548 337.23 169.235 337.95 169.078C337.95 170.482 335.844 172.13 335.172 173.534C334.286 175.313 333.679 177.218 333.372 179.181Z" fill="#CF4A57"/>
<path d="M317.476 188.089C321.738 189.576 326.312 189.934 330.753 189.127C331.397 187.764 331.839 186.314 332.065 184.823C332.065 184.152 332.279 183.48 332.34 182.748C332.433 181.111 332.433 179.47 332.34 177.834C332.34 177.071 332.34 176.338 332.34 175.605C332.34 173.622 332.004 171.668 331.76 169.867C331.76 169.104 331.546 168.341 331.424 167.609C331.119 165.686 330.783 163.977 330.509 162.725C330.234 161.474 329.99 160.375 329.99 160.375C325.15 160.42 320.371 161.459 315.95 163.427C315.176 165.524 314.723 167.726 314.607 169.959C314.468 176.125 315.44 182.267 317.476 188.089Z" fill="#FFA07F"/>
<path d="M322.473 169.445L324.457 169.751C325.924 169.945 327.402 170.047 328.882 170.056C329.92 170.056 330.897 170.056 331.934 169.873C331.934 169.11 331.721 168.347 331.599 167.614C330.76 167.409 329.898 167.316 329.035 167.339C327.42 167.358 325.828 167.722 324.365 168.408C323.704 168.696 323.071 169.043 322.473 169.445Z" fill="#CF4A57"/>
<path d="M323.664 177.07C323.664 177.07 324.427 177.283 325.526 177.497C326.915 177.767 328.324 177.92 329.738 177.955C330.643 178.004 331.55 178.004 332.454 177.955C332.454 177.192 332.454 176.459 332.454 175.727C331.62 175.489 330.758 175.366 329.891 175.36C328.366 175.341 326.856 175.653 325.465 176.276C324.84 176.48 324.237 176.746 323.664 177.07Z" fill="#CF4A57"/>
<path d="M322.629 184.125C323.27 184.316 323.923 184.469 324.582 184.583C326.072 184.869 327.583 185.023 329.1 185.041C330.121 185.039 331.14 184.967 332.152 184.827C332.152 184.156 332.365 183.484 332.427 182.752C331.37 182.474 330.283 182.33 329.191 182.324C327.601 182.334 326.027 182.645 324.552 183.24C323.886 183.477 323.242 183.773 322.629 184.125Z" fill="#CF4A57"/>
<path d="M314.629 169.874C315.755 168.323 317.163 166.998 318.78 165.968C320.309 165.106 321.953 164.469 323.663 164.075C325.602 163.438 327.594 162.978 329.615 162.702C329.92 162.672 330.226 162.672 330.531 162.702C330.226 161.237 330.012 160.352 330.012 160.352C325.172 160.397 320.394 161.436 315.972 163.404C315.204 165.482 314.752 167.663 314.629 169.874Z" fill="#FFBF90"/>
<path d="M431.187 129.422C431.187 129.422 415.071 132.718 409.821 141.02C408.173 143.645 404.388 209.329 404.388 209.329L387.876 200.172C387.876 200.172 366.083 189.245 359.948 194.586L346.305 207.925C346.305 207.925 346.488 220.5 349.174 225.78C351.86 231.06 380.764 261.247 386.868 261.643C392.973 262.04 406.067 265.398 411.286 260.423C416.505 255.448 433.628 234.845 433.628 234.845L428.562 191.778L431.187 129.422Z" fill="#456997"/>
<path d="M365.851 193.19L357.152 187.391L333.406 209.397L346.958 216.722L365.851 193.19Z" fill="white"/>
<path d="M523.765 544.072H502.399C502.399 544.072 481.827 446.401 476.547 434.986C474.136 429.797 469.191 406.966 464.338 383.434C461.744 370.554 459.241 357.46 457.257 346.807C453.716 346.807 450.206 346.807 447.124 346.807C446.94 357.979 446.727 371.836 446.483 384.502C446.116 402.358 445.72 417.771 445.384 419.603C445.384 419.603 452.923 441.853 455.212 453.543C456.83 462.059 447.52 554.266 447.52 554.266H426.155C426.155 554.266 419.562 437 416.693 428.729C413.474 413.932 411.039 398.976 409.398 383.922C406.071 358.162 403.294 328.616 404.851 315.98C405.339 312.073 406.01 307.587 406.804 302.795C408.025 295.469 409.52 287.534 410.986 279.934H494.219C494.555 281.032 494.921 282.131 495.257 283.26C497.148 289.363 498.636 295.582 499.713 301.879C500.293 305.145 500.72 308.472 501.087 311.799V313.233C501.514 320.742 501.453 352.057 501.361 377.818C501.361 397.566 501.087 414.078 501.087 414.078C501.087 414.078 518.026 446.737 519.034 459.861C519.675 467.034 523.765 544.072 523.765 544.072Z" fill="#FFA07F"/>
<path d="M523.761 544.074H519.244C517.26 522.007 512.559 471.89 510.819 460.993C508.561 446.922 492.964 412.768 492.964 412.768C492.964 412.768 493.483 326.879 492.964 321.355C492.598 317.021 488.447 291.077 486.707 280.211H494.215C494.551 281.31 494.917 282.409 495.253 283.538C497.144 289.64 498.633 295.859 499.709 302.156C500.289 305.422 500.717 308.749 501.083 312.076V313.511C501.51 321.019 501.449 352.335 501.358 378.095C501.358 397.843 501.083 414.355 501.083 414.355C501.083 414.355 518.023 447.014 519.03 460.139C519.671 467.037 523.761 544.074 523.761 544.074Z" fill="#FF7D6F"/>
<path d="M446.758 384.742C446.391 402.597 445.995 418.011 445.659 419.842C445.659 419.842 453.198 442.093 455.487 453.783C457.105 462.299 447.795 554.506 447.795 554.506H439.463L441.935 539.855C441.935 539.855 452.954 463.55 449.413 456.469C445.873 449.388 437.418 417.37 437.418 417.37L441.264 338.684L466.597 337.402L457.44 346.895C453.9 346.895 450.39 346.895 447.307 346.895C447.216 358.218 447.002 372.075 446.758 384.742Z" fill="#FF7D6F"/>
<path d="M527.514 504.816L517.717 506.098L508.194 507.319L485.241 421.857L496.748 506.525C481.975 508.601 418.886 506.525 418.886 506.525C418.886 506.525 398.375 354.434 399.841 329.772C401.563 311.087 404.489 292.531 408.6 274.222C410.218 266.714 411.378 261.8 411.378 261.8L494.642 261.098C494.642 261.098 507.37 295.282 507.553 302.913C507.553 307.4 510.086 408.275 510.086 408.275C510.086 408.275 522.875 436.142 523.76 443.894C524.645 451.647 527.514 504.816 527.514 504.816Z" fill="#FFF5F2"/>
<path d="M527.525 504.821L517.727 506.103C517.422 487.79 517.148 460.32 518.033 454.215C519.406 445.059 499.719 407.211 499.719 407.211C499.719 407.211 499.048 318.392 498.376 309.083C497.705 299.774 486.625 277.31 486.625 277.31L408.52 274.257C410.137 266.749 411.297 261.835 411.297 261.835L494.561 261.133C494.561 261.133 507.289 295.318 507.472 302.948C507.472 307.435 510.005 408.31 510.005 408.31C510.005 408.31 522.794 436.177 523.679 443.93C524.564 451.682 527.525 504.821 527.525 504.821Z" fill="#F6DED4"/>
<path d="M411.379 261.796C416.11 241.011 418.765 195.105 418.765 195.105C417.676 193.851 416.762 192.455 416.049 190.954C413.714 186.406 412.381 181.41 412.139 176.303C411.897 171.196 412.751 166.097 414.645 161.348C419.244 150.256 424.778 139.575 431.188 129.422C431.188 129.422 433.965 129.971 437.964 130.673L441.321 131.223C445.106 131.864 449.409 132.535 453.347 133.054C459.268 133.756 464.274 134.122 465.098 133.329L485.364 134.519L491.164 135.007L492.842 135.16L496.749 135.496L496.566 136.167V136.625V137.205V137.48C496.554 137.591 496.554 137.704 496.566 137.815C496.23 139.067 495.772 140.868 495.254 142.943C493.697 149.048 492.751 194.648 491.591 204.537C489.724 223.454 490.899 242.548 495.07 261.094L411.379 261.796Z" fill="#456997"/>
<path d="M421.055 144.478C410.922 157.572 401.094 178.51 413.547 193.466C417.454 198.166 417.24 197.678 415.714 204.27C414.33 210.375 413.221 216.479 412.387 222.584C410.76 234.538 410.046 246.598 410.251 258.661C410.251 259.065 410.411 259.454 410.698 259.74C410.984 260.026 411.372 260.187 411.777 260.187C412.181 260.187 412.57 260.026 412.856 259.74C413.142 259.454 413.303 259.065 413.303 258.661C413.275 237.816 415.921 217.055 421.178 196.884C421.273 196.524 421.25 196.143 421.113 195.797C420.975 195.451 420.731 195.158 420.414 194.961C401.888 182.539 415.195 159.891 422.49 145.302C422.599 145.112 422.629 144.886 422.571 144.674C422.514 144.462 422.375 144.282 422.185 144.172C421.995 144.063 421.769 144.034 421.557 144.091C421.345 144.148 421.165 144.287 421.055 144.478Z" fill="#254F79"/>
<path d="M496.752 135.502L496.569 136.173V136.631V137.211V137.486C496.557 137.597 496.557 137.71 496.569 137.822C496.233 139.073 495.775 140.874 495.256 142.949C490.896 149.974 485.399 156.225 478.988 161.446L466.779 150.458L453.197 155.738C442.209 149.084 441.599 135.99 441.782 131.32C445.566 131.961 449.87 132.633 453.807 133.152C459.729 133.854 464.734 134.22 465.558 133.426L485.825 134.617L491.624 135.105L493.303 135.258L496.752 135.502Z" fill="#FFF5F2"/>
<path d="M462.017 255.941C462.17 258.993 482.345 255.483 482.345 255.483L485.214 260.367L476.943 262.595L467.786 271.202C467.786 271.202 468.579 273.491 469.709 276.269C469.779 276.535 469.881 276.791 470.014 277.032C470.026 277.102 470.026 277.175 470.014 277.245C470.014 277.551 470.289 277.917 470.441 278.222C470.988 279.538 471.61 280.822 472.303 282.068C472.404 282.193 472.477 282.339 472.517 282.495C472.893 283.122 473.312 283.724 473.768 284.296C474.106 284.767 474.558 285.145 475.081 285.395L483.413 280.359C483.413 280.359 496.049 284.967 498.064 284.632C500.426 283.177 502.582 281.411 504.473 279.382L507.526 276.33L508.594 275.261L506.824 271.599L506.396 270.683L506.213 270.256L506.03 269.828L500.231 257.62L499.407 257.101C498.4 256.49 497.209 255.788 495.866 255.086L493.211 253.682C490.009 251.961 486.591 250.677 483.047 249.867C481.867 249.643 480.656 249.643 479.476 249.867C472.7 250.966 461.865 252.98 462.017 255.941Z" fill="#FFA07F"/>
<path d="M469.777 276.269C469.777 276.635 470.052 276.971 470.205 277.337C470.262 277.27 470.336 277.218 470.418 277.185C471.548 276.269 473.104 275.079 474.813 273.827C476.276 272.687 477.827 271.666 479.453 270.775L480.369 270.378L481.07 270.104L481.681 269.859H480.185H479.117C477.088 270.159 475.161 270.944 473.501 272.149C472.018 273.283 470.756 274.679 469.777 276.269Z" fill="#CF4A57"/>
<path d="M472.484 282.132L472.729 282.528L473.949 281.552C475.079 280.636 476.635 279.446 478.345 278.194C479.821 277.104 481.382 276.134 483.014 275.295L483.9 274.867L484.602 274.623L485.243 274.379H484.541H483.839H482.77C480.741 274.697 478.816 275.492 477.154 276.699C475.594 277.852 474.268 279.292 473.247 280.941C472.97 281.323 472.716 281.72 472.484 282.132Z" fill="#CF4A57"/>
<path d="M438.857 152.991C443.5 158.142 449.496 161.886 456.163 163.796C462.542 165.535 468.372 164.62 474.995 164.467C475.209 164.454 475.421 164.514 475.596 164.638C475.772 164.761 475.9 164.94 475.96 165.145C476.02 165.351 476.009 165.571 475.928 165.769C475.847 165.968 475.701 166.133 475.514 166.237C462.878 173.502 444.412 165.688 436.079 155.219C434.614 153.327 437.3 151.312 438.857 152.991Z" fill="#254F79"/>
<path d="M466.082 129.026C466.098 124.747 465.802 120.473 465.197 116.237L482.839 112.422C482.839 112.422 482.991 117.275 483.327 122.464C483.464 126.317 484.017 130.144 484.975 133.879C485.064 134.117 485.199 134.335 485.372 134.52L465.105 133.33C465.869 132.031 466.211 130.527 466.082 129.026Z" fill="#FFA07F"/>
<path d="M483.329 122.464C479.239 125.213 474.883 127.544 470.327 129.423C468.901 129.594 467.454 129.459 466.084 129.026C466.1 124.747 465.804 120.473 465.199 116.237L482.841 112.422C482.841 112.422 482.994 117.275 483.329 122.464Z" fill="#FF7D6F"/>
<path d="M491.164 135.01C487.013 138.52 477.399 145.632 467.693 145.174C464.309 144.947 461.087 143.637 458.504 141.439C455.92 139.24 454.113 136.269 453.348 132.965C459.269 133.667 464.275 134.033 465.099 133.24L485.365 134.43L491.164 135.01Z" fill="#FFA07F"/>
<path d="M481.557 50.3164C480.916 50.3164 456.346 51.4458 451.035 58.8626C445.724 66.2795 435.011 95.0008 438.948 110.262C442.886 125.523 452.805 125.187 456.407 124.729C460.008 124.271 477.376 120.151 481.984 115.573C486.593 110.994 499.107 84.8674 498.466 77.4506C497.825 70.0337 481.557 50.3164 481.557 50.3164Z" fill="#FFBF90"/>
<path d="M483.016 48.3242C482.344 48.3242 457.804 49.484 452.494 56.9009C447.183 64.3178 436.592 93.1001 440.285 108.422C443.978 123.744 454.142 123.317 457.774 122.89C461.406 122.462 478.712 118.311 483.351 113.733C487.991 109.155 500.444 83.0278 499.833 75.611C499.223 68.1941 483.016 48.3242 483.016 48.3242Z" fill="#FFA07F"/>
<path d="M458.059 97.3744C458.818 97.2739 459.59 97.347 460.317 97.588C458.989 98.9522 457.184 99.7503 455.281 99.8161C455.13 99.8457 454.975 99.8457 454.824 99.8161C454.671 99.7304 454.536 99.6165 454.427 99.4804C453.706 98.5794 453.176 97.5408 452.87 96.4282C452.809 96.2085 452.809 95.9763 452.87 95.7567C452.87 95.0242 453.389 95.3599 453.755 95.7567C454.158 96.1234 454.61 96.4317 455.098 96.6723C456.015 97.1394 457.03 97.3802 458.059 97.3744Z" fill="#FF7D6F"/>
<path d="M455.247 99.3627C454.972 98.8134 454.637 98.3251 454.331 97.8062C453.959 97.1567 453.652 96.4716 453.416 95.7612C456.224 95.0592 457.078 92.7089 457.933 89.9925C458.341 88.7744 458.445 87.4754 458.238 86.2077C458.145 85.5445 457.96 84.8974 457.689 84.2848C457.689 83.9796 457.414 83.6744 457.261 83.3692C457.081 83.0978 456.866 82.8515 456.621 82.6367C456.696 82.8461 456.757 83.0602 456.804 83.2777C456.956 83.8271 457.17 84.346 457.292 84.9259C457.385 85.4917 457.446 86.0624 457.475 86.6351C457.495 87.7833 457.33 88.9272 456.987 90.023C456.644 91.1452 456.072 92.1843 455.308 93.0752C454.439 94.072 453.291 94.7846 452.012 95.1202C452.012 95.1202 452.866 97.5009 452.988 97.6841C453.236 98.1997 453.532 98.6902 453.874 99.1491C454.18 99.6511 454.625 100.054 455.155 100.309C455.334 100.369 455.527 100.369 455.705 100.309L455.522 100.004C455.471 99.7747 455.378 99.5572 455.247 99.3627Z" fill="#FC5B68"/>
<path d="M485.952 101.106C486.898 100.831 492.209 95.8254 494.712 99.8238C497.215 103.822 497.062 109.713 493.613 112.46C490.164 115.207 486.288 117.527 481.984 115.512L485.952 101.106Z" fill="#FFA07F"/>
<path d="M493.862 104.157C493.892 104.956 493.702 105.747 493.313 106.446C491.243 109.435 488.348 111.758 484.98 113.13C486.117 111.767 486.79 110.078 486.903 108.308C486.903 107.697 486.903 107.087 486.903 106.476C487.422 104.157 493.588 99.4562 493.862 104.157Z" fill="#FF7D6F"/>
<path d="M483.383 113.828H483.566L484.085 113.615C484.688 113.324 485.244 112.943 485.733 112.485C486.445 111.836 486.999 111.032 487.351 110.135C487.79 109.05 487.876 107.853 487.595 106.717C487.608 106.564 487.608 106.411 487.595 106.259L487.747 106.076L487.992 105.77L489.09 104.58C489.487 104.244 489.853 103.909 490.22 103.634C490.557 103.354 490.914 103.099 491.288 102.871C491.607 102.698 491.963 102.604 492.326 102.596C492.598 102.626 492.86 102.72 493.089 102.871C493.226 102.978 493.323 103.129 493.363 103.298C493.371 103.349 493.371 103.4 493.363 103.451C493.374 103.4 493.374 103.348 493.363 103.298C493.348 103.116 493.273 102.944 493.15 102.81C492.919 102.551 492.607 102.379 492.265 102.321C491.831 102.267 491.391 102.32 490.983 102.474C490.54 102.667 490.112 102.892 489.701 103.146C489.247 103.427 488.809 103.733 488.388 104.061C487.942 104.415 487.524 104.803 487.137 105.221L486.832 105.557L486.679 105.74L486.496 105.984V106.167C486.483 106.228 486.483 106.29 486.496 106.35V106.656V107.052C486.754 108.053 486.754 109.104 486.496 110.105C486.244 110.944 485.84 111.73 485.306 112.424C484.898 112.902 484.437 113.332 483.932 113.706L483.505 114.011L483.383 113.828Z" fill="#CF4A57"/>
<path d="M445.992 73.2091C448.265 71.9074 450.851 71.253 453.47 71.3168C456.095 72.0188 456.522 74.5827 455.362 74.9184C452.198 74.6015 449.065 74.0298 445.992 73.2091Z" fill="#FF8035"/>
<path d="M483.081 83.6184C480.57 80.4144 477.46 77.7294 473.924 75.7132C469.926 74.2482 467.82 76.4152 469.346 77.6361C473.809 79.8856 478.394 81.8828 483.081 83.6184Z" fill="#FF8035"/>
<path d="M483.106 86.2383C482.237 87.1876 481.077 87.8211 479.809 88.0391C479.653 87.7236 479.43 87.4457 479.156 87.2244C478.882 87.0031 478.563 86.8437 478.222 86.7571C476.513 86.4214 474.682 88.3443 474.132 91.0607C473.583 93.7772 474.498 96.2801 476.177 96.6463C477.856 97.0126 479.718 95.0592 480.298 92.3427C480.417 91.5434 480.417 90.7307 480.298 89.9314C481.527 88.9543 482.493 87.6846 483.106 86.2383Z" fill="#252727"/>
<path d="M476.941 92.1889C478.102 92.8459 479.424 93.1632 480.757 93.1047C482.079 92.9796 483.338 92.4822 484.389 91.6701C483.25 90.9634 481.918 90.6332 480.581 90.7264C479.244 90.8195 477.971 91.3312 476.941 92.1889Z" fill="#FFF5F2"/>
<path d="M449.963 79.7422C450.232 80.7709 450.847 81.676 451.703 82.306C451.931 82.1337 452.194 82.0119 452.473 81.9487C452.751 81.8856 453.041 81.8825 453.321 81.9398C454.694 82.3366 455.335 84.4121 454.725 86.6097C454.114 88.8072 452.527 90.3028 451.154 89.906C449.78 89.5092 449.17 87.4643 449.75 85.2667C449.932 84.6282 450.21 84.021 450.574 83.4659C450.063 82.295 449.853 81.0149 449.963 79.7422Z" fill="#252727"/>
<path d="M452.254 86.5078C451.172 86.5967 450.088 86.3518 449.15 85.806C448.211 85.2603 447.462 84.44 447.004 83.4556C448.07 83.4047 449.129 83.6588 450.056 84.1881C450.993 84.7377 451.756 85.5421 452.254 86.5078Z" fill="#FFF5F2"/>
<path d="M469.074 100.768C469.074 102.05 471.791 103.21 475.179 103.332C478.567 103.454 481.436 102.477 481.466 101.165C481.497 99.8521 478.78 98.7229 475.362 98.6313C471.943 98.5397 469.135 99.4554 469.074 100.768Z" fill="#FF7D6F"/>
<path d="M437.447 88.8935C436.867 89.6871 438.393 91.7321 440.835 93.4108C443.277 95.0895 445.719 95.7915 446.268 94.9979C446.818 94.2043 445.291 92.1593 442.85 90.4806C440.408 88.8019 438.058 88.0083 437.447 88.8935Z" fill="#FF7D6F"/>
<path d="M446.73 104.796C450.519 103.65 454.508 103.329 458.431 103.855C462.354 104.382 466.118 105.743 469.469 107.848C469.469 107.848 463.182 116.303 457.261 115.387C450.271 114.227 446.73 104.796 446.73 104.796Z" fill="#FC5B68"/>
<path d="M447.219 105.16C454.451 104.693 461.705 105.626 468.584 107.907C467.363 109.875 465.597 111.444 463.499 112.425C461.402 113.406 459.065 113.756 456.772 113.432C454.577 113.056 452.526 112.086 450.842 110.628C449.158 109.17 447.905 107.279 447.219 105.16Z" fill="#FFF5F2"/>
<path d="M504.324 85.8387C503.805 87.3648 503.195 88.8909 502.615 90.417C501.668 92.8587 500.722 95.27 499.898 97.4676C497.884 102.656 496.419 106.624 496.419 106.624C496.159 104.217 495.309 101.911 493.946 99.9093C490.894 97.8033 485.705 101.435 485.705 101.435L490.406 82.0844L484.088 78.7575C481.463 77.0178 469.254 73.8435 457.686 71.1576C450.88 69.5704 444.287 68.1053 440.044 67.2202C436.992 66.5487 435.191 66.1824 435.191 66.1824C436.703 61.886 438.476 57.6864 440.502 53.6074L441.265 52.1423C442.283 50.0533 443.716 48.1942 445.477 46.6789C446.614 46.009 447.836 45.4956 449.109 45.1528L449.72 45.0001C450.544 44.7559 451.429 44.5118 452.406 44.2982H453.169L454.695 43.9624C459.302 43.106 463.963 42.5656 468.644 42.3447H472.428C475.215 42.3006 477.998 42.5564 480.73 43.1078C481.708 43.3275 482.653 43.6765 483.538 44.1455C493.122 49.0596 505.362 66.7623 507.193 72.0732C507.207 72.2255 507.207 72.3788 507.193 72.5311C507.21 72.6628 507.21 72.7961 507.193 72.9278C506.974 77.3628 506.004 81.7285 504.324 85.8387Z" fill="#DC5116"/>
<path d="M499.927 127.844C499.927 127.844 511.007 163.494 510.427 180.159H488.878L489.641 178.785C495.134 168.846 497.375 157.436 496.051 146.157C495.074 138.1 492.297 130.194 492.755 122.075C493.338 116.466 494.747 110.974 496.936 105.777C497.974 102.999 499.042 100.191 499.988 97.3831C501.07 94.0843 501.706 90.6559 501.881 87.1887C502.158 83.9713 501.612 80.7363 500.293 77.7886C498.974 74.8408 496.926 72.2777 494.342 70.3406C489.336 67.0747 482.865 67.2883 477.158 65.6096C470.016 63.3815 464.4 57.9791 457.837 54.3775H457.624C455.195 52.9465 452.507 52.0102 449.715 51.6226C446.923 51.2349 444.082 51.4036 441.355 52.1189C442.373 50.03 443.806 48.1708 445.568 46.6555C446.704 45.9855 447.926 45.4722 449.2 45.1293L449.81 44.9767C450.634 44.7325 451.519 44.4884 452.496 44.2747H453.259L454.785 43.9389L458.997 43.237C462.049 42.8097 465.498 42.4739 468.734 42.3213H472.518C475.305 42.2771 478.089 42.533 480.82 43.0843C481.798 43.3041 482.743 43.6531 483.629 44.1221C505.574 53.2787 510.518 77.5438 510.488 81.2675C510.488 83.7092 506.245 101.961 503.132 114.842C501.331 122.137 499.927 127.844 499.927 127.844Z" fill="#FF8035"/>
<path d="M496.391 249.565L511.255 285.458L523.799 273.616L507.379 243.918L496.391 249.565Z" fill="white"/>
<path d="M507.373 243.918C507.373 243.918 504.321 231.068 506 224.873C507.664 220.28 509.856 215.896 512.531 211.809C512.531 211.809 491.166 197.097 483.383 189.955L496.751 135.504C496.751 135.504 514.729 141.608 518.605 145.21C522.482 148.812 559.505 202.073 559.291 215.411C559.108 226.002 554.102 252.861 523.763 273.647L507.373 243.918Z" fill="#456997"/>
<path d="M526.18 209.982C526.025 209.706 525.799 209.476 525.525 209.315C525.252 209.154 524.941 209.069 524.624 209.067L519.527 208.914C520.89 207.957 522.043 206.732 522.915 205.312C522.993 205.182 523.031 205.031 523.023 204.879C523.014 204.727 522.961 204.58 522.869 204.459C522.777 204.337 522.651 204.246 522.507 204.197C522.363 204.148 522.207 204.143 522.06 204.183C518.93 205.24 516.037 206.899 513.544 209.067C513.275 209.275 513.073 209.558 512.966 209.882C512.859 210.205 512.85 210.553 512.942 210.881C513.034 211.209 513.222 211.502 513.481 211.723C513.741 211.943 514.06 212.081 514.399 212.119C517.817 212.363 521.205 212.455 524.624 212.607C524.939 212.611 525.249 212.532 525.522 212.376C525.796 212.22 526.023 211.995 526.18 211.722C526.366 211.47 526.467 211.165 526.467 210.852C526.467 210.539 526.366 210.234 526.18 209.982Z" fill="#254F79"/>
<path d="M502.312 163.945C495.877 172.035 492.351 182.055 492.301 192.392C492.33 192.512 492.398 192.618 492.495 192.695C492.592 192.771 492.712 192.813 492.835 192.813C492.958 192.813 493.078 192.771 493.175 192.695C493.272 192.618 493.34 192.512 493.369 192.392C494.712 187.966 495.841 183.449 497.459 179.115C499.519 174.41 501.821 169.815 504.357 165.349C504.967 164.281 503.319 162.755 502.312 163.945Z" fill="#254F79"/>
<path d="M510.461 80.9833C510.461 83.4251 506.219 101.677 503.105 114.558C503.105 113.55 502.892 112.543 502.861 111.505C503.094 104.671 503.921 97.869 505.333 91.1777C506.727 84.436 505.869 77.4232 502.892 71.2162C498.954 64.4098 491.293 60.7777 483.907 58.0002C476.521 55.2227 468.646 52.8114 463.121 47.2869C461.656 45.8219 460.405 44.2348 458.879 42.8307C461.931 42.4034 465.38 42.0676 468.615 41.915H472.4C475.187 41.8709 477.97 42.1267 480.702 42.6781C481.68 42.8979 482.624 43.2469 483.51 43.7159C505.547 53.0557 510.492 77.2596 510.461 80.9833Z" fill="#FFA049"/>
<path d="M478.473 100.281C477.321 101.321 476.441 102.626 475.909 104.084C475.377 105.541 475.209 107.107 475.421 108.644C476.698 105.569 478.993 103.026 481.922 101.441C480.351 102.86 479.38 104.825 479.205 106.935C479.075 108.993 479.302 111.058 479.877 113.039C479.236 110.536 481.555 106.416 482.929 104.462C484.803 101.941 487.294 99.9438 490.163 98.6632C488.242 97.8904 486.153 97.633 484.102 97.9168C482.052 98.2005 480.111 99.0156 478.473 100.281Z" fill="#DC5116"/>
<path d="M547.449 44.2109L528.617 57.8543L549.922 55.2295L547.449 44.2109Z" fill="#FFB15F"/>
<path d="M519.613 41.0625L521.292 54.1259L525.748 42.8328L519.613 41.0625Z" fill="#FFB15F"/>
<path d="M541.473 70.2773L528.379 68.9648L538.39 75.8629L541.473 70.2773Z" fill="#FFB15F"/>
</svg>
