<svg width="537" height="531" viewBox="0 0 537 531" fill="none" xmlns="http://www.w3.org/2000/svg">
<g clip-path="url(#clip0_4380_36700)">
<g opacity="0.87">
<path d="M490.845 308.56C492.902 297.854 498.679 267.728 488.441 234.968C478.584 203.416 457.335 181.166 441.189 171.864C435.227 168.426 428.59 165.499 421.474 164.651C412.945 163.639 404.534 165.739 395.983 165.739C372.961 165.739 352.996 151.127 338.841 135.797C324.686 120.467 313.023 103.004 293.95 91.6892C278.272 82.376 259.134 78.2089 240.464 74.8252C227.06 72.399 213.264 70.2665 199.969 71.8768C183.562 73.8569 169.309 81.3968 157.08 90.0899C134.863 105.899 117.629 126.179 107.173 148.842C98.7084 167.164 96.119 174.312 89.4713 189.609C60.2802 256.761 18.5989 258.153 16.9778 294.841C15.3458 331.767 55.5801 375.831 81.1698 379.487C84.6841 379.987 94.5849 381.391 103.376 388.409C109.752 393.511 112.015 400.91 113.973 407.873L123.352 441.079C124.548 445.355 125.81 449.728 128.792 453.449C132.61 458.193 138.845 461.337 145.112 463.774C170.277 473.501 200.132 474.012 224.536 465.124C243.815 458.095 261.43 445.268 283.026 447.019C300.195 448.412 314.578 458.813 330.898 463.905C351.418 470.313 373.766 467.996 394.982 465.591C400.89 464.917 406.95 464.21 412.009 461.794C424.238 455.963 426.512 442.765 431.919 432.092C448.577 399.234 480.129 365.778 486.091 332.072C488.289 319.658 489.638 314.903 490.845 308.56Z" fill="#F598D3"/>
</g>
<mask id="mask0_4380_36700" style="mask-type:luminance" maskUnits="userSpaceOnUse" x="-16" y="-13" width="544" height="544">
<path d="M528 -13H-16V531H528V-13Z" fill="white"/>
</mask>
<g mask="url(#mask0_4380_36700)">
<path d="M212.034 343.8C210.261 344.483 208.63 345.49 207.225 346.77C164.608 386.351 154.479 462.457 154.479 462.457C152.14 480.115 152.858 488.917 158.145 495.021C166.556 504.715 181.592 503.235 191.264 496.413C201.557 489.146 208.095 477.493 213.797 465.884C225.344 442.39 234.735 417.897 241.856 392.705C244.87 382.054 247.535 374.111 244.25 364.929C240.213 353.592 229.66 346.335 222.566 344.159C220.586 343.56 216.419 342.276 212.034 343.8Z" fill="#945041"/>
<path d="M236.736 326.458C233.037 321.845 217.054 328.351 209.221 332.485C202.96 335.788 197.217 339.989 192.172 344.954C184.24 352.57 176.94 361.002 171.979 370.827C168.307 378.133 166.023 386.057 165.244 394.197C165.057 395.091 165.2 396.022 165.646 396.819C166.32 397.512 167.227 397.931 168.192 397.994C181.379 400.395 194.605 402.545 207.872 404.446C209.119 404.743 210.426 404.675 211.636 404.25C213.877 403.162 214.302 400.039 214.476 398.984C215.912 390.487 223.278 361.394 228.185 348.229C233.451 334.161 239.217 329.504 236.736 326.458Z" fill="#6974BF"/>
<path d="M327.036 381.945C328.21 383.338 329.612 384.523 331.181 385.449C379.325 413.182 448.348 402.987 448.348 402.987C464.363 400.615 471.718 397.754 475.254 391.552C480.868 381.673 474.666 368.704 465.603 361.915C455.953 354.637 443.745 351.797 431.875 349.675C407.992 345.398 383.776 343.257 359.513 343.278C349.329 343.278 341.604 342.941 334.75 348.152C326.285 354.582 323.478 365.734 323.924 372.556C323.974 375.931 325.06 379.209 327.036 381.945Z" fill="#945041"/>
<path d="M264.052 324.074C252.084 324.738 247.732 323.302 237.94 324.923C232.087 325.902 229.171 326.403 225.972 328.263C218.443 332.615 215.408 341.841 212.916 350.219L197.467 403.705C195.769 409.537 194.061 415.434 193.68 421.505C193.398 426.107 193.876 430.72 193.865 435.333C193.76 440.251 193.371 445.159 192.701 450.032C189.437 478.189 186.064 506.445 178.895 533.873C196.911 543.912 216.161 551.556 236.156 556.612C258.917 562.324 277.348 563.26 295.865 564.228C311.847 565.044 327.862 564.968 343.835 564C341.366 513.136 338.918 461.989 344.804 411.397C344.846 410.116 345.221 408.867 345.892 407.774C347.197 406.055 349.656 405.827 351.81 405.75L393.785 404.249C394.259 404.357 394.752 404.34 395.216 404.2C395.681 404.06 396.102 403.803 396.437 403.452C396.772 403.101 397.011 402.669 397.13 402.199C397.249 401.728 397.243 401.235 397.115 400.767L396.658 337.663C396.723 336.865 396.58 336.063 396.244 335.335C395.859 334.818 395.369 334.388 394.807 334.074C394.245 333.759 393.622 333.566 392.98 333.507C309.204 318.721 276.771 322.812 276.771 322.812C273.159 323.291 268.894 323.802 264.052 324.074Z" fill="#6974BF"/>
<path d="M224.261 203.515C221.602 197.063 220.29 190.136 220.405 183.159C220.521 176.181 222.06 169.301 224.931 162.941C227.801 156.58 231.94 150.873 237.096 146.17C242.251 141.467 248.313 137.867 254.91 135.591C272.873 129.39 292.5 133.546 311.301 136.233C316.741 137.017 322.409 137.702 327.338 140.226C336.238 144.774 341.243 154.37 345.138 163.575C351.415 178.437 356.366 194.202 356.203 210.359C356.039 226.515 350.175 243.129 337.87 253.563" fill="#0C0726"/>
<path d="M300.664 136.492C302.971 125.754 311.631 114.145 321.097 108.563C330.562 102.982 341.508 100.425 352.398 98.9343C363.104 97.4764 374.768 97.1717 383.896 102.971C393.634 109.151 399.041 121.467 409.856 125.394C414.882 127.233 420.398 126.994 425.708 127.745C431.017 128.495 436.675 130.682 439.047 135.48C441.419 140.278 439.493 146.708 435.576 150.614C431.659 154.52 426.252 156.522 420.921 158.013C426.067 160.787 431.268 164.541 432.889 170.177C434.51 175.812 430.397 183.113 424.587 182.482C426.158 189.822 430.151 196.42 435.924 201.217C439.216 204.116 443.294 205.971 447.642 206.548C457.771 207.528 466.138 199.389 475.429 195.179C480.35 192.985 485.679 191.858 491.067 191.871C496.454 191.884 501.778 193.037 506.688 195.255C507.852 195.717 508.881 196.466 509.68 197.431C510.426 198.671 510.803 200.097 510.768 201.544C511.638 216.982 502.423 234.031 487.223 236.871C494.709 239.917 502.368 243.073 508.374 248.491C514.38 253.909 518.525 262.123 516.893 270.044C515.577 276.507 510.637 281.773 504.925 285.048C499.213 288.322 492.696 289.933 486.288 291.489C485.602 297.527 490.422 303.315 489.291 309.288C488.159 315.261 481.947 318.417 476.441 320.799C465.474 325.543 454.17 330.374 442.224 330.733C430.278 331.092 417.363 325.902 412.032 315.207C404.1 320.157 395.788 325.249 386.475 326.141C374.137 327.338 362.234 320.908 352.899 312.748C343.637 304.558 336.114 294.592 330.777 283.44C325.439 272.288 322.395 260.178 321.826 247.827C321.619 242.757 321.826 237.654 321.064 232.595C320.15 226.72 317.909 221.16 315.733 215.644L300.664 136.492Z" fill="#0C0726"/>
<path d="M253.945 313.78C260.778 324.045 263.98 336.301 263.041 348.596C262.781 349.84 262.986 351.137 263.618 352.241C264.388 353.013 265.404 353.49 266.49 353.59C271.389 354.58 276.402 354.884 281.385 354.493C282.585 354.538 283.763 354.152 284.703 353.405C285.318 352.62 285.695 351.677 285.791 350.685C288.402 337.259 290.404 323.735 291.797 310.113" fill="#945041"/>
<g opacity="0.28">
<path d="M289.304 330.089C285.952 332.24 282.399 334.062 278.696 335.529C273.65 337.544 268.201 338.341 262.789 337.857C261.769 329.249 258.731 321.003 253.922 313.79L291.806 310.059C291.146 316.746 290.312 323.423 289.304 330.089Z" fill="#0C0726"/>
</g>
<path d="M218.888 236.663C217.484 233.218 214.983 230.331 211.773 228.45C208.563 226.569 204.822 225.799 201.13 226.259C197.438 226.718 194 228.382 191.349 230.993C188.698 233.603 186.982 237.015 186.466 240.7C185.486 247.63 188.979 254.626 194.082 259.424C199.184 264.222 205.701 267.193 212.208 269.771" fill="#945041"/>
<g opacity="0.09">
<path d="M218.888 236.667C217.484 233.222 214.983 230.335 211.773 228.454C208.563 226.573 204.822 225.803 201.13 226.262C197.438 226.722 194 228.386 191.349 230.997C188.698 233.607 186.982 237.019 186.466 240.704C185.486 247.634 188.979 254.63 194.082 259.428C199.184 264.226 205.701 267.196 212.208 269.775" fill="#0C0726"/>
</g>
<g opacity="0.27">
<path d="M192.32 240.895C194.067 239.763 196.127 239.211 198.206 239.318C200.282 239.397 202.313 239.944 204.148 240.918C205.983 241.892 207.575 243.268 208.804 244.943C210.06 246.605 210.754 248.625 210.784 250.709C209.054 249.545 207.618 248.533 206.171 247.619C204.724 246.705 203.342 245.889 201.916 245.128C200.491 244.366 199.022 243.659 197.467 242.952C195.911 242.244 194.257 241.668 192.32 240.895Z" fill="#0C0726"/>
<path d="M207.257 246.477C206.6 247.33 205.997 248.224 205.451 249.153C205.005 249.882 204.624 250.513 204.211 251.133C203.798 251.753 203.373 252.341 202.862 253.026C202.215 253.889 201.616 254.786 201.067 255.714C200.505 255.324 200.043 254.808 199.718 254.207C199.393 253.606 199.214 252.937 199.195 252.254C199.127 250.909 199.51 249.58 200.283 248.478C201.021 247.356 202.106 246.508 203.373 246.063C204.008 245.825 204.69 245.738 205.364 245.81C206.039 245.881 206.687 246.11 207.257 246.477Z" fill="#0C0726"/>
</g>
<path d="M267.607 168.991C265.126 169.089 238.612 170.601 225.425 189.5C222.771 193.308 220.42 199.053 218.147 211.086C214.745 229.168 211.843 247.334 209.443 265.584C208.55 272.471 207.745 279.521 209.323 286.31C211.793 296.907 219.931 305.666 229.462 311.421C239.056 317.285 249.673 321.279 260.753 323.193C268.662 324.553 280.467 326.599 293.828 323.052C321.735 315.632 334.16 289.716 335.172 287.464C343.136 270.143 340.155 255.03 334.476 226.22C331.135 209.302 329.09 199.629 320.527 190.109C308.559 176.803 291.63 172.505 286.854 171.287C280.594 169.54 274.102 168.766 267.607 168.991Z" fill="#945041"/>
<path d="M331.277 241.376C332.598 237.901 335.026 234.957 338.187 232.999C341.348 231.041 345.065 230.178 348.765 230.543C352.465 230.908 355.942 232.481 358.659 235.019C361.376 237.557 363.182 240.919 363.798 244.586C364.951 251.494 361.622 258.566 356.671 263.506C351.721 268.445 345.247 271.557 338.806 274.299" fill="#945041"/>
<g opacity="0.27">
<path d="M358.066 245.048C356.296 243.952 354.223 243.449 352.148 243.612C350.073 243.742 348.054 244.34 346.244 245.362C344.433 246.383 342.877 247.801 341.692 249.509C340.478 251.205 339.838 253.244 339.864 255.33C341.561 254.111 342.965 253.067 344.39 252.066C345.815 251.065 347.175 250.271 348.59 249.465C350.004 248.66 351.44 247.931 352.942 247.213C354.443 246.495 356.151 245.864 358.066 245.048Z" fill="#0C0726"/>
<path d="M343.281 250.997C343.956 251.837 344.581 252.716 345.153 253.63C345.62 254.348 346.012 254.968 346.436 255.567C346.861 256.165 347.318 256.764 347.829 257.427C348.502 258.276 349.127 259.163 349.7 260.082C350.252 259.679 350.701 259.152 351.011 258.543C351.321 257.935 351.483 257.262 351.485 256.579C351.508 255.231 351.098 253.911 350.314 252.814C349.531 251.717 348.415 250.901 347.133 250.486C346.495 250.267 345.815 250.199 345.147 250.288C344.478 250.377 343.84 250.619 343.281 250.997Z" fill="#0C0726"/>
</g>
<path d="M242.086 286.854C244.783 291.075 248.32 294.697 252.476 297.494C254.82 295.212 257.498 293.3 260.419 291.826C262.316 290.928 264.29 290.2 266.316 289.65C277.123 286.723 288.641 288.051 298.499 293.36C301.606 290.519 303.792 286.813 304.776 282.719C305.658 278.302 304.298 273.254 300.686 270.577C299.304 269.558 297.694 268.893 295.996 268.641C295.194 269.621 294.124 270.347 292.917 270.73C282.364 274.839 271.298 277.482 260.027 278.585C257.624 278.928 255.181 278.884 252.792 278.454C249.114 277.617 246.122 275.256 243.457 272.514L242.238 272.449L241.357 273.384C237.919 276.812 239.475 282.73 242.086 286.854Z" fill="#0C0726"/>
<path d="M252.473 297.494C257.192 300.709 262.599 302.774 268.26 303.522C273.577 304.173 278.972 303.663 284.072 302.024C289.172 300.386 293.856 297.66 297.799 294.034C298.038 293.817 298.267 293.588 298.495 293.349C288.637 288.039 277.119 286.712 266.312 289.639C264.286 290.189 262.313 290.917 260.415 291.815C257.494 293.293 254.816 295.208 252.473 297.494Z" fill="#F598D3"/>
<path d="M243.457 272.473C246.123 275.214 249.115 277.575 252.792 278.413C255.181 278.843 257.624 278.887 260.027 278.544C271.297 277.451 282.363 274.819 292.917 270.721C294.125 270.338 295.195 269.612 295.997 268.632C291.351 267.816 286.009 269.47 281.189 270.656C268.992 273.702 256.241 273.169 243.675 272.483L243.457 272.473Z" fill="white"/>
<path opacity="0.28" d="M261.302 228.059C260.541 231.508 259.942 234.782 259.126 237.992C258.756 239.602 258.365 241.191 257.94 242.757C257.646 244.121 257.127 245.426 256.406 246.62C256.172 247.005 255.842 247.324 255.449 247.545C255.359 247.596 255.264 247.64 255.166 247.675C255.017 247.736 254.865 247.787 254.709 247.828C254.394 247.925 254.056 247.991 253.621 248.078C253.11 248.175 252.605 248.302 252.109 248.459C251.413 248.674 250.777 249.046 250.248 249.547C249.775 250.042 249.405 250.626 249.16 251.266C248.943 251.828 248.804 252.417 248.747 253.017C248.65 254.094 248.803 255.178 249.194 256.185C249.585 257.193 250.202 258.097 250.999 258.827C251.791 259.526 252.778 259.966 253.828 260.089C254.745 260.198 255.675 260.067 256.526 259.709C255.71 259.568 254.928 259.277 254.219 258.849C253.622 258.473 253.128 257.953 252.783 257.337C252.188 256.197 252.063 254.869 252.435 253.637C252.537 253.233 252.775 252.875 253.11 252.626C253.219 252.588 253.332 252.562 253.447 252.549C253.621 252.549 253.98 252.484 254.415 252.441C254.898 252.391 255.377 252.315 255.851 252.212C256.113 252.158 256.363 252.093 256.613 252.016C256.916 251.923 257.214 251.814 257.505 251.69C258.623 251.142 259.578 250.314 260.28 249.285C261.353 247.592 262.04 245.682 262.292 243.693C262.593 241.953 262.764 240.193 262.804 238.427C262.925 234.909 262.416 231.398 261.302 228.059Z" fill="#0C0726"/>
<path d="M260.743 164.233C267.543 179.607 268.576 199.485 256.913 211.583C255.697 212.985 254.137 214.046 252.387 214.662C248.59 215.75 244.499 213.139 242.595 209.646C240.691 206.154 240.528 202.03 240.419 198.092C236.253 205.807 231.647 213.276 226.623 220.461C224.371 223.725 221.934 226.989 218.583 229.035C215.232 231.08 210.684 231.733 207.365 229.59C205.398 228.127 203.888 226.135 203.013 223.845C199.875 216.856 199.274 208.99 201.316 201.606C197.921 206.219 193.526 211.322 187.803 210.974C183.777 210.713 180.459 207.71 178.065 204.446C169.361 192.652 169.046 175.636 176.423 162.993C183.799 150.35 198.183 142.397 212.849 141.929C206.952 134.814 210.151 122.345 218.724 118.886C226.144 115.937 234.881 119.614 240.179 125.588C245.478 131.561 248.078 139.394 250.505 146.999C252.354 144.149 254.356 141.157 257.424 139.71C260.492 138.263 264.931 139.155 266.074 142.354" fill="#0C0726"/>
<path d="M352.757 323.266C368.326 328.205 380.49 339.531 391.24 351.336C401.989 363.141 411.966 375.903 425.207 384.999C438.448 394.094 455.932 399.143 472.132 393.703C475.56 392.539 479.074 390.743 480.836 387.632C482.032 385.283 482.505 382.633 482.196 380.016C481.108 362.053 465.234 349.813 450.307 340.249C425.805 324.56 399.889 310.112 370.948 303.312C365.367 301.995 357.794 301.843 355.042 307.098C352.866 311.276 354.987 317.14 351.277 320.154" fill="#945041"/>
<g opacity="0.28">
<path d="M375.615 328.633C379.282 324.216 379.967 317.917 378.76 312.313C377.552 306.71 374.712 301.597 371.905 296.592L352.321 261.656C350.004 257.544 342.584 250.667 338.525 252.365C337.904 252.703 337.361 253.169 336.932 253.731C336.503 254.294 336.197 254.94 336.034 255.629C334.821 254.346 333.519 253.15 332.139 252.049C328.755 249.362 326.884 247.871 324.773 248.176C321.433 248.655 319.725 253.289 319.496 253.931C318.525 252.909 317.229 252.254 315.83 252.079C314.43 251.904 313.014 252.219 311.82 252.97C310.626 253.721 309.73 254.863 309.283 256.2C308.835 257.538 308.865 258.989 309.367 260.307C308.579 260.164 307.77 260.181 306.989 260.357C306.208 260.533 305.47 260.865 304.819 261.332C304.169 261.799 303.619 262.391 303.202 263.075C302.785 263.759 302.51 264.52 302.393 265.312C301.588 269.261 304.569 272.863 305.45 274.44L324.403 308.44C325.491 310.29 326.503 312.444 325.818 314.457C324.925 317.068 321.683 317.884 318.941 318.156C315.305 318.517 311.647 318.611 307.996 318.439C304.275 318.276 299.053 319.146 299.194 322.867C299.292 325.652 302.578 326.991 305.276 327.654L333.02 334.52C340.81 336.445 348.753 338.393 356.76 337.849C366.378 337.196 373.243 331.005 377.334 327.11" fill="#0C0726"/>
</g>
<path d="M382.208 327.133C385.875 322.716 386.56 316.417 385.363 310.813C384.167 305.21 381.316 300.097 378.509 295.092C371.981 283.45 365.453 271.805 358.925 260.156C356.608 256.044 349.198 249.167 345.129 250.865C344.508 251.203 343.965 251.669 343.536 252.231C343.106 252.794 342.8 253.44 342.638 254.129C341.431 252.843 340.133 251.647 338.754 250.549C335.37 247.862 333.488 246.371 331.377 246.676C328.048 247.155 326.329 251.789 326.1 252.431C325.129 251.409 323.833 250.754 322.434 250.579C321.034 250.404 319.617 250.719 318.424 251.47C317.23 252.221 316.334 253.363 315.886 254.7C315.439 256.038 315.469 257.489 315.971 258.807C315.183 258.663 314.373 258.679 313.591 258.855C312.81 259.032 312.071 259.364 311.421 259.832C310.771 260.301 310.222 260.895 309.807 261.581C309.392 262.267 309.121 263.029 309.008 263.823C308.202 267.761 311.184 271.363 312.065 272.94L330.985 306.875C332.073 308.725 333.096 310.879 332.4 312.892C331.507 315.503 328.276 316.319 325.523 316.591C321.887 316.952 318.229 317.046 314.578 316.874C310.868 316.71 305.635 317.581 305.776 321.302C305.885 324.087 309.16 325.425 311.858 326.089L339.602 332.954C347.392 334.88 355.335 336.828 363.342 336.284C372.96 335.631 379.826 329.44 383.916 325.545" fill="#945041"/>
<g opacity="0.19">
<mask id="mask1_4380_36700" style="mask-type:luminance" maskUnits="userSpaceOnUse" x="305" y="246" width="81" height="91">
<path d="M382.204 327.133C385.871 322.716 386.556 316.417 385.36 310.813C384.163 305.21 381.312 300.097 378.505 295.092C371.977 283.45 365.449 271.805 358.921 260.156C356.604 256.044 349.194 249.167 345.125 250.865C344.504 251.203 343.961 251.669 343.532 252.231C343.103 252.794 342.797 253.44 342.634 254.129C341.428 252.843 340.129 251.647 338.75 250.549C335.366 247.862 333.484 246.371 331.373 246.676C328.044 247.155 326.325 251.789 326.096 252.431C325.125 251.409 323.829 250.754 322.43 250.579C321.03 250.404 319.613 250.719 318.42 251.47C317.226 252.221 316.33 253.363 315.882 254.7C315.435 256.038 315.465 257.489 315.967 258.807C315.179 258.663 314.369 258.679 313.587 258.855C312.806 259.032 312.068 259.364 311.417 259.832C310.767 260.301 310.218 260.895 309.803 261.581C309.389 262.267 309.117 263.029 309.004 263.823C308.199 267.761 311.18 271.363 312.061 272.94L330.981 306.875C332.069 308.725 333.092 310.879 332.396 312.892C331.504 315.503 328.272 316.319 325.52 316.591C321.883 316.952 318.225 317.046 314.574 316.874C310.864 316.71 305.631 317.581 305.772 321.302C305.881 324.087 309.156 325.425 311.854 326.089L339.598 332.954C347.388 334.88 355.331 336.828 363.338 336.284C372.956 335.631 379.822 329.44 383.913 325.545" fill="white"/>
</mask>
<g mask="url(#mask1_4380_36700)">
<path d="M339.415 250.712C345.131 259.344 350.484 268.186 355.474 277.238C355.855 277.934 356.867 277.238 356.475 276.498C351.477 267.446 346.128 258.604 340.427 249.973C339.992 249.309 338.98 250.038 339.415 250.712Z" fill="#0C0726"/>
<path d="M323.257 247.36C330.452 259.618 337.923 271.706 345.67 283.623C346.116 284.298 347.117 283.558 346.682 282.894C338.928 270.984 331.457 258.897 324.269 246.631C323.866 245.935 322.854 246.631 323.257 247.36Z" fill="#0C0726"/>
<path d="M309.865 251.384C319.288 263.536 327.888 276.305 335.607 289.606C336.009 290.302 337.01 289.606 336.619 288.877C328.905 275.573 320.305 262.804 310.877 250.655C310.387 250.013 309.375 250.742 309.865 251.384Z" fill="#0C0726"/>
<path d="M340.762 308.462C346.233 306.066 352.204 305.03 358.162 305.443C364.121 305.856 369.891 307.706 374.98 310.834C375.665 311.248 376.177 310.116 375.502 309.746C370.26 306.546 364.324 304.657 358.197 304.24C352.069 303.824 345.932 304.891 340.305 307.353C339.576 307.668 340.022 308.832 340.762 308.506V308.462Z" fill="#0C0726"/>
</g>
</g>
<path d="M237.503 370.577C228.19 384.035 225.535 400.442 224.306 416.36C223.077 432.277 223.033 448.478 218.17 463.786C213.306 479.094 202.611 493.826 186.455 499.45C183.049 500.636 179.165 501.376 175.836 500.027C173.44 498.921 171.426 497.13 170.047 494.881C159.907 480.008 164.89 460.62 170.809 443.908C180.503 416.48 192.09 389.16 210.75 366.029C214.351 361.557 220.226 356.792 225.633 359.24C229.985 361.187 231.846 367.128 236.622 367.226" fill="#945041"/>
<path d="M226.341 328.055C227.745 329.263 229.409 331.472 234.284 356.039C234.284 356.039 239.049 377.94 236.46 390.789C236.357 391.61 236.075 392.397 235.633 393.096C235.37 393.459 235.036 393.765 234.65 393.993C234.265 394.221 233.836 394.368 233.392 394.423C225.884 395.62 222.087 396.229 219.345 393.129C215.342 388.602 218.344 381.574 215.287 366.266C211.621 347.868 203.526 339.186 205.832 332.647C206.757 330.025 209.096 329.306 213.905 327.892C219.128 326.336 222.99 325.183 226.341 328.055Z" fill="#F7EDFF"/>
<g opacity="0.06">
<path d="M209.978 348.878C217.659 348.626 225.348 348.961 232.978 349.879C229.007 330.665 227.484 328.718 226.211 327.619C222.849 324.746 218.976 325.9 213.775 327.445C209.01 328.881 206.638 329.621 205.713 332.199C204.255 336.247 206.899 341.24 209.978 348.878Z" fill="#F7EDFF"/>
</g>
<path d="M205.191 340.959C209.835 340.789 214.481 341.232 219.009 342.275C226.146 343.929 230.107 346.475 232.772 344.451C233.164 344.147 233.643 343.657 235.547 337.444C236.635 333.811 237.211 332.004 237.636 330.133C238.698 325.091 239.191 319.945 239.104 314.792C239.017 303.129 238.93 289.834 231.695 285.851C229.519 284.644 228.888 285.536 219.727 284.241C214.581 283.512 210.446 282.62 207.759 282C212.085 301.538 211.2 321.87 205.191 340.959Z" fill="#F54C40"/>
<path d="M63.9023 377.017C87.3558 361.91 113.373 351.217 140.672 345.465C157.9 341.819 175.484 340.126 193.091 340.416C197.117 340.482 201.15 340.656 205.19 340.939C211.215 321.851 212.115 301.515 207.801 281.969C179.766 277.914 153.023 267.521 129.607 251.581C112.105 239.605 96.7948 224.707 84.3459 207.539C84.5998 233.742 83.2883 259.937 80.4182 285.984C77.0532 316.678 71.5343 347.097 63.9023 377.017Z" fill="#F7EDFF"/>
<path d="M54.373 379.499C59.2799 379.956 64.2955 377.617 69.148 373.025C82.5195 360.307 94.5202 330.332 99.0027 294.689C103.17 261.81 99.8949 232.51 91.5826 216.506C87.6549 208.89 82.5522 204.244 76.5899 203.7C58.0939 201.992 38.0639 239.963 31.9819 288.564C25.9 337.165 35.8335 377.791 54.373 379.499Z" fill="#F54C40"/>
<path opacity="0.39" d="M57.898 367.061C69.1806 364.656 84.4234 334.573 89.1127 293.632C94.5527 246.51 83.6727 216.112 73.4782 215.067C72.8706 215.007 72.2573 215.044 71.6612 215.176C60.3678 217.581 45.1249 247.664 40.4356 288.605C34.9956 335.726 45.8756 366.125 56.0702 367.17C56.6813 367.235 57.299 367.198 57.898 367.061Z" fill="#0C0726"/>
<path opacity="0.41" d="M86.2721 295.148C88.6558 279.179 86.1655 265.574 80.7098 264.759C75.2541 263.945 68.899 276.23 66.5153 292.199C64.1316 308.168 66.6219 321.773 72.0776 322.588C77.5333 323.402 83.8884 311.117 86.2721 295.148Z" fill="#0C0726"/>
<g opacity="0.06">
<path d="M63.9023 377.018C87.3558 361.911 113.373 351.217 140.672 345.466C157.9 341.82 175.484 340.127 193.091 340.417C197.117 340.483 201.15 340.657 205.19 340.94C214.435 341.54 223.635 342.703 232.738 344.421C236.796 335.304 239.506 325.294 239.059 314.817C229.398 316.427 219.66 317.558 209.879 318.331C167.164 321.595 123.394 317.504 80.0265 313.25C78.2531 342.028 72.2691 365.322 63.9023 377.018Z" fill="#0C0726"/>
</g>
<path d="M237.918 380.859C241.433 378.552 242.118 373.852 242.27 372.46C242.401 371.6 243.228 368.749 240.725 361.188C239.72 358.483 238.873 355.722 238.19 352.919C237.102 347.577 237.82 341.974 236.439 336.697C236.282 335.82 235.874 335.007 235.264 334.358C233.566 332.824 230.651 334.271 229.824 336.381C228.997 338.492 229.356 340.886 229.399 343.171C229.563 351.015 225.276 358.5 225.798 366.334C226.133 369.429 226.841 372.473 227.909 375.397C228.551 377.399 228.812 378.868 230.085 380.119C231.314 381.321 232.968 381.99 234.687 381.98C235.848 381.918 236.968 381.53 237.918 380.859Z" fill="#945041"/>
<path d="M192.44 344.268C196.727 337.74 211.154 338.186 219.444 344.181C220.848 345.193 224.667 347.847 223.796 350.198C223.154 351.949 221.098 352.667 219.292 353.157C220.395 353.338 221.412 353.866 222.194 354.664C222.977 355.462 223.484 356.489 223.643 357.595C223.802 358.702 223.604 359.83 223.078 360.816C222.552 361.803 221.725 362.595 220.717 363.079C221.975 363.123 223.179 363.601 224.124 364.433C225.069 365.264 225.696 366.398 225.899 367.64C226.102 368.882 225.868 370.156 225.236 371.245C224.605 372.334 223.615 373.17 222.436 373.611C224.003 374.917 225.7 376.756 225.08 378.67C224.625 379.669 223.831 380.475 222.839 380.944C218.001 383.838 212.437 385.288 206.802 385.122C205.082 385.171 203.379 384.77 201.862 383.958C199.034 382.217 198.185 378.975 197.728 377.31C193.147 360.773 188.458 355.3 191.45 346.466C191.683 345.693 192.016 344.954 192.44 344.268Z" fill="#945041"/>
<g opacity="0.17">
<mask id="mask2_4380_36700" style="mask-type:luminance" maskUnits="userSpaceOnUse" x="191" y="339" width="36" height="47">
<path d="M193.069 344.264C197.356 337.736 211.794 338.193 220.073 344.177C221.477 345.189 225.296 347.854 224.425 350.204C223.783 351.956 221.727 352.663 219.932 353.164C221.034 353.346 222.05 353.875 222.831 354.674C223.612 355.473 224.118 356.5 224.276 357.607C224.434 358.713 224.235 359.84 223.708 360.826C223.181 361.811 222.354 362.603 221.346 363.086C222.605 363.127 223.811 363.604 224.757 364.435C225.704 365.265 226.333 366.399 226.537 367.642C226.741 368.884 226.508 370.16 225.877 371.25C225.246 372.339 224.256 373.177 223.076 373.618C224.632 374.924 226.34 376.762 225.709 378.677C225.254 379.676 224.46 380.482 223.468 380.951C218.63 383.845 213.066 385.295 207.431 385.129C205.71 385.174 204.007 384.769 202.491 383.954C199.662 382.224 198.814 378.982 198.357 377.306C193.776 360.769 189.087 355.307 192.079 346.473C192.313 345.697 192.646 344.955 193.069 344.264Z" fill="white"/>
</mask>
<g mask="url(#mask2_4380_36700)">
<path d="M225.398 351.053C218.747 352.68 211.85 353.049 205.064 352.141C204.863 352.115 204.66 352.17 204.5 352.293C204.34 352.416 204.235 352.598 204.209 352.799C204.183 353 204.238 353.202 204.362 353.362C204.485 353.523 204.667 353.627 204.868 353.653C211.766 354.58 218.777 354.211 225.54 352.565C226.464 352.337 226.323 350.846 225.376 351.075L225.398 351.053Z" fill="#0C0726"/>
<path d="M224.971 360.847C217.005 363.824 208.474 364.984 200.002 364.242C199.044 364.155 198.794 365.645 199.762 365.721C208.505 366.494 217.31 365.308 225.537 362.251C225.721 362.178 225.87 362.037 225.95 361.856C226.03 361.675 226.035 361.47 225.965 361.285C225.895 361.1 225.755 360.95 225.575 360.868C225.395 360.786 225.19 360.779 225.004 360.847H224.971Z" fill="#0C0726"/>
<path d="M226.134 371.875C219.133 375.611 211.188 377.208 203.286 376.467C202.329 376.38 202.09 377.859 203.047 377.946C211.227 378.75 219.462 377.122 226.722 373.268C227.571 372.822 227.037 371.418 226.178 371.875H226.134Z" fill="#0C0726"/>
</g>
</g>
<g opacity="0.12">
<path d="M266.674 426.454C271.603 448.214 290.871 461.02 311.87 464.774C315.025 465.339 315.819 460.422 312.653 459.845C294.092 456.526 276.042 445.385 271.636 425.91C270.928 422.82 265.967 423.321 266.674 426.454Z" fill="#0C0726"/>
</g>
<g opacity="0.31">
<path d="M193.689 369.051C195.027 379.746 199.064 395.435 213.131 393.716C213.442 393.658 213.719 393.486 213.907 393.232C214.096 392.979 214.181 392.663 214.147 392.349C214.112 392.036 213.961 391.746 213.722 391.54C213.483 391.333 213.175 391.224 212.859 391.235C200.347 392.759 197.323 378.038 196.169 368.768C196.112 368.456 195.939 368.177 195.684 367.988C195.429 367.799 195.112 367.714 194.797 367.75C194.482 367.786 194.192 367.941 193.986 368.182C193.781 368.424 193.674 368.734 193.689 369.051Z" fill="#0C0726"/>
</g>
<g opacity="0.31">
<path d="M195.954 386.141C186.097 408.663 170.615 429.161 167.187 454.054C167.162 454.216 167.168 454.381 167.206 454.54C167.244 454.699 167.313 454.849 167.409 454.981C167.505 455.113 167.626 455.225 167.765 455.311C167.905 455.396 168.06 455.454 168.221 455.479C168.382 455.505 168.547 455.499 168.706 455.461C168.865 455.423 169.015 455.354 169.148 455.258C169.28 455.162 169.392 455.041 169.478 454.901C169.563 454.762 169.621 454.607 169.646 454.446C173.041 429.792 188.458 409.479 198.217 387.175C198.354 386.875 198.366 386.532 198.251 386.223C198.136 385.914 197.903 385.664 197.602 385.527C197.302 385.389 196.96 385.377 196.651 385.492C196.342 385.608 196.091 385.841 195.954 386.141Z" fill="#0C0726"/>
</g>
<g opacity="0.31">
<path d="M372.797 337.013C394.61 362.959 424.257 381.121 457.28 388.769C458.847 389.139 459.238 386.67 457.672 386.311C425.293 378.794 396.224 360.986 374.82 335.555C373.798 334.326 371.763 335.784 372.797 337.013Z" fill="#0C0726"/>
</g>
<g opacity="0.31">
<path d="M347.22 408.054L346.132 387.752C346.045 386.142 343.575 386.425 343.662 388.024C344.025 394.792 344.388 401.559 344.75 408.326C344.837 409.926 347.318 409.654 347.231 408.054H347.22Z" fill="#0C0726"/>
</g>
<g opacity="0.31">
<path d="M348.34 408.98L355.673 391.953C355.787 391.655 355.784 391.325 355.663 391.03C355.542 390.736 355.313 390.498 355.023 390.366C354.733 390.234 354.403 390.218 354.101 390.321C353.8 390.424 353.549 390.638 353.399 390.919C350.962 396.584 348.521 402.26 346.077 407.947C345.933 408.247 345.914 408.592 346.024 408.906C346.134 409.22 346.365 409.478 346.665 409.622C346.965 409.766 347.31 409.785 347.624 409.675C347.938 409.565 348.196 409.335 348.34 409.035V408.98Z" fill="#0C0726"/>
</g>
<path d="M235.428 247.947C241.745 247.284 246.224 240.633 245.433 233.091C244.641 225.55 238.879 219.973 232.562 220.636C226.246 221.299 221.767 227.95 222.558 235.492C223.349 243.033 229.111 248.61 235.428 247.947Z" fill="white"/>
<path d="M294.679 254.092C304.56 253.094 311.859 245.249 310.983 236.57C310.106 227.89 301.385 221.664 291.504 222.662C281.623 223.66 274.324 231.505 275.201 240.184C276.077 248.863 284.798 255.09 294.679 254.092Z" fill="white"/>
<path d="M277.076 236.262C279.236 232.795 282.338 230.014 286.02 228.243C289.307 226.694 292.982 226.164 296.573 226.72C298.374 226.987 300.133 227.484 301.807 228.2C302.657 228.56 303.483 228.978 304.276 229.451C304.679 229.68 305.06 229.93 305.441 230.191C305.859 230.458 306.262 230.749 306.648 231.061C308.324 232.291 310.337 234.075 313.176 234.51C314.54 234.688 315.924 234.4 317.104 233.694C317.662 233.355 318.144 232.903 318.518 232.367C318.846 231.847 319.009 231.24 318.986 230.626C318.71 231.038 318.338 231.377 317.902 231.614C317.466 231.851 316.98 231.979 316.484 231.986C315.625 232.029 314.772 231.825 314.025 231.399C312.548 230.247 311.253 228.879 310.184 227.34C308.623 225.432 306.715 223.837 304.559 222.64C303.466 222.032 302.323 221.519 301.143 221.106C299.946 220.715 298.72 220.421 297.476 220.225C294.959 219.858 292.395 219.984 289.926 220.595C287.472 221.215 285.178 222.346 283.191 223.913C281.274 225.429 279.701 227.335 278.578 229.505C277.487 231.585 276.969 233.917 277.076 236.262Z" fill="#0C0726"/>
<path d="M245.393 234.065C246.08 232.636 246.375 231.05 246.249 229.469C246.123 227.888 245.58 226.369 244.675 225.067C243.742 223.612 242.488 222.392 241.008 221.498C238.716 220.15 236.06 219.554 233.411 219.794C230.763 220.034 228.256 221.098 226.244 222.837C225.786 223.273 225.361 223.742 224.971 224.24C224.688 224.578 224.612 224.784 224.21 224.991C223.669 225.215 223.075 225.282 222.498 225.184C221.92 225.085 221.382 224.826 220.946 224.436C220.933 225.327 221.234 226.194 221.797 226.885C222.361 227.575 223.149 228.045 224.025 228.211C224.551 228.344 225.095 228.388 225.635 228.342C226.167 228.284 226.69 228.16 227.191 227.972C228.105 227.635 228.779 227.243 229.28 227.069C231.168 226.378 233.189 226.132 235.188 226.351C237.153 226.54 239.032 227.254 240.628 228.418C242.655 229.881 244.292 231.82 245.393 234.065Z" fill="#0C0726"/>
<path d="M280.656 239.123C281.494 247.066 286.923 253.006 292.787 252.397C298.651 251.787 302.721 244.781 301.894 236.893C301.067 229.005 295.627 223.01 289.762 223.63C283.898 224.25 279.818 231.181 280.656 239.123Z" fill="#0C0726"/>
<path d="M230.018 234.097C229.746 241.648 233.348 247.915 238.07 248.078C242.791 248.241 246.774 242.257 247.1 234.707C247.426 227.156 243.771 220.889 239.049 220.726C234.327 220.563 230.29 226.547 230.018 234.097Z" fill="#0C0726"/>
<g opacity="0.15">
<path d="M274.692 225.911C276.128 223.296 278.309 221.167 280.959 219.796C281.742 219.394 282.232 220.667 281.459 221.069C279.125 222.299 277.205 224.192 275.943 226.509C275.519 227.282 274.268 226.727 274.692 225.955V225.911Z" fill="#0C0726"/>
</g>
<g opacity="0.13">
<path d="M248.601 224.188C247.399 221.681 245.303 219.714 242.726 218.672C241.91 218.334 242.476 217.083 243.292 217.42C246.19 218.617 248.537 220.852 249.874 223.687C250.255 224.482 248.971 224.982 248.601 224.188Z" fill="#0C0726"/>
</g>
<path d="M252.278 212.968C248.394 203.698 237.253 200.434 229.615 207.528C228.299 208.736 229.931 211.021 231.258 209.802C237.525 204.003 246.414 206.233 249.656 214.002C250.352 215.666 252.974 214.665 252.278 212.99V212.968Z" fill="#0C0726"/>
<path d="M279.088 211.532C283.815 207.928 289.732 206.245 295.649 206.822C301.566 207.399 307.046 210.194 310.988 214.644C312.152 215.939 314.382 214.35 313.164 213.045C308.788 208.014 302.666 204.831 296.034 204.139C289.403 203.446 282.755 205.295 277.434 209.313C277.206 209.546 277.069 209.852 277.046 210.177C277.024 210.502 277.118 210.825 277.312 211.087C277.506 211.349 277.787 211.533 278.104 211.607C278.421 211.68 278.755 211.639 279.044 211.489L279.088 211.532Z" fill="#0C0726"/>
<path d="M294.528 234.045C294.713 235.851 297.129 237.08 299.903 236.787C302.677 236.493 304.788 234.796 304.603 232.99C304.418 231.183 302.003 229.965 299.218 230.248C296.432 230.531 294.332 232.239 294.528 234.045Z" fill="white"/>
<path d="M226.255 231.301C226.44 233.108 228.844 234.337 231.63 234.043C234.415 233.749 236.515 232.052 236.33 230.246C236.145 228.44 233.729 227.211 230.944 227.504C228.159 227.798 226.059 229.495 226.255 231.301Z" fill="white"/>
<path d="M295.878 239.472C296.074 240.277 296.008 241.039 295.704 241.191C295.399 241.343 295.007 240.81 294.801 240.016C294.594 239.222 294.681 238.438 294.975 238.297C295.269 238.155 295.671 238.667 295.878 239.472Z" fill="white"/>
<path d="M235.789 236.9C235.83 237.306 235.99 237.689 236.25 238.003C236.509 238.317 236.856 238.547 237.246 238.663C237.636 238.78 238.052 238.778 238.441 238.658C238.83 238.538 239.175 238.305 239.431 237.989C239.688 237.673 239.845 237.288 239.882 236.882C239.92 236.477 239.836 236.069 239.642 235.711C239.447 235.354 239.151 235.062 238.791 234.872C238.43 234.683 238.022 234.605 237.617 234.648C237.349 234.675 237.088 234.755 236.851 234.883C236.614 235.011 236.404 235.185 236.235 235.394C236.065 235.604 235.938 235.844 235.861 236.103C235.785 236.361 235.76 236.632 235.789 236.9Z" fill="white"/>
<path d="M261.085 168.414C255.645 177.379 279.647 204.971 305.987 220.051C315.785 225.643 326.333 229.806 337.311 232.41C338.943 228.624 340.575 224.729 340.792 220.606C341.064 214.959 339.019 209.726 333.448 201.772C327.149 192.807 319.914 182.515 305.715 174.921C290.45 166.771 265.611 160.929 261.085 168.414Z" fill="#0C0726"/>
<g opacity="0.27">
<path d="M312.055 135.809C316.283 137.398 320.361 139.36 324.24 141.673C328.092 144.022 331.732 146.701 335.12 149.681C345.421 158.661 353.095 170.267 357.326 183.262C361.556 196.257 362.184 210.156 359.143 223.48C360.001 219.05 360.463 214.554 360.525 210.043C360.771 198.796 358.59 187.629 354.128 177.302C349.667 166.976 343.032 157.732 334.674 150.203C331.348 147.183 327.77 144.453 323.979 142.043C320.2 139.61 316.209 137.523 312.055 135.809Z" fill="white"/>
<path d="M247.601 151.409C245.567 148.639 242.895 146.4 239.811 144.881C238.268 144.187 236.583 143.87 234.893 143.957C233.222 144 231.596 144.504 230.193 145.415C228.805 146.316 227.807 147.706 227.397 149.31C226.983 150.906 227.113 152.594 227.767 154.108C228.11 154.852 228.577 155.533 229.149 156.12C229.49 156.484 229.73 156.93 229.845 157.415C229.956 157.944 229.854 158.495 229.562 158.949C228.355 160.603 226.407 160.908 224.927 161.528C221.807 162.795 219.066 164.846 216.97 167.482C214.873 170.117 213.492 173.249 212.959 176.575C212.822 177.376 212.775 178.19 212.818 179.001C212.838 179.362 212.949 179.712 213.139 180.02C213.329 180.328 213.592 180.583 213.906 180.764C215.353 181.442 216.998 181.566 218.53 181.112C221.794 180.339 224.514 178.207 227.158 176.085L227.985 175.422L227.876 176.51C227.643 178.258 227.577 180.025 227.68 181.786C227.785 183.508 228.369 185.166 229.366 186.574C229.845 187.269 230.476 187.846 231.211 188.261C231.947 188.676 232.767 188.917 233.61 188.967C235.337 188.946 237.003 188.323 238.321 187.205C239.705 186.106 240.935 184.825 241.976 183.397C243.064 181.993 244.098 180.524 245.066 179.045C246.988 176.03 248.623 172.843 249.951 169.525C248.724 172.893 247.183 176.138 245.349 179.219C244.424 180.764 243.445 182.265 242.379 183.712C241.339 185.203 240.098 186.543 238.691 187.694C237.274 188.931 235.468 189.631 233.588 189.674C232.635 189.638 231.703 189.384 230.863 188.932C230.024 188.479 229.3 187.84 228.746 187.063C227.624 185.556 226.96 183.759 226.831 181.884C226.711 180.07 226.765 178.248 226.995 176.444L227.713 176.836C225.058 179.012 222.273 181.188 218.747 182.08C217.871 182.287 216.972 182.386 216.071 182.374C215.126 182.365 214.2 182.11 213.384 181.634C212.958 181.369 212.599 181.009 212.335 180.583C212.071 180.156 211.908 179.674 211.86 179.175C211.8 178.273 211.851 177.367 212.013 176.477C212.599 173.006 214.062 169.741 216.263 166.994C218.464 164.246 221.33 162.106 224.59 160.777L225.83 160.331C226.222 160.2 226.614 160.059 226.984 159.896C227.708 159.622 228.347 159.16 228.833 158.558C229.01 158.26 229.075 157.91 229.017 157.569C228.959 157.229 228.782 156.919 228.518 156.697C227.911 156.038 227.422 155.28 227.071 154.456C226.378 152.786 226.263 150.932 226.744 149.19C227.232 147.444 228.353 145.943 229.889 144.979C231.403 144.084 233.119 143.584 234.878 143.525C236.636 143.466 238.381 143.85 239.953 144.642C243.006 146.255 245.629 148.575 247.601 151.409Z" fill="white"/>
<path d="M428.875 296.527C431.726 299.237 434.565 301.967 437.644 304.405C440.645 306.908 444.009 308.941 447.621 310.432C449.349 311.244 451.24 311.649 453.148 311.618C454.038 311.575 454.882 311.216 455.531 310.606C456.142 309.94 456.549 309.113 456.706 308.223C457.128 306.363 457.175 304.436 456.845 302.557C456.514 300.678 455.812 298.883 454.78 297.278L453.692 295.581L455.433 296.604C458.077 298.159 460.873 299.748 463.832 299.781C465.31 299.802 466.76 299.373 467.989 298.551C468.593 298.15 469.097 297.616 469.463 296.99C469.828 296.364 470.046 295.662 470.099 294.939C470.17 293.43 469.844 291.93 469.153 290.587C468.467 289.214 467.635 287.919 466.672 286.725C464.722 284.31 462.301 282.319 459.557 280.871C462.409 282.177 464.947 284.08 466.998 286.453C468.048 287.632 468.947 288.936 469.675 290.337C470.433 291.765 470.808 293.366 470.763 294.982C470.717 295.817 470.483 296.63 470.077 297.361C469.672 298.092 469.107 298.722 468.424 299.204C467.064 300.151 465.446 300.656 463.789 300.651C460.46 300.651 457.576 298.954 454.911 297.387L455.553 296.712C456.676 298.418 457.436 300.337 457.786 302.349C458.136 304.361 458.068 306.424 457.587 308.408C457.401 309.461 456.918 310.439 456.195 311.226C455.393 311.974 454.352 312.414 453.257 312.467C451.213 312.5 449.189 312.053 447.349 311.161C443.704 309.56 440.328 307.406 437.34 304.774C434.367 302.185 431.541 299.431 428.875 296.527Z" fill="white"/>
<path d="M327.569 126.365C330.477 122.755 333.962 119.652 337.883 117.182C341.836 114.723 346.144 112.889 350.656 111.742C355.185 110.619 359.869 110.252 364.517 110.654C365.682 110.654 366.835 110.926 367.988 111.089C369.22 111.199 370.406 111.614 371.437 112.297C372.005 112.72 372.393 113.341 372.525 114.037C372.632 114.738 372.46 115.453 372.046 116.029C371.269 116.984 370.268 117.732 369.13 118.205V117.378C370.947 118.596 373.33 118.651 375.658 119.031C376.894 119.128 378.084 119.537 379.118 120.22C380.151 120.903 380.994 121.838 381.566 122.937C381.84 123.536 381.938 124.2 381.849 124.852C381.745 125.51 381.45 126.123 381.001 126.615C380.084 127.456 378.956 128.032 377.737 128.279L371.002 130.107V129.596C372.12 129.9 373.211 130.293 374.266 130.771C375.353 131.261 376.306 132.007 377.04 132.947C377.385 133.43 377.631 133.977 377.763 134.556C377.896 135.135 377.913 135.734 377.813 136.32C377.752 136.905 377.52 137.459 377.147 137.913C376.773 138.368 376.275 138.703 375.713 138.877C376.254 138.683 376.727 138.334 377.071 137.874C377.416 137.413 377.617 136.861 377.65 136.287C377.723 135.729 377.686 135.163 377.541 134.619C377.395 134.076 377.144 133.567 376.801 133.121C376.065 132.261 375.132 131.593 374.081 131.173C373.02 130.735 371.929 130.372 370.817 130.085L369.914 129.846L370.817 129.574L377.497 127.594C378.57 127.35 379.558 126.824 380.359 126.071C380.692 125.69 380.904 125.218 380.968 124.717C381.032 124.215 380.945 123.705 380.718 123.253C380.233 122.28 379.477 121.467 378.542 120.914C377.588 120.35 376.522 120.001 375.419 119.891C373.243 119.532 370.686 119.532 368.532 118.15L367.836 117.704L368.586 117.323C369.574 116.905 370.442 116.247 371.111 115.408C371.245 115.226 371.342 115.019 371.395 114.798C371.447 114.578 371.455 114.349 371.418 114.126C371.38 113.903 371.298 113.689 371.176 113.498C371.054 113.307 370.895 113.143 370.708 113.015C369.807 112.411 368.773 112.038 367.694 111.927C366.606 111.753 365.453 111.535 364.311 111.47C359.762 111.044 355.173 111.375 350.732 112.449C341.721 114.485 333.577 119.299 327.449 126.212L327.569 126.365Z" fill="white"/>
<path d="M432.418 207.41C433.906 210.052 436.234 212.12 439.033 213.285C441.801 214.461 444.702 215.294 447.672 215.766C450.631 216.266 453.634 216.723 456.615 217.028C459.585 217.393 462.588 217.393 465.558 217.028C471.477 216.169 476.874 213.198 482.858 211.795C483.598 211.621 484.359 211.479 485.11 211.36C485.947 211.164 486.824 211.228 487.623 211.545C487.849 211.651 488.05 211.802 488.215 211.989C488.38 212.176 488.504 212.395 488.581 212.633C488.69 213.108 488.636 213.606 488.428 214.047C488.045 214.766 487.536 215.411 486.927 215.951C484.763 218.108 482.387 220.04 479.833 221.717L479.692 220.967C480.305 221.116 480.878 221.396 481.373 221.789C481.867 222.181 482.269 222.677 482.553 223.241C483.152 224.342 483.304 225.632 482.977 226.842C482.788 227.429 482.478 227.97 482.068 228.431C481.658 228.892 481.156 229.262 480.595 229.518C479.55 230.021 478.456 230.414 477.331 230.693C472.891 231.907 468.329 232.619 463.731 232.815C468.292 232.408 472.798 231.529 477.178 230.193C478.269 229.904 479.326 229.503 480.333 228.996C480.815 228.768 481.244 228.443 481.592 228.04C481.94 227.637 482.201 227.166 482.357 226.657C482.621 225.637 482.475 224.555 481.951 223.641C481.426 222.728 480.564 222.057 479.55 221.772L478.571 221.587L479.398 221.032C481.888 219.358 484.206 217.441 486.317 215.309C486.839 214.843 487.277 214.291 487.612 213.677C487.682 213.567 487.727 213.443 487.746 213.314C487.764 213.185 487.755 213.053 487.719 212.928C487.683 212.803 487.621 212.686 487.537 212.587C487.453 212.487 487.349 212.406 487.231 212.35C486.605 212.131 485.928 212.101 485.284 212.263C484.555 212.382 483.826 212.535 483.108 212.709C477.32 214.123 471.836 216.995 465.7 217.888C459.564 218.78 453.503 217.452 447.574 216.386C444.562 215.865 441.634 214.939 438.87 213.634C436.072 212.356 433.796 210.16 432.418 207.41Z" fill="white"/>
<path d="M296.844 187.129C299.27 189.523 301.674 191.949 304.057 194.375C306.44 196.801 308.768 199.315 311.314 201.523C313.86 203.732 316.754 205.625 320.018 206.038C320.791 206.147 321.552 206.038 321.737 205.516C321.893 204.764 321.918 203.992 321.813 203.231C321.69 201.569 321.361 199.928 320.834 198.346L320.051 195.996L321.628 197.9C323.079 199.648 324.602 201.353 326.198 203.014C326.992 203.83 327.786 204.657 328.602 205.451C329.376 206.27 330.217 207.024 331.116 207.703C331.543 208.018 332.039 208.227 332.563 208.314C333.086 208.401 333.623 208.363 334.13 208.203C335.167 207.825 336.053 207.118 336.654 206.191C337.872 204.287 337.85 201.839 337.84 199.587C338.014 201.839 338.177 204.287 336.991 206.397C336.399 207.46 335.451 208.281 334.314 208.715C333.727 208.932 333.095 208.999 332.476 208.911C331.867 208.813 331.286 208.591 330.768 208.258C329.807 207.587 328.905 206.837 328.069 206.017C327.221 205.233 326.394 204.428 325.589 203.601C323.971 201.955 322.415 200.25 320.921 198.488L321.715 198.042C322.284 199.696 322.649 201.413 322.803 203.155C322.803 203.579 322.858 204.026 322.869 204.461C322.899 204.958 322.821 205.455 322.64 205.919C322.527 206.188 322.351 206.427 322.128 206.616C321.905 206.805 321.641 206.939 321.356 207.007C320.874 207.093 320.381 207.093 319.898 207.007C316.341 206.506 313.305 204.439 310.759 202.176C308.213 199.913 306.005 197.258 303.676 194.756C301.348 192.253 299.096 189.686 296.844 187.129Z" fill="white"/>
</g>
</g>
</g>
<defs>
<clipPath id="clip0_4380_36700">
<rect width="537" height="531" fill="white"/>
</clipPath>
</defs>
</svg>
