<svg width="103" height="26" viewBox="0 0 103 26" fill="none" xmlns="http://www.w3.org/2000/svg">
<path fill-rule="evenodd" clip-rule="evenodd" d="M2.15753 1.65716C2.15753 1.34816 2.40803 1.09766 2.71703 1.09766H19.1414H19.1434C20.1344 1.10125 21.0836 1.49663 21.7841 2.19754C22.4846 2.89844 22.8794 3.84795 22.8824 4.83887V4.84224C22.8794 5.83316 22.4846 6.78268 21.7841 7.48358C21.0836 8.18448 20.1344 8.57986 19.1434 8.58345L19.1414 8.58346H2.72861C2.4196 8.58346 2.1691 8.33296 2.1691 8.02395C2.1691 7.71494 2.4196 7.46444 2.72861 7.46444H19.1404C19.8355 7.46166 20.5012 7.18421 20.9926 6.69256C21.4838 6.20106 21.7608 5.53537 21.7634 4.84056C21.7608 4.14574 21.4838 3.48005 20.9926 2.98856C20.5012 2.49689 19.8354 2.21944 19.1404 2.21667H2.71703C2.40803 2.21667 2.15753 1.96617 2.15753 1.65716ZM4.66699 9.12811L4.66868 9.1281L21.0931 9.1281C21.4021 9.1281 21.6526 9.3786 21.6526 9.68761C21.6526 9.99662 21.4021 10.2471 21.0931 10.2471H4.66956C3.97415 10.2494 3.30787 10.5267 2.81612 11.0184C2.32458 11.51 2.04733 12.1759 2.04479 12.871C2.04733 13.5661 2.32458 14.232 2.81612 14.7236C3.30785 15.2153 3.97409 15.4926 4.66947 15.4949H21.0815C21.3905 15.4949 21.641 15.7454 21.641 16.0544C21.641 16.3634 21.3905 16.6139 21.0815 16.6139H4.66868L4.66699 16.6139C3.67568 16.6109 2.72583 16.2158 2.02486 15.5148C1.3239 14.8139 0.928772 13.864 0.925781 12.8727V12.8693C0.928772 11.878 1.3239 10.9281 2.02486 10.2272C2.72583 9.52622 3.67568 9.1311 4.66699 9.12811ZM2.71703 17.1591C2.40803 17.1591 2.15753 17.4096 2.15753 17.7186C2.15753 18.0276 2.40803 18.2781 2.71703 18.2781H19.1404C19.8354 18.2809 20.5012 18.5584 20.9926 19.05C21.4838 19.5415 21.7608 20.2072 21.7634 20.902C21.7608 21.5968 21.4838 22.2625 20.9926 22.754C20.5012 23.2457 19.8355 23.5231 19.1404 23.5259H2.72861C2.4196 23.5259 2.1691 23.7764 2.1691 24.0854C2.1691 24.3944 2.4196 24.6449 2.72861 24.6449H19.1414L19.1434 24.6449C20.1344 24.6413 21.0836 24.2459 21.7841 23.545C22.4846 22.8441 22.8794 21.8946 22.8824 20.9037V20.9003C22.8794 19.9094 22.4846 18.9599 21.7841 18.259C21.0836 17.5581 20.1344 17.1627 19.1434 17.1591H19.1414H2.71703Z" fill="white"/>
<path fill-rule="evenodd" clip-rule="evenodd" d="M3.41333 2.67969H19.2898C19.8015 2.67969 20.2922 2.88296 20.654 3.24478C21.0158 3.60659 21.2191 4.09733 21.2191 4.60902V5.08942C21.2191 5.60111 21.0158 6.09184 20.654 6.45366C20.2922 6.81548 19.8015 7.01875 19.2898 7.01875H3.41333V2.67969ZM20.3917 15.0287H4.51527C4.2619 15.0287 4.01103 14.9788 3.77695 14.8818C3.54287 14.7849 3.33018 14.6428 3.15103 14.4636C2.97187 14.2845 2.82976 14.0718 2.7328 13.8377C2.63585 13.6036 2.58594 13.3527 2.58594 13.0994V12.619C2.58594 12.3656 2.63585 12.1147 2.7328 11.8807C2.82976 11.6466 2.97187 11.4339 3.15103 11.2547C3.33018 11.0756 3.54287 10.9335 3.77695 10.8365C4.01103 10.7395 4.2619 10.6896 4.51527 10.6896H20.3917V15.0287ZM19.2898 18.7371H3.41333V23.0762H19.2898C19.8015 23.0762 20.2922 22.8729 20.654 22.5111C21.0158 22.1493 21.2191 21.6586 21.2191 21.1469V20.6665C21.2191 20.1548 21.0158 19.664 20.654 19.3022C20.2922 18.9404 19.8015 18.7371 19.2898 18.7371Z" fill="white"/>
<path d="M28.6065 0.640625H25.0854C24.363 0.640625 23.7773 1.22627 23.7773 1.94871V23.7829C23.7773 24.5054 24.363 25.091 25.0854 25.091H28.6065C29.3289 25.091 29.9145 24.5054 29.9145 23.7829V1.94871C29.9145 1.22627 29.3289 0.640625 28.6065 0.640625Z" fill="white"/>
<path d="M28.4885 2.90625H25.2067C24.9308 2.90625 24.707 3.12997 24.707 3.40595V3.60274C24.707 3.87871 24.9308 4.10243 25.2067 4.10243H28.4885C28.7645 4.10243 28.9882 3.87871 28.9882 3.60274V3.40595C28.9882 3.12997 28.7645 2.90625 28.4885 2.90625Z" fill="white"/>
<path d="M28.4885 4.98047H25.2067C24.9308 4.98047 24.707 5.20419 24.707 5.48017V5.67696C24.707 5.95293 24.9308 6.17665 25.2067 6.17665H28.4885C28.7645 6.17665 28.9882 5.95293 28.9882 5.67696V5.48017C28.9882 5.20419 28.7645 4.98047 28.4885 4.98047Z" fill="white"/>
<path d="M41.7574 17.4472C41.7574 17.5529 41.4597 17.6393 40.8642 17.7065C40.2784 17.7642 39.6877 17.793 39.0923 17.793C38.5064 17.793 38.1319 17.769 37.9686 17.7209C37.815 17.6633 37.7381 17.5721 37.7381 17.4472V11.2526H35.7357C35.63 11.2526 35.5388 11.1182 35.462 10.8492C35.3851 10.5803 35.3467 10.1818 35.3467 9.65353C35.3467 9.1157 35.4043 8.6355 35.5196 8.21292C35.6348 7.78074 35.7885 7.56465 35.9806 7.56465H43.7743C43.9183 7.56465 44.0144 7.69911 44.0624 7.96802C44.12 8.23693 44.1488 8.6259 44.1488 9.13491C44.1488 9.64393 44.096 10.1241 43.9904 10.5755C43.8847 11.0269 43.7407 11.2526 43.5582 11.2526H41.7574V17.4472ZM48.9513 14.5372C48.9513 15.1615 49.2491 15.4736 49.8445 15.4736C50.1903 15.4736 50.6417 15.3583 51.1987 15.1278C51.7557 14.8877 52.0487 14.7677 52.0775 14.7677C52.2599 14.7677 52.5 15.0414 52.7978 15.5888C53.0955 16.1363 53.2444 16.5396 53.2444 16.7989C53.2444 17.1735 52.8602 17.4568 52.0919 17.6489C51.3235 17.841 50.5696 17.937 49.8301 17.937C49.1002 17.937 48.4855 17.8794 47.9861 17.7642C47.4963 17.6489 47.093 17.5048 46.776 17.332C46.4687 17.1495 46.195 16.9286 45.9549 16.6693C45.7244 16.41 45.5515 16.1651 45.4363 15.9346C45.321 15.6945 45.2298 15.4304 45.1625 15.1422C45.0665 14.7197 45.0185 14.2827 45.0185 13.8313C45.0185 12.0834 45.4747 10.878 46.3871 10.2154C46.8385 9.87923 47.3427 9.64393 47.8997 9.50947C48.4567 9.37501 49.1146 9.30779 49.8733 9.30779C52.3032 9.30779 53.5181 10.1529 53.5181 11.8433C53.5181 13.6392 52.1543 14.5372 49.4267 14.5372H48.9513ZM48.9225 12.4339V13.3847C49.2011 13.3847 49.4267 13.2743 49.5996 13.0534C49.7821 12.8325 49.8733 12.5636 49.8733 12.2466C49.8733 11.6704 49.7245 11.3823 49.4267 11.3823C49.0906 11.3823 48.9225 11.7328 48.9225 12.4339ZM57.3018 17.9226C56.9465 17.9226 56.6151 17.8698 56.3078 17.7642C56.0005 17.6585 55.746 17.5289 55.5443 17.3752C55.3522 17.2215 55.1841 17.015 55.0401 16.7557C54.896 16.4964 54.7855 16.2515 54.7087 16.021C54.6319 15.7809 54.5743 15.488 54.5358 15.1422C54.4782 14.6332 54.4494 14.0522 54.4494 13.3991C54.4494 12.0641 54.6943 11.0509 55.1841 10.3594C55.6739 9.65833 56.3462 9.30779 57.201 9.30779C58.0749 9.30779 58.7088 9.51427 59.1026 9.92725C59.189 10.0233 59.2562 10.1385 59.3043 10.273H59.4195L59.2466 9.27897V7.47821C59.2466 7.26692 59.5155 7.06044 60.0534 6.85875C60.5912 6.65707 61.1722 6.55622 61.7965 6.55622C62.4496 6.55622 62.8674 6.68108 63.0498 6.93078C63.1171 7.02682 63.1507 7.12286 63.1507 7.2189V17.4472C63.1507 17.5529 62.8818 17.6393 62.3439 17.7065C61.8157 17.7642 61.3019 17.793 60.8025 17.793C60.3127 17.793 59.9957 17.7786 59.8517 17.7498C59.7172 17.7113 59.6308 17.6729 59.5924 17.6345C59.5636 17.5961 59.5444 17.5337 59.5348 17.4472L59.4195 16.6261H59.3043C59.2178 16.9622 59.0449 17.2455 58.7856 17.476C58.4591 17.7738 57.9645 17.9226 57.3018 17.9226ZM58.9153 15.8193C59.069 15.8193 59.1842 15.7233 59.261 15.5312V11.6848C59.261 11.5887 59.2082 11.5167 59.1026 11.4687C59.0065 11.4111 58.9201 11.3823 58.8433 11.3823C58.5167 11.3823 58.3535 12.1314 58.3535 13.6296C58.3535 14.4267 58.3967 14.9934 58.4831 15.3295C58.5791 15.6561 58.7232 15.8193 58.9153 15.8193ZM67.0844 17.9226C66.7291 17.9226 66.3977 17.8698 66.0904 17.7642C65.7831 17.6585 65.5286 17.5289 65.3269 17.3752C65.1348 17.2215 64.9667 17.015 64.8227 16.7557C64.6786 16.4964 64.5682 16.2515 64.4913 16.021C64.4145 15.7809 64.3569 15.488 64.3185 15.1422C64.2608 14.6332 64.232 14.0522 64.232 13.3991C64.232 12.0641 64.4769 11.0509 64.9667 10.3594C65.4566 9.65833 66.1288 9.30779 66.9836 9.30779C67.8576 9.30779 68.4914 9.51427 68.8852 9.92725C68.9716 10.0233 69.0389 10.1385 69.0869 10.273H69.2021L69.0293 9.27897V7.47821C69.0293 7.26692 69.2982 7.06044 69.836 6.85875C70.3738 6.65707 70.9549 6.55622 71.5791 6.55622C72.2322 6.55622 72.65 6.68108 72.8325 6.93078C72.8997 7.02682 72.9333 7.12286 72.9333 7.2189V17.4472C72.9333 17.5529 72.6644 17.6393 72.1266 17.7065C71.5983 17.7642 71.0845 17.793 70.5851 17.793C70.0953 17.793 69.7784 17.7786 69.6343 17.7498C69.4999 17.7113 69.4134 17.6729 69.375 17.6345C69.3462 17.5961 69.327 17.5337 69.3174 17.4472L69.2021 16.6261H69.0869C69.0004 16.9622 68.8276 17.2455 68.5683 17.476C68.2417 17.7738 67.7471 17.9226 67.0844 17.9226ZM68.6979 15.8193C68.8516 15.8193 68.9668 15.7233 69.0437 15.5312V11.6848C69.0437 11.5887 68.9908 11.5167 68.8852 11.4687C68.7892 11.4111 68.7027 11.3823 68.6259 11.3823C68.2994 11.3823 68.1361 12.1314 68.1361 13.6296C68.1361 14.4267 68.1793 14.9934 68.2657 15.3295C68.3618 15.6561 68.5058 15.8193 68.6979 15.8193ZM79.0136 16.8566V16.0066H78.8983C78.8503 16.0546 78.7783 16.1171 78.6822 16.1939C78.5862 16.2707 78.3605 16.3716 78.0052 16.4964C77.6498 16.6213 77.2512 16.6837 76.8094 16.6837C76.3773 16.6837 75.9931 16.6165 75.657 16.482C75.3304 16.338 75.0711 16.1507 74.879 15.9202C74.687 15.6801 74.5381 15.3631 74.4324 14.9694C74.25 14.3451 74.1587 13.4615 74.1587 12.3187V10.3306C74.1587 10.1289 74.442 9.93205 75.0087 9.73997C75.5753 9.53828 76.1708 9.43744 76.795 9.43744C77.6306 9.43744 78.0484 9.65353 78.0484 10.0857V11.9009C78.0484 13.8217 78.202 14.7821 78.5094 14.7821C78.6918 14.7821 78.7831 14.6524 78.7831 14.3931V10.3306C78.7831 10.1289 79.0856 9.93205 79.6907 9.73997C80.2957 9.53828 80.944 9.43744 81.6355 9.43744C82.327 9.43744 82.6727 9.62472 82.6727 9.99928V16.8134C82.6727 18.9551 81.2225 20.0259 78.3221 20.0259C76.795 20.0259 75.7578 19.877 75.2104 19.5793C74.9703 19.4449 74.8502 19.3056 74.8502 19.1615C74.8502 18.931 74.9463 18.5421 75.1383 17.9947C75.3304 17.4568 75.5081 17.1879 75.6714 17.1879C75.7098 17.1879 75.8442 17.2167 76.0747 17.2743C76.7854 17.4664 77.3761 17.5625 77.8467 17.5625C78.3269 17.5625 78.639 17.5096 78.7831 17.404C78.9367 17.2984 79.0136 17.1159 79.0136 16.8566ZM91.2751 17.793H85.1669C84.6963 17.793 84.3794 17.7594 84.2161 17.6921C84.0528 17.6249 83.9712 17.5193 83.9712 17.3752V8.25614C83.9712 8.00644 84.0816 7.82876 84.3025 7.72312C84.533 7.61747 84.9412 7.56465 85.527 7.56465H91.3183C91.52 7.56465 91.6208 7.90079 91.6208 8.57308C91.6208 9.23576 91.5776 9.74477 91.4912 10.1001C91.4047 10.4459 91.2895 10.6187 91.1454 10.6187C90.5211 10.6187 89.4695 10.5563 87.9905 10.4315V11.3967C89.4119 11.339 90.3387 11.3102 90.7709 11.3102C91.0302 11.3102 91.1598 11.6128 91.1598 12.2178C91.1598 12.8229 91.107 13.2839 91.0014 13.6008C90.9053 13.9081 90.7709 14.0618 90.598 14.0618L87.9905 14.0042V14.9262C89.6616 14.8013 90.8141 14.7389 91.4479 14.7389C91.6496 14.7389 91.7505 15.075 91.7505 15.7473C91.7505 16.4196 91.7072 16.9286 91.6208 17.2743C91.5344 17.6201 91.4191 17.793 91.2751 17.793ZM95.6164 17.9226C95.261 17.9226 94.9297 17.8698 94.6223 17.7642C94.315 17.6585 94.0605 17.5289 93.8588 17.3752C93.6667 17.2215 93.4987 17.015 93.3546 16.7557C93.2105 16.4964 93.1001 16.2515 93.0233 16.021C92.9464 15.7809 92.8888 15.488 92.8504 15.1422C92.7928 14.6332 92.764 14.0522 92.764 13.3991C92.764 12.0641 93.0089 11.0509 93.4987 10.3594C93.9885 9.65833 94.6608 9.30779 95.5155 9.30779C96.3895 9.30779 97.0234 9.51427 97.4171 9.92725C97.5036 10.0233 97.5708 10.1385 97.6188 10.273H97.7341L97.5612 9.27897V7.47821C97.5612 7.26692 97.8301 7.06044 98.3679 6.85875C98.9058 6.65707 99.4868 6.55622 100.111 6.55622C100.764 6.55622 101.182 6.68108 101.364 6.93078C101.432 7.02682 101.465 7.12286 101.465 7.2189V17.4472C101.465 17.5529 101.196 17.6393 100.658 17.7065C100.13 17.7642 99.6165 17.793 99.117 17.793C98.6272 17.793 98.3103 17.7786 98.1662 17.7498C98.0318 17.7113 97.9453 17.6729 97.9069 17.6345C97.8781 17.5961 97.8589 17.5337 97.8493 17.4472L97.7341 16.6261H97.6188C97.5324 16.9622 97.3595 17.2455 97.1002 17.476C96.7736 17.7738 96.279 17.9226 95.6164 17.9226ZM97.2298 15.8193C97.3835 15.8193 97.4988 15.7233 97.5756 15.5312V11.6848C97.5756 11.5887 97.5228 11.5167 97.4171 11.4687C97.3211 11.4111 97.2346 11.3823 97.1578 11.3823C96.8313 11.3823 96.668 12.1314 96.668 13.6296C96.668 14.4267 96.7112 14.9934 96.7977 15.3295C96.8937 15.6561 97.0378 15.8193 97.2298 15.8193Z" fill="white"/>
</svg>
