<svg width="269" height="199" viewBox="0 0 269 199" fill="none" xmlns="http://www.w3.org/2000/svg">
<g filter="url(#filter0_d_3414_41023)">
<g clip-path="url(#clip0_3414_41023)">
<path d="M259.18 5H9.37891V184.545H259.18V5Z" fill="#2E2E48"/>
<path d="M185.659 49.0312H82.9629C79.8013 49.0312 77.2383 51.5942 77.2383 54.7559V136.544C77.2383 139.705 79.8013 142.268 82.9629 142.268H185.659C188.821 142.268 191.383 139.705 191.383 136.544V54.7559C191.383 51.5942 188.821 49.0312 185.659 49.0312Z" fill="white"/>
<path fill-rule="evenodd" clip-rule="evenodd" d="M123.871 56.5821C123.871 56.5174 123.924 56.4648 123.989 56.4648H127.434H127.435C127.642 56.4655 127.842 56.5485 127.988 56.6956C128.135 56.8425 128.218 57.0416 128.219 57.2496V57.2503C128.218 57.4581 128.135 57.6573 127.988 57.8044C127.842 57.9513 127.642 58.0343 127.435 58.0351H127.434H123.991C123.926 58.0351 123.874 57.9826 123.874 57.9177C123.874 57.853 123.926 57.8004 123.991 57.8004H127.434C127.58 57.7997 127.719 57.7416 127.822 57.6384C127.925 57.5353 127.984 57.3957 127.984 57.25C127.984 57.1043 127.925 56.9646 127.822 56.8614C127.719 56.7584 127.58 56.7001 127.434 56.6996H123.989C123.924 56.6996 123.871 56.647 123.871 56.5821ZM124.398 58.1491H124.398H127.844C127.908 58.1491 127.961 58.2017 127.961 58.2664C127.961 58.3312 127.908 58.3838 127.844 58.3838H124.399C124.253 58.3843 124.113 58.4424 124.01 58.5457C123.907 58.6487 123.849 58.7883 123.848 58.9342C123.849 59.0799 123.907 59.2198 124.01 59.3228C124.113 59.426 124.253 59.4841 124.399 59.4847H127.841C127.906 59.4847 127.959 59.5372 127.959 59.6019C127.959 59.6668 127.906 59.7194 127.841 59.7194H124.398H124.398C124.19 59.7187 123.991 59.6359 123.844 59.4888C123.697 59.3417 123.614 59.1426 123.613 58.9346V58.9339C123.614 58.7259 123.697 58.5267 123.844 58.3796C123.991 58.2325 124.19 58.1498 124.398 58.1491ZM123.989 59.8337C123.924 59.8337 123.871 59.8863 123.871 59.9511C123.871 60.016 123.924 60.0686 123.989 60.0686H127.434C127.58 60.0691 127.719 60.1272 127.822 60.2304C127.925 60.3335 127.984 60.4731 127.984 60.6188C127.984 60.7647 127.925 60.9044 127.822 61.0074C127.719 61.1105 127.58 61.1687 127.434 61.1693H123.991C123.926 61.1693 123.874 61.2218 123.874 61.2867C123.874 61.3516 123.926 61.404 123.991 61.404H127.434H127.435C127.642 61.4033 127.842 61.3204 127.988 61.1732C128.135 61.0263 128.218 60.8272 128.219 60.6193V60.6185C128.218 60.4107 128.135 60.2115 127.988 60.0644C127.842 59.9175 127.642 59.8346 127.435 59.8337H127.434H123.989Z" fill="#2E2E48"/>
<path fill-rule="evenodd" clip-rule="evenodd" d="M124.138 56.7969H127.469C127.576 56.7969 127.679 56.8395 127.755 56.9154C127.831 56.9913 127.873 57.0942 127.873 57.2016V57.3024C127.873 57.4096 127.831 57.5126 127.755 57.5884C127.679 57.6644 127.576 57.7071 127.469 57.7071H124.138V56.7969ZM127.7 59.3873H124.37C124.316 59.3873 124.264 59.3769 124.215 59.3566C124.166 59.3362 124.121 59.3065 124.083 59.2689C124.046 59.2312 124.016 59.1866 123.996 59.1375C123.975 59.0885 123.965 59.0359 123.965 58.9826V58.8818C123.965 58.8288 123.975 58.7762 123.996 58.7271C124.016 58.6778 124.046 58.6333 124.083 58.5958C124.121 58.5581 124.166 58.5283 124.215 58.508C124.264 58.4877 124.316 58.4771 124.37 58.4771H127.7V59.3873ZM127.469 60.165H124.138V61.0752H127.469C127.576 61.0752 127.679 61.0326 127.755 60.9566C127.831 60.8808 127.873 60.7777 127.873 60.6705V60.5697C127.873 60.4624 127.831 60.3595 127.755 60.2835C127.679 60.2077 127.576 60.165 127.469 60.165Z" fill="#2E2E48"/>
<path d="M129.419 56.3672H128.681C128.529 56.3672 128.406 56.49 128.406 56.6416V61.2217C128.406 61.3733 128.529 61.4961 128.681 61.4961H129.419C129.571 61.4961 129.694 61.3733 129.694 61.2217V56.6416C129.694 56.49 129.571 56.3672 129.419 56.3672Z" fill="#2E2E48"/>
<path d="M129.363 45.9453H128.675C128.617 45.9453 128.57 45.9923 128.57 46.0501V46.0913C128.57 46.1493 128.617 46.1963 128.675 46.1963H129.363C129.421 46.1963 129.468 46.1493 129.468 46.0913V46.0501C129.468 45.9923 129.421 45.9453 129.363 45.9453Z" fill="#2E2E48"/>
<path d="M129.367 46.375H128.679C128.621 46.375 128.574 46.422 128.574 46.4798V46.521C128.574 46.579 128.621 46.626 128.679 46.626H129.367C129.425 46.626 129.472 46.579 129.472 46.521V46.4798C129.472 46.422 129.425 46.375 129.367 46.375Z" fill="#2E2E48"/>
<path d="M132.177 59.769C132.177 59.791 132.114 59.8093 131.989 59.8233C131.866 59.8355 131.743 59.8415 131.618 59.8415C131.495 59.8415 131.416 59.8365 131.382 59.8263C131.35 59.8143 131.334 59.795 131.334 59.769V58.4695H130.914C130.892 58.4695 130.872 58.4413 130.856 58.3849C130.84 58.3285 130.832 58.2449 130.832 58.134C130.832 58.0213 130.844 57.9205 130.868 57.8318C130.892 57.7413 130.925 57.6958 130.965 57.6958H132.6C132.63 57.6958 132.65 57.7241 132.66 57.7805C132.672 57.8369 132.678 57.9186 132.678 58.0253C132.678 58.1321 132.667 58.2327 132.645 58.3275C132.623 58.4222 132.593 58.4695 132.554 58.4695H132.177V59.769ZM133.686 59.1586C133.686 59.2895 133.748 59.3549 133.873 59.3549C133.946 59.3549 134.04 59.3308 134.157 59.2824C134.274 59.2321 134.335 59.2068 134.342 59.2068C134.38 59.2068 134.43 59.2642 134.493 59.379C134.555 59.4939 134.586 59.5785 134.586 59.633C134.586 59.7116 134.506 59.7709 134.345 59.8112C134.183 59.8516 134.025 59.8717 133.87 59.8717C133.717 59.8717 133.588 59.8596 133.483 59.8355C133.381 59.8112 133.296 59.781 133.229 59.7447C133.165 59.7064 133.108 59.6601 133.057 59.6058C133.009 59.5513 132.973 59.5 132.948 59.4516C132.924 59.4013 132.905 59.3459 132.891 59.2854C132.871 59.1967 132.861 59.1051 132.861 59.0104C132.861 58.6437 132.957 58.3909 133.148 58.252C133.243 58.1814 133.348 58.1321 133.465 58.1038C133.582 58.0756 133.72 58.0615 133.879 58.0615C134.389 58.0615 134.644 58.2388 134.644 58.5934C134.644 58.9702 134.358 59.1586 133.786 59.1586H133.686ZM133.68 58.7172V58.9167C133.738 58.9167 133.786 58.8935 133.822 58.8472C133.86 58.8009 133.879 58.7445 133.879 58.678C133.879 58.5571 133.848 58.4968 133.786 58.4968C133.715 58.4968 133.68 58.5703 133.68 58.7172ZM135.437 59.8686C135.363 59.8686 135.293 59.8577 135.229 59.8355C135.165 59.8133 135.111 59.786 135.069 59.7537C135.029 59.7217 134.993 59.6783 134.963 59.6238C134.933 59.5695 134.91 59.5182 134.894 59.4698C134.877 59.4195 134.865 59.3579 134.857 59.2854C134.845 59.1787 134.839 59.0567 134.839 58.9197C134.839 58.6397 134.89 58.4272 134.993 58.2822C135.096 58.1351 135.237 58.0615 135.416 58.0615C135.6 58.0615 135.733 58.1049 135.815 58.1915C135.833 58.2116 135.847 58.2359 135.858 58.264H135.882L135.845 58.0554V57.6778C135.845 57.6334 135.902 57.5902 136.015 57.5479C136.127 57.5055 136.249 57.4844 136.38 57.4844C136.517 57.4844 136.605 57.5106 136.643 57.563C136.657 57.5831 136.664 57.6032 136.664 57.6233V59.769C136.664 59.791 136.608 59.8093 136.495 59.8233C136.384 59.8355 136.276 59.8415 136.172 59.8415C136.069 59.8415 136.003 59.8384 135.972 59.8323C135.944 59.8244 135.926 59.8162 135.918 59.8082C135.912 59.8002 135.908 59.7871 135.906 59.769L135.882 59.5968H135.858C135.839 59.6672 135.803 59.7267 135.749 59.7749C135.68 59.8374 135.577 59.8686 135.437 59.8686ZM135.776 59.4274C135.808 59.4274 135.832 59.4073 135.849 59.3671V58.5601C135.849 58.54 135.837 58.5249 135.815 58.5148C135.795 58.5027 135.777 58.4968 135.761 58.4968C135.692 58.4968 135.658 58.6538 135.658 58.9681C135.658 59.1353 135.667 59.2541 135.685 59.3248C135.705 59.3933 135.736 59.4274 135.776 59.4274ZM137.49 59.8686C137.415 59.8686 137.345 59.8577 137.281 59.8355C137.217 59.8133 137.163 59.786 137.121 59.7537C137.081 59.7217 137.045 59.6783 137.015 59.6238C136.985 59.5695 136.962 59.5182 136.946 59.4698C136.929 59.4195 136.917 59.3579 136.909 59.2854C136.897 59.1787 136.891 59.0567 136.891 58.9197C136.891 58.6397 136.943 58.4272 137.045 58.2822C137.148 58.1351 137.289 58.0615 137.468 58.0615C137.652 58.0615 137.785 58.1049 137.867 58.1915C137.885 58.2116 137.899 58.2359 137.91 58.264H137.934L137.898 58.0554V57.6778C137.898 57.6334 137.954 57.5902 138.067 57.5479C138.179 57.5055 138.301 57.4844 138.432 57.4844C138.569 57.4844 138.657 57.5106 138.695 57.563C138.709 57.5831 138.716 57.6032 138.716 57.6233V59.769C138.716 59.791 138.66 59.8093 138.547 59.8233C138.436 59.8355 138.329 59.8415 138.224 59.8415C138.121 59.8415 138.055 59.8384 138.024 59.8323C137.996 59.8244 137.978 59.8162 137.97 59.8082C137.964 59.8002 137.96 59.7871 137.958 59.769L137.934 59.5968H137.91C137.892 59.6672 137.855 59.7267 137.801 59.7749C137.732 59.8374 137.629 59.8686 137.49 59.8686ZM137.828 59.4274C137.86 59.4274 137.884 59.4073 137.901 59.3671V58.5601C137.901 58.54 137.889 58.5249 137.867 58.5148C137.847 58.5027 137.829 58.4968 137.813 58.4968C137.744 58.4968 137.71 58.6538 137.71 58.9681C137.71 59.1353 137.719 59.2541 137.737 59.3248C137.757 59.3933 137.788 59.4274 137.828 59.4274ZM139.992 59.645V59.4667H139.968C139.958 59.4769 139.942 59.4899 139.922 59.506C139.902 59.5222 139.855 59.5433 139.78 59.5695C139.706 59.5957 139.622 59.6087 139.529 59.6087C139.439 59.6087 139.358 59.5947 139.288 59.5664C139.219 59.5362 139.165 59.497 139.125 59.4486C139.084 59.3983 139.053 59.3317 139.031 59.2491C138.993 59.1181 138.973 58.9329 138.973 58.6931V58.2761C138.973 58.2338 139.033 58.1925 139.152 58.1522C139.271 58.1099 139.396 58.0888 139.526 58.0888C139.702 58.0888 139.789 58.134 139.789 58.2248V58.6055C139.789 59.0083 139.822 59.2099 139.886 59.2099C139.924 59.2099 139.944 59.1827 139.944 59.1282V58.2761C139.944 58.2338 140.007 58.1925 140.134 58.1522C140.261 58.1099 140.397 58.0888 140.542 58.0888C140.687 58.0888 140.759 58.128 140.759 58.2065V59.636C140.759 60.0853 140.455 60.3099 139.847 60.3099C139.526 60.3099 139.309 60.2787 139.194 60.2162C139.144 60.188 139.118 60.1588 139.118 60.1286C139.118 60.0802 139.139 59.9985 139.179 59.8837C139.219 59.7709 139.257 59.7145 139.291 59.7145C139.299 59.7145 139.327 59.7206 139.375 59.7326C139.524 59.773 139.648 59.7931 139.747 59.7931C139.848 59.7931 139.913 59.782 139.944 59.7598C139.976 59.7378 139.992 59.6995 139.992 59.645ZM142.564 59.8415H141.283C141.184 59.8415 141.117 59.8344 141.083 59.8204C141.049 59.8061 141.032 59.7841 141.032 59.7537V57.8409C141.032 57.7886 141.055 57.7514 141.101 57.7291C141.15 57.7069 141.235 57.6958 141.358 57.6958H142.573C142.615 57.6958 142.637 57.7664 142.637 57.9075C142.637 58.0464 142.627 58.1533 142.609 58.2277C142.591 58.3002 142.567 58.3365 142.537 58.3365C142.406 58.3365 142.185 58.3235 141.875 58.2973V58.4997C142.173 58.4876 142.367 58.4817 142.458 58.4817C142.512 58.4817 142.54 58.545 142.54 58.672C142.54 58.799 142.529 58.8956 142.507 58.962C142.486 59.0266 142.458 59.0588 142.422 59.0588L141.875 59.0467V59.2401C142.226 59.2139 142.467 59.2009 142.6 59.2009C142.643 59.2009 142.664 59.2713 142.664 59.4124C142.664 59.5534 142.655 59.6601 142.637 59.7326C142.618 59.8053 142.594 59.8415 142.564 59.8415ZM143.475 59.8686C143.4 59.8686 143.331 59.8577 143.266 59.8355C143.202 59.8133 143.148 59.786 143.106 59.7537C143.066 59.7217 143.03 59.6783 143 59.6238C142.97 59.5695 142.947 59.5182 142.931 59.4698C142.915 59.4195 142.902 59.3579 142.894 59.2854C142.882 59.1787 142.876 59.0567 142.876 58.9197C142.876 58.6397 142.928 58.4272 143.03 58.2822C143.133 58.1351 143.274 58.0615 143.453 58.0615C143.637 58.0615 143.77 58.1049 143.852 58.1915C143.87 58.2116 143.884 58.2359 143.895 58.264H143.919L143.883 58.0554V57.6778C143.883 57.6334 143.939 57.5902 144.052 57.5479C144.165 57.5055 144.286 57.4844 144.417 57.4844C144.554 57.4844 144.642 57.5106 144.68 57.563C144.694 57.5831 144.702 57.6032 144.702 57.6233V59.769C144.702 59.791 144.645 59.8093 144.532 59.8233C144.421 59.8355 144.314 59.8415 144.209 59.8415C144.106 59.8415 144.04 59.8384 144.01 59.8323C143.981 59.8244 143.963 59.8162 143.955 59.8082C143.949 59.8002 143.945 59.7871 143.943 59.769L143.919 59.5968H143.895C143.876 59.6672 143.84 59.7267 143.786 59.7749C143.717 59.8374 143.614 59.8686 143.475 59.8686ZM143.813 59.4274C143.845 59.4274 143.869 59.4073 143.886 59.3671V58.5601C143.886 58.54 143.874 58.5249 143.852 58.5148C143.832 58.5027 143.814 58.4968 143.798 58.4968C143.729 58.4968 143.695 58.6538 143.695 58.9681C143.695 59.1353 143.704 59.2541 143.722 59.3248C143.743 59.3933 143.773 59.4274 143.813 59.4274Z" fill="#2E2E48"/>
<path d="M121.7 72.9018H121.223V72.6273H121.7C121.778 72.6273 121.841 72.6147 121.889 72.5893C121.938 72.563 121.974 72.5274 121.997 72.4827C122.02 72.4369 122.031 72.3848 122.031 72.3264C122.031 72.2695 122.02 72.2165 121.997 72.1675C121.974 72.1184 121.938 72.0785 121.889 72.0481C121.841 72.0176 121.778 72.0023 121.7 72.0023H121.338V73.5766H120.988V71.7267H121.7C121.844 71.7267 121.967 71.7525 122.068 71.804C122.171 71.8549 122.249 71.9256 122.302 72.0164C122.356 72.106 122.383 72.2086 122.383 72.3238C122.383 72.4431 122.356 72.5461 122.302 72.6325C122.249 72.7189 122.171 72.7854 122.068 72.832C121.967 72.8785 121.844 72.9018 121.7 72.9018ZM122.988 71.625V73.5766H122.651V71.625H122.988ZM123.926 73.6019C123.822 73.6019 123.728 73.5849 123.645 73.5511C123.562 73.5172 123.491 73.4702 123.433 73.41C123.375 73.3491 123.331 73.2784 123.299 73.1979C123.269 73.1165 123.254 73.0293 123.254 72.9361V72.8853C123.254 72.7795 123.269 72.6834 123.299 72.597C123.33 72.5097 123.373 72.4348 123.429 72.372C123.485 72.3094 123.552 72.2611 123.63 72.2271C123.708 72.1933 123.794 72.1763 123.888 72.1763C123.985 72.1763 124.071 72.193 124.146 72.2259C124.22 72.2582 124.282 72.3038 124.332 72.3631C124.382 72.4225 124.42 72.4936 124.445 72.5765C124.471 72.6587 124.484 72.7498 124.484 72.8497V72.9908H123.406V72.7595H124.153V72.7342C124.152 72.6808 124.141 72.632 124.123 72.5879C124.104 72.5432 124.075 72.5076 124.036 72.4813C123.997 72.4542 123.947 72.4407 123.885 72.4407C123.835 72.4407 123.792 72.4516 123.754 72.4736C123.718 72.4948 123.687 72.5253 123.663 72.5652C123.639 72.6041 123.621 72.6507 123.609 72.7049C123.597 72.7592 123.592 72.8192 123.592 72.8853V72.9361C123.592 72.9937 123.599 73.0471 123.614 73.0962C123.631 73.1453 123.654 73.1882 123.684 73.2246C123.716 73.2602 123.753 73.2881 123.796 73.3084C123.84 73.328 123.89 73.3377 123.946 73.3377C124.016 73.3377 124.08 73.3242 124.137 73.2969C124.194 73.269 124.244 73.2279 124.287 73.1738L124.456 73.3491C124.427 73.3915 124.388 73.4321 124.339 73.4711C124.291 73.51 124.232 73.5417 124.163 73.5663C124.095 73.5901 124.016 73.6019 123.926 73.6019ZM125.466 73.2843V72.6502C125.466 72.6037 125.458 72.5635 125.442 72.5297C125.426 72.4957 125.401 72.4695 125.368 72.4507C125.335 72.4322 125.293 72.4228 125.242 72.4228C125.197 72.4228 125.158 72.4304 125.124 72.4457C125.091 72.461 125.065 72.4827 125.048 72.5106C125.03 72.5376 125.021 72.569 125.021 72.6046H124.684C124.684 72.5477 124.698 72.4939 124.725 72.4431C124.752 72.3916 124.791 72.3458 124.841 72.3059C124.891 72.2653 124.952 72.2335 125.022 72.2106C125.093 72.1877 125.173 72.1763 125.261 72.1763C125.365 72.1763 125.458 72.1942 125.539 72.2297C125.622 72.2644 125.686 72.317 125.733 72.3872C125.78 72.4575 125.804 72.5461 125.804 72.6528V73.2525C125.804 73.321 125.808 73.38 125.816 73.4291C125.826 73.4773 125.839 73.5193 125.857 73.5549V73.5766H125.515C125.499 73.5417 125.487 73.4978 125.478 73.4444C125.47 73.3901 125.466 73.3368 125.466 73.2843ZM125.513 72.7392L125.515 72.9387H125.303C125.251 72.9387 125.204 72.9443 125.165 72.9552C125.125 72.9654 125.092 72.9807 125.067 73.001C125.041 73.0204 125.022 73.0442 125.01 73.0721C124.997 73.0992 124.99 73.1301 124.99 73.1649C124.99 73.1987 124.998 73.2293 125.013 73.2563C125.03 73.2834 125.052 73.3051 125.082 73.321C125.112 73.3363 125.148 73.3439 125.189 73.3439C125.248 73.3439 125.3 73.3321 125.344 73.3084C125.388 73.2839 125.422 73.2543 125.447 73.2196C125.471 73.1847 125.484 73.1517 125.486 73.1203L125.583 73.2652C125.571 73.2999 125.553 73.3368 125.529 73.3757C125.506 73.4147 125.475 73.4512 125.438 73.485C125.4 73.519 125.356 73.5469 125.303 73.5689C125.251 73.591 125.19 73.6019 125.12 73.6019C125.031 73.6019 124.952 73.5842 124.881 73.5486C124.811 73.5129 124.755 73.4643 124.715 73.4024C124.674 73.3406 124.654 73.2704 124.654 73.1915C124.654 73.1186 124.667 73.0542 124.695 72.9984C124.722 72.9425 124.762 72.8955 124.815 72.8574C124.869 72.8185 124.935 72.7892 125.013 72.7697C125.093 72.7495 125.184 72.7392 125.287 72.7392H125.513ZM126.862 73.2005C126.862 73.1717 126.854 73.1458 126.839 73.1229C126.824 73.1 126.795 73.0792 126.753 73.0607C126.711 73.0412 126.65 73.023 126.57 73.006C126.499 72.9908 126.433 72.9717 126.373 72.9488C126.313 72.926 126.261 72.8985 126.218 72.8662C126.175 72.8332 126.141 72.7947 126.116 72.7507C126.093 72.7057 126.081 72.654 126.081 72.5956C126.081 72.5389 126.093 72.4856 126.118 72.4356C126.142 72.3848 126.178 72.3402 126.224 72.3021C126.271 72.2632 126.328 72.2327 126.394 72.2106C126.461 72.1877 126.537 72.1763 126.621 72.1763C126.738 72.1763 126.838 72.1954 126.922 72.2335C127.006 72.2717 127.071 72.3241 127.116 72.3911C127.161 72.4572 127.184 72.5317 127.184 72.6147H126.848C126.848 72.5782 126.84 72.5453 126.823 72.5156C126.807 72.4859 126.782 72.4622 126.748 72.4445C126.714 72.4258 126.671 72.4166 126.619 72.4166C126.573 72.4166 126.533 72.4242 126.501 72.4393C126.47 72.4545 126.446 72.4745 126.43 72.4991C126.414 72.5236 126.406 72.5508 126.406 72.5803C126.406 72.6023 126.41 72.6223 126.419 72.6402C126.428 72.657 126.443 72.6728 126.463 72.6872C126.483 72.7016 126.511 72.7146 126.546 72.7266C126.581 72.7384 126.625 72.7498 126.676 72.7609C126.779 72.7812 126.868 72.8083 126.945 72.8421C127.022 72.8752 127.082 72.9193 127.125 72.9743C127.168 73.0293 127.19 73.0997 127.19 73.1852C127.19 73.2461 127.177 73.3021 127.15 73.353C127.124 73.4029 127.086 73.4465 127.036 73.4838C126.986 73.5211 126.926 73.5502 126.857 73.5714C126.787 73.5918 126.709 73.6019 126.622 73.6019C126.496 73.6019 126.389 73.5795 126.302 73.5346C126.215 73.4888 126.148 73.4312 126.103 73.3618C126.059 73.2916 126.036 73.2187 126.036 73.1432H126.358C126.36 73.1967 126.375 73.2393 126.401 73.2716C126.427 73.3037 126.46 73.3271 126.5 73.3415C126.541 73.355 126.583 73.3618 126.628 73.3618C126.679 73.3618 126.722 73.355 126.757 73.3415C126.791 73.3271 126.817 73.308 126.835 73.2843C126.853 73.2596 126.862 73.2317 126.862 73.2005ZM128.063 73.6019C127.959 73.6019 127.865 73.5849 127.782 73.5511C127.699 73.5172 127.628 73.4702 127.57 73.41C127.512 73.3491 127.468 73.2784 127.436 73.1979C127.406 73.1165 127.391 73.0293 127.391 72.9361V72.8853C127.391 72.7795 127.406 72.6834 127.436 72.597C127.467 72.5097 127.51 72.4348 127.566 72.372C127.622 72.3094 127.689 72.2611 127.767 72.2271C127.845 72.1933 127.931 72.1763 128.025 72.1763C128.122 72.1763 128.208 72.193 128.282 72.2259C128.357 72.2582 128.419 72.3038 128.469 72.3631C128.519 72.4225 128.557 72.4936 128.582 72.5765C128.608 72.6587 128.621 72.7498 128.621 72.8497V72.9908H127.543V72.7595H128.29V72.7342C128.288 72.6808 128.278 72.632 128.26 72.5879C128.241 72.5432 128.212 72.5076 128.173 72.4813C128.134 72.4542 128.084 72.4407 128.022 72.4407C127.972 72.4407 127.928 72.4516 127.891 72.4736C127.855 72.4948 127.824 72.5253 127.8 72.5652C127.776 72.6041 127.758 72.6507 127.746 72.7049C127.734 72.7592 127.729 72.8192 127.729 72.8853V72.9361C127.729 72.9937 127.736 73.0471 127.751 73.0962C127.768 73.1453 127.791 73.1882 127.821 73.2246C127.853 73.2602 127.89 73.2881 127.933 73.3084C127.977 73.328 128.027 73.3377 128.083 73.3377C128.153 73.3377 128.217 73.3242 128.274 73.2969C128.331 73.269 128.381 73.2279 128.424 73.1738L128.592 73.3491C128.564 73.3915 128.525 73.4321 128.476 73.4711C128.427 73.51 128.369 73.5417 128.3 73.5663C128.232 73.5901 128.153 73.6019 128.063 73.6019ZM130.249 73.2005C130.249 73.1717 130.242 73.1458 130.226 73.1229C130.211 73.1 130.182 73.0792 130.14 73.0607C130.099 73.0412 130.038 73.023 129.957 73.006C129.886 72.9908 129.82 72.9717 129.76 72.9488C129.7 72.926 129.648 72.8985 129.605 72.8662C129.562 72.8332 129.528 72.7947 129.504 72.7507C129.48 72.7057 129.468 72.654 129.468 72.5956C129.468 72.5389 129.48 72.4856 129.505 72.4356C129.529 72.3848 129.565 72.3402 129.611 72.3021C129.658 72.2632 129.715 72.2327 129.782 72.2106C129.849 72.1877 129.924 72.1763 130.008 72.1763C130.125 72.1763 130.225 72.1954 130.309 72.2335C130.394 72.2717 130.459 72.3241 130.503 72.3911C130.548 72.4572 130.571 72.5317 130.571 72.6147H130.235C130.235 72.5782 130.227 72.5453 130.21 72.5156C130.194 72.4859 130.169 72.4622 130.135 72.4445C130.101 72.4258 130.058 72.4166 130.007 72.4166C129.96 72.4166 129.921 72.4242 129.888 72.4393C129.857 72.4545 129.833 72.4745 129.817 72.4991C129.801 72.5236 129.793 72.5508 129.793 72.5803C129.793 72.6023 129.797 72.6223 129.806 72.6402C129.815 72.657 129.83 72.6728 129.85 72.6872C129.871 72.7016 129.898 72.7146 129.933 72.7266C129.968 72.7384 130.012 72.7498 130.064 72.7609C130.166 72.7812 130.256 72.8083 130.332 72.8421C130.409 72.8752 130.469 72.9193 130.512 72.9743C130.555 73.0293 130.577 73.0997 130.577 73.1852C130.577 73.2461 130.564 73.3021 130.538 73.353C130.511 73.4029 130.473 73.4465 130.423 73.4838C130.373 73.5211 130.314 73.5502 130.244 73.5714C130.175 73.5918 130.096 73.6019 130.009 73.6019C129.883 73.6019 129.776 73.5795 129.689 73.5346C129.602 73.4888 129.536 73.4312 129.491 73.3618C129.446 73.2916 129.423 73.2187 129.423 73.1432H129.745C129.747 73.1967 129.762 73.2393 129.788 73.2716C129.814 73.3037 129.847 73.3271 129.887 73.3415C129.928 73.355 129.971 73.3618 130.015 73.3618C130.066 73.3618 130.109 73.355 130.144 73.3415C130.179 73.3271 130.205 73.308 130.223 73.2843C130.24 73.2596 130.249 73.2317 130.249 73.2005ZM131.45 73.6019C131.346 73.6019 131.252 73.5849 131.169 73.5511C131.086 73.5172 131.016 73.4702 130.957 73.41C130.899 73.3491 130.855 73.2784 130.824 73.1979C130.793 73.1165 130.778 73.0293 130.778 72.9361V72.8853C130.778 72.7795 130.793 72.6834 130.824 72.597C130.854 72.5097 130.897 72.4348 130.953 72.372C131.009 72.3094 131.076 72.2611 131.154 72.2271C131.232 72.1933 131.318 72.1763 131.412 72.1763C131.509 72.1763 131.595 72.193 131.67 72.2259C131.744 72.2582 131.807 72.3038 131.857 72.3631C131.906 72.4225 131.944 72.4936 131.97 72.5765C131.995 72.6587 132.008 72.7498 132.008 72.8497V72.9908H130.93V72.7595H131.678V72.7342C131.676 72.6808 131.666 72.632 131.647 72.5879C131.628 72.5432 131.599 72.5076 131.561 72.4813C131.522 72.4542 131.471 72.4407 131.409 72.4407C131.359 72.4407 131.316 72.4516 131.279 72.4736C131.242 72.4948 131.212 72.5253 131.187 72.5652C131.163 72.6041 131.145 72.6507 131.134 72.7049C131.122 72.7592 131.116 72.8192 131.116 72.8853V72.9361C131.116 72.9937 131.123 73.0471 131.139 73.0962C131.155 73.1453 131.178 73.1882 131.209 73.2246C131.24 73.2602 131.277 73.2881 131.32 73.3084C131.364 73.328 131.414 73.3377 131.47 73.3377C131.541 73.3377 131.604 73.3242 131.661 73.2969C131.718 73.269 131.768 73.2279 131.811 73.1738L131.98 73.3491C131.951 73.3915 131.912 73.4321 131.863 73.4711C131.815 73.51 131.756 73.5417 131.688 73.5663C131.619 73.5901 131.54 73.6019 131.45 73.6019ZM132.588 71.625V73.5766H132.252V71.625H132.588ZM133.526 73.6019C133.422 73.6019 133.328 73.5849 133.245 73.5511C133.162 73.5172 133.091 73.4702 133.033 73.41C132.975 73.3491 132.931 73.2784 132.9 73.1979C132.869 73.1165 132.854 73.0293 132.854 72.9361V72.8853C132.854 72.7795 132.869 72.6834 132.9 72.597C132.93 72.5097 132.973 72.4348 133.029 72.372C133.085 72.3094 133.152 72.2611 133.23 72.2271C133.308 72.1933 133.394 72.1763 133.488 72.1763C133.585 72.1763 133.671 72.193 133.746 72.2259C133.82 72.2582 133.883 72.3038 133.933 72.3631C133.983 72.4225 134.02 72.4936 134.046 72.5765C134.071 72.6587 134.084 72.7498 134.084 72.8497V72.9908H133.006V72.7595H133.753V72.7342C133.752 72.6808 133.742 72.632 133.723 72.5879C133.704 72.5432 133.676 72.5076 133.637 72.4813C133.598 72.4542 133.547 72.4407 133.485 72.4407C133.435 72.4407 133.392 72.4516 133.355 72.4736C133.318 72.4948 133.288 72.5253 133.263 72.5652C133.239 72.6041 133.222 72.6507 133.21 72.7049C133.198 72.7592 133.192 72.8192 133.192 72.8853V72.9361C133.192 72.9937 133.2 73.0471 133.215 73.0962C133.231 73.1453 133.254 73.1882 133.285 73.2246C133.316 73.2602 133.353 73.2881 133.396 73.3084C133.441 73.328 133.49 73.3377 133.546 73.3377C133.617 73.3377 133.68 73.3242 133.737 73.2969C133.795 73.269 133.845 73.2279 133.887 73.1738L134.056 73.3491C134.027 73.3915 133.988 73.4321 133.939 73.4711C133.891 73.51 133.832 73.5417 133.764 73.5663C133.695 73.5901 133.616 73.6019 133.526 73.6019ZM134.873 73.3377C134.92 73.3377 134.963 73.3283 135 73.3098C135.037 73.291 135.067 73.2648 135.089 73.2308C135.112 73.197 135.124 73.1576 135.126 73.1127H135.442C135.44 73.2059 135.414 73.2893 135.363 73.363C135.312 73.4368 135.245 73.4952 135.16 73.5384C135.076 73.5807 134.982 73.6019 134.878 73.6019C134.772 73.6019 134.68 73.5842 134.601 73.5486C134.522 73.5129 134.457 73.4635 134.404 73.4C134.352 73.3363 134.313 73.2628 134.287 73.1788C134.262 73.095 134.249 73.0052 134.249 72.9094V72.8688C134.249 72.773 134.262 72.6834 134.287 72.5994C134.313 72.5156 134.352 72.4419 134.404 72.3784C134.457 72.3149 134.522 72.2653 134.601 72.2297C134.68 72.1942 134.772 72.1763 134.877 72.1763C134.988 72.1763 135.085 72.198 135.169 72.2412C135.254 72.2844 135.32 72.3453 135.367 72.4242C135.415 72.5029 135.44 72.5956 135.442 72.7024H135.126C135.124 72.6532 135.113 72.6091 135.093 72.5703C135.072 72.5312 135.044 72.5 135.006 72.4762C134.969 72.4525 134.924 72.4407 134.87 72.4407C134.814 72.4407 134.766 72.4525 134.728 72.4762C134.691 72.5 134.662 72.5326 134.64 72.5741C134.62 72.6147 134.606 72.6605 134.597 72.7113C134.59 72.7612 134.586 72.8138 134.586 72.8688V72.9094C134.586 72.9654 134.59 73.0187 134.597 73.0695C134.606 73.1203 134.62 73.1661 134.64 73.2067C134.662 73.2466 134.691 73.2784 134.728 73.3021C134.766 73.3257 134.814 73.3377 134.873 73.3377ZM136.316 72.2018V72.4431H135.528V72.2018H136.316ZM135.739 71.8639H136.076V73.1802C136.076 73.2208 136.082 73.2522 136.093 73.274C136.104 73.2961 136.12 73.311 136.142 73.3186C136.164 73.3262 136.19 73.3301 136.221 73.3301C136.243 73.3301 136.263 73.3287 136.282 73.3263C136.301 73.3236 136.316 73.321 136.329 73.3186L136.33 73.5702C136.302 73.5795 136.271 73.5872 136.235 73.5931C136.2 73.5989 136.161 73.6019 136.117 73.6019C136.041 73.6019 135.975 73.5892 135.919 73.5637C135.862 73.5375 135.818 73.4956 135.786 73.438C135.755 73.3795 135.739 73.3025 135.739 73.2067V71.8639ZM137.945 73.2843V72.6502C137.945 72.6037 137.937 72.5635 137.921 72.5297C137.905 72.4957 137.88 72.4695 137.847 72.4507C137.814 72.4322 137.772 72.4228 137.721 72.4228C137.677 72.4228 137.637 72.4304 137.603 72.4457C137.57 72.461 137.545 72.4827 137.527 72.5106C137.509 72.5376 137.5 72.569 137.5 72.6046H137.164C137.164 72.5477 137.177 72.4939 137.204 72.4431C137.231 72.3916 137.27 72.3458 137.32 72.3059C137.371 72.2653 137.431 72.2335 137.502 72.2106C137.573 72.1877 137.652 72.1763 137.741 72.1763C137.845 72.1763 137.937 72.1942 138.019 72.2297C138.101 72.2644 138.165 72.317 138.212 72.3872C138.259 72.4575 138.283 72.5461 138.283 72.6528V73.2525C138.283 73.321 138.287 73.38 138.296 73.4291C138.305 73.4773 138.319 73.5193 138.336 73.5549V73.5766H137.995C137.979 73.5417 137.966 73.4978 137.958 73.4444C137.949 73.3901 137.945 73.3368 137.945 73.2843ZM137.992 72.7392L137.995 72.9387H137.782C137.73 72.9387 137.684 72.9443 137.644 72.9552C137.604 72.9654 137.572 72.9807 137.546 73.001C137.521 73.0204 137.502 73.0442 137.489 73.0721C137.476 73.0992 137.47 73.1301 137.47 73.1649C137.47 73.1987 137.478 73.2293 137.493 73.2563C137.509 73.2834 137.532 73.3051 137.561 73.321C137.592 73.3363 137.627 73.3439 137.668 73.3439C137.727 73.3439 137.779 73.3321 137.823 73.3084C137.867 73.2839 137.901 73.2543 137.926 73.2196C137.951 73.1847 137.964 73.1517 137.965 73.1203L138.062 73.2652C138.05 73.2999 138.032 73.3368 138.009 73.3757C137.985 73.4147 137.954 73.4512 137.917 73.485C137.88 73.519 137.835 73.5469 137.782 73.5689C137.73 73.591 137.669 73.6019 137.6 73.6019C137.511 73.6019 137.431 73.5842 137.361 73.5486C137.29 73.5129 137.235 73.4643 137.194 73.4024C137.154 73.3406 137.133 73.2704 137.133 73.1915C137.133 73.1186 137.147 73.0542 137.174 72.9984C137.201 72.9425 137.241 72.8955 137.295 72.8574C137.348 72.8185 137.414 72.7892 137.493 72.7697C137.572 72.7495 137.663 72.7392 137.766 72.7392H137.992ZM139.568 72.4839V73.5766H139.232V72.2018H139.549L139.568 72.4839ZM139.518 72.8397H139.415C139.415 72.7439 139.427 72.6558 139.449 72.5753C139.473 72.4948 139.508 72.4249 139.554 72.3657C139.599 72.3055 139.656 72.2589 139.723 72.2259C139.79 72.193 139.869 72.1763 139.958 72.1763C140.019 72.1763 140.076 72.1857 140.128 72.2042C140.18 72.2221 140.224 72.2505 140.261 72.2894C140.299 72.3276 140.329 72.3775 140.349 72.4393C140.369 72.5003 140.379 72.5736 140.379 72.6592V73.5766H140.044V72.6934C140.044 72.6291 140.035 72.5788 140.016 72.5423C139.998 72.5059 139.972 72.4804 139.939 72.466C139.905 72.4507 139.864 72.4431 139.817 72.4431C139.764 72.4431 139.719 72.4537 139.681 72.475C139.643 72.4953 139.613 72.5236 139.588 72.56C139.564 72.5965 139.546 72.6384 139.535 72.6858C139.524 72.7333 139.518 72.7845 139.518 72.8397ZM140.354 72.7774L140.216 72.8027C140.216 72.7163 140.228 72.6355 140.251 72.56C140.274 72.4839 140.307 72.4174 140.352 72.3605C140.396 72.3029 140.452 72.2582 140.518 72.2259C140.585 72.193 140.662 72.1763 140.749 72.1763C140.817 72.1763 140.878 72.1862 140.932 72.2056C140.987 72.2242 141.034 72.2544 141.073 72.2958C141.112 72.3364 141.142 72.3893 141.162 72.4545C141.183 72.5198 141.194 72.5994 141.194 72.6934V73.5766H140.856V72.6922C140.856 72.6252 140.847 72.5741 140.828 72.5385C140.81 72.503 140.784 72.4783 140.75 72.4648C140.717 72.4504 140.677 72.4431 140.631 72.4431C140.584 72.4431 140.544 72.4521 140.509 72.4698C140.475 72.4868 140.446 72.5106 140.423 72.5409C140.4 72.5715 140.382 72.607 140.371 72.6478C140.359 72.6875 140.354 72.7307 140.354 72.7774ZM141.435 72.9032V72.8764C141.435 72.7756 141.45 72.6828 141.479 72.5982C141.507 72.5127 141.549 72.4386 141.604 72.3758C141.659 72.3132 141.727 72.2644 141.806 72.2297C141.886 72.1942 141.977 72.1763 142.078 72.1763C142.181 72.1763 142.273 72.1942 142.353 72.2297C142.433 72.2644 142.501 72.3132 142.556 72.3758C142.611 72.4386 142.653 72.5127 142.682 72.5982C142.711 72.6828 142.725 72.7756 142.725 72.8764V72.9032C142.725 73.0031 142.711 73.0959 142.682 73.1814C142.653 73.2661 142.611 73.3401 142.556 73.4038C142.501 73.4664 142.434 73.5152 142.354 73.5499C142.274 73.5846 142.183 73.6019 142.081 73.6019C141.979 73.6019 141.888 73.5846 141.808 73.5499C141.727 73.5152 141.659 73.4664 141.604 73.4038C141.549 73.3401 141.507 73.2661 141.479 73.1814C141.45 73.0959 141.435 73.0031 141.435 72.9032ZM141.771 72.8764V72.9032C141.771 72.9633 141.777 73.0196 141.789 73.0721C141.8 73.1247 141.819 73.1708 141.843 73.2105C141.868 73.2504 141.899 73.2817 141.938 73.3046C141.978 73.3266 142.026 73.3377 142.081 73.3377C142.135 73.3377 142.181 73.3266 142.221 73.3046C142.26 73.2817 142.291 73.2504 142.316 73.2105C142.341 73.1708 142.36 73.1247 142.372 73.0721C142.384 73.0196 142.389 72.9633 142.389 72.9032V72.8764C142.389 72.8171 142.384 72.7616 142.372 72.7101C142.36 72.6575 142.341 72.6114 142.316 72.5715C142.291 72.5309 142.259 72.4991 142.219 72.4762C142.18 72.4525 142.133 72.4407 142.078 72.4407C142.024 72.4407 141.977 72.4525 141.938 72.4762C141.899 72.4991 141.868 72.5309 141.843 72.5715C141.819 72.6114 141.8 72.6575 141.789 72.7101C141.777 72.7616 141.771 72.8171 141.771 72.8764ZM143.793 73.2843V71.625H144.131V73.5766H143.827L143.793 73.2843ZM142.91 72.9056V72.879C142.91 72.7739 142.922 72.6787 142.946 72.5932C142.971 72.5068 143.006 72.4325 143.053 72.3708C143.099 72.309 143.156 72.2611 143.222 72.2271C143.289 72.1933 143.364 72.1763 143.449 72.1763C143.531 72.1763 143.603 72.193 143.664 72.2259C143.726 72.2589 143.778 72.3059 143.821 72.3669C143.865 72.428 143.901 72.5003 143.927 72.5841C143.953 72.6672 143.972 72.7586 143.984 72.8586V72.9311C143.972 73.0284 143.953 73.1179 143.927 73.1991C143.901 73.2805 143.865 73.3516 143.821 73.4126C143.778 73.4728 143.726 73.5193 143.664 73.5523C143.602 73.5854 143.53 73.6019 143.447 73.6019C143.363 73.6019 143.287 73.5846 143.22 73.5499C143.154 73.5152 143.098 73.4664 143.051 73.4038C143.006 73.341 142.971 73.2673 142.946 73.1826C142.922 73.098 142.91 73.0057 142.91 72.9056ZM143.247 72.879V72.9056C143.247 72.9649 143.252 73.0204 143.262 73.0721C143.272 73.1238 143.289 73.1694 143.312 73.2093C143.335 73.2484 143.364 73.2787 143.4 73.3007C143.436 73.3228 143.48 73.3339 143.532 73.3339C143.598 73.3339 143.652 73.3195 143.694 73.2907C143.738 73.261 143.771 73.2208 143.795 73.17C143.818 73.1183 143.834 73.0603 143.84 72.9958V72.7965C143.837 72.7456 143.828 72.6986 143.814 72.6554C143.8 72.6122 143.781 72.5749 143.755 72.5435C143.731 72.5121 143.7 72.4877 143.664 72.4698C143.627 72.4521 143.584 72.4431 143.534 72.4431C143.483 72.4431 143.438 72.4545 143.402 72.4774C143.366 72.4995 143.336 72.5304 143.313 72.5703C143.29 72.61 143.273 72.6561 143.262 72.7087C143.252 72.7612 143.247 72.818 143.247 72.879ZM145.253 73.2499V72.2018H145.591V73.5766H145.274L145.253 73.2499ZM145.297 72.9654L145.401 72.9628C145.401 73.0551 145.391 73.1403 145.37 73.2182C145.35 73.2961 145.318 73.3639 145.275 73.4215C145.233 73.4782 145.179 73.5228 145.114 73.5549C145.048 73.5863 144.971 73.6019 144.882 73.6019C144.815 73.6019 144.753 73.5925 144.697 73.574C144.641 73.5545 144.593 73.5244 144.552 73.4838C144.512 73.4423 144.481 73.3894 144.459 73.3249C144.437 73.2596 144.426 73.1814 144.426 73.0898V72.2018H144.762V73.0924C144.762 73.1382 144.767 73.1764 144.777 73.2067C144.788 73.2373 144.803 73.2622 144.821 73.2817C144.841 73.3004 144.863 73.3139 144.889 73.3224C144.915 73.3301 144.943 73.3339 144.972 73.3339C145.054 73.3339 145.118 73.3178 145.164 73.2855C145.212 73.2525 145.246 73.2085 145.266 73.1535C145.286 73.0974 145.297 73.0348 145.297 72.9654ZM146.244 71.625V73.5766H145.908V71.625H146.244ZM147.182 73.6019C147.078 73.6019 146.984 73.5849 146.901 73.5511C146.818 73.5172 146.747 73.4702 146.689 73.41C146.631 73.3491 146.587 73.2784 146.556 73.1979C146.525 73.1165 146.51 73.0293 146.51 72.9361V72.8853C146.51 72.7795 146.525 72.6834 146.556 72.597C146.586 72.5097 146.629 72.4348 146.685 72.372C146.741 72.3094 146.808 72.2611 146.886 72.2271C146.964 72.1933 147.05 72.1763 147.144 72.1763C147.241 72.1763 147.327 72.193 147.402 72.2259C147.476 72.2582 147.539 72.3038 147.589 72.3631C147.639 72.4225 147.676 72.4936 147.702 72.5765C147.727 72.6587 147.74 72.7498 147.74 72.8497V72.9908H146.662V72.7595H147.409V72.7342C147.408 72.6808 147.398 72.632 147.379 72.5879C147.36 72.5432 147.332 72.5076 147.293 72.4813C147.254 72.4542 147.203 72.4407 147.141 72.4407C147.091 72.4407 147.048 72.4516 147.01 72.4736C146.974 72.4948 146.943 72.5253 146.919 72.5652C146.895 72.6041 146.878 72.6507 146.866 72.7049C146.854 72.7592 146.848 72.8192 146.848 72.8853V72.9361C146.848 72.9937 146.856 73.0471 146.871 73.0962C146.887 73.1453 146.91 73.1882 146.941 73.2246C146.972 73.2602 147.009 73.2881 147.052 73.3084C147.096 73.328 147.146 73.3377 147.202 73.3377C147.273 73.3377 147.336 73.3242 147.393 73.2969C147.451 73.269 147.501 73.2279 147.543 73.1738L147.712 73.3491C147.683 73.3915 147.644 73.4321 147.595 73.4711C147.547 73.51 147.488 73.5417 147.42 73.5663C147.351 73.5901 147.272 73.6019 147.182 73.6019Z" fill="#2E2E48"/>
<path d="M180.105 81.5508H88.5114C87.3617 81.5508 86.4297 82.4828 86.4297 83.6325V92.653C86.4297 93.8027 87.3617 94.7347 88.5114 94.7347H180.105C181.255 94.7347 182.187 93.8027 182.187 92.653V83.6325C182.187 82.4828 181.255 81.5508 180.105 81.5508Z" fill="#2E2E48"/>
<mask id="mask0_3414_41023" style="mask-type:luminance" maskUnits="userSpaceOnUse" x="89" y="86" width="6" height="5">
<path d="M94.0657 86.0586H89.9023V90.2219H94.0657V86.0586Z" fill="white"/>
</mask>
<g mask="url(#mask0_3414_41023)">
<path d="M93.537 87.918H91.0586V88.1492H93.537C93.5675 88.1492 93.597 88.1371 93.6187 88.1154C93.6404 88.0937 93.6525 88.0642 93.6525 88.0335C93.6525 88.0028 93.6404 87.9735 93.6187 87.9518C93.597 87.9301 93.5675 87.918 93.537 87.918Z" fill="white"/>
<path d="M93.537 88.8398H91.0586V89.0711H93.537C93.5675 89.0711 93.597 89.0589 93.6187 89.0373C93.6404 89.0156 93.6525 88.9861 93.6525 88.9554C93.6525 88.9248 93.6404 88.8954 93.6187 88.8737C93.597 88.852 93.5675 88.8398 93.537 88.8398Z" fill="white"/>
<path d="M91.6875 87.2195H93.5374C93.5681 87.2195 93.5976 87.2073 93.6193 87.1857C93.641 87.164 93.6531 87.1345 93.6531 87.1038C93.6531 87.0733 93.641 87.0438 93.6193 87.0221C93.5976 87.0004 93.5681 86.9883 93.5374 86.9883H91.9187L91.6875 87.2195Z" fill="white"/>
<path d="M91.9253 86.4632C91.9137 86.4515 91.8996 86.4419 91.8844 86.4355C91.8689 86.4291 91.8524 86.4258 91.8358 86.4258C91.8191 86.4258 91.8027 86.4291 91.7872 86.4355C91.7718 86.4419 91.7579 86.4515 91.7461 86.4632L90.8142 87.3951L90.4233 86.9744C90.4004 86.9496 90.3685 86.935 90.3348 86.9338C90.301 86.9327 90.2682 86.9449 90.2436 86.968C90.2188 86.9908 90.2044 87.0228 90.2032 87.0566C90.202 87.0902 90.2143 87.123 90.2372 87.1478L90.8083 87.7606L91.9253 86.6459C91.9376 86.6341 91.9473 86.6199 91.9539 86.6041C91.9607 86.5885 91.9641 86.5716 91.9641 86.5546C91.9641 86.5375 91.9607 86.5207 91.9539 86.505C91.9473 86.4893 91.9376 86.475 91.9253 86.4632Z" fill="white"/>
</g>
<path d="M98.0506 88.9242H97.7578L98.2907 87.4102H98.6293L99.1631 88.9242H98.8703L98.4659 87.7207H98.4541L98.0506 88.9242ZM98.0602 88.3306H98.8585V88.5509H98.0602V88.3306ZM99.8466 87.7887V87.9956H99.1938V87.7887H99.8466ZM99.355 87.5167H99.6225V88.5827C99.6225 88.6186 99.628 88.6461 99.6388 88.6654C99.6501 88.6841 99.665 88.697 99.6832 88.7039C99.7014 88.7109 99.7215 88.7142 99.7437 88.7142C99.7606 88.7142 99.7758 88.7129 99.7895 88.7105C99.8039 88.7081 99.8147 88.7058 99.8221 88.7039L99.8672 88.9131C99.8528 88.918 99.8325 88.9234 99.8058 88.9293C99.7798 88.9353 99.7477 88.9386 99.7097 88.9397C99.6428 88.9418 99.5824 88.9315 99.5286 88.9093C99.4748 88.8868 99.4323 88.8517 99.4008 88.8044C99.3697 88.7572 99.3545 88.698 99.355 88.6271V87.5167ZM100.637 87.7887V87.9956H99.9845V87.7887H100.637ZM100.146 87.5167H100.413V88.5827C100.413 88.6186 100.419 88.6461 100.43 88.6654C100.441 88.6841 100.456 88.697 100.474 88.7039C100.492 88.7109 100.512 88.7142 100.535 88.7142C100.551 88.7142 100.567 88.7129 100.58 88.7105C100.595 88.7081 100.606 88.7058 100.613 88.7039L100.658 88.9131C100.644 88.918 100.623 88.9234 100.597 88.9293C100.571 88.9353 100.539 88.9386 100.501 88.9397C100.433 88.9418 100.373 88.9315 100.319 88.9093C100.266 88.8868 100.223 88.8517 100.192 88.8044C100.161 88.7572 100.145 88.698 100.146 88.6271V87.5167ZM101.352 88.9463C101.238 88.9463 101.139 88.9227 101.057 88.8753C100.974 88.8276 100.911 88.7601 100.867 88.6729C100.822 88.5851 100.8 88.4819 100.8 88.363C100.8 88.2463 100.822 88.1438 100.867 88.0557C100.912 87.9668 100.974 87.8978 101.054 87.8485C101.135 87.7987 101.229 87.7739 101.338 87.7739C101.408 87.7739 101.474 87.7852 101.536 87.8079C101.598 87.8301 101.653 87.8647 101.701 87.9115C101.75 87.9582 101.787 88.0178 101.815 88.0903C101.843 88.1623 101.856 88.248 101.856 88.3476V88.4297H100.926V88.2492H101.6C101.6 88.1981 101.588 88.1524 101.567 88.1126C101.545 88.0721 101.515 88.0402 101.476 88.0171C101.437 87.9939 101.392 87.9824 101.341 87.9824C101.287 87.9824 101.239 87.9956 101.197 88.0223C101.156 88.0484 101.123 88.0829 101.1 88.1257C101.078 88.1682 101.066 88.2147 101.066 88.2656V88.4229C101.066 88.489 101.078 88.5457 101.102 88.5931C101.126 88.6397 101.16 88.6758 101.203 88.701C101.246 88.7256 101.297 88.7379 101.355 88.7379C101.394 88.7379 101.43 88.7325 101.461 88.7216C101.493 88.7103 101.52 88.6939 101.543 88.6722C101.566 88.6505 101.584 88.6236 101.596 88.5915L101.845 88.6196C101.83 88.6857 101.8 88.7433 101.755 88.7926C101.711 88.8413 101.655 88.8793 101.587 88.9064C101.518 88.9331 101.44 88.9463 101.352 88.9463ZM102.351 88.2588V88.9242H102.083V87.7887H102.339V87.9816H102.352C102.378 87.9181 102.42 87.8676 102.477 87.8301C102.535 87.7927 102.606 87.7739 102.691 87.7739C102.769 87.7739 102.837 87.7908 102.895 87.8242C102.954 87.8577 102.999 87.9063 103.031 87.9698C103.064 88.0334 103.08 88.1105 103.079 88.2012V88.9242H102.812V88.2427C102.812 88.1667 102.792 88.1073 102.753 88.0645C102.714 88.0216 102.66 88.0001 102.591 88.0001C102.544 88.0001 102.502 88.0105 102.466 88.0312C102.43 88.0513 102.402 88.0806 102.381 88.1191C102.361 88.1577 102.351 88.2041 102.351 88.2588ZM103.773 88.9442C103.683 88.9442 103.604 88.9213 103.533 88.8753C103.463 88.8295 103.407 88.7631 103.366 88.6758C103.325 88.5886 103.305 88.4826 103.305 88.3578C103.305 88.2317 103.326 88.1254 103.367 88.0387C103.409 87.9514 103.465 87.8855 103.536 87.8412C103.607 87.7963 103.686 87.7739 103.774 87.7739C103.84 87.7739 103.895 87.7852 103.938 87.8079C103.98 87.8301 104.014 87.857 104.04 87.8884C104.065 87.9195 104.084 87.9488 104.098 87.9765H104.109V87.4102H104.377V88.9242H104.114V88.7452H104.098C104.084 88.7728 104.064 88.8023 104.038 88.8333C104.012 88.8639 103.978 88.8899 103.935 88.9116C103.892 88.9332 103.838 88.9442 103.773 88.9442ZM103.847 88.7246C103.904 88.7246 103.952 88.7093 103.992 88.6788C104.032 88.6477 104.063 88.6045 104.083 88.5494C104.104 88.4942 104.114 88.4298 104.114 88.3565C104.114 88.2831 104.104 88.2192 104.083 88.1649C104.063 88.1108 104.033 88.0687 103.993 88.0387C103.954 88.0085 103.905 87.9935 103.847 87.9935C103.788 87.9935 103.738 88.009 103.698 88.04C103.658 88.0711 103.628 88.1139 103.608 88.1688C103.588 88.2234 103.578 88.286 103.578 88.3565C103.578 88.4274 103.588 88.4907 103.608 88.5464C103.629 88.6016 103.659 88.6453 103.699 88.6772C103.739 88.7088 103.789 88.7246 103.847 88.7246ZM104.989 88.9471C104.917 88.9471 104.853 88.9343 104.795 88.9086C104.738 88.8826 104.692 88.8441 104.659 88.7933C104.626 88.7426 104.609 88.68 104.609 88.6056C104.609 88.5415 104.621 88.4885 104.645 88.4467C104.668 88.4047 104.701 88.3712 104.742 88.346C104.783 88.3209 104.829 88.302 104.88 88.2891C104.932 88.2758 104.985 88.2662 105.04 88.2603C105.107 88.2534 105.161 88.2473 105.202 88.2418C105.244 88.2359 105.274 88.227 105.292 88.2152C105.312 88.2029 105.321 88.184 105.321 88.1583V88.1538C105.321 88.0982 105.305 88.0551 105.272 88.0246C105.239 87.9939 105.191 87.9786 105.129 87.9786C105.063 87.9786 105.012 87.993 104.973 88.0216C104.935 88.0501 104.91 88.0839 104.896 88.1228L104.646 88.0874C104.666 88.0184 104.699 87.9608 104.744 87.9144C104.789 87.8676 104.845 87.8326 104.91 87.8095C104.976 87.7857 105.048 87.7739 105.128 87.7739C105.182 87.7739 105.237 87.7803 105.291 87.7932C105.345 87.806 105.395 87.8272 105.44 87.8567C105.484 87.8858 105.52 87.9255 105.547 87.9757C105.575 88.026 105.589 88.0888 105.589 88.1642V88.9242H105.332V88.7683H105.323C105.306 88.7997 105.284 88.8293 105.254 88.8569C105.225 88.884 105.188 88.906 105.144 88.9227C105.1 88.939 105.049 88.9471 104.989 88.9471ZM105.059 88.7504C105.113 88.7504 105.159 88.7398 105.199 88.7187C105.238 88.697 105.268 88.6684 105.289 88.633C105.311 88.5974 105.322 88.5587 105.322 88.5169V88.383C105.314 88.3899 105.299 88.3963 105.279 88.4022C105.259 88.4081 105.237 88.4133 105.213 88.4179C105.188 88.4222 105.164 88.4262 105.139 88.4297C105.115 88.4331 105.094 88.4361 105.077 88.4385C105.037 88.4439 105.001 88.4527 104.969 88.465C104.938 88.4774 104.913 88.4947 104.895 88.5169C104.876 88.5386 104.867 88.5667 104.867 88.601C104.867 88.6505 104.885 88.6876 104.921 88.7128C104.957 88.7379 105.003 88.7504 105.059 88.7504ZM106.126 88.2588V88.9242H105.858V87.7887H106.114V87.9816H106.127C106.153 87.9181 106.195 87.8676 106.252 87.8301C106.31 87.7927 106.381 87.7739 106.466 87.7739C106.544 87.7739 106.612 87.7908 106.67 87.8242C106.729 87.8577 106.774 87.9063 106.806 87.9698C106.839 88.0334 106.855 88.1105 106.854 88.2012V88.9242H106.587V88.2427C106.587 88.1667 106.567 88.1073 106.528 88.0645C106.489 88.0216 106.435 88.0001 106.366 88.0001C106.319 88.0001 106.277 88.0105 106.241 88.0312C106.205 88.0513 106.177 88.0806 106.156 88.1191C106.136 88.1577 106.126 88.2041 106.126 88.2588ZM107.622 88.9463C107.508 88.9463 107.411 88.9215 107.33 88.8717C107.249 88.8219 107.187 88.7532 107.143 88.6654C107.099 88.5773 107.078 88.4756 107.078 88.3608C107.078 88.2456 107.1 88.1438 107.144 88.0557C107.188 87.9668 107.251 87.8978 107.332 87.8485C107.413 87.7987 107.509 87.7739 107.62 87.7739C107.712 87.7739 107.794 87.7909 107.865 87.8249C107.936 87.8584 107.993 87.9059 108.036 87.9675C108.078 88.0288 108.102 88.1002 108.108 88.1819H107.852C107.842 88.1273 107.817 88.0817 107.778 88.0452C107.74 88.0083 107.688 87.9897 107.624 87.9897C107.569 87.9897 107.521 88.0047 107.48 88.0341C107.438 88.0633 107.406 88.1051 107.383 88.1597C107.36 88.2146 107.349 88.2801 107.349 88.3565C107.349 88.4338 107.36 88.5003 107.383 88.5559C107.406 88.6113 107.437 88.6538 107.478 88.684C107.52 88.7135 107.568 88.7282 107.624 88.7282C107.663 88.7282 107.699 88.7209 107.73 88.7062C107.761 88.6907 107.788 88.6689 107.809 88.6403C107.83 88.6118 107.845 88.5769 107.852 88.536H108.108C108.102 88.6165 108.078 88.6876 108.037 88.7497C107.996 88.8113 107.941 88.8595 107.87 88.8946C107.8 88.9291 107.717 88.9463 107.622 88.9463ZM108.831 88.9463C108.717 88.9463 108.618 88.9227 108.536 88.8753C108.453 88.8276 108.39 88.7601 108.346 88.6729C108.301 88.5851 108.279 88.4819 108.279 88.363C108.279 88.2463 108.301 88.1438 108.346 88.0557C108.39 87.9668 108.453 87.8978 108.533 87.8485C108.614 87.7987 108.708 87.7739 108.817 87.7739C108.886 87.7739 108.953 87.7852 109.015 87.8079C109.077 87.8301 109.132 87.8647 109.18 87.9115C109.229 87.9582 109.267 88.0178 109.294 88.0903C109.322 88.1623 109.335 88.248 109.335 88.3476V88.4297H108.405V88.2492H109.079C109.078 88.1981 109.067 88.1524 109.046 88.1126C109.024 88.0721 108.994 88.0402 108.955 88.0171C108.916 87.9939 108.872 87.9824 108.82 87.9824C108.766 87.9824 108.717 87.9956 108.676 88.0223C108.635 88.0484 108.602 88.0829 108.579 88.1257C108.557 88.1682 108.545 88.2147 108.545 88.2656V88.4229C108.545 88.489 108.557 88.5457 108.581 88.5931C108.605 88.6397 108.639 88.6758 108.682 88.701C108.725 88.7256 108.776 88.7379 108.834 88.7379C108.873 88.7379 108.908 88.7325 108.94 88.7216C108.971 88.7103 108.999 88.6939 109.022 88.6722C109.045 88.6505 109.063 88.6236 109.074 88.5915L109.324 88.6196C109.309 88.6857 109.278 88.7433 109.234 88.7926C109.19 88.8413 109.134 88.8793 109.066 88.9064C108.997 88.9331 108.919 88.9463 108.831 88.9463Z" fill="white"/>
<path d="M180.105 100.641H88.5114C87.3617 100.641 86.4297 101.573 86.4297 102.722V111.743C86.4297 112.893 87.3617 113.825 88.5114 113.825H180.105C181.255 113.825 182.187 112.893 182.187 111.743V102.722C182.187 101.573 181.255 100.641 180.105 100.641Z" fill="#2E2E48"/>
<path d="M90.7727 108.962C90.6773 108.962 90.5956 108.928 90.5276 108.86C90.4596 108.792 90.4256 108.71 90.4258 108.615V106.186C90.4258 106.091 90.4598 106.009 90.5278 105.941C90.5958 105.873 90.6775 105.839 90.7727 105.839H90.9462V105.666C90.9462 105.616 90.9629 105.575 90.9962 105.542C91.0295 105.509 91.0706 105.492 91.1197 105.492C91.1688 105.492 91.2101 105.509 91.2434 105.542C91.2767 105.575 91.2933 105.617 91.2931 105.666V105.839H92.6809V105.666C92.6809 105.616 92.6976 105.575 92.7309 105.542C92.7642 105.509 92.8053 105.492 92.8544 105.492C92.9035 105.492 92.9448 105.509 92.9781 105.542C93.0114 105.575 93.028 105.617 93.0279 105.666V105.839H93.2013C93.2968 105.839 93.3785 105.873 93.4465 105.941C93.5145 106.009 93.5485 106.091 93.5483 106.186V108.615C93.5483 108.71 93.5143 108.792 93.4463 108.86C93.3783 108.928 93.2966 108.962 93.2013 108.962H90.7727ZM90.7727 108.615H93.2013V106.88H90.7727V108.615ZM91.9133 108.285L91.7702 107.964L91.4493 107.821C91.4175 107.806 91.4016 107.782 91.4016 107.747C91.4016 107.713 91.4175 107.688 91.4493 107.674L91.7702 107.53L91.9133 107.21C91.9277 107.178 91.9523 107.162 91.987 107.162C92.0217 107.162 92.0464 107.178 92.0608 107.21L92.2039 107.53L92.5248 107.674C92.5566 107.688 92.5725 107.713 92.5725 107.747C92.5725 107.782 92.5566 107.806 92.5248 107.821L92.2039 107.964L92.0608 108.285C92.0464 108.317 92.0217 108.333 91.987 108.333C91.9523 108.333 91.9277 108.317 91.9133 108.285Z" fill="white"/>
<path d="M98.6823 106.911C98.6753 106.847 98.6462 106.796 98.595 106.76C98.5442 106.724 98.4783 106.706 98.3969 106.706C98.3397 106.706 98.2908 106.715 98.2498 106.732C98.2089 106.75 98.1777 106.773 98.156 106.802C98.1343 106.832 98.1232 106.866 98.1227 106.904C98.1227 106.935 98.1298 106.963 98.144 106.986C98.1589 107.009 98.1789 107.029 98.204 107.045C98.229 107.061 98.2569 107.074 98.2875 107.085C98.318 107.096 98.3489 107.105 98.3799 107.112L98.5218 107.148C98.5791 107.161 98.6339 107.179 98.6866 107.202C98.7399 107.224 98.7874 107.253 98.8294 107.288C98.8717 107.322 98.9052 107.363 98.9298 107.412C98.9545 107.461 98.9668 107.518 98.9668 107.584C98.9668 107.673 98.9442 107.751 98.8988 107.818C98.8535 107.885 98.7879 107.938 98.7022 107.976C98.6169 108.013 98.5137 108.032 98.3924 108.032C98.2746 108.032 98.1724 108.014 98.0857 107.977C97.9995 107.941 97.9318 107.887 97.8831 107.817C97.8349 107.748 97.8087 107.662 97.8047 107.562H98.0746C98.0786 107.615 98.0947 107.658 98.1234 107.693C98.152 107.728 98.1891 107.754 98.2351 107.772C98.2814 107.789 98.3331 107.798 98.3902 107.798C98.4498 107.798 98.502 107.789 98.547 107.771C98.5922 107.753 98.6278 107.727 98.6535 107.696C98.679 107.663 98.6922 107.625 98.6925 107.582C98.6922 107.542 98.6806 107.51 98.6578 107.484C98.6351 107.458 98.6034 107.436 98.5624 107.419C98.522 107.401 98.4748 107.386 98.4205 107.372L98.2483 107.327C98.1237 107.295 98.025 107.247 97.9527 107.182C97.8807 107.116 97.8448 107.029 97.8448 106.921C97.8448 106.832 97.8689 106.753 97.9171 106.686C97.9658 106.619 98.0323 106.567 98.1159 106.53C98.1997 106.493 98.2946 106.474 98.4006 106.474C98.5079 106.474 98.6021 106.493 98.683 106.53C98.7643 106.567 98.8282 106.619 98.8745 106.685C98.9208 106.75 98.9446 106.826 98.9461 106.911H98.6823ZM99.6948 108.031C99.5814 108.031 99.4841 108.006 99.4027 107.956C99.3221 107.907 99.2596 107.838 99.2157 107.75C99.1723 107.662 99.1507 107.56 99.1507 107.446C99.1507 107.33 99.1729 107.229 99.2173 107.14C99.2617 107.052 99.3241 106.983 99.405 106.933C99.4863 106.883 99.5824 106.859 99.6933 106.859C99.7854 106.859 99.8671 106.876 99.9381 106.91C100.01 106.943 100.066 106.991 100.109 107.052C100.151 107.114 100.175 107.185 100.181 107.267H99.9254C99.9152 107.212 99.8905 107.166 99.8515 107.13C99.8132 107.093 99.7616 107.074 99.6969 107.074C99.6423 107.074 99.5942 107.089 99.5529 107.119C99.5115 107.148 99.4792 107.19 99.456 107.244C99.4334 107.299 99.422 107.365 99.422 107.441C99.422 107.519 99.4334 107.585 99.456 107.641C99.4787 107.696 99.5104 107.739 99.5514 107.769C99.5928 107.798 99.6412 107.813 99.6969 107.813C99.7365 107.813 99.7717 107.806 99.8027 107.791C99.8343 107.775 99.8607 107.754 99.8818 107.725C99.903 107.697 99.9176 107.662 99.9254 107.621H100.181C100.175 107.701 100.151 107.772 100.11 107.834C100.069 107.896 100.014 107.944 99.9433 107.979C99.8727 108.014 99.7899 108.031 99.6948 108.031ZM100.669 107.344V108.009H100.401V106.495H100.663V107.066H100.676C100.703 107.002 100.744 106.952 100.799 106.915C100.856 106.877 100.927 106.859 101.014 106.859C101.093 106.859 101.161 106.875 101.22 106.908C101.279 106.941 101.324 106.989 101.356 107.053C101.389 107.117 101.405 107.194 101.405 107.286V108.009H101.137V107.327C101.137 107.251 101.117 107.192 101.078 107.149C101.039 107.106 100.984 107.085 100.914 107.085C100.867 107.085 100.824 107.095 100.787 107.116C100.75 107.136 100.721 107.165 100.7 107.204C100.679 107.242 100.669 107.289 100.669 107.344ZM102.18 108.031C102.066 108.031 101.968 108.007 101.885 107.96C101.803 107.912 101.74 107.845 101.695 107.758C101.651 107.67 101.629 107.567 101.629 107.448C101.629 107.331 101.651 107.229 101.695 107.14C101.74 107.052 101.803 106.983 101.883 106.933C101.963 106.883 102.058 106.859 102.166 106.859C102.236 106.859 102.302 106.87 102.364 106.893C102.427 106.915 102.482 106.949 102.53 106.996C102.578 107.043 102.616 107.103 102.644 107.175C102.671 107.247 102.685 107.333 102.685 107.432V107.514H101.754V107.334H102.429C102.428 107.283 102.417 107.237 102.395 107.197C102.374 107.157 102.343 107.125 102.304 107.102C102.266 107.079 102.221 107.067 102.17 107.067C102.115 107.067 102.067 107.08 102.026 107.107C101.984 107.133 101.952 107.168 101.929 107.21C101.906 107.253 101.895 107.299 101.894 107.35V107.508C101.894 107.574 101.906 107.63 101.93 107.678C101.955 107.724 101.988 107.761 102.032 107.786C102.075 107.81 102.126 107.823 102.184 107.823C102.223 107.823 102.258 107.817 102.29 107.806C102.321 107.795 102.349 107.779 102.372 107.757C102.395 107.735 102.412 107.708 102.424 107.676L102.674 107.704C102.658 107.77 102.628 107.828 102.584 107.877C102.54 107.926 102.484 107.964 102.415 107.991C102.347 108.018 102.268 108.031 102.18 108.031ZM103.333 108.029C103.244 108.029 103.164 108.006 103.093 107.96C103.023 107.914 102.967 107.848 102.926 107.761C102.885 107.673 102.865 107.567 102.865 107.443C102.865 107.316 102.886 107.21 102.927 107.123C102.969 107.036 103.025 106.97 103.096 106.926C103.167 106.881 103.246 106.859 103.334 106.859C103.4 106.859 103.455 106.87 103.498 106.893C103.541 106.915 103.575 106.942 103.6 106.973C103.625 107.004 103.644 107.034 103.658 107.061H103.669V106.495H103.938V108.009H103.674V107.83H103.658C103.644 107.858 103.624 107.887 103.598 107.918C103.572 107.949 103.538 107.975 103.495 107.996C103.452 108.018 103.398 108.029 103.333 108.029ZM103.408 107.809C103.464 107.809 103.513 107.794 103.553 107.764C103.592 107.732 103.623 107.689 103.643 107.634C103.664 107.579 103.674 107.515 103.674 107.441C103.674 107.368 103.664 107.304 103.643 107.25C103.623 107.196 103.593 107.153 103.553 107.123C103.514 107.093 103.465 107.078 103.408 107.078C103.348 107.078 103.298 107.094 103.258 107.125C103.218 107.156 103.188 107.199 103.168 107.254C103.148 107.308 103.138 107.371 103.138 107.441C103.138 107.512 103.148 107.575 103.168 107.631C103.189 107.686 103.219 107.73 103.259 107.762C103.299 107.794 103.349 107.809 103.408 107.809ZM104.946 107.531V106.873H105.214V108.009H104.955V107.807H104.943C104.917 107.871 104.875 107.923 104.816 107.963C104.758 108.003 104.687 108.024 104.601 108.024C104.527 108.024 104.461 108.007 104.404 107.974C104.347 107.941 104.303 107.892 104.271 107.829C104.239 107.765 104.223 107.687 104.223 107.596V106.873H104.49V107.555C104.49 107.627 104.51 107.684 104.549 107.727C104.589 107.769 104.641 107.79 104.705 107.79C104.744 107.79 104.782 107.781 104.819 107.761C104.856 107.742 104.887 107.714 104.91 107.676C104.934 107.637 104.946 107.589 104.946 107.531ZM105.757 106.495V108.009H105.489V106.495H105.757ZM106.032 108.009V106.873H106.3V108.009H106.032ZM106.167 106.712C106.124 106.712 106.088 106.698 106.057 106.67C106.027 106.642 106.011 106.607 106.011 106.567C106.011 106.527 106.027 106.493 106.057 106.465C106.088 106.436 106.124 106.422 106.167 106.422C106.209 106.422 106.246 106.436 106.276 106.465C106.307 106.493 106.322 106.527 106.322 106.567C106.322 106.607 106.307 106.642 106.276 106.67C106.246 106.698 106.209 106.712 106.167 106.712ZM106.842 107.344V108.009H106.575V106.873H106.831V107.066H106.844C106.87 107.003 106.912 106.952 106.969 106.915C107.027 106.877 107.098 106.859 107.182 106.859C107.261 106.859 107.329 106.876 107.387 106.909C107.446 106.942 107.491 106.991 107.523 107.055C107.556 107.118 107.572 107.195 107.571 107.286V108.009H107.304V107.327C107.304 107.251 107.284 107.192 107.245 107.149C107.206 107.106 107.152 107.085 107.083 107.085C107.036 107.085 106.994 107.095 106.958 107.116C106.922 107.136 106.893 107.165 106.873 107.204C106.853 107.242 106.842 107.289 106.842 107.344ZM108.337 108.458C108.241 108.458 108.158 108.445 108.09 108.419C108.021 108.394 107.965 108.359 107.923 108.316C107.881 108.272 107.852 108.224 107.836 108.172L108.077 108.113C108.088 108.135 108.104 108.157 108.124 108.179C108.145 108.201 108.173 108.219 108.208 108.234C108.243 108.248 108.288 108.256 108.342 108.256C108.417 108.256 108.48 108.237 108.53 108.2C108.58 108.164 108.605 108.104 108.605 108.02V107.805H108.591C108.578 107.833 108.557 107.861 108.531 107.89C108.505 107.919 108.47 107.943 108.427 107.963C108.384 107.983 108.33 107.993 108.265 107.993C108.178 107.993 108.098 107.972 108.027 107.931C107.957 107.89 107.901 107.828 107.859 107.747C107.818 107.664 107.797 107.561 107.797 107.438C107.797 107.313 107.818 107.208 107.859 107.122C107.901 107.036 107.957 106.97 108.028 106.926C108.099 106.881 108.178 106.859 108.265 106.859C108.332 106.859 108.387 106.87 108.43 106.893C108.473 106.915 108.507 106.942 108.533 106.973C108.559 107.004 108.578 107.034 108.591 107.061H108.606V106.873H108.87V108.027C108.87 108.125 108.847 108.205 108.801 108.268C108.754 108.332 108.691 108.38 108.611 108.411C108.53 108.443 108.439 108.458 108.337 108.458ZM108.339 107.783C108.396 107.783 108.444 107.769 108.484 107.741C108.524 107.714 108.554 107.674 108.575 107.622C108.596 107.571 108.606 107.509 108.606 107.436C108.606 107.365 108.596 107.302 108.575 107.248C108.555 107.195 108.525 107.153 108.485 107.123C108.446 107.093 108.397 107.078 108.339 107.078C108.28 107.078 108.23 107.094 108.19 107.125C108.15 107.156 108.12 107.199 108.1 107.253C108.08 107.306 108.07 107.367 108.07 107.436C108.07 107.506 108.08 107.566 108.1 107.619C108.121 107.67 108.151 107.711 108.191 107.74C108.231 107.768 108.281 107.783 108.339 107.783Z" fill="white"/>
<path d="M180.105 119.719H88.5114C87.3617 119.719 86.4297 120.651 86.4297 121.8V130.821C86.4297 131.971 87.3617 132.903 88.5114 132.903H180.105C181.255 132.903 182.187 131.971 182.187 130.821V121.8C182.187 120.651 181.255 119.719 180.105 119.719Z" fill="#2E2E48"/>
<path d="M91.9847 124.926H90.7704C90.6323 124.926 90.5 124.981 90.4025 125.078C90.3048 125.176 90.25 125.308 90.25 125.446V126.834C90.25 126.972 90.3048 127.104 90.4025 127.202C90.5 127.3 90.6323 127.354 90.7704 127.354L90.5969 127.528V127.701H90.7704L91.1174 127.349L91.4643 127.354V126.487H90.5969V125.273H92.1582V125.62H92.5051V125.446C92.5051 125.308 92.4503 125.176 92.3527 125.078C92.2552 124.981 92.1228 124.926 91.9847 124.926ZM90.7704 126.661C90.8164 126.661 90.8606 126.679 90.8931 126.711C90.9257 126.744 90.9439 126.788 90.9439 126.834C90.9439 126.88 90.9257 126.924 90.8931 126.957C90.8606 126.989 90.8164 127.007 90.7704 127.007C90.7244 127.007 90.6802 126.989 90.6478 126.957C90.6152 126.924 90.5969 126.88 90.5969 126.834C90.5969 126.788 90.6152 126.744 90.6478 126.711C90.6802 126.679 90.7244 126.661 90.7704 126.661ZM93.4714 125.908C93.4471 125.838 93.3812 125.793 93.3031 125.793H92.0559C91.9761 125.793 91.9119 125.838 91.8858 125.908L91.6378 126.621V127.576C91.6378 127.642 91.6933 127.701 91.7592 127.701H91.8668C91.9327 127.701 91.9847 127.635 91.9847 127.57V127.354H93.3725V127.57C93.3725 127.635 93.4263 127.701 93.4922 127.701H93.598C93.6639 127.701 93.7195 127.642 93.7195 127.576V126.621L93.4714 125.908ZM92.0559 125.967H93.3031L93.4818 126.487H91.8772L92.0559 125.967ZM91.9847 127.007C91.9388 127.007 91.8945 126.989 91.8621 126.957C91.8295 126.924 91.8113 126.88 91.8113 126.834C91.8113 126.788 91.8295 126.744 91.8621 126.711C91.8945 126.679 91.9388 126.661 91.9847 126.661C92.0307 126.661 92.0749 126.679 92.1074 126.711C92.14 126.744 92.1582 126.788 92.1582 126.834C92.1582 126.88 92.14 126.924 92.1074 126.957C92.0749 126.989 92.0307 127.007 91.9847 127.007ZM93.3725 127.007C93.3265 127.007 93.2823 126.989 93.2499 126.957C93.2173 126.924 93.199 126.88 93.199 126.834C93.199 126.788 93.2173 126.744 93.2499 126.711C93.2823 126.679 93.3265 126.661 93.3725 126.661C93.4185 126.661 93.4627 126.679 93.4952 126.711C93.5278 126.744 93.546 126.788 93.546 126.834C93.546 126.88 93.5278 126.924 93.4952 126.957C93.4627 126.989 93.4185 127.007 93.3725 127.007Z" fill="white"/>
<path d="M97.793 125.807V125.577H99.0009V125.807H98.533V127.091H98.261V125.807H97.793ZM99.1041 127.091V125.955H99.3636V126.145H99.3754C99.396 126.079 99.4316 126.029 99.4817 125.993C99.5326 125.957 99.5905 125.939 99.6555 125.939C99.6703 125.939 99.6868 125.94 99.705 125.941C99.7237 125.942 99.7393 125.944 99.7517 125.947V126.193C99.7402 126.189 99.7223 126.185 99.6977 126.182C99.6734 126.179 99.6502 126.177 99.6274 126.177C99.5787 126.177 99.5348 126.188 99.4958 126.209C99.4574 126.23 99.4271 126.259 99.4049 126.295C99.3827 126.332 99.3716 126.375 99.3716 126.423V127.091H99.1041ZM100.236 127.114C100.164 127.114 100.099 127.101 100.041 127.075C99.9843 127.049 99.9388 127.011 99.9053 126.96C99.8724 126.909 99.8559 126.847 99.8559 126.772C99.8559 126.708 99.8677 126.655 99.8913 126.613C99.9151 126.571 99.9473 126.538 99.9881 126.513C100.029 126.488 100.075 126.469 100.126 126.456C100.178 126.443 100.232 126.433 100.287 126.427C100.353 126.42 100.407 126.414 100.449 126.409C100.49 126.403 100.52 126.394 100.539 126.382C100.558 126.37 100.568 126.351 100.568 126.325V126.321C100.568 126.265 100.551 126.222 100.518 126.191C100.485 126.161 100.438 126.145 100.375 126.145C100.31 126.145 100.258 126.16 100.22 126.188C100.182 126.217 100.156 126.251 100.143 126.29L99.8929 126.254C99.9125 126.185 99.9451 126.128 99.9903 126.081C100.036 126.034 100.091 125.999 100.157 125.976C100.222 125.953 100.295 125.941 100.374 125.941C100.429 125.941 100.483 125.947 100.537 125.96C100.592 125.973 100.641 125.994 100.686 126.023C100.731 126.053 100.767 126.092 100.794 126.142C100.821 126.193 100.835 126.256 100.835 126.331V127.091H100.578V126.935H100.569C100.553 126.966 100.53 126.996 100.501 127.024C100.471 127.051 100.435 127.073 100.39 127.089C100.346 127.106 100.295 127.114 100.236 127.114ZM100.305 126.917C100.359 126.917 100.406 126.907 100.445 126.885C100.484 126.864 100.515 126.835 100.536 126.8C100.558 126.764 100.569 126.726 100.569 126.684V126.55C100.56 126.557 100.546 126.563 100.526 126.569C100.506 126.575 100.484 126.58 100.459 126.585C100.434 126.589 100.41 126.593 100.386 126.596C100.362 126.6 100.341 126.603 100.323 126.605C100.283 126.611 100.247 126.62 100.216 126.632C100.184 126.644 100.159 126.661 100.141 126.684C100.123 126.705 100.114 126.733 100.114 126.768C100.114 126.817 100.132 126.854 100.168 126.88C100.204 126.905 100.25 126.917 100.305 126.917ZM101.372 126.426V127.091H101.104V125.955H101.36V126.148H101.373C101.4 126.085 101.441 126.034 101.498 125.997C101.556 125.959 101.627 125.941 101.712 125.941C101.79 125.941 101.859 125.958 101.917 125.991C101.975 126.025 102.021 126.073 102.053 126.137C102.085 126.2 102.101 126.277 102.101 126.368V127.091H101.833V126.409C101.833 126.333 101.814 126.274 101.774 126.231C101.735 126.188 101.681 126.167 101.612 126.167C101.565 126.167 101.524 126.177 101.487 126.198C101.451 126.218 101.423 126.247 101.402 126.286C101.382 126.324 101.372 126.371 101.372 126.426ZM103.27 126.256L103.026 126.282C103.02 126.258 103.007 126.234 102.99 126.213C102.973 126.191 102.951 126.174 102.922 126.16C102.894 126.147 102.859 126.14 102.817 126.14C102.762 126.14 102.715 126.152 102.677 126.176C102.639 126.201 102.621 126.232 102.621 126.27C102.621 126.303 102.633 126.33 102.657 126.351C102.683 126.372 102.724 126.389 102.782 126.402L102.975 126.443C103.083 126.467 103.163 126.503 103.215 126.554C103.268 126.604 103.294 126.67 103.295 126.751C103.294 126.822 103.273 126.885 103.232 126.94C103.191 126.994 103.134 127.037 103.061 127.067C102.988 127.098 102.904 127.113 102.81 127.113C102.671 127.113 102.559 127.084 102.474 127.026C102.389 126.967 102.339 126.886 102.323 126.781L102.584 126.756C102.595 126.807 102.621 126.846 102.659 126.872C102.697 126.898 102.748 126.911 102.809 126.911C102.873 126.911 102.924 126.898 102.962 126.872C103.001 126.846 103.021 126.814 103.021 126.775C103.021 126.743 103.008 126.716 102.983 126.695C102.958 126.673 102.92 126.657 102.867 126.646L102.674 126.605C102.565 126.583 102.484 126.544 102.432 126.491C102.38 126.437 102.354 126.368 102.354 126.285C102.354 126.215 102.373 126.155 102.411 126.103C102.45 126.052 102.504 126.012 102.573 125.984C102.643 125.955 102.723 125.941 102.813 125.941C102.947 125.941 103.051 125.969 103.128 126.026C103.205 126.082 103.252 126.159 103.27 126.256ZM103.515 127.517V125.955H103.779V126.143H103.794C103.808 126.116 103.827 126.086 103.853 126.055C103.878 126.024 103.912 125.997 103.955 125.975C103.997 125.952 104.052 125.941 104.119 125.941C104.206 125.941 104.285 125.963 104.356 126.008C104.427 126.052 104.483 126.118 104.524 126.205C104.566 126.292 104.587 126.399 104.587 126.525C104.587 126.649 104.567 126.755 104.526 126.843C104.485 126.93 104.429 126.996 104.359 127.042C104.288 127.088 104.209 127.111 104.119 127.111C104.054 127.111 104 127.1 103.958 127.078C103.915 127.057 103.88 127.031 103.854 127C103.828 126.969 103.808 126.94 103.794 126.912H103.783V127.517H103.515ZM103.778 126.523C103.778 126.597 103.788 126.661 103.809 126.716C103.83 126.771 103.86 126.814 103.9 126.846C103.94 126.876 103.988 126.891 104.045 126.891C104.104 126.891 104.153 126.876 104.193 126.844C104.233 126.812 104.263 126.768 104.283 126.713C104.304 126.658 104.315 126.594 104.315 126.523C104.315 126.453 104.304 126.39 104.284 126.336C104.264 126.281 104.234 126.238 104.194 126.207C104.154 126.176 104.104 126.16 104.045 126.16C103.988 126.16 103.939 126.175 103.899 126.205C103.859 126.235 103.829 126.278 103.808 126.332C103.788 126.386 103.778 126.45 103.778 126.523ZM105.312 127.113C105.201 127.113 105.105 127.089 105.024 127.04C104.942 126.991 104.879 126.923 104.834 126.835C104.79 126.748 104.768 126.645 104.768 126.528C104.768 126.41 104.79 126.308 104.834 126.219C104.879 126.131 104.942 126.063 105.024 126.014C105.105 125.965 105.201 125.941 105.312 125.941C105.423 125.941 105.519 125.965 105.6 126.014C105.681 126.063 105.744 126.131 105.789 126.219C105.833 126.308 105.856 126.41 105.856 126.528C105.856 126.645 105.833 126.748 105.789 126.835C105.744 126.923 105.681 126.991 105.6 127.04C105.519 127.089 105.423 127.113 105.312 127.113ZM105.313 126.899C105.373 126.899 105.424 126.882 105.464 126.849C105.504 126.816 105.535 126.771 105.554 126.715C105.574 126.659 105.585 126.596 105.585 126.527C105.585 126.457 105.574 126.395 105.554 126.338C105.535 126.282 105.504 126.237 105.464 126.203C105.424 126.17 105.373 126.153 105.313 126.153C105.252 126.153 105.2 126.17 105.16 126.203C105.119 126.237 105.089 126.282 105.069 126.338C105.049 126.395 105.039 126.457 105.039 126.527C105.039 126.596 105.049 126.659 105.069 126.715C105.089 126.771 105.119 126.816 105.16 126.849C105.2 126.882 105.252 126.899 105.313 126.899ZM106.083 127.091V125.955H106.342V126.145H106.354C106.375 126.079 106.41 126.029 106.461 125.993C106.511 125.957 106.569 125.939 106.634 125.939C106.649 125.939 106.666 125.94 106.684 125.941C106.703 125.942 106.718 125.944 106.73 125.947V126.193C106.719 126.189 106.701 126.185 106.677 126.182C106.652 126.179 106.629 126.177 106.606 126.177C106.558 126.177 106.514 126.188 106.475 126.209C106.436 126.23 106.406 126.259 106.384 126.295C106.362 126.332 106.351 126.375 106.351 126.423V127.091H106.083ZM107.536 125.955V126.162H106.883V125.955H107.536ZM107.045 125.683H107.312V126.749C107.312 126.785 107.318 126.813 107.329 126.832C107.34 126.851 107.355 126.864 107.373 126.871C107.391 126.878 107.411 126.881 107.434 126.881C107.45 126.881 107.465 126.88 107.479 126.877C107.494 126.875 107.505 126.873 107.512 126.871L107.557 127.08C107.543 127.085 107.522 127.09 107.496 127.096C107.469 127.102 107.438 127.105 107.4 127.106C107.332 127.109 107.272 127.098 107.218 127.076C107.165 127.054 107.122 127.019 107.091 126.971C107.06 126.924 107.044 126.865 107.045 126.794V125.683ZM108.087 127.114C108.015 127.114 107.95 127.101 107.892 127.075C107.835 127.049 107.79 127.011 107.756 126.96C107.723 126.909 107.707 126.847 107.707 126.772C107.707 126.708 107.719 126.655 107.742 126.613C107.766 126.571 107.798 126.538 107.839 126.513C107.88 126.488 107.926 126.469 107.977 126.456C108.029 126.443 108.083 126.433 108.138 126.427C108.204 126.42 108.258 126.414 108.3 126.409C108.341 126.403 108.371 126.394 108.39 126.382C108.409 126.37 108.419 126.351 108.419 126.325V126.321C108.419 126.265 108.402 126.222 108.369 126.191C108.336 126.161 108.289 126.145 108.227 126.145C108.161 126.145 108.109 126.16 108.071 126.188C108.033 126.217 108.007 126.251 107.994 126.29L107.744 126.254C107.764 126.185 107.796 126.128 107.841 126.081C107.887 126.034 107.942 125.999 108.008 125.976C108.073 125.953 108.146 125.941 108.225 125.941C108.28 125.941 108.334 125.947 108.388 125.96C108.443 125.973 108.492 125.994 108.537 126.023C108.582 126.053 108.618 126.092 108.645 126.142C108.672 126.193 108.686 126.256 108.686 126.331V127.091H108.429V126.935H108.42C108.404 126.966 108.381 126.996 108.351 127.024C108.322 127.051 108.286 127.073 108.241 127.089C108.198 127.106 108.146 127.114 108.087 127.114ZM108.156 126.917C108.21 126.917 108.257 126.907 108.296 126.885C108.335 126.864 108.366 126.835 108.387 126.8C108.409 126.764 108.419 126.726 108.419 126.684V126.55C108.411 126.557 108.397 126.563 108.377 126.569C108.357 126.575 108.335 126.58 108.31 126.585C108.285 126.589 108.261 126.593 108.237 126.596C108.213 126.6 108.192 126.603 108.174 126.605C108.134 126.611 108.098 126.62 108.067 126.632C108.035 126.644 108.01 126.661 107.992 126.684C107.974 126.705 107.965 126.733 107.965 126.768C107.965 126.817 107.983 126.854 108.019 126.88C108.055 126.905 108.101 126.917 108.156 126.917ZM109.522 125.955V126.162H108.87V125.955H109.522ZM109.031 125.683H109.298V126.749C109.298 126.785 109.304 126.813 109.315 126.832C109.326 126.851 109.341 126.864 109.359 126.871C109.377 126.878 109.397 126.881 109.42 126.881C109.436 126.881 109.452 126.88 109.465 126.877C109.48 126.875 109.491 126.873 109.498 126.871L109.543 127.08C109.529 127.085 109.508 127.09 109.482 127.096C109.456 127.102 109.424 127.105 109.386 127.106C109.319 127.109 109.258 127.098 109.205 127.076C109.151 127.054 109.108 127.019 109.077 126.971C109.046 126.924 109.03 126.865 109.031 126.794V125.683ZM109.746 127.091V125.955H110.014V127.091H109.746ZM109.881 125.794C109.838 125.794 109.802 125.78 109.771 125.752C109.741 125.724 109.725 125.689 109.725 125.649C109.725 125.609 109.741 125.575 109.771 125.547C109.802 125.518 109.838 125.504 109.881 125.504C109.924 125.504 109.96 125.518 109.99 125.547C110.021 125.575 110.036 125.609 110.036 125.649C110.036 125.689 110.021 125.724 109.99 125.752C109.96 125.78 109.924 125.794 109.881 125.794ZM110.784 127.113C110.673 127.113 110.577 127.089 110.496 127.04C110.415 126.991 110.352 126.923 110.307 126.835C110.262 126.748 110.24 126.645 110.24 126.528C110.24 126.41 110.262 126.308 110.307 126.219C110.352 126.131 110.415 126.063 110.496 126.014C110.577 125.965 110.673 125.941 110.784 125.941C110.895 125.941 110.991 125.965 111.073 126.014C111.154 126.063 111.217 126.131 111.261 126.219C111.306 126.308 111.328 126.41 111.328 126.528C111.328 126.645 111.306 126.748 111.261 126.835C111.217 126.923 111.154 126.991 111.073 127.04C110.991 127.089 110.895 127.113 110.784 127.113ZM110.786 126.899C110.846 126.899 110.896 126.882 110.936 126.849C110.977 126.816 111.007 126.771 111.027 126.715C111.047 126.659 111.057 126.596 111.057 126.527C111.057 126.457 111.047 126.395 111.027 126.338C111.007 126.282 110.977 126.237 110.936 126.203C110.896 126.17 110.846 126.153 110.786 126.153C110.724 126.153 110.673 126.17 110.632 126.203C110.592 126.237 110.561 126.282 110.541 126.338C110.521 126.395 110.511 126.457 110.511 126.527C110.511 126.596 110.521 126.659 110.541 126.715C110.561 126.771 110.592 126.816 110.632 126.849C110.673 126.882 110.724 126.899 110.786 126.899ZM111.823 126.426V127.091H111.555V125.955H111.811V126.148H111.824C111.851 126.085 111.892 126.034 111.949 125.997C112.007 125.959 112.078 125.941 112.163 125.941C112.242 125.941 112.31 125.958 112.368 125.991C112.426 126.025 112.472 126.073 112.504 126.137C112.536 126.2 112.552 126.277 112.552 126.368V127.091H112.284V126.409C112.284 126.333 112.265 126.274 112.225 126.231C112.186 126.188 112.132 126.167 112.063 126.167C112.017 126.167 111.975 126.177 111.938 126.198C111.902 126.218 111.874 126.247 111.853 126.286C111.833 126.324 111.823 126.371 111.823 126.426Z" fill="white"/>
</g>
</g>
<defs>
<filter id="filter0_d_3414_41023" x="0.133661" y="0.377378" width="268.291" height="198.033" filterUnits="userSpaceOnUse" color-interpolation-filters="sRGB">
<feFlood flood-opacity="0" result="BackgroundImageFix"/>
<feColorMatrix in="SourceAlpha" type="matrix" values="0 0 0 0 0 0 0 0 0 0 0 0 0 0 0 0 0 0 127 0" result="hardAlpha"/>
<feOffset dy="4.62262"/>
<feGaussianBlur stdDeviation="4.62262"/>
<feComposite in2="hardAlpha" operator="out"/>
<feColorMatrix type="matrix" values="0 0 0 0 0.286275 0 0 0 0 0.286275 0 0 0 0 0.286275 0 0 0 0.25 0"/>
<feBlend mode="normal" in2="BackgroundImageFix" result="effect1_dropShadow_3414_41023"/>
<feBlend mode="normal" in="SourceGraphic" in2="effect1_dropShadow_3414_41023" result="shape"/>
</filter>
<clipPath id="clip0_3414_41023">
<rect x="9.37891" y="5" width="249.801" height="179.545" rx="7.69399" fill="white"/>
</clipPath>
</defs>
</svg>
