<svg width="60" height="57" viewBox="0 0 60 57" fill="none" xmlns="http://www.w3.org/2000/svg">
<rect y="0.6875" width="59.4946" height="56.0949" rx="6.79938" fill="#33357D"/>
<g clip-path="url(#clip0_3234_34025)">
<path d="M45.4553 25.2901C45.4545 25.2888 45.4539 25.2872 45.4531 25.2859L42.1229 19.7905C41.3664 18.5415 39.9892 17.7656 38.5284 17.7656H26.1406C24.7042 17.7656 23.3829 18.4866 22.6063 19.6939L19.1072 25.1299L14.8769 27.2444C14.0902 27.6378 13.6016 28.4286 13.6016 29.3081V33.7312C13.6016 34.3691 13.8693 34.9843 14.3359 35.4189L15.2288 36.2513C15.6576 36.6504 16.2162 36.8702 16.8016 36.8702H17.7734C18.0712 38.4836 19.4875 39.71 21.1858 39.71C22.8841 39.71 24.3004 38.4836 24.5982 36.8702H27.406C27.7544 36.8702 28.0368 36.5877 28.0368 36.2394C28.0368 35.891 27.7544 35.6086 27.406 35.6086H24.5996C24.3007 33.9856 22.8354 32.7681 21.1858 32.7681C19.5355 32.7681 18.0711 33.9871 17.7725 35.6086H16.8016C16.5362 35.6086 16.2829 35.5089 16.0888 35.3282L15.196 34.496C14.9845 34.2989 14.8632 34.0202 14.8632 33.7312V33.4231H16.0148C17.0213 33.4231 17.8401 32.6044 17.8401 31.5979V31.0099C17.8401 30.0034 17.0213 29.1846 16.0148 29.1846H14.8709C14.9115 28.8366 15.1219 28.5324 15.441 28.3728L19.6933 26.2473H26.918C27.6377 26.2473 28.2231 25.6619 28.2231 24.9423V21.8047C28.2231 21.085 27.6377 20.4996 26.918 20.4996H23.5882L23.6673 20.3766C24.2108 19.5317 25.1353 19.0273 26.1406 19.0273H38.5283C39.4805 19.0273 40.3814 19.4986 40.9284 20.2693H40.7494C40.0298 20.2693 39.4443 20.8548 39.4443 21.5743V24.9385C39.4443 25.6581 40.0298 26.2435 40.7494 26.2435H44.5206C44.5968 26.4463 44.637 26.6619 44.637 26.8807V33.7924C44.637 34.654 44.0339 35.3773 43.2278 35.5626C42.9105 33.9597 41.4544 32.768 39.8227 32.768C38.1728 32.768 36.7072 33.987 36.4095 35.6085H33.1108C32.7624 35.6085 32.48 35.891 32.48 36.2393C32.48 36.5876 32.7624 36.8701 33.1108 36.8701H36.4104C36.7082 38.4835 38.1245 39.7099 39.8227 39.7099C41.5313 39.7099 42.9545 38.4687 43.2404 36.8408C44.7396 36.6354 45.8986 35.3472 45.8986 33.7924V26.8807C45.8986 26.3192 45.7452 25.7692 45.4553 25.2901ZM21.1858 38.4483C19.9683 38.4483 18.9777 37.4584 18.9765 36.2413C18.9818 35.3562 19.5189 34.5413 20.3383 34.1992C20.6062 34.0873 20.8955 34.0297 21.1858 34.0297C22.404 34.0297 23.3951 35.0208 23.3951 36.239C23.3951 37.4573 22.404 38.4483 21.1858 38.4483ZM16.5785 31.0099V31.598C16.5785 31.9088 16.3257 32.1616 16.0148 32.1616H14.8632V30.4463H16.0148C16.3257 30.4463 16.5785 30.6992 16.5785 31.0099ZM26.918 21.7611C26.942 21.7611 26.9615 21.7807 26.9615 21.8046V24.9422C26.9615 24.9662 26.942 24.9857 26.918 24.9857H20.7005L22.7761 21.7611H26.918V21.7611ZM39.8228 38.4483C38.6056 38.4483 37.615 37.4586 37.6136 36.2417C37.6136 36.2409 37.6137 36.2401 37.6137 36.2394C37.6137 35.3636 38.1256 34.6052 38.8659 34.2479C39.1555 34.1081 39.4802 34.0297 39.8228 34.0297C41.041 34.0297 42.0321 35.0208 42.0321 36.239C42.0321 37.4572 41.041 38.4483 39.8228 38.4483ZM40.7059 24.9385V21.5744C40.7059 21.5504 40.7255 21.531 40.7494 21.531H41.7023L43.7935 24.9821H40.7494C40.7254 24.982 40.7059 24.9624 40.7059 24.9385Z" fill="white"/>
<path d="M37.823 24.9388V21.8012C37.823 21.0815 37.2376 20.4961 36.518 20.4961H31.18C30.4604 20.4961 29.875 21.0815 29.875 21.8012V24.9388C29.875 25.6584 30.4604 26.2438 31.18 26.2438H36.518C37.2376 26.2439 37.823 25.6584 37.823 24.9388ZM31.1365 24.9388V21.8012C31.1365 21.7772 31.156 21.7577 31.1799 21.7577H36.518C36.5419 21.7577 36.5614 21.7773 36.5614 21.8012V24.9388C36.5614 24.9627 36.5419 24.9822 36.518 24.9822H31.1799C31.156 24.9823 31.1365 24.9627 31.1365 24.9388Z" fill="white"/>
<path d="M25.623 28.6055C25.2746 28.6055 24.9922 28.8879 24.9922 29.2363C24.9922 29.5846 25.2746 29.8671 25.623 29.8671H27.0451C27.3935 29.8671 27.6759 29.5846 27.6759 29.2363C27.6759 28.8879 27.3935 28.6055 27.0451 28.6055H25.623Z" fill="white"/>
<path d="M30.8853 35.9948C30.7817 35.7464 30.5251 35.5872 30.2563 35.6072C29.9825 35.6275 29.7481 35.8299 29.6876 36.0977C29.5631 36.6489 30.2035 37.0746 30.6659 36.7517C30.9046 36.585 30.9973 36.2634 30.8853 35.9948Z" fill="white"/>
</g>
<defs>
<clipPath id="clip0_3234_34025">
<rect width="32.2971" height="32.2971" fill="white" transform="translate(13.5977 12.5859)"/>
</clipPath>
</defs>
</svg>
