<svg width="40" height="40" viewBox="0 0 40 40" fill="none" xmlns="http://www.w3.org/2000/svg">
<rect width="40" height="40" rx="20" fill="white"/>
<path d="M28.25 13.2497C27.5318 13.7563 26.7366 14.1438 25.895 14.3972C25.4433 13.8779 24.843 13.5097 24.1753 13.3427C23.5076 13.1756 22.8046 13.2176 22.1616 13.4631C21.5185 13.7085 20.9663 14.1455 20.5797 14.715C20.1931 15.2845 19.9908 15.959 20 16.6472V17.3972C18.682 17.4314 17.376 17.1391 16.1983 16.5463C15.0206 15.9535 14.0077 15.0787 13.25 13.9997C13.25 13.9997 10.25 20.7497 17 23.7497C15.4554 24.7982 13.6154 25.3239 11.75 25.2497C18.5 28.9997 26.75 25.2497 26.75 16.6247C26.7493 16.4158 26.7292 16.2074 26.69 16.0022C27.4555 15.2473 27.9956 14.2943 28.25 13.2497V13.2497Z" stroke="#33357D" stroke-linecap="round" stroke-linejoin="round"/>
</svg>
