<svg width="60" height="59" viewBox="0 0 60 59" fill="none" xmlns="http://www.w3.org/2000/svg">
<rect x="0.773438" y="0.246094" width="58.6447" height="58.6447" rx="6.79938" fill="#33357D"/>
<g clip-path="url(#clip0_3697_35668)">
<path d="M35.4688 36.4062C35.1992 36.4062 34.9805 36.625 34.9805 36.8945C34.9805 37.1641 35.1992 37.3828 35.4688 37.3828C35.7383 37.3828 35.957 37.1641 35.957 36.8945C35.957 36.625 35.7383 36.4062 35.4688 36.4062Z" fill="white"/>
<path d="M36.671 34.8273L34.3502 34.0539L33.517 32.3875C34.2676 31.6235 34.7888 30.6127 34.9645 29.5583L35.0684 28.9355H35.957C36.7647 28.9355 37.4219 28.2784 37.4219 27.4707V24.3945C37.4219 20.356 34.1362 17.0703 30.0977 17.0703C26.0487 17.0703 22.7734 20.3465 22.7734 24.3945V27.4707C22.7734 28.1072 23.1817 28.65 23.75 28.8516V29.4238C23.75 30.2315 24.4071 30.8887 25.2148 30.8887H25.6437C25.8553 31.3485 26.1293 31.7744 26.4627 32.1569C26.5318 32.2364 26.604 32.3135 26.6778 32.3884L25.8451 34.0539L23.5243 34.8273C20.8258 35.7271 18.8672 38.5679 18.8672 41.582C18.8672 41.8517 19.0858 42.0703 19.3555 42.0703H40.8398C41.1095 42.0703 41.3281 41.8517 41.3281 41.582C41.3281 38.5679 39.3696 35.7271 36.671 34.8273ZM36.4453 27.4707C36.4453 27.7399 36.2263 27.959 35.957 27.959H35.2118C35.3359 26.9976 35.4187 25.9745 35.4519 24.9668C35.4529 24.9384 35.4537 24.9107 35.4545 24.8828H36.4453V27.4707ZM24.2383 27.959C23.969 27.959 23.75 27.7399 23.75 27.4707V24.8828H24.7411C24.7427 24.9337 24.7444 24.9849 24.7463 25.0364C24.7464 25.0382 24.7465 25.0399 24.7465 25.0417C24.7465 25.0418 24.7465 25.0419 24.7465 25.0421C24.7807 26.0222 24.8624 27.0187 24.9836 27.9589H24.2383V27.959ZM25.2148 29.9121C24.9456 29.9121 24.7266 29.6931 24.7266 29.4238V28.9355H25.1269L25.2308 29.5585C25.2506 29.677 25.275 29.7949 25.3031 29.9121H25.2148ZM24.7274 23.9062H23.7686C24.0159 20.6337 26.7469 18.0469 30.0977 18.0469C33.4335 18.0469 36.1766 20.6334 36.4267 23.9062H35.468C35.4328 21.2096 33.2369 19.0234 30.5347 19.0234H29.6607C26.9586 19.0234 24.7625 21.2096 24.7274 23.9062ZM29.6606 20H30.5347C32.7226 20 34.4935 21.7896 34.4922 23.9751C34.4922 24.1288 34.491 24.2625 34.4884 24.3843C34.4884 24.3858 34.4883 24.3875 34.4883 24.3891L33.8776 24.3018C32.2184 24.0649 30.6518 23.2816 29.4664 22.0961C29.3748 22.0046 29.2506 21.9531 29.1211 21.9531C27.8098 21.9531 26.5545 22.5506 25.7247 23.56C25.9292 21.5717 27.61 20 29.6606 20ZM26.3154 29.9121C26.071 29.099 25.7913 26.7064 25.7295 25.1732L26.3867 24.2969C26.9902 23.4924 27.9292 22.9926 28.9281 22.9352C30.2424 24.186 31.9427 25.012 33.7395 25.2685L34.4583 25.3712C34.4103 26.391 34.3121 27.4144 34.1714 28.3555C34.1714 28.3558 34.1713 28.3562 34.1713 28.3565C34.1266 28.6591 34.0913 28.8538 34.0013 29.3977C33.7427 30.9487 32.5854 32.3513 31.0576 32.7333C30.4288 32.8903 29.7664 32.8902 29.138 32.7333C28.184 32.4948 27.3093 31.8348 26.7448 30.8887H27.7402C27.9418 31.457 28.4845 31.8652 29.1211 31.8652H30.0977C30.907 31.8652 31.5625 31.2098 31.5625 30.4004C31.5625 29.5927 30.9054 28.9355 30.0977 28.9355H29.1211C28.4704 28.9355 27.9356 29.3559 27.7394 29.9121H26.3154ZM29.08 33.7215C29.4149 33.792 29.7564 33.8281 30.0977 33.8281C30.3648 33.8281 30.632 33.8058 30.8961 33.7624L30.0333 34.6749L29.08 33.7215ZM29.3621 35.3847L27.8133 37.0225C27.387 36.2064 27.0206 35.357 26.7201 34.4875L27.3017 33.3243L29.3621 35.3847ZM32.8108 33.1589L33.4751 34.4875C33.1741 35.3584 32.8077 36.2081 32.3817 37.0232L30.7241 35.3656L32.8108 33.1589ZM28.6328 30.4004C28.6328 30.1308 28.8515 29.9121 29.1211 29.9121H30.0977C30.3669 29.9121 30.5859 30.1312 30.5859 30.4004C30.5859 30.67 30.3672 30.8887 30.0977 30.8887H29.1211C28.8519 30.8887 28.6328 30.6696 28.6328 30.4004ZM19.8633 41.0938C20.0568 38.6749 21.6666 36.4762 23.8331 35.7538L25.8885 35.0688C26.265 36.1101 26.7315 37.1221 27.2783 38.0834C27.2792 38.0851 27.2801 38.0868 27.281 38.0884C27.281 38.0884 27.2811 38.0884 27.2811 38.0885C27.6805 38.7911 28.1301 39.4776 28.6176 40.1294L29.2183 41.0938H19.8633ZM30.0977 40.6585L29.4354 39.5954C29.428 39.5834 29.4201 39.5719 29.4117 39.5606C29.0163 39.0332 28.6475 38.4816 28.3115 37.917L30.0529 36.0755L31.8877 37.9104C31.5496 38.4791 31.1794 39.033 30.7837 39.5605C30.7598 39.5924 30.7937 39.5422 30.0977 40.6585ZM30.9771 41.0938L31.5777 40.1295C32.0673 39.4752 32.5201 38.7831 32.9236 38.0723C32.926 38.068 32.9283 38.0636 32.9308 38.0593C32.9311 38.0587 32.9313 38.0583 32.9316 38.0577C33.4714 37.1056 33.9331 36.1023 34.3068 35.0688L36.3622 35.7538C38.5287 36.4762 40.1385 38.6749 40.332 41.0938H30.9771Z" fill="white"/>
<path d="M38.8636 39.1193C38.5373 38.4661 38.0593 37.8858 37.4813 37.4412C37.2676 37.2767 36.961 37.3167 36.7966 37.5304C36.6322 37.7442 36.6722 38.0508 36.8859 38.2152C37.3475 38.5703 37.7292 39.0339 37.9899 39.5557C38.1107 39.7973 38.4041 39.8946 38.645 39.7743C38.8862 39.6538 38.9841 39.3605 38.8636 39.1193Z" fill="white"/>
</g>
<defs>
<clipPath id="clip0_3697_35668">
<rect width="25" height="25" fill="white" transform="translate(17.5977 17.0703)"/>
</clipPath>
</defs>
</svg>
